<?xml version="1.0" encoding="UTF-8"?>
<svg id="Capa_1" data-name="Capa 1" xmlns="http://www.w3.org/2000/svg" viewBox="0 0 2221.86 1571.27">
  <defs>
    <style>
      .cls-1 {
        fill: #f7a47b;
      }

      .cls-2 {
        fill: #f7a888;
      }

      .cls-3 {
        fill: #f8a490;
      }

      .cls-4 {
        fill: #f8a283;
      }

      .cls-5 {
        fill: #f8ac9e;
      }

      .cls-6 {
        fill: #fac3bb;
      }

      .cls-7 {
        fill: #f9b9a1;
      }

      .cls-8 {
        fill: #f69281;
      }

      .cls-9 {
        fill: #f69863;
      }

      .cls-10 {
        fill: #fbd3bd;
      }

      .cls-11 {
        fill: #fbbc9e;
      }

      .cls-12 {
        fill: #e8a279;
      }

      .cls-13 {
        fill: #f38561;
      }

      .cls-14 {
        fill: #fccfbf;
      }

      .cls-15 {
        fill: #e4654d;
      }

      .cls-16 {
        fill: #fbc4b0;
      }

      .cls-17 {
        fill: #e67e47;
      }

      .cls-18 {
        fill: #985347;
      }

      .cls-19 {
        fill: #a15e3e;
      }

      .cls-20 {
        fill: #b77a5d;
      }

      .cls-21 {
        fill: #8f5336;
      }

      .cls-22 {
        fill: #a76552;
      }

      .cls-23 {
        fill: #cc906c;
      }

      .cls-24 {
        fill: #d08970;
      }

      .cls-25 {
        fill: #d17d6e;
      }

      .cls-26 {
        fill: #d05c46;
      }

      .cls-27 {
        fill: #c56c3c;
      }

      .cls-28 {
        fill: #c47760;
      }

      .cls-29 {
        fill: #cb966d;
      }

      .cls-30 {
        fill: #ae5f52;
      }

      .cls-31 {
        fill: #c97e64;
      }

      .cls-32 {
        fill: #e09975;
      }

      .cls-33 {
        fill: #24181b;
      }

      .cls-34 {
        fill: #403235;
      }

      .cls-35 {
        fill: #453335;
      }

      .cls-36 {
        fill: #4b3c3f;
      }

      .cls-37 {
        fill: #322629;
      }

      .cls-38 {
        fill: #58474b;
      }

      .cls-39 {
        fill: #593e3e;
      }

      .cls-40 {
        fill: #5f4d51;
      }
    </style>
  </defs>
  <path class="cls-37" d="m1965.87,467.28c20.89,18.52,26.74,37.91,40.56,63.63,7.86,14.64,15.14,30.41,27.42,40.35,25.06,20.29,27.01,44.46,26.57,54.9-.28,6.8-1.25,842.46-1.67,945.11h98.05c.08-99.24-.68-921.28-.79-925.77-.38-15.95-2.73-33.01-.61-48.87.86-6.45,3.12-12.5,5.03-18.63,5.37-17.23,6.81-35.09,11.48-52.44,4.49-16.73,4.43-31.49,10.07-47.8,12.54-36.23,26.67-59.54,38.24-91.62,2.05-5.69,3.04-13.75-2.26-16.33-5.21-2.54-10.48,3.17-13.64,8.16-16.09,25.46-26.51,48.85-45.27,72.06-.35.42-.85.75-1.38.78-1.38.08-1.74-1.95-1.55-3.37,1.09-8.18,3.89-16,6.66-23.73,10.58-29.46,16.2-58.16,24.04-88.53,7.4-28.7-9.54-26.53-13.77-22.08-4.23,4.46-6.3,10.59-8.26,16.5-5.62,17.01-12.34,32.96-18.84,49.31-7.21,18.1-14.91,38.4-23.35,51.79,1.65-39.49,7.79-80.42,10.26-119.94.34-5.38.62-11.03-1.64-15.87-2.27-4.84-8.04-8.36-12.75-6.09-3.31,1.6-5.46,5.23-6.36,8.91-9.21,37.22-21.73,131.89-28.31,135.52-2.79-5.56-1.95-15.38-2.37-21.77-.58-8.68-1.03-17.36-1.36-26.05-.93-25.57,1.63-51.82-1.68-77.21-.45-3.66-1.23-7.68-4.06-9.91-5.22-4.11-12.75,1.02-15.87,7-4.01,7.7-4.73,16.73-5.38,25.46-2.29,31.2-4.59,62.41-6.88,93.61-1.07,14.48-.25,30.88-3.49,45.01-1.18,5.17-11.12,26.71-7.03,30.35-10.94-9.72-10.48-20.96-34.14-42.04-9.6-8.55-27.02-12.61-38.13-7.07-1.04.52-2.08,1.13-2.84,2.09-3.46,4.41,1.16,10.94,5.28,14.59Z"/>
  <path class="cls-35" d="m2127.51,312.43l.06-.11c.68-1.31.98-2.78,1.19-4.24.64-4.62.81-11.86-3.86-14.68-1.17-.7-2.54-1.17-3.91-.95-2.67.44-4.27,3.16-5.24,5.43-.8,1.86-1.24,3.8-1.77,5.74-.6,2.21-.76,4.58-.03,6.8.72,2.18,2.38,4.12,4.56,4.84,1.05.35,2.18.41,3.29.39.89,0,1.79-.07,2.62-.37,1.34-.49,2.4-1.59,3.08-2.85Z"/>
  <path class="cls-39" d="m2126.34,314.02c-.55.55-1.18,1-1.91,1.27-.84.3-1.74.36-2.62.37-1.11.02-2.24-.05-3.29-.39-1.3-.43-2.4-1.29-3.24-2.37,3.61-1.39,7.82-1.08,11.06,1.13Z"/>
  <path class="cls-35" d="m2073.99,322.26l.06-.11c.68-1.31.98-2.78,1.19-4.24.65-4.62.82-11.86-3.86-14.68-1.17-.7-2.54-1.18-3.91-.95-2.67.45-4.27,3.16-5.24,5.43-.8,1.86-1.25,3.8-1.77,5.74-.6,2.22-.76,4.59-.02,6.8.71,2.19,2.37,4.12,4.56,4.84,1.05.35,2.18.41,3.29.4.89-.01,1.79-.07,2.62-.37,1.34-.49,2.4-1.59,3.08-2.85Z"/>
  <path class="cls-39" d="m2072.82,323.85c-.54.55-1.18,1-1.91,1.27-.83.3-1.73.36-2.62.37-1.11.01-2.24-.05-3.29-.4-1.29-.43-2.4-1.29-3.24-2.37,3.61-1.38,7.82-1.07,11.06,1.13Z"/>
  <path class="cls-35" d="m1980.27,482.05c.86-5.26,4.14-10.05,9.02-12.37.21.77.31,1.55.27,2.34.09-1.69-.45-3.39-1.34-4.84l-.09-.16c-1.09-1.71-2.62-3.1-4.22-4.35-5.05-3.98-13.55-9.2-20.13-5.59-1.38.75-2.62,1.79-3.41,3.15,1.24,2.65,3.43,5.21,5.5,7.04,5.47,4.86,9.91,9.77,13.73,14.84.67-.05,1.33-.16,1.97-.32l-1.3.25Z"/>
  <path class="cls-39" d="m1980.27,482.05l1.3-.25.18-.05,1.05-.36.28-.11.9-.47.29-.16,1.06-.79c.86-.76,1.55-1.68,2.17-2.65l.59-.99.43-.81.48-1.07c.2-.48.36-.98.45-1.5l.09-.79v-.02c.04-.79-.07-1.57-.27-2.34-4.88,2.32-8.16,7.11-9.02,12.37Z"/>
  <path class="cls-35" d="m2182.11,334.03l.08-.09c.89-1.01,1.45-2.24,1.9-3.48,1.44-3.94,2.86-10.27-1.21-13.74-1.02-.86-2.27-1.57-3.66-1.66-2.68-.17-4.72,1.88-6.07,3.67-1.1,1.46-1.88,3.08-2.73,4.68-.97,1.83-1.54,3.88-1.22,5.98.33,2.08,1.61,4.13,3.61,5.23.97.53,2.07.82,3.15,1.04.87.18,1.75.32,2.62.23,1.4-.15,2.63-.89,3.51-1.86Z"/>
  <path class="cls-39" d="m2180.69,335.18c-.63.37-1.33.63-2.09.71-.87.09-1.76-.05-2.62-.23-1.09-.22-2.18-.51-3.15-1.04-1.19-.65-2.12-1.64-2.75-2.77,3.78-.46,7.83.7,10.61,3.33Z"/>
  <path class="cls-35" d="m2216.14,386.9l.07-.06c.69-.69,1.15-1.55,1.54-2.44,1.23-2.79,2.55-7.31-.25-10.01-.7-.68-1.57-1.24-2.57-1.38-1.94-.25-3.51,1.15-4.57,2.38-.86,1.02-1.5,2.15-2.2,3.27-.79,1.28-1.29,2.74-1.15,4.28.14,1.52.97,3.07,2.38,3.95.68.43,1.45.69,2.23.9.62.17,1.26.31,1.89.29,1.02-.04,1.95-.52,2.63-1.18Z"/>
  <path class="cls-39" d="m2215.06,387.66c-.47.24-.99.4-1.54.42-.63.03-1.27-.11-1.89-.29-.78-.21-1.55-.47-2.23-.9-.84-.52-1.46-1.29-1.86-2.13,2.75-.16,5.64.87,7.53,2.9Z"/>
  <path class="cls-33" d="m2122.45,598.66c-5.34-4.48-13.03-4.35-20-4.09-11.02.42-22.25.56-32.87-2.47-5.09-1.46-9.95-3.62-14.63-6.09-5.42-2.86-10.61-6.16-15.54-9.81,18.14,17.55,21.01,36.86,21.05,47.34,1.22-2.1,2.54-4.14,3.95-6.12,2.81-3.95,6.06-7.73,10.21-10.23,3.75-2.27,8.07-3.41,12.31-4.52,11.62-3.04,23.69-6.1,35.52-4Z"/>
  <path class="cls-36" d="m252.28,286.35c5.64,16.31,5.59,31.07,10.08,47.8,4.66,17.36,6.11,35.21,11.47,52.44,1.91,6.13,4.18,12.19,5.04,18.63,2.11,15.86-.23,32.92-.62,48.87-.11,4.49-.87,935.69-.79,1117.18h98.04c-.44-185-1.37-1129.85-1.65-1136.52-.43-10.44,1.51-34.61,26.57-54.9,12.28-9.95,19.56-25.71,27.43-40.35,13.82-25.72,19.66-45.11,40.55-63.63,4.12-3.65,8.75-10.18,5.28-14.59-.76-.96-1.8-1.57-2.84-2.09-11.12-5.54-28.54-1.49-38.14,7.07-23.66,21.08-23.2,32.32-34.14,42.05,4.1-3.64-5.84-25.18-7.02-30.35-3.24-14.12-2.43-30.53-3.49-45.01-2.3-31.21-4.59-62.41-6.88-93.61-.64-8.73-1.37-17.76-5.37-25.46-3.11-5.98-10.66-11.11-15.87-7-2.83,2.23-3.61,6.25-4.06,9.91-3.3,25.39-.74,51.63-1.68,77.2-.32,8.7-.77,17.38-1.35,26.06-.43,6.39.42,16.21-2.37,21.77-6.59-3.62-19.11-98.29-28.31-135.52-.91-3.67-3.05-7.3-6.37-8.91-4.7-2.27-10.48,1.25-12.75,6.09-2.27,4.84-1.98,10.5-1.64,15.87,2.48,39.53,8.61,80.45,10.27,119.94-8.45-13.39-16.14-33.69-23.35-51.79-6.51-16.35-13.23-32.3-18.84-49.31-1.96-5.91-4.04-12.04-8.26-16.5-4.23-4.46-21.17-6.62-13.77,22.07,7.84,30.37,13.46,59.06,24.03,88.52,2.78,7.74,5.58,15.56,6.67,23.73.19,1.42-.18,3.45-1.55,3.37-.53-.03-1.03-.36-1.37-.78-18.77-23.21-29.18-46.6-45.27-72.06-3.16-5-8.43-10.7-13.64-8.17-5.3,2.58-4.3,10.64-2.25,16.33,11.57,32.09,25.7,55.4,38.24,91.63Z"/>
  <path class="cls-38" d="m306.74,121.03l-.06-.11c-.68-1.31-.98-2.79-1.19-4.24-.65-4.62-.81-11.86,3.86-14.68,1.16-.7,2.54-1.18,3.91-.95,2.67.44,4.27,3.16,5.24,5.43.8,1.86,1.25,3.8,1.77,5.73.6,2.21.76,4.58.03,6.8-.72,2.18-2.38,4.12-4.56,4.84-1.05.35-2.18.41-3.29.4-.89-.01-1.79-.07-2.62-.38-1.35-.48-2.4-1.58-3.08-2.85Z"/>
  <path class="cls-40" d="m307.91,122.62c.55.55,1.18,1,1.91,1.26.83.3,1.73.36,2.62.38,1.11.01,2.24-.05,3.29-.4,1.3-.43,2.4-1.29,3.24-2.37-3.61-1.39-7.82-1.08-11.06,1.13Z"/>
  <path class="cls-38" d="m360.25,130.86l-.06-.12c-.68-1.31-.98-2.78-1.18-4.24-.65-4.62-.82-11.86,3.86-14.68,1.16-.7,2.54-1.18,3.91-.95,2.67.44,4.27,3.16,5.24,5.43.8,1.86,1.25,3.8,1.77,5.74.6,2.21.76,4.59.03,6.8-.72,2.19-2.37,4.12-4.56,4.85-1.06.35-2.18.41-3.3.39-.89,0-1.79-.07-2.62-.37-1.35-.48-2.41-1.59-3.09-2.85Z"/>
  <path class="cls-40" d="m361.43,132.44c.55.55,1.18,1,1.91,1.26.83.3,1.73.36,2.62.37,1.11.02,2.24-.04,3.3-.39,1.29-.43,2.39-1.29,3.24-2.38-3.62-1.39-7.82-1.08-11.07,1.13Z"/>
  <path class="cls-38" d="m453.97,290.65c-.85-5.26-4.14-10.05-9.02-12.38-.21.77-.31,1.56-.28,2.34-.09-1.68.46-3.39,1.34-4.84l.1-.16c1.09-1.71,2.62-3.09,4.22-4.35,5.05-3.98,13.54-9.2,20.13-5.58,1.37.75,2.62,1.8,3.4,3.15-1.23,2.65-3.43,5.21-5.5,7.04-5.47,4.86-9.91,9.77-13.73,14.84-.67-.05-1.33-.16-1.98-.33l1.3.26Z"/>
  <path class="cls-40" d="m453.97,290.65l-1.3-.26-.19-.05-1.05-.36-.28-.12-.91-.46-.29-.16-1.05-.79c-.86-.76-1.56-1.68-2.17-2.66l-.59-.99-.44-.81-.48-1.06c-.2-.49-.36-.99-.46-1.51l-.09-.79v-.02c-.04-.78.07-1.57.28-2.34,4.87,2.32,8.16,7.12,9.02,12.38Z"/>
  <path class="cls-38" d="m252.13,142.63l-.08-.09c-.89-1.01-1.45-2.24-1.9-3.48-1.45-3.94-2.87-10.27,1.21-13.74,1.02-.87,2.27-1.57,3.66-1.66,2.68-.18,4.71,1.88,6.07,3.67,1.1,1.47,1.87,3.08,2.73,4.68.97,1.82,1.54,3.88,1.21,5.98-.32,2.07-1.6,4.13-3.6,5.23-.97.53-2.07.82-3.15,1.05-.87.18-1.76.32-2.62.22-1.4-.14-2.63-.89-3.51-1.86Z"/>
  <path class="cls-40" d="m253.56,143.77c.63.37,1.33.63,2.09.71.86.09,1.75-.05,2.62-.22,1.09-.23,2.18-.52,3.15-1.05,1.19-.65,2.11-1.64,2.74-2.77-3.77-.46-7.82.7-10.61,3.33Z"/>
  <path class="cls-38" d="m218.1,195.49l-.06-.06c-.69-.69-1.15-1.56-1.54-2.44-1.23-2.79-2.55-7.32.24-10.02.7-.68,1.57-1.24,2.57-1.37,1.94-.25,3.51,1.14,4.57,2.38.87,1.01,1.5,2.15,2.19,3.27.79,1.28,1.3,2.74,1.16,4.28-.13,1.52-.96,3.07-2.37,3.96-.68.43-1.45.69-2.23.9-.62.17-1.26.31-1.9.29-1.02-.04-1.94-.52-2.63-1.18Z"/>
  <path class="cls-40" d="m219.18,196.26c.47.24,1,.4,1.54.42.64.03,1.27-.11,1.9-.29.78-.21,1.55-.47,2.23-.9.84-.53,1.46-1.29,1.87-2.14-2.76-.16-5.64.87-7.54,2.9Z"/>
  <path class="cls-34" d="m311.8,407.26c5.34-4.48,13.03-4.35,20-4.09,11.03.41,22.26.55,32.87-2.48,5.09-1.45,9.95-3.62,14.63-6.09,5.42-2.86,10.61-6.16,15.54-9.82-18.14,17.55-21.02,36.86-21.05,47.34-1.22-2.1-2.54-4.14-3.94-6.12-2.82-3.95-6.06-7.73-10.21-10.24-3.75-2.27-8.06-3.41-12.31-4.52-11.62-3.04-23.69-6.1-35.52-4Z"/>
  <path class="cls-19" d="m1491.16,179.18c20.89,18.52,26.74,37.91,40.55,63.63,7.86,14.64,15.14,30.41,27.42,40.35,25.06,20.29,27.01,44.46,26.57,54.9-.33,7.95-1.6,1057.89-1.83,1233.21h98.07c.54-176.5-.52-1208.51-.64-1213.87-.39-15.95-2.73-33-.62-48.87.86-6.44,3.12-12.5,5.03-18.63,5.37-17.23,6.81-35.09,11.48-52.44,4.49-16.73,4.43-31.49,10.07-47.8,12.54-36.23,26.67-59.54,38.24-91.63,2.05-5.69,3.05-13.75-2.25-16.33-5.21-2.54-10.49,3.17-13.64,8.16-16.09,25.46-26.51,48.85-45.27,72.06-.34.42-.84.75-1.38.78-1.38.08-1.74-1.95-1.55-3.37,1.09-8.18,3.89-16,6.67-23.74,10.57-29.46,16.2-58.15,24.03-88.52,7.4-28.69-9.54-26.54-13.77-22.07-4.22,4.46-6.3,10.59-8.25,16.5-5.62,17.02-12.33,32.96-18.85,49.32-7.21,18.1-14.9,38.4-23.35,51.79,1.66-39.49,7.79-80.42,10.27-119.95.34-5.37.62-11.03-1.65-15.86-2.27-4.84-8.04-8.36-12.75-6.09-3.31,1.6-5.46,5.23-6.37,8.91-9.2,37.22-21.71,131.89-28.3,135.52-2.79-5.56-1.95-15.39-2.37-21.77-.58-8.68-1.03-17.37-1.35-26.06-.93-25.57,1.63-51.82-1.68-77.21-.45-3.66-1.23-7.68-4.06-9.91-5.22-4.11-12.75,1.02-15.87,7-4.01,7.7-4.73,16.73-5.38,25.46-2.29,31.21-4.59,62.41-6.88,93.61-1.06,14.48-.25,30.89-3.49,45.01-1.18,5.17-11.13,26.71-7.02,30.35-10.95-9.72-10.48-20.96-34.15-42.05-9.6-8.55-27.02-12.61-38.13-7.07-1.04.52-2.08,1.13-2.84,2.09-3.47,4.41,1.16,10.94,5.28,14.59Z"/>
  <path class="cls-20" d="m1652.8,24.34l.06-.12c.68-1.31.98-2.78,1.19-4.24.65-4.63.81-11.86-3.86-14.68-1.17-.7-2.54-1.18-3.91-.95-2.67.44-4.27,3.16-5.24,5.43-.79,1.86-1.24,3.8-1.76,5.74-.6,2.21-.76,4.58-.03,6.8.72,2.19,2.38,4.12,4.57,4.84,1.05.35,2.18.41,3.29.39.89,0,1.79-.07,2.62-.37,1.35-.48,2.41-1.59,3.09-2.85Z"/>
  <path class="cls-29" d="m1651.63,25.92c-.55.55-1.19,1-1.91,1.26-.83.3-1.73.36-2.62.37-1.11.01-2.24-.05-3.29-.39-1.3-.43-2.4-1.29-3.24-2.37,3.61-1.39,7.82-1.08,11.07,1.13Z"/>
  <path class="cls-20" d="m1599.28,34.16l.06-.12c.68-1.31.98-2.78,1.19-4.24.65-4.62.82-11.86-3.86-14.68-1.17-.7-2.54-1.17-3.91-.95-2.67.45-4.27,3.16-5.24,5.43-.79,1.86-1.25,3.8-1.77,5.73-.6,2.22-.76,4.59-.04,6.8.72,2.19,2.38,4.12,4.57,4.85,1.05.35,2.18.41,3.29.39.89,0,1.79-.06,2.62-.37,1.34-.49,2.4-1.59,3.08-2.85Z"/>
  <path class="cls-29" d="m1598.11,35.75c-.54.55-1.18,1-1.91,1.27-.83.3-1.73.36-2.62.37-1.11.02-2.24-.04-3.29-.39-1.29-.43-2.4-1.29-3.24-2.38,3.61-1.38,7.82-1.07,11.06,1.13Z"/>
  <path class="cls-20" d="m1505.56,193.96c.86-5.26,4.15-10.05,9.02-12.38.21.77.31,1.55.27,2.34.09-1.69-.45-3.39-1.34-4.84l-.09-.16c-1.09-1.71-2.62-3.1-4.22-4.36-5.05-3.98-13.55-9.19-20.14-5.58-1.37.75-2.62,1.8-3.4,3.15,1.24,2.65,3.43,5.21,5.5,7.04,5.47,4.85,9.91,9.77,13.73,14.84.67-.05,1.33-.16,1.97-.32l-1.3.26Z"/>
  <path class="cls-29" d="m1505.56,193.96l1.3-.26.19-.05,1.05-.36.28-.12.9-.46.29-.17,1.06-.79c.86-.76,1.55-1.68,2.17-2.66l.59-.99.44-.8.48-1.06c.2-.49.36-.99.45-1.51l.09-.79v-.02c.04-.79-.07-1.57-.27-2.34-4.87,2.32-8.16,7.11-9.02,12.38Z"/>
  <path class="cls-20" d="m1707.4,45.93l.08-.09c.89-1.01,1.45-2.24,1.9-3.48,1.44-3.94,2.86-10.27-1.21-13.74-1.02-.87-2.27-1.57-3.66-1.66-2.69-.17-4.72,1.88-6.07,3.67-1.1,1.46-1.88,3.08-2.73,4.68-.97,1.83-1.54,3.88-1.21,5.98.32,2.08,1.6,4.13,3.61,5.23.97.53,2.07.82,3.15,1.04.87.18,1.76.32,2.62.23,1.39-.14,2.62-.89,3.51-1.86Z"/>
  <path class="cls-29" d="m1705.98,47.08c-.62.37-1.33.63-2.08.71-.86.09-1.75-.05-2.62-.23-1.09-.23-2.18-.52-3.15-1.05-1.19-.65-2.12-1.64-2.75-2.77,3.78-.46,7.83.7,10.61,3.34Z"/>
  <path class="cls-20" d="m1741.43,98.8l.07-.06c.69-.7,1.15-1.56,1.54-2.44,1.23-2.79,2.55-7.31-.25-10.01-.7-.68-1.57-1.25-2.57-1.38-1.93-.25-3.5,1.15-4.57,2.38-.87,1.02-1.5,2.15-2.2,3.27-.79,1.28-1.29,2.74-1.16,4.29.14,1.52.97,3.07,2.38,3.95.68.43,1.46.69,2.24.9.62.17,1.26.31,1.89.29,1.02-.04,1.95-.52,2.63-1.18Z"/>
  <path class="cls-29" d="m1740.35,99.57c-.46.24-.99.4-1.54.42-.63.03-1.27-.11-1.89-.29-.78-.21-1.56-.47-2.24-.9-.83-.52-1.46-1.29-1.86-2.13,2.75-.16,5.64.87,7.54,2.9Z"/>
  <path class="cls-21" d="m1647.74,310.56c-5.34-4.48-13.03-4.35-20-4.09-11.03.41-22.26.56-32.87-2.48-5.09-1.46-9.95-3.62-14.63-6.09-5.42-2.86-10.61-6.16-15.54-9.81,18.14,17.55,21.01,36.86,21.05,47.34,1.22-2.1,2.54-4.14,3.95-6.12,2.81-3.96,6.06-7.73,10.21-10.24,3.75-2.27,8.06-3.41,12.3-4.52,11.62-3.04,23.69-6.1,35.52-4Z"/>
  <path class="cls-30" d="m665.37,272.55c5.65,16.31,5.58,31.07,10.08,47.8,4.66,17.36,6.11,35.21,11.47,52.44,1.91,6.13,4.17,12.19,5.03,18.63,2.12,15.86-.23,32.91-.61,48.87-.11,4.61-.91,948.1-.79,1130.98h98.05c-.42-185.92-1.4-1143.48-1.68-1150.32-.44-10.44,1.51-34.61,26.57-54.9,12.28-9.94,19.56-25.71,27.42-40.35,13.81-25.72,19.66-45.11,40.55-63.63,4.12-3.65,8.75-10.18,5.28-14.59-.76-.96-1.8-1.57-2.84-2.09-11.11-5.54-28.53-1.49-38.13,7.06-23.67,21.09-23.21,32.32-34.15,42.05,4.1-3.64-5.84-25.18-7.02-30.34-3.24-14.12-2.43-30.53-3.49-45.01-2.3-31.2-4.59-62.41-6.88-93.61-.64-8.73-1.36-17.75-5.37-25.46-3.11-5.98-10.65-11.11-15.86-7-2.83,2.23-3.61,6.25-4.06,9.91-3.3,25.39-.74,51.63-1.68,77.21-.32,8.69-.77,17.38-1.35,26.06-.43,6.38.42,16.21-2.37,21.77-6.58-3.63-19.1-98.29-28.3-135.52-.91-3.67-3.06-7.3-6.37-8.91-4.7-2.27-10.48,1.25-12.75,6.09-2.27,4.84-1.98,10.49-1.64,15.87,2.48,39.53,8.61,80.45,10.27,119.94-8.45-13.39-16.14-33.69-23.35-51.79-6.52-16.36-13.23-32.3-18.85-49.31-1.95-5.92-4.03-12.05-8.26-16.5-4.23-4.46-21.17-6.62-13.77,22.07,7.84,30.38,13.46,59.06,24.04,88.53,2.78,7.74,5.57,15.55,6.67,23.74.19,1.41-.18,3.45-1.55,3.36-.53-.03-1.03-.36-1.38-.77-18.76-23.21-29.18-46.61-45.27-72.06-3.15-4.99-8.43-10.7-13.64-8.16-5.3,2.58-4.3,10.64-2.25,16.33,11.56,32.09,25.7,55.4,38.23,91.63Z"/>
  <path class="cls-31" d="m719.83,107.23l-.06-.12c-.67-1.31-.98-2.78-1.18-4.24-.65-4.63-.82-11.86,3.86-14.68,1.16-.7,2.54-1.18,3.91-.95,2.67.44,4.27,3.16,5.24,5.43.79,1.86,1.24,3.8,1.77,5.74.6,2.21.76,4.58.03,6.8-.72,2.18-2.37,4.12-4.56,4.84-1.05.35-2.18.41-3.3.4-.89-.01-1.79-.07-2.62-.37-1.35-.49-2.41-1.59-3.09-2.85Z"/>
  <path class="cls-32" d="m721,108.82c.55.55,1.18,1,1.91,1.27.83.3,1.73.36,2.62.37,1.11.01,2.24-.05,3.3-.4,1.29-.43,2.4-1.29,3.24-2.37-3.61-1.39-7.82-1.08-11.07,1.13Z"/>
  <path class="cls-31" d="m773.35,117.06l-.06-.12c-.68-1.31-.98-2.78-1.19-4.24-.65-4.62-.81-11.86,3.86-14.67,1.17-.7,2.54-1.18,3.91-.95,2.67.44,4.27,3.16,5.24,5.43.79,1.86,1.24,3.8,1.77,5.73.6,2.22.76,4.59.03,6.8-.72,2.18-2.37,4.12-4.56,4.84-1.05.35-2.19.41-3.29.39-.89-.01-1.79-.07-2.62-.37-1.34-.49-2.4-1.59-3.08-2.85Z"/>
  <path class="cls-32" d="m774.52,118.64c.55.55,1.18,1,1.91,1.26.84.3,1.74.36,2.62.37,1.11.02,2.24-.05,3.29-.39,1.3-.43,2.4-1.29,3.24-2.38-3.62-1.38-7.82-1.07-11.07,1.14Z"/>
  <path class="cls-31" d="m867.07,276.85c-.86-5.26-4.14-10.05-9.02-12.38-.21.77-.31,1.55-.27,2.34-.09-1.68.45-3.39,1.34-4.84l.09-.16c1.09-1.71,2.63-3.09,4.22-4.35,5.05-3.98,13.55-9.19,20.14-5.58,1.37.75,2.62,1.79,3.4,3.15-1.23,2.65-3.43,5.21-5.5,7.04-5.47,4.85-9.91,9.77-13.73,14.84-.67-.05-1.33-.16-1.97-.32l1.3.26Z"/>
  <path class="cls-32" d="m867.07,276.85l-1.3-.26-.19-.05-1.05-.36-.29-.12-.91-.46-.29-.16-1.06-.79c-.86-.76-1.55-1.68-2.17-2.66l-.59-.99-.44-.81-.48-1.06c-.2-.49-.36-.99-.46-1.51l-.09-.79v-.02c-.04-.79.07-1.57.27-2.34,4.88,2.32,8.16,7.11,9.02,12.38Z"/>
  <path class="cls-31" d="m665.23,128.83l-.08-.09c-.89-1.01-1.45-2.24-1.9-3.48-1.45-3.93-2.87-10.27,1.2-13.73,1.02-.87,2.27-1.57,3.66-1.66,2.68-.17,4.72,1.88,6.07,3.67,1.1,1.46,1.88,3.08,2.73,4.68.97,1.82,1.54,3.87,1.22,5.98-.32,2.08-1.6,4.13-3.61,5.23-.96.53-2.06.82-3.15,1.04-.87.18-1.76.32-2.63.23-1.39-.15-2.62-.89-3.5-1.86Z"/>
  <path class="cls-32" d="m666.66,129.97c.62.37,1.32.63,2.08.71.87.09,1.76-.05,2.63-.23,1.09-.22,2.18-.52,3.15-1.04,1.19-.65,2.12-1.64,2.75-2.77-3.77-.46-7.83.7-10.61,3.33Z"/>
  <path class="cls-31" d="m631.2,181.69l-.06-.06c-.69-.69-1.16-1.56-1.54-2.44-1.23-2.78-2.55-7.31.24-10.01.7-.68,1.58-1.24,2.57-1.37,1.94-.25,3.51,1.14,4.57,2.38.87,1.01,1.5,2.15,2.2,3.26.79,1.28,1.3,2.74,1.16,4.29-.14,1.52-.97,3.07-2.37,3.95-.68.43-1.45.69-2.24.9-.62.17-1.26.31-1.89.29-1.02-.04-1.95-.52-2.63-1.19Z"/>
  <path class="cls-32" d="m632.28,182.46c.47.24.99.4,1.54.42.63.02,1.27-.12,1.89-.29.79-.21,1.56-.47,2.24-.9.83-.53,1.46-1.29,1.86-2.13-2.75-.16-5.64.87-7.54,2.9Z"/>
  <path class="cls-18" d="m724.89,393.45c5.34-4.48,13.03-4.35,20-4.09,11.03.41,22.26.56,32.87-2.48,5.09-1.45,9.95-3.62,14.63-6.09,5.43-2.86,10.61-6.16,15.54-9.81-18.14,17.55-21.01,36.86-21.05,47.34-1.22-2.1-2.54-4.14-3.95-6.12-2.81-3.96-6.05-7.73-10.21-10.24-3.75-2.27-8.06-3.41-12.31-4.52-11.62-3.04-23.69-6.1-35.52-4Z"/>
  <path class="cls-15" d="m1257.46,403.28c20.89,18.52,26.74,37.91,40.56,63.63,7.86,14.64,15.14,30.41,27.42,40.35,25.06,20.29,27.01,44.46,26.57,54.91-.35,8.43-1.76,919.34-1.86,1009.11h98.02c.71-92.97-.43-984.2-.57-989.77-.39-15.95-2.73-33-.62-48.87.86-6.44,3.12-12.49,5.03-18.63,5.37-17.23,6.81-35.09,11.47-52.44,4.5-16.74,4.43-31.49,10.08-47.81,12.54-36.23,26.67-59.54,38.23-91.63,2.05-5.69,3.05-13.75-2.25-16.33-5.21-2.53-10.49,3.17-13.64,8.16-16.09,25.46-26.51,48.85-45.27,72.06-.34.43-.84.75-1.38.78-1.38.08-1.75-1.95-1.55-3.36,1.1-8.18,3.89-16,6.67-23.74,10.57-29.46,16.2-58.15,24.03-88.53,7.4-28.69-9.54-26.54-13.76-22.07-4.23,4.46-6.3,10.59-8.26,16.5-5.62,17.01-12.33,32.96-18.84,49.31-7.21,18.1-14.9,38.4-23.35,51.79,1.65-39.49,7.79-80.42,10.27-119.95.33-5.37.62-11.02-1.64-15.86-2.27-4.84-8.05-8.36-12.75-6.09-3.31,1.6-5.46,5.23-6.37,8.91-9.2,37.23-21.72,131.89-28.31,135.52-2.79-5.56-1.94-15.39-2.37-21.77-.58-8.68-1.03-17.36-1.35-26.05-.93-25.57,1.62-51.82-1.68-77.21-.45-3.66-1.23-7.68-4.07-9.91-5.21-4.11-12.75,1.02-15.87,7-4,7.7-4.73,16.73-5.37,25.46-2.29,31.21-4.59,62.41-6.88,93.61-1.07,14.48-.25,30.89-3.48,45.01-1.18,5.16-11.13,26.7-7.03,30.34-10.94-9.72-10.48-20.96-34.14-42.04-9.6-8.56-27.02-12.61-38.13-7.07-1.04.52-2.08,1.12-2.84,2.09-3.46,4.41,1.16,10.94,5.28,14.59Z"/>
  <path class="cls-13" d="m1419.1,248.43l.06-.12c.68-1.31.99-2.78,1.19-4.24.65-4.62.81-11.86-3.86-14.68-1.16-.7-2.54-1.18-3.91-.95-2.67.44-4.26,3.16-5.24,5.43-.79,1.86-1.24,3.8-1.77,5.74-.6,2.21-.76,4.58-.03,6.8.71,2.18,2.38,4.12,4.56,4.84,1.05.35,2.18.41,3.3.39.89,0,1.79-.07,2.62-.37,1.35-.48,2.4-1.59,3.08-2.85Z"/>
  <path class="cls-1" d="m1417.93,250.02c-.54.55-1.18,1-1.91,1.26-.83.3-1.73.36-2.62.37-1.11.02-2.24-.04-3.3-.39-1.3-.43-2.4-1.29-3.24-2.38,3.61-1.39,7.82-1.08,11.06,1.13Z"/>
  <path class="cls-13" d="m1365.59,258.26l.06-.11c.68-1.31.98-2.78,1.19-4.24.65-4.62.81-11.86-3.86-14.67-1.17-.7-2.54-1.18-3.91-.95-2.67.45-4.27,3.16-5.24,5.43-.8,1.86-1.25,3.8-1.77,5.73-.6,2.22-.76,4.59-.03,6.8.72,2.18,2.38,4.12,4.57,4.84,1.05.35,2.18.41,3.29.39.88-.01,1.79-.07,2.62-.37,1.35-.49,2.41-1.59,3.09-2.85Z"/>
  <path class="cls-1" d="m1364.41,259.84c-.55.55-1.19,1-1.91,1.27-.83.3-1.73.36-2.62.37-1.12.02-2.24-.05-3.29-.39-1.3-.43-2.4-1.29-3.24-2.38,3.61-1.38,7.82-1.07,11.06,1.13Z"/>
  <path class="cls-13" d="m1271.87,418.05c.85-5.26,4.14-10.05,9.02-12.38.21.77.31,1.55.27,2.34.09-1.69-.45-3.39-1.34-4.84l-.1-.15c-1.09-1.71-2.62-3.1-4.22-4.36-5.05-3.98-13.54-9.2-20.13-5.59-1.38.75-2.62,1.8-3.4,3.16,1.23,2.65,3.42,5.21,5.49,7.04,5.48,4.85,9.91,9.77,13.73,14.84.68-.05,1.33-.16,1.98-.32l-1.3.26Z"/>
  <path class="cls-1" d="m1271.87,418.05l1.3-.26.18-.05,1.05-.36.29-.11.9-.47.29-.16,1.06-.79c.86-.76,1.55-1.68,2.17-2.66l.59-.99.44-.81.48-1.06c.2-.49.36-.99.46-1.51l.09-.78v-.02c.04-.79-.07-1.57-.27-2.34-4.88,2.32-8.17,7.11-9.02,12.38Z"/>
  <path class="cls-13" d="m1473.71,270.03l.08-.09c.89-1.01,1.45-2.24,1.91-3.48,1.43-3.93,2.86-10.27-1.21-13.73-1.02-.87-2.27-1.57-3.66-1.66-2.69-.17-4.72,1.88-6.07,3.67-1.1,1.46-1.88,3.08-2.73,4.68-.98,1.83-1.54,3.88-1.22,5.98.32,2.08,1.6,4.13,3.61,5.23.97.54,2.06.82,3.15,1.05.86.18,1.75.32,2.62.23,1.39-.14,2.62-.89,3.5-1.86Z"/>
  <path class="cls-1" d="m1472.28,271.17c-.63.37-1.32.63-2.08.71-.87.09-1.76-.05-2.62-.23-1.09-.23-2.18-.51-3.15-1.05-1.2-.65-2.12-1.64-2.75-2.77,3.77-.46,7.82.7,10.61,3.33Z"/>
  <path class="cls-13" d="m1507.74,322.9l.06-.06c.69-.69,1.15-1.56,1.54-2.44,1.23-2.79,2.55-7.32-.24-10.02-.7-.67-1.57-1.24-2.57-1.38-1.94-.25-3.51,1.15-4.57,2.38-.87,1.02-1.5,2.15-2.2,3.27-.79,1.28-1.3,2.74-1.16,4.29.14,1.52.97,3.07,2.38,3.95.68.43,1.46.69,2.24.9.62.17,1.26.31,1.89.29,1.02-.04,1.95-.52,2.63-1.18Z"/>
  <path class="cls-1" d="m1506.66,323.66c-.47.24-.99.4-1.54.42-.63.02-1.27-.12-1.89-.29-.78-.21-1.56-.47-2.24-.9-.83-.53-1.46-1.29-1.86-2.14,2.75-.16,5.64.87,7.54,2.9Z"/>
  <path class="cls-26" d="m1414.04,534.66c-5.34-4.48-13.03-4.35-20-4.09-11.03.41-22.26.56-32.87-2.48-5.09-1.45-9.95-3.62-14.63-6.09-5.42-2.86-10.61-6.16-15.54-9.81,18.14,17.56,21.01,36.86,21.05,47.34,1.22-2.1,2.54-4.14,3.94-6.12,2.82-3.96,6.06-7.73,10.22-10.24,3.75-2.27,8.05-3.41,12.3-4.52,11.63-3.04,23.69-6.1,35.52-4Z"/>
  <path class="cls-28" d="m39.89,466.67c5.64,16.32,5.58,31.07,10.07,47.8,4.66,17.36,6.11,35.21,11.48,52.44,1.91,6.13,4.17,12.2,5.03,18.63,2.12,15.86-.23,32.92-.61,48.87-.11,4.66-.93,836.57-.78,936.86h99.39c.85-97.33-2.38-911.43-1.34-924.95.8-10.42-1.25-20.81-1.68-31.25-.44-10.44,1.51-34.61,26.57-54.9,12.28-9.95,19.56-25.71,27.42-40.35,13.82-25.72,19.66-45.11,40.55-63.63,4.12-3.65,8.75-10.18,5.28-14.59-.76-.96-1.8-1.57-2.84-2.09-11.11-5.54-28.53-1.48-38.13,7.07-23.67,21.08-23.21,32.32-34.15,42.05,4.1-3.64-5.84-25.18-7.03-30.35-3.23-14.12-2.42-30.53-3.48-45.01-2.3-31.21-4.59-62.41-6.88-93.61-.64-8.73-1.36-17.76-5.38-25.46-3.11-5.98-10.65-11.11-15.86-7-2.83,2.23-3.61,6.25-4.06,9.91-3.31,25.39-.75,51.64-1.68,77.21-.32,8.69-.77,17.38-1.35,26.06-.43,6.39.42,16.21-2.37,21.77-6.59-3.62-19.11-98.3-28.31-135.52-.91-3.67-3.05-7.3-6.37-8.9-4.7-2.27-10.48,1.25-12.75,6.09-2.27,4.84-1.98,10.49-1.64,15.86,2.48,39.53,8.61,80.46,10.27,119.94-8.45-13.39-16.14-33.69-23.35-51.79-6.52-16.36-13.23-32.3-18.85-49.32-1.95-5.91-4.03-12.04-8.25-16.5-4.23-4.46-21.17-6.62-13.77,22.08,7.84,30.37,13.46,59.06,24.04,88.52,2.78,7.74,5.57,15.55,6.67,23.74.19,1.42-.17,3.45-1.55,3.37-.53-.03-1.03-.36-1.37-.78-18.76-23.21-29.18-46.6-45.27-72.06-3.16-5-8.43-10.7-13.64-8.16-5.3,2.58-4.31,10.64-2.26,16.33,11.57,32.09,25.7,55.39,38.24,91.63Z"/>
  <path class="cls-3" d="m94.35,301.35l-.06-.11c-.67-1.31-.98-2.78-1.18-4.24-.65-4.62-.82-11.86,3.86-14.68,1.17-.7,2.54-1.18,3.91-.95,2.67.44,4.27,3.16,5.24,5.43.79,1.86,1.24,3.8,1.77,5.73.6,2.21.76,4.59.03,6.8-.72,2.18-2.37,4.12-4.56,4.84-1.05.35-2.18.41-3.3.39-.89,0-1.79-.07-2.62-.37-1.35-.49-2.41-1.59-3.09-2.85Z"/>
  <path class="cls-16" d="m95.52,302.94c.54.55,1.18,1,1.91,1.27.83.3,1.73.36,2.62.37,1.11.01,2.24-.05,3.3-.39,1.29-.43,2.4-1.29,3.24-2.38-3.61-1.39-7.82-1.07-11.06,1.13Z"/>
  <path class="cls-3" d="m147.87,311.18l-.06-.12c-.68-1.31-.98-2.78-1.19-4.24-.64-4.62-.81-11.86,3.86-14.68,1.17-.7,2.54-1.18,3.91-.95,2.67.45,4.27,3.16,5.24,5.43.79,1.86,1.24,3.8,1.77,5.74.6,2.21.76,4.59.03,6.8-.72,2.19-2.37,4.12-4.56,4.84-1.05.35-2.18.41-3.29.39-.89,0-1.79-.07-2.62-.37-1.34-.49-2.4-1.59-3.08-2.85Z"/>
  <path class="cls-16" d="m149.04,312.76c.55.55,1.18,1,1.91,1.27.84.3,1.74.36,2.62.37,1.11.02,2.24-.04,3.29-.39,1.3-.43,2.4-1.29,3.24-2.37-3.61-1.38-7.82-1.08-11.07,1.13Z"/>
  <path class="cls-3" d="m241.58,470.97c-.86-5.26-4.14-10.05-9.02-12.37-.21.77-.31,1.55-.27,2.34-.09-1.69.45-3.39,1.34-4.84l.09-.16c1.09-1.71,2.62-3.1,4.22-4.36,5.05-3.98,13.55-9.19,20.14-5.59,1.37.75,2.62,1.8,3.4,3.16-1.23,2.65-3.43,5.21-5.5,7.04-5.47,4.85-9.91,9.77-13.73,14.84-.67-.05-1.33-.15-1.97-.32l1.3.26Z"/>
  <path class="cls-16" d="m241.58,470.97l-1.3-.26-.19-.05-1.05-.36-.28-.12-.91-.47-.29-.17-1.06-.79c-.86-.76-1.55-1.68-2.17-2.65l-.59-.99-.44-.81-.48-1.06c-.2-.49-.36-.98-.46-1.5l-.09-.79v-.02c-.04-.79.07-1.57.27-2.34,4.87,2.32,8.16,7.11,9.02,12.37Z"/>
  <path class="cls-3" d="m39.74,322.95l-.08-.09c-.89-1.01-1.45-2.24-1.9-3.48-1.45-3.94-2.87-10.27,1.2-13.74,1.02-.86,2.27-1.57,3.66-1.66,2.68-.18,4.71,1.88,6.06,3.67,1.1,1.46,1.88,3.08,2.73,4.68.97,1.82,1.54,3.88,1.22,5.98-.32,2.08-1.6,4.13-3.61,5.23-.96.53-2.06.82-3.15,1.04-.87.18-1.76.32-2.62.23-1.4-.15-2.62-.89-3.51-1.86Z"/>
  <path class="cls-16" d="m41.17,324.1c.62.37,1.32.63,2.08.71.87.09,1.76-.05,2.62-.23,1.09-.22,2.18-.51,3.15-1.04,1.2-.65,2.12-1.64,2.75-2.77-3.77-.46-7.83.71-10.61,3.34Z"/>
  <path class="cls-3" d="m5.71,375.82l-.06-.06c-.69-.69-1.15-1.55-1.54-2.44-1.23-2.79-2.55-7.31.24-10.01.7-.68,1.58-1.25,2.58-1.38,1.94-.25,3.5,1.14,4.56,2.38.87,1.01,1.5,2.15,2.2,3.27.79,1.28,1.3,2.74,1.16,4.28-.14,1.52-.97,3.07-2.38,3.95-.68.43-1.45.69-2.24.9-.62.17-1.26.31-1.89.29-1.02-.04-1.95-.52-2.63-1.18Z"/>
  <path class="cls-16" d="m6.8,376.58c.47.24.99.4,1.54.42.63.03,1.27-.12,1.89-.29.79-.21,1.56-.47,2.24-.9.83-.52,1.46-1.29,1.87-2.13-2.76-.16-5.64.87-7.54,2.9Z"/>
  <path class="cls-22" d="m99.41,587.58c5.34-4.48,13.03-4.35,20-4.09,11.03.42,22.26.56,32.87-2.47,5.09-1.46,9.95-3.62,14.63-6.09,5.42-2.86,10.61-6.16,15.54-9.81-18.14,17.55-21.01,36.86-21.05,47.34-1.22-2.1-2.54-4.14-3.95-6.12-2.81-3.96-6.05-7.73-10.21-10.24-3.75-2.27-8.06-3.41-12.3-4.52-11.62-3.04-23.69-6.1-35.52-4Z"/>
  <path class="cls-17" d="m1032.86,179.18c20.89,18.52,26.74,37.91,40.56,63.63,7.86,14.64,15.14,30.41,27.42,40.35,25.06,20.29,27.01,44.46,26.57,54.9-.33,7.95-1.6,1057.89-1.83,1233.21h98.06c.55-176.5-.51-1208.51-.64-1213.87-.39-15.95-2.73-33-.62-48.87.86-6.44,3.12-12.5,5.03-18.63,5.37-17.23,6.82-35.09,11.48-52.44,4.5-16.73,4.43-31.49,10.07-47.8,12.54-36.23,26.68-59.54,38.24-91.63,2.05-5.69,3.05-13.75-2.25-16.33-5.21-2.54-10.49,3.17-13.64,8.16-16.08,25.46-26.5,48.85-45.27,72.06-.34.42-.84.75-1.38.78-1.37.08-1.74-1.95-1.55-3.37,1.09-8.18,3.89-16,6.67-23.74,10.57-29.46,16.2-58.15,24.03-88.52,7.4-28.69-9.54-26.54-13.77-22.07-4.22,4.46-6.3,10.59-8.25,16.5-5.62,17.02-12.33,32.96-18.85,49.32-7.21,18.1-14.9,38.4-23.35,51.79,1.66-39.49,7.79-80.42,10.27-119.95.34-5.37.62-11.03-1.65-15.86-2.27-4.84-8.04-8.36-12.75-6.09-3.31,1.6-5.46,5.23-6.37,8.91-9.2,37.22-21.72,131.89-28.3,135.52-2.79-5.56-1.95-15.39-2.37-21.77-.58-8.68-1.03-17.37-1.35-26.06-.93-25.57,1.63-51.82-1.68-77.21-.45-3.66-1.23-7.68-4.06-9.91-5.21-4.11-12.75,1.02-15.87,7-4,7.7-4.73,16.73-5.37,25.46-2.29,31.21-4.59,62.41-6.88,93.61-1.07,14.48-.25,30.89-3.49,45.01-1.18,5.17-11.12,26.71-7.02,30.35-10.94-9.72-10.48-20.96-34.15-42.05-9.6-8.55-27.02-12.61-38.13-7.07-1.04.52-2.08,1.13-2.84,2.09-3.47,4.41,1.16,10.94,5.28,14.59Z"/>
  <path class="cls-9" d="m1194.5,24.34l.06-.12c.67-1.31.98-2.78,1.19-4.24.65-4.63.81-11.86-3.86-14.68-1.17-.7-2.54-1.18-3.91-.95-2.67.44-4.27,3.16-5.24,5.43-.8,1.86-1.25,3.8-1.77,5.74-.6,2.21-.76,4.58-.04,6.8.72,2.19,2.38,4.12,4.57,4.84,1.05.35,2.18.41,3.29.39.88,0,1.79-.07,2.62-.37,1.35-.48,2.41-1.59,3.09-2.85Z"/>
  <path class="cls-2" d="m1193.33,25.92c-.55.55-1.18,1-1.91,1.26-.83.3-1.73.36-2.62.37-1.11.01-2.24-.05-3.29-.39-1.3-.43-2.4-1.29-3.24-2.37,3.61-1.39,7.82-1.08,11.06,1.13Z"/>
  <path class="cls-9" d="m1140.98,34.16l.06-.12c.68-1.31.98-2.78,1.19-4.24.65-4.62.81-11.86-3.86-14.68-1.18-.7-2.54-1.17-3.92-.95-2.67.45-4.27,3.16-5.24,5.43-.79,1.86-1.24,3.8-1.77,5.73-.6,2.22-.76,4.59-.03,6.8.72,2.19,2.38,4.12,4.56,4.85,1.05.35,2.18.41,3.29.39.89,0,1.79-.06,2.62-.37,1.34-.49,2.4-1.59,3.08-2.85Z"/>
  <path class="cls-2" d="m1139.81,35.75c-.54.55-1.18,1-1.91,1.27-.83.3-1.73.36-2.62.37-1.11.02-2.24-.04-3.29-.39-1.29-.43-2.4-1.29-3.24-2.38,3.61-1.38,7.82-1.07,11.06,1.13Z"/>
  <path class="cls-9" d="m1047.27,193.96c.86-5.26,4.14-10.05,9.02-12.38.21.77.31,1.55.27,2.34.09-1.69-.45-3.39-1.34-4.84l-.09-.16c-1.09-1.71-2.63-3.1-4.22-4.36-5.05-3.98-13.55-9.19-20.14-5.58-1.37.75-2.62,1.8-3.4,3.15,1.24,2.65,3.43,5.21,5.5,7.04,5.48,4.85,9.91,9.77,13.73,14.84.67-.05,1.33-.16,1.98-.32l-1.3.26Z"/>
  <path class="cls-2" d="m1047.27,193.96l1.3-.26.18-.05,1.05-.36.28-.12.9-.46.29-.17,1.06-.79c.86-.76,1.55-1.68,2.17-2.66l.59-.99.44-.8.48-1.06c.2-.49.36-.99.46-1.51l.09-.79v-.02c.04-.79-.06-1.57-.27-2.34-4.88,2.32-8.16,7.11-9.02,12.38Z"/>
  <path class="cls-9" d="m1249.11,45.93l.08-.09c.88-1.01,1.45-2.24,1.9-3.48,1.44-3.94,2.86-10.27-1.2-13.74-1.02-.87-2.28-1.57-3.66-1.66-2.68-.17-4.71,1.88-6.06,3.67-1.1,1.46-1.88,3.08-2.73,4.68-.97,1.83-1.54,3.88-1.21,5.98.32,2.08,1.6,4.13,3.61,5.23.97.53,2.07.82,3.15,1.04.87.18,1.76.32,2.62.23,1.4-.14,2.62-.89,3.51-1.86Z"/>
  <path class="cls-2" d="m1247.68,47.08c-.62.37-1.33.63-2.08.71-.87.09-1.75-.05-2.62-.23-1.09-.23-2.18-.52-3.15-1.05-1.19-.65-2.12-1.64-2.75-2.77,3.77-.46,7.83.7,10.61,3.34Z"/>
  <path class="cls-9" d="m1283.14,98.8l.06-.06c.69-.7,1.15-1.56,1.54-2.44,1.23-2.79,2.55-7.31-.25-10.01-.7-.68-1.57-1.25-2.57-1.38-1.93-.25-3.5,1.15-4.56,2.38-.87,1.02-1.51,2.15-2.2,3.27-.79,1.28-1.29,2.74-1.15,4.29.14,1.52.96,3.07,2.37,3.95.68.43,1.46.69,2.24.9.62.17,1.26.31,1.89.29,1.02-.04,1.95-.52,2.63-1.18Z"/>
  <path class="cls-2" d="m1282.05,99.57c-.46.24-.99.4-1.54.42-.63.03-1.27-.11-1.89-.29-.78-.21-1.56-.47-2.24-.9-.83-.52-1.46-1.29-1.86-2.13,2.75-.16,5.64.87,7.54,2.9Z"/>
  <path class="cls-27" d="m1189.44,310.56c-5.34-4.48-13.03-4.35-20-4.09-11.03.41-22.26.56-32.87-2.48-5.09-1.46-9.95-3.62-14.64-6.09-5.42-2.86-10.61-6.16-15.53-9.81,18.14,17.55,21.01,36.86,21.05,47.34,1.22-2.1,2.54-4.14,3.95-6.12,2.81-3.96,6.06-7.73,10.21-10.24,3.75-2.27,8.06-3.41,12.31-4.52,11.62-3.04,23.69-6.1,35.52-4Z"/>
  <path class="cls-8" d="m811.54,456.2c20.89,18.52,26.75,37.91,40.56,63.63,7.86,14.63,15.14,30.4,27.42,40.35,25.06,20.29,27.01,44.46,26.57,54.9-.43,10.44-2.49,20.83-1.68,31.25,1.04,13.49-4.78,827.45-6.05,924.95h99.59c-4.22-92.16-10.85-906.94-10.96-911.48-.39-15.95,2.16-46.69,4.27-62.55.86-6.44,12.92-24.19,14.83-30.32,5.36-17.23,6.81-35.08,11.47-52.44,4.49-16.73,4.43-31.49,10.08-47.8,12.54-36.23,26.67-59.54,38.23-91.63,2.05-5.69,3.05-13.75-2.25-16.33-5.21-2.54-10.49,3.17-13.64,8.16-16.08,25.46-26.5,48.85-45.26,72.06-.34.42-.84.75-1.38.78-1.38.08-1.74-1.95-1.55-3.37,1.09-8.18,3.89-16,6.67-23.74,10.57-29.46,16.2-58.15,24.04-88.52,7.4-28.7-9.54-26.54-13.77-22.08-4.23,4.46-6.3,10.59-8.26,16.5-5.62,17.01-12.33,32.96-18.85,49.32-7.21,18.1-14.9,38.4-23.35,51.79,1.66-39.48,7.79-80.41,10.27-119.94.34-5.37.62-11.03-1.64-15.86-2.27-4.84-8.05-8.36-12.75-6.09-3.31,1.6-5.46,5.23-6.37,8.9-9.2,37.22-21.72,131.89-28.3,135.52-2.8-5.55-1.95-15.38-2.38-21.77-.58-8.68-1.02-17.37-1.35-26.06-.93-25.57,1.63-51.81-1.68-77.21-.45-3.66-1.23-7.68-4.06-9.91-5.22-4.11-12.76,1.02-15.87,7-4.01,7.7-4.73,16.73-5.37,25.46-2.29,31.2-4.59,62.41-6.88,93.61-1.06,14.48-.25,30.88-3.48,45.01-1.18,5.17-11.13,26.71-7.03,30.35-10.94-9.72-10.48-20.96-34.15-42.05-9.6-8.55-27.02-12.61-38.14-7.07-1.04.52-2.07,1.13-2.84,2.09-3.46,4.41,1.16,10.94,5.28,14.59Z"/>
  <path class="cls-5" d="m973.18,301.35l.07-.11c.68-1.31.98-2.78,1.18-4.24.65-4.62.82-11.86-3.86-14.68-1.17-.7-2.54-1.18-3.91-.95-2.67.44-4.27,3.16-5.24,5.43-.79,1.86-1.24,3.8-1.77,5.73-.6,2.21-.76,4.59-.03,6.8.72,2.18,2.38,4.12,4.56,4.84,1.05.35,2.18.41,3.29.39.89,0,1.79-.07,2.62-.37,1.35-.49,2.4-1.59,3.08-2.85Z"/>
  <path class="cls-6" d="m972.01,302.94c-.54.55-1.18,1-1.91,1.27-.83.3-1.73.36-2.62.37-1.11.01-2.24-.05-3.29-.39-1.29-.43-2.4-1.29-3.24-2.38,3.61-1.39,7.82-1.07,11.06,1.13Z"/>
  <path class="cls-5" d="m919.66,311.18l.06-.12c.68-1.31.98-2.78,1.19-4.24.65-4.62.81-11.86-3.86-14.68-1.17-.7-2.54-1.18-3.91-.95-2.67.45-4.26,3.16-5.23,5.43-.8,1.86-1.25,3.8-1.77,5.74-.6,2.21-.76,4.59-.03,6.8.72,2.19,2.38,4.12,4.57,4.84,1.05.35,2.18.41,3.29.39.88,0,1.79-.07,2.62-.37,1.34-.49,2.4-1.59,3.08-2.85Z"/>
  <path class="cls-6" d="m918.49,312.76c-.55.55-1.18,1-1.91,1.27-.84.3-1.74.36-2.62.37-1.11.02-2.24-.04-3.29-.39-1.3-.43-2.4-1.29-3.24-2.37,3.61-1.38,7.82-1.08,11.06,1.13Z"/>
  <path class="cls-5" d="m825.95,470.97c.86-5.26,4.14-10.05,9.02-12.37.21.77.31,1.55.27,2.34.09-1.69-.45-3.39-1.34-4.84l-.09-.16c-1.09-1.71-2.63-3.1-4.22-4.36-5.05-3.98-13.55-9.19-20.14-5.59-1.37.75-2.62,1.8-3.4,3.16,1.23,2.65,3.43,5.21,5.49,7.04,5.48,4.85,9.91,9.77,13.74,14.84.67-.05,1.33-.15,1.97-.32l-1.3.26Z"/>
  <path class="cls-6" d="m825.95,470.97l1.3-.26.18-.05,1.05-.36.29-.12.91-.47.29-.17,1.06-.79c.86-.76,1.55-1.68,2.17-2.65l.59-.99.44-.81.48-1.06c.2-.49.36-.98.46-1.5l.09-.79v-.02c.04-.79-.07-1.57-.27-2.34-4.87,2.32-8.16,7.11-9.02,12.37Z"/>
  <path class="cls-5" d="m1027.79,322.95l.08-.09c.89-1.01,1.45-2.24,1.9-3.48,1.45-3.94,2.87-10.27-1.21-13.74-1.02-.86-2.27-1.57-3.66-1.66-2.69-.18-4.72,1.88-6.07,3.67-1.1,1.46-1.88,3.08-2.73,4.68-.97,1.82-1.54,3.88-1.22,5.98.32,2.08,1.6,4.13,3.61,5.23.97.53,2.06.82,3.15,1.04.87.18,1.76.32,2.63.23,1.4-.15,2.62-.89,3.51-1.86Z"/>
  <path class="cls-6" d="m1026.36,324.1c-.63.37-1.32.63-2.08.71-.87.09-1.76-.05-2.63-.23-1.09-.22-2.18-.51-3.15-1.04-1.19-.65-2.12-1.64-2.75-2.77,3.77-.46,7.82.71,10.61,3.34Z"/>
  <path class="cls-5" d="m1061.82,375.82l.06-.06c.69-.69,1.15-1.55,1.54-2.44,1.23-2.79,2.55-7.31-.25-10.01-.7-.68-1.57-1.25-2.57-1.38-1.94-.25-3.51,1.14-4.57,2.38-.86,1.01-1.5,2.15-2.19,3.27-.79,1.28-1.3,2.74-1.16,4.28.14,1.52.97,3.07,2.38,3.95.68.43,1.46.69,2.24.9.62.17,1.26.31,1.89.29,1.02-.04,1.95-.52,2.63-1.18Z"/>
  <path class="cls-6" d="m1060.73,376.58c-.47.24-.99.4-1.54.42-.63.03-1.27-.12-1.89-.29-.78-.21-1.56-.47-2.24-.9-.83-.52-1.46-1.29-1.86-2.13,2.75-.16,5.64.87,7.54,2.9Z"/>
  <path class="cls-25" d="m968.12,587.58c-5.34-4.48-13.03-4.35-20-4.09-11.03.42-22.26.56-32.87-2.47-5.09-1.46-9.95-3.62-14.63-6.09-5.43-2.86-10.61-6.16-15.54-9.81,18.14,17.55,21.01,36.86,21.05,47.34,1.22-2.1,2.54-4.14,3.95-6.12,2.81-3.96,6.05-7.73,10.2-10.24,3.75-2.27,8.07-3.41,12.31-4.52,11.62-3.04,23.69-6.1,35.52-4Z"/>
  <path class="cls-4" d="m1762.33,392.87c5.64,16.31,5.58,31.07,10.08,47.8,4.66,17.36,6.11,35.21,11.47,52.44,1.91,6.13,4.17,12.19,5.02,18.63,2.12,15.86-.22,32.92-.61,48.86-.12,5.06-1.07,892.28-.71,1010.66h98.11c-.31-119.12-1.48-1022.41-1.8-1030-.43-10.44,1.51-34.61,26.57-54.9,12.28-9.95,19.56-25.71,27.43-40.35,13.81-25.72,19.66-45.1,40.56-63.62,4.12-3.66,8.74-10.18,5.27-14.59-.75-.96-1.8-1.57-2.84-2.09-11.11-5.54-28.53-1.48-38.13,7.07-23.67,21.09-23.21,32.32-34.14,42.05,4.09-3.64-5.84-25.18-7.03-30.35-3.23-14.12-2.42-30.53-3.48-45.01-2.29-31.2-4.59-62.41-6.88-93.61-.65-8.73-1.37-17.76-5.38-25.46-3.11-5.98-10.65-11.11-15.87-7-2.83,2.23-3.61,6.25-4.06,9.91-3.3,25.39-.75,51.63-1.68,77.21-.32,8.69-.77,17.38-1.35,26.05-.43,6.39.43,16.21-2.37,21.77-6.59-3.62-19.11-98.3-28.31-135.52-.91-3.67-3.05-7.3-6.37-8.91-4.7-2.27-10.48,1.25-12.74,6.09-2.27,4.84-1.98,10.5-1.65,15.87,2.48,39.52,8.62,80.45,10.27,119.94-8.45-13.39-16.14-33.69-23.35-51.79-6.52-16.35-13.23-32.3-18.84-49.31-1.96-5.91-4.03-12.04-8.26-16.5-4.23-4.45-21.17-6.61-13.77,22.08,7.84,30.37,13.45,59.06,24.04,88.52,2.78,7.74,5.57,15.55,6.66,23.73.19,1.42-.18,3.45-1.55,3.37-.54-.04-1.04-.36-1.38-.78-18.76-23.2-29.18-46.6-45.27-72.06-3.16-4.99-8.43-10.7-13.64-8.16-5.3,2.57-4.31,10.64-2.26,16.33,11.56,32.09,25.7,55.39,38.24,91.63Z"/>
  <path class="cls-11" d="m1816.79,227.55l-.06-.12c-.68-1.31-.98-2.78-1.19-4.24-.65-4.63-.81-11.86,3.86-14.68,1.17-.7,2.54-1.18,3.92-.95,2.67.44,4.27,3.16,5.24,5.43.79,1.86,1.24,3.8,1.77,5.74.6,2.21.76,4.58.03,6.8-.72,2.18-2.38,4.12-4.56,4.84-1.05.35-2.18.41-3.29.39-.89-.01-1.79-.07-2.62-.37-1.34-.49-2.41-1.59-3.08-2.85Z"/>
  <path class="cls-14" d="m1817.97,229.13c.54.55,1.18,1,1.91,1.27.83.3,1.73.36,2.62.37,1.11.02,2.24-.05,3.29-.39,1.29-.43,2.4-1.29,3.24-2.38-3.61-1.38-7.82-1.07-11.06,1.13Z"/>
  <path class="cls-11" d="m1870.31,237.38l-.06-.12c-.67-1.31-.98-2.78-1.18-4.24-.65-4.63-.82-11.86,3.86-14.68,1.17-.7,2.54-1.18,3.91-.95,2.67.44,4.27,3.16,5.24,5.43.8,1.86,1.25,3.8,1.77,5.74.61,2.21.76,4.58.03,6.8-.72,2.19-2.37,4.12-4.56,4.84-1.05.35-2.18.41-3.29.39-.89-.01-1.79-.07-2.62-.37-1.35-.48-2.41-1.59-3.09-2.85Z"/>
  <path class="cls-14" d="m1871.48,238.96c.54.55,1.18,1,1.91,1.27.83.3,1.73.36,2.62.37,1.11.01,2.24-.05,3.29-.39,1.3-.43,2.4-1.29,3.24-2.37-3.61-1.39-7.82-1.08-11.06,1.13Z"/>
  <path class="cls-11" d="m1964.02,397.17c-.86-5.26-4.14-10.05-9.02-12.38-.2.77-.31,1.56-.27,2.34-.09-1.68.46-3.39,1.34-4.84l.1-.15c1.09-1.71,2.62-3.1,4.22-4.35,5.05-3.98,13.54-9.2,20.13-5.59,1.38.75,2.62,1.8,3.4,3.16-1.23,2.65-3.43,5.21-5.49,7.04-5.48,4.85-9.91,9.77-13.73,14.84-.67-.05-1.33-.16-1.98-.32l1.3.26Z"/>
  <path class="cls-14" d="m1964.02,397.17l-1.3-.26-.18-.05-1.05-.36-.28-.12-.9-.47-.29-.16-1.06-.79c-.86-.76-1.55-1.68-2.17-2.66l-.59-.99-.43-.8-.48-1.06c-.2-.49-.36-.99-.45-1.5l-.09-.79v-.02c-.04-.79.07-1.57.27-2.34,4.88,2.33,8.16,7.12,9.02,12.38Z"/>
  <path class="cls-11" d="m1762.18,249.15l-.07-.09c-.89-1.02-1.45-2.24-1.9-3.48-1.45-3.94-2.87-10.27,1.21-13.74,1.02-.86,2.27-1.57,3.66-1.66,2.68-.17,4.71,1.88,6.06,3.67,1.11,1.46,1.88,3.08,2.73,4.68.97,1.82,1.54,3.88,1.21,5.98-.32,2.07-1.6,4.13-3.6,5.23-.97.53-2.07.82-3.15,1.04-.87.18-1.76.32-2.63.23-1.39-.14-2.62-.89-3.51-1.86Z"/>
  <path class="cls-14" d="m1763.61,250.29c.62.37,1.33.63,2.08.71.87.09,1.76-.05,2.63-.23,1.09-.22,2.18-.52,3.15-1.04,1.18-.65,2.11-1.64,2.75-2.77-3.77-.46-7.83.7-10.61,3.33Z"/>
  <path class="cls-11" d="m1728.15,302.01l-.06-.06c-.7-.7-1.15-1.56-1.54-2.44-1.22-2.79-2.55-7.32.25-10.02.7-.68,1.57-1.25,2.57-1.37,1.94-.25,3.5,1.14,4.57,2.38.86,1.01,1.5,2.15,2.19,3.27.79,1.28,1.3,2.74,1.16,4.28-.14,1.52-.97,3.07-2.38,3.96-.68.43-1.46.69-2.23.9-.62.17-1.26.31-1.89.29-1.02-.04-1.95-.52-2.63-1.19Z"/>
  <path class="cls-14" d="m1729.24,302.78c.47.24.99.39,1.54.42.63.03,1.28-.12,1.89-.29.78-.21,1.55-.47,2.23-.9.83-.53,1.46-1.29,1.86-2.14-2.75-.16-5.64.87-7.54,2.91Z"/>
  <path class="cls-24" d="m1821.86,513.77c5.34-4.48,13.03-4.35,19.99-4.09,11.03.41,22.26.56,32.88-2.48,5.09-1.46,9.95-3.62,14.63-6.09,5.42-2.86,10.61-6.16,15.54-9.81-18.14,17.55-21.01,36.86-21.05,47.34-1.22-2.1-2.53-4.14-3.94-6.12-2.81-3.96-6.06-7.73-10.21-10.24-3.76-2.27-8.07-3.41-12.31-4.52-11.62-3.04-23.69-6.1-35.52-4Z"/>
  <path class="cls-12" d="m409.02,429.74c20.89,18.52,26.74,37.9,40.55,63.62,7.86,14.64,15.14,30.4,27.42,40.35,25.06,20.29,27.01,44.46,26.57,54.91-.32,7.68-1.52,882.35-1.81,982.65h98.11c.37-99.79-.59-958.23-.71-963.32-.39-15.95-2.73-33-.62-48.87.86-6.44,3.12-12.5,5.03-18.63,5.37-17.23,6.81-35.08,11.47-52.44,4.5-16.73,4.43-31.49,10.08-47.8,12.54-36.23,26.67-59.54,38.23-91.63,2.05-5.69,3.05-13.76-2.25-16.33-5.21-2.53-10.48,3.17-13.64,8.16-16.08,25.46-26.5,48.86-45.26,72.06-.34.42-.84.75-1.37.78-1.37.08-1.74-1.95-1.55-3.37,1.1-8.18,3.9-16,6.67-23.73,10.57-29.46,16.2-58.15,24.03-88.53,7.4-28.69-9.54-26.54-13.77-22.07-4.22,4.46-6.3,10.59-8.26,16.5-5.62,17.01-12.33,32.96-18.84,49.31-7.21,18.11-14.9,38.41-23.35,51.8,1.66-39.49,7.79-80.42,10.27-119.94.34-5.38.62-11.03-1.64-15.87-2.27-4.84-8.05-8.36-12.75-6.09-3.31,1.6-5.46,5.23-6.37,8.91-9.2,37.22-21.72,131.89-28.3,135.52-2.8-5.56-1.95-15.38-2.37-21.77-.58-8.68-1.03-17.36-1.35-26.05-.94-25.57,1.62-51.82-1.68-77.21-.45-3.66-1.23-7.68-4.06-9.91-5.22-4.11-12.76,1.02-15.87,7-4.01,7.71-4.73,16.73-5.38,25.46-2.29,31.21-4.59,62.41-6.88,93.61-1.07,14.48-.25,30.88-3.49,45-1.18,5.17-11.12,26.71-7.03,30.36-10.94-9.73-10.48-20.97-34.14-42.05-9.61-8.55-27.02-12.61-38.14-7.07-1.04.52-2.08,1.13-2.84,2.09-3.46,4.4,1.16,10.94,5.28,14.59Z"/>
  <path class="cls-7" d="m570.66,274.89l.07-.12c.68-1.31.98-2.78,1.18-4.24.65-4.62.82-11.86-3.86-14.67-1.17-.7-2.54-1.18-3.91-.95-2.67.44-4.27,3.16-5.24,5.43-.79,1.86-1.24,3.8-1.77,5.74-.6,2.21-.76,4.58-.03,6.8.72,2.18,2.37,4.12,4.56,4.84,1.05.35,2.18.41,3.3.39.89-.01,1.79-.07,2.62-.37,1.35-.49,2.41-1.59,3.08-2.85Z"/>
  <path class="cls-10" d="m569.48,276.48c-.54.55-1.18,1-1.91,1.27-.83.3-1.73.36-2.62.37-1.11.02-2.24-.05-3.3-.39-1.29-.43-2.4-1.29-3.24-2.37,3.62-1.39,7.82-1.08,11.06,1.13Z"/>
  <path class="cls-7" d="m517.14,284.72l.06-.12c.68-1.31.98-2.78,1.19-4.24.65-4.62.81-11.86-3.86-14.68-1.17-.7-2.54-1.18-3.91-.95-2.67.44-4.27,3.16-5.24,5.43-.8,1.86-1.25,3.8-1.77,5.74-.6,2.21-.76,4.58-.04,6.8.72,2.18,2.38,4.12,4.56,4.84,1.06.35,2.18.41,3.3.39.88-.01,1.79-.07,2.62-.37,1.35-.49,2.41-1.59,3.09-2.85Z"/>
  <path class="cls-10" d="m515.97,286.3c-.55.55-1.18,1-1.91,1.27-.83.3-1.73.36-2.62.37-1.11.01-2.24-.05-3.3-.39-1.3-.43-2.4-1.29-3.23-2.38,3.61-1.39,7.82-1.07,11.06,1.13Z"/>
  <path class="cls-7" d="m423.43,444.51c.86-5.26,4.15-10.05,9.02-12.38.21.77.31,1.55.27,2.34.09-1.68-.45-3.38-1.34-4.84l-.09-.15c-1.09-1.71-2.63-3.1-4.22-4.36-5.05-3.98-13.55-9.19-20.14-5.58-1.37.75-2.62,1.8-3.4,3.16,1.23,2.65,3.43,5.2,5.49,7.04,5.48,4.85,9.91,9.77,13.74,14.84.67-.05,1.33-.16,1.97-.33l-1.3.26Z"/>
  <path class="cls-10" d="m423.43,444.51l1.3-.26.18-.05,1.05-.36.29-.12.91-.47.29-.16,1.06-.79c.86-.76,1.55-1.68,2.16-2.66l.59-.99.44-.8.48-1.06c.2-.49.37-.99.46-1.5l.09-.79v-.03c.04-.79-.07-1.57-.27-2.34-4.87,2.33-8.16,7.12-9.02,12.38Z"/>
  <path class="cls-7" d="m625.27,296.49l.08-.09c.89-1.01,1.45-2.24,1.9-3.48,1.45-3.93,2.87-10.27-1.21-13.73-1.02-.86-2.27-1.57-3.66-1.66-2.69-.18-4.72,1.88-6.07,3.67-1.1,1.47-1.88,3.09-2.73,4.68-.97,1.82-1.54,3.88-1.22,5.98.32,2.07,1.6,4.13,3.61,5.23.97.53,2.06.82,3.15,1.04.87.18,1.76.32,2.63.23,1.4-.14,2.63-.89,3.51-1.86Z"/>
  <path class="cls-10" d="m623.84,297.64c-.63.37-1.32.63-2.08.71-.87.09-1.76-.05-2.63-.23-1.09-.23-2.18-.52-3.15-1.04-1.19-.65-2.12-1.64-2.75-2.77,3.77-.46,7.83.7,10.61,3.33Z"/>
  <path class="cls-7" d="m659.3,349.35l.06-.06c.7-.7,1.15-1.56,1.54-2.44,1.22-2.79,2.55-7.32-.25-10.02-.7-.68-1.57-1.25-2.57-1.37-1.94-.25-3.51,1.14-4.57,2.38-.87,1.01-1.5,2.15-2.2,3.27-.79,1.28-1.3,2.74-1.16,4.28.14,1.52.97,3.07,2.37,3.96.68.43,1.46.69,2.24.9.62.17,1.26.31,1.89.29,1.02-.04,1.95-.52,2.63-1.19Z"/>
  <path class="cls-10" d="m658.21,350.12c-.47.24-.99.4-1.54.42-.63.03-1.27-.12-1.89-.29-.78-.21-1.56-.47-2.24-.9-.83-.53-1.46-1.29-1.86-2.14,2.75-.16,5.64.87,7.54,2.9Z"/>
  <path class="cls-23" d="m565.6,561.12c-5.34-4.48-13.03-4.35-20-4.09-11.03.41-22.26.56-32.87-2.48-5.09-1.46-9.95-3.62-14.63-6.09-5.43-2.86-10.61-6.16-15.53-9.81,18.14,17.55,21.01,36.86,21.05,47.34,1.22-2.1,2.54-4.14,3.95-6.12,2.81-3.96,6.05-7.73,10.21-10.24,3.75-2.27,8.06-3.41,12.31-4.52,11.62-3.04,23.69-6.1,35.52-4Z"/>
</svg>