<?xml version="1.0" encoding="UTF-8"?>
<svg id="Layer_2" data-name="Layer 2" xmlns="http://www.w3.org/2000/svg" viewBox="0 0 1515.04 164.2">
  <defs>
    <style>
      .cls-1 {
        fill: #e8b2db;
      }

      .cls-2 {
        fill: #f2b3d6;
      }

      .cls-3 {
        fill: #9ea8dc;
      }

      .cls-4 {
        fill: #c1afed;
      }

      .cls-5 {
        fill: #b7aef2;
      }

      .cls-6 {
        fill: #deb1df;
      }

      .cls-7 {
        fill: #cbb0e9;
      }

      .cls-8 {
        fill: #d4b1e4;
      }

      .cls-9 {
        fill: #238c6e;
      }

      .cls-10 {
        fill: #3c9284;
      }

      .cls-11 {
        fill: #6d9db0;
      }

      .cls-12 {
        fill: #86a3c6;
      }

      .cls-13 {
        fill: #54979a;
      }

      .cls-14 {
        opacity: .17;
      }

      .cls-15 {
        opacity: .33;
      }

      .cls-16 {
        opacity: .67;
      }

      .cls-17 {
        opacity: .5;
      }

      .cls-18 {
        opacity: .83;
      }

      .cls-19 {
        opacity: 0;
      }
    </style>
  </defs>
  <g id="Layer_1-2" data-name="Layer 1">
    <g>
      <g class="cls-19">
        <path class="cls-9" d="m1.95,151.25c96.85-14.93,194.78-1.62,292.07-.42,49.59.61,99.35-1.97,148.1-11.49,25.15-4.91,49.55-12.85,74.69-17.78,24.59-4.82,49.56-7.45,74.58-8.45,98.66-3.92,196.17,16.51,293.54,29.04s201.17,11.69,301.75,6.74c98.2-4.83,196.58-15.4,292.51-37.42,11.63-2.67,23.21-5.52,34.75-8.54,1.87-.49,1.07-3.38-.8-2.89-95.96,25.1-194.82,37.72-293.67,44.01-51.02,3.24-102.14,4.74-153.25,4.98-50.51.25-100.7-.74-150.95-6.25-98.02-10.75-195.19-32.33-294.13-33.13-47.83-.39-94.94,4.99-141.08,17.68-50.21,13.81-102.11,19.47-154.08,20.41-97.06,1.75-194.22-12.69-291.16-3.6-11.27,1.06-22.49,2.47-33.68,4.19-1.9.29-1.09,3.18.8,2.89h0Z"/>
      </g>
      <g class="cls-14">
        <path class="cls-9" d="m1.95,147.08c109.16-16.82,219.47,2.58,329.11.09,27.16-.62,54.3-2.54,81.2-6.41,28.98-4.17,56.71-11.76,84.93-19.26,50.63-13.46,103.01-18.22,155.29-16.58,103.81,3.26,205.37,28.79,308.48,39.15,97.08,9.75,196.46,10.8,293.61,1.33,76.88-7.5,152.42-23.29,227.79-39.72,10.53-2.3,21.06-4.6,31.59-6.89,1.89-.41,1.09-3.3-.8-2.89-77.43,16.85-154.83,34.49-233.62,43.81-93.97,11.11-189.16,10.81-283.46,4.35-104.77-7.17-207.21-32.75-311.88-40.44-49.85-3.66-100.08-2.54-149.34,6.41-27.32,4.97-53.55,13.67-80.56,19.89-28.89,6.65-58.33,10.64-87.89,12.68-109.06,7.52-218.11-12.19-327.09-2.96-12.77,1.08-25.49,2.61-38.16,4.56-1.9.29-1.09,3.18.8,2.89h0Z"/>
      </g>
      <g class="cls-15">
        <path class="cls-9" d="m1.95,142.92c124.16-19.12,249.59,8.89,374.21-1.63,30.99-2.62,61.83-7.54,91.88-15.64,28.81-7.76,56.99-16.53,86.48-21.6,52.19-8.97,105.19-9.25,157.77-3.9,52.51,5.34,104.37,15.56,156.34,24.5,58.44,10.06,117.01,17.68,176.15,22.17,84.6,6.42,170.28,8.83,254.27-5.15,62.56-10.41,123.44-28.99,185.59-41.48,9.75-1.96,19.53-3.81,29.32-5.57,1.9-.34,1.09-3.23-.8-2.89-65.01,11.67-128.35,30.4-193.1,43.09-78.61,15.41-158.65,16.1-238.39,11.48-61.04-3.53-121.78-9.77-182.14-19.51-52.44-8.46-104.56-19.03-157.23-26.08-49.86-6.67-100.24-9.6-150.41-4.69-26.96,2.64-53.7,7.37-79.95,14.04-31.19,7.92-61.41,17.93-93.29,23.07-124.47,20.08-249.82-7.44-374.71,1.99-14.32,1.08-28.58,2.72-42.77,4.9-1.9.29-1.09,3.18.8,2.89h0Z"/>
      </g>
      <g class="cls-17">
        <path class="cls-9" d="m1.95,138.75c135.95-20.94,273.52,15.06,409.62-5.19,34.59-5.15,67.08-15.87,100.65-25.12,29.19-8.04,58.97-14.07,89.09-17.29,52.03-5.57,104.14-2.02,155.71,6.07,55.17,8.65,109.7,20.93,164.77,30.19,63.7,10.71,128.08,17.85,192.51,22.32,71.7,4.98,145.16,6.69,215.25-11.66,23.23-6.08,45.9-14.07,68.8-21.25,28.76-9.02,57.94-16.43,87.61-21.81,9.3-1.69,18.64-3.19,28-4.56,1.9-.28,1.09-3.17-.8-2.89-32.88,4.82-65.4,11.57-97.32,20.84-23.58,6.84-46.72,15.07-70.25,22.06-64.15,19.06-130.34,21.36-196.85,18.28-63.39-2.93-126.93-9.27-189.71-18.48-57.72-8.47-114.72-20.73-172.11-31.02-49.85-8.93-100.23-15.46-150.97-13.58-27.07,1-54.04,4.26-80.61,9.49-32.18,6.34-62.86,17.05-94.5,25.34-135.96,35.65-275.69.78-413.51,10.25-15.45,1.06-30.85,2.76-46.15,5.11-1.9.29-1.09,3.18.8,2.89h0Z"/>
      </g>
      <g class="cls-16">
        <path class="cls-9" d="m1.95,134.58c148.31-22.84,299.53,23,446.9-11.91,34.3-8.13,67.26-20.95,101.63-28.97,28.27-6.6,57.02-11.19,86.01-12.89,51.6-3.03,102.62,4.05,153.13,14.06,61.26,12.14,122.06,26.17,183.82,35.71,65.1,10.05,130.88,17.91,196.64,21.92,60.51,3.69,124.18,5.22,181.46-17.62,18.03-7.19,35.35-16.04,53.42-23.17,25.69-10.14,52.49-16.85,79.71-21.34,9.59-1.58,19.22-2.9,28.88-4.03,1.89-.22,1.92-3.23,0-3-31.2,3.66-62.31,9.21-92.16,19.19-19.45,6.5-37.92,15.21-56.64,23.51-19.2,8.52-38.88,15.34-59.56,19.28-33.38,6.35-67.78,6.74-101.64,5.73-128.34-3.84-255.59-26.05-380.93-52.45-49.53-10.43-99.46-20.39-150.24-21.46-58.39-1.23-115.95,9.8-171.55,26.99-18.45,5.71-36.64,11.94-55.49,16.28-18.67,4.3-37.61,7.34-56.65,9.39-37.42,4.02-75.14,4.21-112.72,2.97-74.63-2.46-149.32-10.95-224.04-6.46-17.01,1.02-33.95,2.79-50.78,5.38-1.9.29-1.09,3.18.8,2.89h0Z"/>
      </g>
      <g class="cls-18">
        <path class="cls-9" d="m1.95,130.42c159.8-24.61,325.22,31.32,481.81-21.81,59.81-20.29,121.43-37.01,185.04-37.11,51.29-.08,101.43,10.97,151.15,22.43,70.62,16.27,141.2,30.82,212.96,41.2,62.25,9.01,124.88,17.25,187.75,20.22,49.99,2.36,104.99,3.56,149.04-23.78,13.7-8.5,26.58-18.13,41.11-25.25,23.07-11.3,48.49-17.05,73.77-20.76,9.62-1.41,19.28-2.49,28.97-3.38,1.91-.18,1.92-3.18,0-3-30.1,2.77-60.72,7.14-89.11,17.99-16.43,6.28-31.14,15.22-45.7,24.95-13.63,9.11-27.53,17.16-43.31,21.99-27.21,8.33-56.44,9.33-84.68,9.11-56.01-.42-112.01-6.92-167.48-14.14-75.88-9.88-151.09-22.55-225.7-39.55-51.44-11.72-102.95-25.44-155.7-29.69-56.21-4.53-111.87,3.99-165.94,19.18-37.55,10.55-73.68,24.98-112.2,31.96-40.38,7.32-81.55,9.06-122.52,8.49-81.51-1.13-162.9-11.76-244.47-7.55-18.62.96-37.17,2.78-55.6,5.62-1.9.29-1.09,3.18.8,2.89h0Z"/>
      </g>
      <path class="cls-9" d="m1.95,126.25c87.16-13.42,175.61-2.35,263.07,1.41,43.6,1.87,87.46,2.17,130.85-3.14,20.22-2.47,40.31-6.15,60-11.42,20.15-5.4,39.62-12.97,59.45-19.43,57.18-18.62,116.73-33.14,177.28-29.99,52.21,2.72,102.98,17.48,153.47,29.96,78.26,19.35,157.25,33.7,236.99,45.41,59.73,8.77,119.99,17,180.4,18.92,41.23,1.31,90.19,2.45,121.08-29.42,9.55-9.85,18.29-20,30.16-27.22,20.94-12.75,46.23-17.53,70.21-20.59,9.52-1.21,19.08-2.07,28.65-2.73,1.92-.13,1.93-3.13,0-3-29.21,2.02-59.85,5.23-87.03,16.91-14.27,6.13-26.03,15.19-36.58,26.46-9,9.61-17.72,18.87-29.74,24.74-21.5,10.51-47.22,11.73-70.68,12.1-51.65.82-103.5-5.36-154.63-11.98-83.28-10.79-166.48-23.98-248.32-42.94-54.1-12.54-107.79-29.2-162.93-36.66s-105.63-1.34-157.31,11.93c-38.55,9.9-75.38,25.31-113.82,35.32-42.71,11.13-86.96,14.74-130.98,14.99-86.88.49-173.46-12.07-260.37-8.3-20.1.87-40.13,2.72-60.02,5.78-1.9.29-1.09,3.18.8,2.89h0Z"/>
      <path class="cls-10" d="m1.95,122.08c82.95-12.8,167.22-5.61,250.61-2.51,41.73,1.55,83.59,2.25,125.27-.87,40.39-3.02,79.24-10.75,118.1-22,56.76-16.45,115.01-31.32,174.34-33.66,49.43-1.95,98.13,6.18,146.27,16.61,134.89,29.25,269.14,68,407.14,79.86,50.21,4.31,106.43,6.65,148.15-26.18,13.2-10.38,25.18-22.14,39.53-31.02,22.08-13.66,47.46-20.65,72.89-24.83,9.71-1.59,19.49-2.75,29.28-3.66,1.91-.18,1.92-3.18,0-3-30.11,2.78-60.85,7.78-88.46,20.67-16.51,7.71-30.53,18.69-44.28,30.47-12.95,11.1-26.28,21.18-42.45,27.12-26.54,9.74-55.96,10.31-83.88,9.33-56.86-1.99-113.49-11.83-169.27-22.41-77.87-14.78-154.9-33.33-232.1-51.19-49.63-11.49-99.84-22.89-150.93-24.81-52.66-1.98-104.74,7.12-155.65,19.84-36.91,9.22-73.01,21.83-110.49,28.61-41.53,7.51-83.85,9.56-125.99,9.42-83.54-.28-167.04-9.48-250.59-4.74-19.53,1.11-38.98,3.07-58.31,6.05-1.9.29-1.09,3.18.8,2.89h0Z"/>
      <path class="cls-13" d="m1.95,117.92c159.66-24.67,323.34,15.21,481.81-21.81,54.83-12.81,109.92-26.2,166-32.29,45.87-4.99,91.73-3.46,137.32,3.47,133.17,20.25,259.79,70.54,393.13,90.15,59.1,8.69,123.69,13.47,176.45-19.54,17.25-10.79,32.94-23.87,50.34-34.46,24.14-14.68,50.74-24.01,78.4-29.43,9.32-1.83,18.72-3.23,28.16-4.35,1.89-.22,1.92-3.23,0-3-31.2,3.68-62.19,10.65-90.52,24.55-19.29,9.46-36.31,22.27-53.78,34.62s-36.16,22.86-57.17,28.43c-32.44,8.6-67,7.43-100.11,4.14-133.82-13.32-260.69-63.3-392.24-88.5-45.85-8.78-92.31-13.95-139.03-11.58-51.05,2.6-101.41,12.97-151.17,24.13-35.93,8.06-71.48,17.13-108.12,21.53-40.34,4.85-81.03,5.97-121.63,5.73-81.01-.49-162.17-6.72-243.12-.9-18.58,1.33-37.1,3.37-55.52,6.22-1.9.29-1.09,3.19.8,2.89h0Z"/>
      <path class="cls-11" d="m1.95,113.75c154.15-23.87,311.1,3.67,465.36-19.17,95.85-14.19,190.56-42.79,288.35-37.35,128.25,7.13,245.47,63.2,369.14,91.75,69.82,16.12,146.19,26.54,212.76-6.46,22.22-11.02,42.5-25.42,63.9-37.88,26.44-15.4,54.54-27.06,84.4-33.95,9.29-2.14,18.67-3.85,28.11-5.24,1.9-.28,1.09-3.17-.8-2.89-32.74,4.83-64.5,14.12-94.08,29.06-22.72,11.47-43.57,26.05-65.53,38.83-23.02,13.4-47.42,23.4-73.79,27.78-40.51,6.72-82.43,2.01-122.47-5.48-126.16-23.61-243.49-81.47-371.75-95.98-43.24-4.89-86.56-3.86-129.67,1.77-47.71,6.23-94.84,16.37-142.14,25.03-35.78,6.54-71.53,12.03-107.84,14.66-38.98,2.82-78.09,3.33-117.16,3.17-77.95-.32-156.12-3.59-233.9,3.06-17.96,1.54-35.86,3.65-53.67,6.41-1.9.29-1.09,3.19.8,2.89h0Z"/>
      <path class="cls-12" d="m1.95,109.58c149.99-23.28,302.41-6.72,453.18-19.08,50.56-4.15,100.39-12.57,150.14-22.26,39.95-7.78,80-15.69,120.74-17.85,47.67-2.53,95.12,3.2,141.46,14.35,30.94,7.45,61.33,17.06,91.25,27.86,34.32,12.39,67.83,26.9,102.37,38.72,80.7,27.61,170.22,47.41,252.63,15.56,27.78-10.74,53.41-25.99,79.46-40.24,29.46-16.12,59.81-30.28,92.34-39.02,9.39-2.52,18.88-4.61,28.45-6.34,1.9-.34,1.09-3.24-.8-2.89-34.84,6.31-68,18.17-99.57,34.08-27.01,13.61-52.71,29.72-80.07,42.64-29.92,14.13-61.63,23.1-94.74,25.03-47.66,2.78-95.41-6.95-140.93-20.26-66.96-19.58-130.05-49.95-197.09-69.39-47.8-13.85-97.1-23.26-146.98-23.72-86.63-.79-170.78,25.97-256.25,36.43-147.59,18.05-296.79,2.23-444.6,16.92-17.31,1.72-34.57,3.9-51.76,6.57-1.9.3-1.09,3.19.8,2.89h0Z"/>
      <path class="cls-3" d="m1.95,105.42c143.51-22.33,289.35-16.8,434.04-20.27,49.48-1.18,97.8-4.26,146.36-14.13,37.9-7.7,75.28-17.92,113.46-24.27,41.81-6.96,84.19-8.2,126.19-2.03,58.67,8.62,115,29.53,168.47,54.6,54.6,25.6,109.65,50.02,169.83,58.86,40.34,5.92,81.26,4.16,120.64-6.63,71.73-19.66,132.98-64.97,203.97-86.8,9.58-2.94,19.27-5.48,29.05-7.63,1.88-.41,1.09-3.31-.8-2.89-37.49,8.25-72.83,22.93-107.22,39.74s-65.36,33.84-99.96,46.43c-37.49,13.64-76.85,20.08-116.74,17.78-57.59-3.32-113.42-22.56-165.51-46.38-30.57-13.97-60.56-28.81-92.05-40.67-26.71-10.06-54.06-18.55-82-24.46-42.25-8.94-85.44-11.32-128.37-6.49-37.63,4.23-74.39,13.45-111.26,21.8-41.77,9.45-83.83,16.91-126.71,18.7-144.28,6.01-289.24-1.16-433,15.23-16.45,1.88-32.85,4.08-49.2,6.63-1.9.3-1.09,3.19.8,2.89h0Z"/>
      <path class="cls-5" d="m1.95,101.25c137.77-21.5,277.72-25.81,416.94-23.36,29.42.52,59.04,2.7,88.46,1.5,18.97-.77,37.84-3.19,56.47-6.77,35.66-6.85,70.26-17.98,105.32-27.23,37.38-9.86,75.47-16.95,114.28-16.34,49.32.77,97.5,13.56,142.71,32.77,58.72,24.95,110.43,63.4,171.77,82.47,45.86,14.26,94.09,18.2,141.54,10.52,87.06-14.09,161.55-63.77,243.71-92.39,10.14-3.53,20.41-6.7,30.79-9.46,1.86-.49,1.07-3.39-.8-2.89-84.07,22.32-157.46,72.78-241.65,94.86-47.24,12.39-96.27,14.4-144.12,4.04-28.85-6.24-56.74-16.47-83.32-29.24-30.25-14.54-58.38-32.97-88.53-47.72-45.8-22.41-94.75-39.45-145.73-44.45-38.5-3.77-76.98,0-114.64,8.38-35.82,7.96-70.71,19.52-106.36,28.16-18.47,4.47-37.14,8.16-56.03,10.32-22.37,2.56-44.52,2.2-66.98,1.57-138.83-3.92-278.39-2.08-416.32,15.53-16.14,2.06-32.25,4.35-48.33,6.86-1.9.3-1.09,3.19.8,2.89h0Z"/>
      <path class="cls-4" d="m1.95,97.08c116.22-18.21,233.12-30.29,350.9-28.49,32.21.49,64.41,1.9,96.55,4.11,25.4,1.75,50.64,4.54,76.14,3.76,38.95-1.2,77.21-8.69,115.19-16.89s78.83-17.28,119.14-20.04c47.62-3.26,95.14,2.28,140.94,15.64,29.55,8.62,58.18,20.19,85.87,33.6,28.35,13.74,55.97,28,85.99,37.88,48.79,16.07,100.27,22.02,151.35,16.14,91.48-10.52,172.27-56.22,258.52-84.66,10.38-3.42,20.85-6.55,31.41-9.35,1.86-.49,1.07-3.39-.8-2.89-87.99,23.32-167.79,70.88-257.43,88.88-50.09,10.05-101.48,9.72-151.23-2.17-30.21-7.22-59.41-18.27-87.31-31.86s-55.89-27.83-85.43-38.56c-46.32-16.83-95-26.69-144.38-26.62-40.34.06-80.11,6.77-119.47,15.09-38.49,8.14-76.85,17.38-116.1,21.13-52.61,5.03-105.3-3.03-157.89-5.07-117.44-4.55-234.37,4.25-350.57,21.1-14.08,2.04-28.15,4.18-42.2,6.39-1.9.3-1.09,3.19.8,2.89h0Z"/>
      <path class="cls-7" d="m1.95,92.92c95.67-15.04,191.01-31.96,288.1-33.74,57.71-1.06,115.42,2.54,172.72,9.39,24.8,2.97,49.28,6.06,74.31,6.02,21.51-.03,42.99-1.68,64.34-4.21,42.47-5.03,84.47-13.42,126.96-18.36,47.18-5.49,94.78-6.23,141.82,1.08,27.45,4.27,54.49,11.01,80.86,19.76,30.82,10.23,59.94,24.62,90.61,35.2,52.16,18,107.21,26.04,162.32,22.42,96.68-6.36,184.78-47.47,276-76.03,11.25-3.52,22.57-6.82,33.97-9.83,1.86-.49,1.07-3.39-.8-2.89-92.72,24.53-179.79,68.38-275.38,82.19-54.01,7.8-108.94,5.16-161.79-8.59-31.21-8.12-60.2-20.88-90.03-32.85-27.86-11.17-56.55-20.36-85.88-26.81-47.46-10.44-96.06-13.07-144.45-9.31-42.28,3.28-83.97,11.07-125.88,17.23-43.09,6.33-86.62,10.31-130.14,6.39-30-2.71-59.79-7.3-89.84-9.78-28.58-2.36-57.23-3.79-85.91-4.13-96.35-1.15-191.05,12.8-285.9,28.09-12.26,1.98-24.53,3.94-36.8,5.87-1.9.3-1.09,3.19.8,2.89h0Z"/>
      <path class="cls-8" d="m1.95,88.75c80.27-12.65,159.48-32.31,240.76-37.82,48.4-3.28,96.97-1.89,145.22,2.85,54.25,5.34,107.72,18.3,162.31,19.71,95.34,2.47,189.3-20.34,284.76-16.71,59.02,2.24,116.25,14.27,172.03,33.41,55.32,18.98,113.46,28.54,171.96,27.28,103.66-2.23,200.91-38.2,299.23-67.04,11.86-3.48,23.77-6.82,35.72-9.98,1.87-.49,1.07-3.39-.8-2.89-99.4,26.24-195.72,65.81-298.98,74.96-58.17,5.15-116.73.32-173.12-14.99-30.5-8.28-59.89-19.92-90.6-27.52-26.66-6.6-53.78-11.26-81.11-13.91-50.08-4.86-100.31-2.47-150.29,2.4-46.07,4.49-92.05,10.73-138.37,11.97-23.35.62-46.74-.05-69.97-2.59-28.99-3.17-57.65-9.16-86.58-12.93-50.74-6.62-101.95-10.06-153.12-8.42-80.65,2.59-159,20.2-238.17,34.07-10.54,1.85-21.1,3.61-31.68,5.28-1.9.3-1.09,3.19.8,2.89h0Z"/>
      <path class="cls-6" d="m1.95,84.58c68.67-10.85,135.41-31.79,204.38-40.78,39.1-5.1,78.59-6.15,117.95-3.87,56.06,3.25,110.86,13.51,165.85,24.31,101.41,19.92,204.18,3.89,306.29.86,58.25-1.73,116.58,1.17,173.87,12.37,30.94,6.05,61.22,14.61,92.44,19.31,29.17,4.39,58.64,6.68,88.14,6.93,111.39.94,218.9-28.36,325.49-57.34,12.52-3.4,25.04-6.78,37.58-10.08,1.87-.49,1.07-3.39-.8-2.89-107.1,28.2-213.72,61.37-325.12,66.59-61.63,2.89-123.1-3.04-183-17.83-57.02-14.07-115.27-20.41-173.95-20.55-103.2-.25-206.72,18.34-309.71,4.73-29.63-3.92-58.71-11.12-88.14-16.25-26.09-4.55-52.34-8.28-78.7-10.82-41.72-4.01-83.76-4.84-125.52-1-68,6.27-133.44,26.16-200.34,38.68-9.15,1.71-18.32,3.29-27.51,4.74-1.9.3-1.09,3.19.8,2.89h0Z"/>
      <path class="cls-1" d="m1.95,80.42c59.73-9.45,116.39-30.48,175.44-42.7,78.8-16.31,159-9.49,237.44,5.75,29.44,5.72,58.39,13.49,87.74,19.62,27.23,5.69,54.87,9.33,82.6,11.45,57.01,4.36,114.24,2.36,171.3.3,60.08-2.17,120.25-4.27,180.32-.6,31.61,1.93,62.79,6.54,94.23,10.01,31.13,3.43,62.44,5.25,93.76,5.59,118.02,1.27,234.8-19.06,348.99-47.42,13.42-3.33,26.81-6.78,40.19-10.29,1.87-.49,1.07-3.38-.8-2.89-114.15,29.96-230.42,53.92-348.75,57.25-30.9.87-61.85.37-92.7-1.67-31.77-2.1-63.12-6.92-94.74-10.26-60.74-6.41-121.86-5.99-182.83-4.04-57.43,1.84-114.91,4.95-172.39,3-29.12-.98-58.23-3.28-87.05-7.68-29.6-4.52-58.41-12.26-87.61-18.72-81.38-17.98-165.89-29.62-248.89-16.28-58.47,9.4-114.14,30.77-172.16,42.27-8.27,1.64-16.56,3.1-24.89,4.42-1.9.3-1.09,3.19.8,2.89h0Z"/>
      <path class="cls-2" d="m1.95,76.25c28.81-4.57,56.93-12.01,84.6-21.19,24.18-8.02,48.02-17.06,72.54-24.02,68.01-19.31,137.9-16.29,206.97-4.03,27.06,4.81,53.89,10.87,80.52,17.66,30.92,7.9,61.41,17,92.82,22.88,60.94,11.4,123.06,14.76,184.96,14.88,63.01.13,125.97-3.07,188.94-4.78,63.9-1.73,127.78.09,191.68-1.05,122.76-2.19,246.32-11.64,366.39-38.35,14.25-3.17,28.44-6.61,42.57-10.31,1.87-.49,1.07-3.38-.8-2.89-119.95,31.37-244.33,43.52-367.98,47.54-63.49,2.07-126.92.36-190.41,1.2-63.5.84-126.92,4.24-190.41,5.32-63.66,1.08-127.62-.12-190.76-9s-119.18-28.17-179.3-40.69c-71.49-14.89-145.84-22.94-217.71-6.04-51.62,12.14-100.02,34.76-152.03,45.68-7.76,1.63-15.57,3.05-23.4,4.29-1.9.3-1.09,3.19.8,2.89h0Z"/>
      <g class="cls-18">
        <path class="cls-2" d="m1.95,72.08c55.88-14.74,110.72-34.33,167.92-43.55,76.78-12.38,155.21-5.1,231.55,6.95,58.69,9.27,116.52,22.76,175.63,29.42,60.64,6.83,121.68,8.99,182.67,9.24,60.53.24,121.04-1.35,181.56-1.72,60.81-.37,121.58,1.12,182.38-.37,117-2.87,234.63-12.66,349.03-38.25,13.81-3.09,27.57-6.44,41.26-10.02,1.87-.49,1.07-3.38-.8-2.89-114.4,29.92-232.86,42.29-350.78,46.93-60.77,2.39-121.47,1.84-182.27,1.56-60.61-.28-121.21,1.29-181.82,1.69-60.25.4-120.58-.41-180.66-5.26-32-2.58-63.92-6.3-95.61-11.46s-60.05-11.5-90.16-16.8c-79.62-14.02-161.78-24.46-242.56-14.75-56.35,6.77-110.08,24.71-164.5,39.96-7.86,2.2-15.74,4.35-23.64,6.43-1.87.49-1.07,3.39.8,2.89h0Z"/>
      </g>
      <g class="cls-16">
        <path class="cls-2" d="m1.95,67.92C62.02,44.9,123.63,29.35,188.02,25.83c86.52-4.73,173.72,5.72,259.48,15.95,59.4,7.09,118.68,13.94,178.39,17.88,55.46,3.67,111.02,5.56,166.59,6.58,55.24,1.01,110.49,1.18,165.73,1.68,58.52.53,116.99,1.35,175.49-.3,114.1-3.22,228.75-13.2,340.29-38.28,13.38-3.01,26.69-6.26,39.96-9.73,1.87-.49,1.07-3.38-.8-2.89-111.63,29.2-227.13,41.66-342.19,46.57-114.03,4.87-228.47,1.93-342.56.49-114.31-1.44-228.52-6.26-342.05-20.25-91.65-11.3-184.4-23.72-276.96-21.53-63.33,1.49-124.74,13.15-184.44,34.24-7.97,2.82-15.9,5.76-23.8,8.79-1.78.68-1.01,3.59.8,2.89h0Z"/>
      </g>
      <g class="cls-17">
        <path class="cls-2" d="m2.31,63.6C67.36,29.85,139.3,30.02,210.64,35.02c43.42,3.05,86.75,7.09,130.25,8.93,54.08,2.28,107.6,0,161.58-3.24,105.77-6.35,210.94,2.03,316.21,11.73,49.66,4.57,99.35,8.93,149.19,10.85,57.12,2.2,114.45,1.73,171.58-.01,112.63-3.42,225.77-13.52,335.86-38.4,12.94-2.92,25.82-6.08,38.65-9.43,1.87-.49,1.07-3.38-.8-2.89-110.24,28.84-224.27,41.33-337.9,46.39s-217.69,2.88-326.35-6.76c-104.36-9.26-208.5-19.78-313.43-16.05-55.76,1.98-111.06,6.97-166.94,5.72-44.94-1.01-89.73-4.6-134.53-8.08-70.49-5.47-143.76-10.73-210.69,16.75-7.67,3.15-15.17,6.67-22.53,10.49-1.71.89-.2,3.48,1.51,2.59h0Z"/>
      </g>
      <g class="cls-15">
        <path class="cls-2" d="m2.31,59.43C71.19,12.83,158.11,24.11,236.13,32.91c48.56,5.47,97.16,10.97,146.08,11.49,26.44.28,52.91-.84,79.2-3.73,28.58-3.14,56.9-7.82,85.59-10.1,97.24-7.75,193.23,3.14,289.57,15.38,45.57,5.79,91.22,11.13,137.13,13.23,56.08,2.56,112.52,1.62,168.61-.14,111.68-3.52,223.84-13.64,332.99-38.31,12.94-2.92,25.82-6.08,38.65-9.43,1.87-.49,1.07-3.38-.8-2.89-109.32,28.59-222.36,41.11-335.04,46.26-58.18,2.66-116.46,3.32-174.69,2.43-46.53-.71-92.86-5.09-139.02-10.68-95.36-11.53-190.19-25.21-286.55-20.78-55.59,2.55-110.27,13.75-165.86,15.48-50.12,1.56-100.09-2.75-149.85-8.26C185.08,24.29,98.24,7.92,25.17,42.79c-8.48,4.05-16.59,8.78-24.37,14.05-1.59,1.08-.09,3.68,1.51,2.59h0Z"/>
      </g>
      <g class="cls-14">
        <path class="cls-2" d="m2.61,55.03C72.28-5.04,175.94,12.16,259.46,22.76c51.3,6.51,102.7,13.48,154.48,14.24,54.27.8,107.93-8.67,162.09-10.88,90.94-3.71,180.6,6.57,270.69,17.46,42.09,5.08,84.26,9.59,126.63,11.45,55.25,2.42,110.82,1.6,166.09-.08,112.64-3.42,225.77-13.53,335.86-38.4,12.94-2.92,25.82-6.08,38.65-9.43,1.87-.49,1.07-3.38-.8-2.89-110.24,28.84-224.27,41.33-337.9,46.39-101.84,4.53-203.7,4.34-305.05-7.26-89.05-10.2-177.54-22.47-267.42-21-26.92.44-53.81,1.89-80.62,4.26-27.51,2.43-54.82,6.43-82.46,7.23-52.06,1.5-103.96-4.4-155.52-10.92-47.98-6.07-96.22-13.31-144.69-13.18-40.05.11-81.41,5.86-116.34,26.71C15.1,41.24,7.58,46.8.49,52.91c-1.46,1.26.67,3.38,2.12,2.12h0Z"/>
      </g>
      <g class="cls-19">
        <path class="cls-2" d="m2.61,50.86C61.81-13.33,164.13,4.32,240.74,15.97c46.47,7.07,92.88,15.42,139.82,18.74,22.71,1.61,45.57,2.02,68.26,0,25.08-2.23,49.41-8.74,74.16-13.06,53.11-9.27,107.07-13.03,160.93-10.29,44.49,2.27,88.5,9.04,132.32,16.83,40.95,7.28,81.83,15.06,123.21,19.51,54.89,5.9,110.45,4.88,165.57,3.9,122.76-2.19,246.32-11.64,366.39-38.35,14.25-3.17,28.44-6.61,42.57-10.31,1.87-.49,1.07-3.38-.8-2.89-120.88,31.62-246.24,43.71-370.84,47.64-58.43,1.84-117.64,3.58-176.01-.57-43.62-3.1-86.7-10.56-129.69-18.3-42.02-7.56-84.11-14.99-126.68-18.66-50.97-4.39-102.22-3.27-152.96,3.31-28.44,3.69-56.19,10.15-84.38,15.13-22.46,3.97-45.38,4.91-68.15,4.3-48.32-1.29-96.18-9.4-143.84-16.87C216.54,9.13,171.97,1.9,127.23,2.3c-37.24.34-76.17,6.61-107.03,28.87-7.17,5.17-13.72,11.08-19.71,17.57-1.31,1.42.81,3.54,2.12,2.12h0Z"/>
      </g>
    </g>
  </g>
</svg>