<?xml version="1.0" encoding="utf-8"?>
<!-- Generator: Adobe Illustrator 27.5.0, SVG Export Plug-In . SVG Version: 6.00 Build 0)  -->
<svg version="1.1" id="Layer_1" xmlns="http://www.w3.org/2000/svg" xmlns:xlink="http://www.w3.org/1999/xlink" x="0px" y="0px"
	 viewBox="0 0 1512 200" style="enable-background:new 0 0 1512 200;" xml:space="preserve">
<style type="text/css">
	.st0{opacity:0;}
	.st1{fill:#238C6E;}
	.st2{opacity:0.1667;}
	.st3{opacity:0.3333;}
	.st4{opacity:0.5;}
	.st5{opacity:0.6667;}
	.st6{opacity:0.8333;}
	.st7{fill:#3C9284;}
	.st8{fill:#54979A;}
	.st9{fill:#6D9DB0;}
	.st10{fill:#86A3C6;}
	.st11{fill:#9EA8DC;}
	.st12{fill:#B7AEF2;}
	.st13{fill:#C1AFED;}
	.st14{fill:#CBB0E9;}
	.st15{fill:#D4B1E4;}
	.st16{fill:#DEB1DF;}
	.st17{fill:#E8B2DB;}
	.st18{fill:#F2B3D6;}
	.st19{opacity:9.090909e-02;}
	.st20{opacity:0.1818;}
	.st21{opacity:0.2727;}
	.st22{opacity:0.3636;}
	.st23{opacity:0.4545;}
	.st24{opacity:0.5455;}
	.st25{opacity:0.6364;}
	.st26{opacity:0.7273;}
	.st27{opacity:0.8182;}
	.st28{opacity:0.9091;}
	.st29{fill:#308F7A;}
	.st30{fill:#3E9286;}
	.st31{fill:#4B9592;}
	.st32{fill:#59989E;}
	.st33{fill:#669BAA;}
	.st34{fill:#749FB6;}
	.st35{fill:#81A2C2;}
	.st36{fill:#8FA5CE;}
	.st37{fill:#9CA8DA;}
	.st38{fill:#AAABE6;}
	.st39{fill:#BCAEEF;}
	.st40{fill:#C2AFED;}
	.st41{fill:#C7AFEA;}
	.st42{fill:#CCB0E8;}
	.st43{fill:#D2B0E5;}
	.st44{fill:#D7B1E3;}
	.st45{fill:#DDB1E0;}
	.st46{fill:#E2B2DE;}
	.st47{fill:#E7B2DB;}
	.st48{fill:#EDB3D9;}
</style>
<g>
	<g class="st0">
		<g>
			<path class="st1" d="M0,156.7c62.8,2.9,125.8,2.9,188.5-1.9c52.1-4,103.9-11.2,155.5-19.5c28.1-4.5,56.1-9.2,84.1-13.7
				c30.1-4.9,60.2-10.6,90.7-12.6c41.3-2.6,82.2,2.7,119.8,20.6c27.2,13,51.5,31.3,78.7,44.2c32.6,15.4,67.7,20.1,103.5,16.9
				c24.9-2.2,48.8-8.8,73.3-13.1c25.2-4.5,50.8-6.8,76.3-8.1c55.8-2.8,111.8-0.6,167.6,1.9c58.6,2.7,117.1,6.1,175.7,6.5
				c54.3,0.4,109.2-1.3,162.8-11c12.1-2.2,24-4.8,35.9-7.9c1.9-0.5,1.1-3.4-0.8-2.9c-52.3,13.7-106.6,17.7-160.5,18.6
				c-57.9,1-115.8-1.8-173.6-4.5c-57-2.7-114.1-5.7-171.2-4.9c-25.8,0.4-51.7,1.5-77.4,4.3c-24.2,2.6-47.7,7.7-71.5,12.5
				c-40.7,8.2-83.3,10.2-122.8-4.4c-28.6-10.5-53.3-28.7-79.8-43.3c-31.4-17.3-65.2-27.2-101.1-28.9c-26-1.3-51.9,1.3-77.6,5.3
				c-29.9,4.6-59.8,9.5-89.7,14.4c-53.1,8.7-106.2,17.4-159.7,23c-58.2,6-116.7,8.2-175.2,7.1c-17.2-0.3-34.4-0.9-51.5-1.7
				C-1.9,153.6-1.9,156.6,0,156.7L0,156.7z"/>
		</g>
	</g>
	<g class="st19">
		<g>
			<path class="st1" d="M0,152.2c60.7,1.2,121.4,0,181.9-4.8c51.3-4,102.3-10.6,153.2-17.9c57-8.2,114.2-18.8,171.6-23.7
				c42.5-3.7,85.7-1.5,126.2,12.8c28.6,10.1,54.5,26.2,82,38.9c31.2,14.4,64.1,22.2,98.5,23c24.6,0.6,49.1-2,73.4-5.6
				c25.4-3.8,51.1-5.9,76.7-7c55.8-2.6,111.8-1.1,167.7,0.6c114.1,3.3,230.5,9.9,343.5-10.4c12.6-2.3,25.1-4.9,37.6-8
				c1.9-0.5,1.1-3.4-0.8-2.9c-111,27.5-228,22.8-341.4,19.4c-57-1.7-114.1-3.8-171.1-2.8c-26.1,0.5-52.3,1.6-78.3,4
				c-25.2,2.4-50.2,7.2-75.5,8.9c-38.8,2.7-77.5-1-113.8-15.4c-27.7-10.9-53.1-27-80.4-38.8c-87.5-37.8-183.2-15.5-273.7-2.2
				c-52.3,7.7-104.5,15.3-157.1,20.6c-56.9,5.7-114.1,8.6-171.3,8.7c-16.3,0-32.7-0.1-49-0.5C-1.9,149.1-1.9,152.1,0,152.2L0,152.2z
				"/>
		</g>
	</g>
	<g class="st20">
		<g>
			<path class="st1" d="M0,147.6c110.5-0.7,220-10.5,329.5-24.6c55.2-7.1,110.3-15.2,165.7-20.4c44.1-4.2,89.3-4.2,132.5,6.8
				c29.6,7.5,57,20.7,85,32.6c30.5,13,61.9,22.2,94.9,25.9c50.4,5.7,100.9-1.1,151.4-2.5c55.9-1.5,111.9-0.4,167.8,0.4
				c115.2,1.7,231.8,3.8,345.6-16.6c13.4-2.4,26.8-5.2,40.1-8.3c1.9-0.4,1.1-3.3-0.8-2.9c-113.3,26.5-231.3,26.7-347,25.3
				c-56.5-0.7-113-2.1-169.5-1.6c-26.4,0.2-52.9,0.9-79.3,2.5c-26,1.5-51.8,3.7-77.9,2.8c-37.1-1.2-73.4-8-108.1-21.3
				c-27.6-10.6-53.9-24.3-81.9-33.5c-36.8-12.1-75.3-16-113.9-15c-56,1.5-112,10.9-167.4,18.1c-106,13.7-211.9,26-318.9,28.6
				c-15.9,0.4-31.8,0.6-47.6,0.7C-1.9,144.6-1.9,147.6,0,147.6L0,147.6z"/>
		</g>
	</g>
	<g class="st21">
		<g>
			<path class="st1" d="M0,143.1c108.6-3.7,216.5-14.3,324.3-26.6C378.2,110.3,432,104,486,99.1c45.4-4.1,91.7-5.3,136.7,2.6
				c29.7,5.2,57.9,15,86.1,25.4c30.6,11.3,61.4,21.2,93.6,26.8c48.2,8.4,96.7,7.7,145.4,8c56.7,0.4,113.3,1.6,170,1.8
				c117.4,0.6,235.6-2.4,351.5-23.3c14.4-2.6,28.8-5.5,43.2-8.7c1.9-0.4,1.1-3.3-0.8-2.9c-116.5,25.8-236.4,31.4-355.4,31.8
				c-57.4,0.2-114.8-0.9-172.2-1.5c-52.1-0.6-104.6,1.6-156.5-4.7c-34.7-4.2-68.4-12.7-101.3-24.4c-27.5-9.8-54.6-20.7-83-27.4
				c-38.6-9.1-78.5-11-118.1-9.4c-55.1,2.3-110.1,9.7-164.9,15.9c-104.4,11.9-208.7,23.8-313.7,28.8c-15.5,0.7-31,1.4-46.5,1.9
				C-1.9,140.2-1.9,143.2,0,143.1L0,143.1z"/>
		</g>
	</g>
	<g class="st22">
		<g>
			<path class="st1" d="M0,138.5c107-6.7,213.5-18,320.1-28.9c53.4-5.4,106.8-10.5,160.3-14.6c45.8-3.5,92.2-5.2,138-0.1
				c62,6.9,119.6,31.3,180.3,44.2c46.6,9.9,93.9,14.4,141.4,17.3c57.3,3.5,114.6,5.5,172,5.5c118.8,0,237.8-8.9,354.7-30.2
				c15.3-2.8,30.5-5.8,45.7-9c1.9-0.4,1.1-3.3-0.8-2.9c-118.3,24.8-239,36.6-359.8,38.7c-58.2,1-116.3-0.2-174.4-3.1
				c-52.1-2.6-104.2-5.7-155.6-14.9c-32.8-5.9-64.9-14.6-96.8-24.3c-27.8-8.5-55.6-16.7-84.3-21.3c-39.8-6.5-80.4-7.1-120.6-5.4
				c-54.4,2.3-108.8,8-162.9,13.3c-104.4,10.3-208.6,22.1-313.2,29.6c-14.6,1.1-29.3,2-43.9,3C-1.9,135.7-1.9,138.7,0,138.5L0,138.5
				z"/>
		</g>
	</g>
	<g class="st23">
		<g>
			<path class="st1" d="M0,134c108.9-10.2,217.6-22.5,326.5-32.1c54.6-4.8,109.3-9,164.1-12c45.9-2.5,92.1-3.7,138,0.1
				c63.7,5.3,124.4,25.1,186.7,38.4c103.3,22.2,209.2,33.1,314.9,31.5c113.7-1.6,226.6-17,338.3-37.8c14.7-2.7,29.3-5.6,44-8.5
				c1.9-0.4,1.1-3.3-0.8-2.9c-113.9,22.6-229,40.7-345.2,45.2c-109.5,4.3-218.9-4.5-326.4-25.6c-63.1-12.3-124.7-33.1-188.6-41.1
				c-40.2-5-80.9-5.3-121.3-4.1c-55.5,1.7-111,6-166.4,10.5c-106.7,8.8-213.1,20.8-319.6,31.1c-14.7,1.4-29.3,2.8-44,4.2
				C-1.9,131.2-1.9,134.2,0,134L0,134z"/>
		</g>
	</g>
	<g class="st24">
		<g>
			<path class="st1" d="M0,129.5c111.8-14,223.7-27.1,336-35.4c56.6-4.2,113.3-7.2,170-9.1c44.4-1.5,89-2.6,133.4-0.3
				c64.9,3.3,127.4,18.5,190.6,32.8c50.9,11.5,102,23.4,153.7,31.2c52.5,7.9,105.6,10.9,158.6,9.4c109.5-3.1,217.5-24.5,324.9-44.9
				c15.1-2.9,30.1-5.7,45.2-8.5c1.9-0.4,1.1-3.2-0.8-2.9c-110.6,20.7-221.3,44.6-333.9,51.6c-53,3.3-106.2,2.6-159-3.2
				c-55-6-109.3-18.1-163.3-30.1c-64.2-14.2-128-31.7-193.8-37c-39.3-3.2-78.8-3-118.1-2.2c-56.4,1.2-112.9,3.9-169.2,7.6
				c-110,7.1-219.5,19-328.9,32.4c-15.2,1.9-30.3,3.7-45.4,5.6C-1.9,126.7-1.9,129.7,0,129.5L0,129.5z"/>
		</g>
	</g>
	<g class="st25">
		<g>
			<path class="st1" d="M0.4,124.9c116.4-18.5,233.5-32.1,351.3-38.6c58.3-3.3,116.7-4.6,175.1-5.9c42-1,84-2.3,125.9-1.7
				c30.7,0.4,61.3,2.3,91.7,6.9c34.9,5.2,69.4,13.3,103.7,21.8c52.3,12.9,104.2,28.9,157.2,38.6c50.2,9.1,101.3,12.3,152.2,9.8
				c105-5.2,207.6-32.1,310.4-51.9c14.8-2.8,29.6-5.6,44.4-8.2c1.9-0.3,1.1-3.2-0.8-2.9c-107.3,18.9-213.6,47.9-322.4,57.7
				c-50.8,4.6-102,4.2-152.6-2.6c-55.5-7.4-109.3-23.5-163.4-37.3c-65.9-16.7-131.7-31.9-199.8-34.4c-38-1.4-76.1-0.4-114.1,0.4
				c-56.9,1.2-113.8,2.3-170.6,4.8C273.6,86.6,159,98.1,45.1,115c-15.2,2.3-30.3,4.6-45.5,7C-2.3,122.3-1.5,125.2,0.4,124.9
				L0.4,124.9z"/>
		</g>
	</g>
	<g class="st26">
		<g>
			<path class="st1" d="M0.4,120.3C120.7,97,242.3,82.5,364.8,78.2c59.5-2.1,119.1-0.8,178.6-1.6c40.7-0.5,81.4-2.3,122.1-3.4
				c30.4-0.8,60.8-0.7,91.1,2.6c37.2,4,73.8,12.4,109.8,22.1c53.7,14.5,106.1,34.6,160.6,45.9c47.8,9.9,96.7,13.1,145.3,9.3
				c100.2-7.7,197-39.6,295.3-58.7c14.8-2.9,29.7-5.6,44.7-8c1.9-0.3,1.1-3.2-0.8-2.9c-55.7,9.3-110.6,21.9-165.5,34.9
				c-47.5,11.2-95.1,22.6-143.5,28.7c-48.4,6.1-97.3,6.4-145.6-0.9c-56.2-8.5-109.3-28.2-163.6-43.8
				c-38.6-11.1-77.6-21.3-117.4-27.1c-29.7-4.3-59.6-5.7-89.7-5.4c-37.1,0.4-74.2,2.3-111.3,3.2c-56.9,1.3-113.9,0-170.8,1.1
				c-120,2.3-239.6,13.8-357.8,34.6c-15.6,2.7-31.2,5.7-46.8,8.7C-2.3,117.8-1.5,120.7,0.4,120.3L0.4,120.3z"/>
		</g>
	</g>
	<g class="st27">
		<g>
			<path class="st1" d="M0.4,115.8C124.7,87,251.7,74.5,379.2,72.2c60.1-1.1,120.2,1.2,180.3-0.6c39.5-1.2,78.8-4.3,118.2-7.1
				c30.9-2.1,61.8-3.3,92.7-0.4c38.9,3.6,76.9,13.1,114.2,24.5c54.8,16.7,107.4,40.7,163.2,53.6c45.2,10.4,91.7,13.4,137.8,8.4
				c44.2-4.7,87.4-15.9,130.2-27.6c50.3-13.7,100.6-27.7,151.8-37.8c14.9-2.9,29.8-5.5,44.7-7.9c1.9-0.3,1.1-3.2-0.8-2.9
				c-55.1,8.6-109.1,21.7-162.8,36.4c-44.1,12-88.1,24.9-133.2,32.6c-46.3,7.8-93.3,8.9-139.7,1.2c-56.6-9.3-108.9-32.1-163-50.1
				c-40.2-13.3-81.1-25.2-123.1-31.1c-30.3-4.3-60.8-4.7-91.3-3.1c-36.5,1.9-72.9,5.4-109.4,7.2c-56.1,2.7-112.1,1.2-168.3,1.4
				C295.6,69.2,170.3,78,47.3,102.6c-16,3.2-31.9,6.6-47.7,10.3C-2.3,113.3-1.5,116.2,0.4,115.8L0.4,115.8z"/>
		</g>
	</g>
	<g class="st28">
		<g>
			<path class="st1" d="M0.4,111.2C128.9,76.5,261.9,65.6,394.7,66c59.5,0.2,118.9,3.9,178.4,1.2c39-1.8,77.7-6.3,116.5-10.7
				c31.1-3.5,62.3-6,93.5-3.6c41,3.1,81,13.9,119.7,27.1c54.9,18.8,106.9,46.1,163.4,60.3c42.8,10.8,86.8,13.7,130.6,7.7
				c42.3-5.8,83.1-19,123.6-31.9c48.5-15.5,97.2-30.3,147.3-40.2c14.8-2.9,29.7-5.5,44.7-7.7c1.9-0.3,1.1-3.2-0.8-2.9
				c-54.3,8-107.4,21.4-159.8,37.7c-41.9,13-83.4,27.8-126.4,36.9c-43.1,9.2-87.1,11-130.7,3.4c-57.4-10-109-35.8-163.1-56.2
				C890.4,71.7,848,58.1,804.2,52.2c-31.4-4.3-62.9-3.8-94.4-0.7c-35.7,3.4-71.2,8.4-107,11c-55.5,4.1-110.7,2.1-166.2,1
				C306.4,61,175.4,67.5,48,96.3c-16.2,3.7-32.4,7.7-48.4,12C-2.3,108.8-1.5,111.7,0.4,111.2L0.4,111.2z"/>
		</g>
	</g>
	<g>
		<g>
			<path class="st1" d="M0.4,106.7c129.8-40.5,266.5-49.4,401.7-46.5c59.6,1.3,119,6.3,178.6,2.8c38.8-2.3,77-8.1,115.3-14.2
				c32.4-5.1,64.9-9.3,97.7-7.4c42.4,2.5,83.6,14.2,123.2,29.1c55.7,20.9,107.5,51.8,165.1,67.8c40.9,11.4,83.3,14.5,125.2,7.3
				c40.2-6.9,78.4-21.9,116.5-36c47.1-17.4,94.7-33,143.9-42.9c14.8-3,29.7-5.4,44.7-7.5c1.9-0.3,1.1-3.2-0.8-2.9
				c-54,7.5-106.6,21.2-158,39.3c-39.8,14-78.8,30.5-119.7,41.1c-40.8,10.6-82.6,12.9-124.1,5.1c-57.7-11-108.4-39.6-161.9-62.1
				c-42.3-17.8-86.3-33.2-132-39.1c-32.3-4.2-64.5-2.6-96.7,1.8c-36.3,5-72.3,11.8-108.9,15.3c-55.3,5.4-110.1,3-165.5,0.9
				c-132.9-5.1-267.8-1-397.4,31.8c-16.1,4.1-32.1,8.6-47.9,13.5C-2.2,104.4-1.5,107.3,0.4,106.7L0.4,106.7z"/>
		</g>
	</g>
	<g>
		<g>
			<path class="st29" d="M0.4,102.1c125.7-39.3,256.7-58.7,388.4-53.9c59.9,2.2,119.1,11.3,179.1,10.1c38.7-0.7,77-5.4,115.1-11.7
				c31.1-5.2,62.2-10.9,93.9-11.3c38.8-0.5,77,7.3,113.9,19.1c27.5,8.8,54.4,19.6,80.8,31.4c27.4,12.2,54.5,24.9,83.2,33.9
				c44.5,14.1,91.1,20.1,137.6,15.1c43.2-4.6,84.7-17.7,125.8-31.3c49.4-16.3,98.8-32.8,149.6-44.4c14.8-3.4,29.7-6.3,44.7-9
				c1.9-0.3,1.1-3.2-0.8-2.9c-55.2,9.7-108.9,25-162,42.6c-42.3,14-84.6,29.2-128.5,37.6c-45.8,8.7-92.3,7.9-137.8-3
				c-57.7-13.8-109.4-43.2-164.7-63.7c-38.7-14.3-79-25.5-120.4-28c-31.1-1.8-61.9,1.9-92.5,7c-36.3,6-72.5,12.2-109.3,14.4
				c-24.2,1.5-48.4,1.6-72.5,0.6c-30.8-1.2-61.4-5-92.2-7.3c-129.5-9.5-259.5,3.7-384.8,37.8c-15.8,4.3-31.6,9-47.3,13.9
				C-2.2,99.8-1.5,102.7,0.4,102.1L0.4,102.1z"/>
		</g>
	</g>
	<g>
		<g>
			<path class="st30" d="M0.4,97.6c121.3-38,246.2-67.6,374.2-61.3c59.8,3,118.5,16,178.5,17.5c38.8,0.9,77.3-2.3,115.5-8.8
				c30.3-5.1,60.4-12.1,91-14.7c35.4-3,70.5,0.8,104.9,9.4c23.7,5.9,47,13.9,69.8,22.8c29.3,11.5,57.6,25.5,87.3,36.1
				c48.7,17.4,99.8,27,151.6,24.9c46.7-1.9,92.4-12.8,137.1-25.8c52.3-15.2,104-32.4,156.9-45.9c15-3.8,30.1-7.4,45.3-10.6
				c1.9-0.4,1.1-3.3-0.8-2.9c-56.4,12.2-111.4,29-166.5,45.8c-46.4,14.2-93.3,28.3-141.7,34c-50.8,6-101.6,1.4-150.8-12.6
				c-56-16-107.2-44.7-162.9-61.8C854,32.6,817,25.6,779.6,26.3c-29.9,0.6-59.3,6.2-88.6,11.7c-36.1,6.7-72.4,12-109.2,12.9
				c-24,0.6-48-0.4-71.9-2.5c-31.3-2.8-62.1-8.4-93.3-11.7c-125.6-13.3-249.7,8.8-370,43.9C30.8,85,15.2,89.8-0.4,94.7
				C-2.2,95.3-1.5,98.2,0.4,97.6L0.4,97.6z"/>
		</g>
	</g>
	<g>
		<g>
			<path class="st31" d="M0.4,93c119-37.4,239.8-77.3,366.4-68.1c58.7,4.3,115.6,20.6,174.5,24.3c38.6,2.4,77.1,0.5,115.2-6
				c29-4.9,57.5-12.4,86.6-16.9c32.5-5,65.2-4.8,97.7,0.9C891,36,937,56.5,984.1,75.3c52.8,21,108.6,34.5,165.5,35.8
				c109,2.6,213.5-37.5,316.9-66.6c15.2-4.3,30.5-8.4,45.8-12.4c1.9-0.5,1.1-3.4-0.8-2.9c-58.2,15.1-115.4,33.4-173.3,49.5
				c-50.8,14.1-102.5,26.2-155.3,28.9c-55.7,2.9-111.1-5.5-164.1-22.9C989,75,960.6,61.5,931.3,50.3c-22.4-8.6-45.3-16.1-68.7-21.6
				c-32.8-7.7-66.4-11-100-7.8c-28.7,2.7-56.7,9.7-85,15.4c-35.4,7.1-71,11.4-107.2,11.1c-24-0.2-47.9-2.1-71.7-5.2
				c-31.2-4.1-61.8-11.5-92.9-15.9c-59.6-8.5-119.9-6.9-179.2,2.9C165.2,39.2,105.6,57,46.4,75.5c-15.6,4.9-31.2,9.8-46.8,14.7
				C-2.2,90.7-1.5,93.6,0.4,93L0.4,93z"/>
		</g>
	</g>
	<g>
		<g>
			<path class="st32" d="M0.4,88.5C116.4,52,232.5,1.6,356.9,13.6c32.9,3.2,64.4,11.7,96.6,18.8c25.3,5.5,50.9,9.9,76.7,12.5
				c37.8,3.7,75.8,3.1,113.2-3.1c28.8-4.7,56.8-12.8,85.2-18.9c29.8-6.4,59.9-9.2,90.3-6.4c44.7,4.2,88,18.6,129.2,35.6
				c57.1,23.5,116.1,40.7,178,45.5c116.5,8.9,229.3-26.1,339.2-59.9c15.7-4.8,31.4-9.7,47.1-14.5c1.8-0.6,1.1-3.5-0.8-2.9
				c-113.5,34.7-229.2,76.4-349.4,75.8c-61.1-0.3-121.3-12.3-178.6-33.1c-27.3-9.9-53.6-22-81.2-31c-20.2-6.6-40.8-12.1-61.8-15.6
				c-30.9-5.1-62-5.2-92.9-0.2c-28,4.6-55.3,12.7-83,18.6c-34.8,7.4-70.2,10.6-105.8,9.1c-24.6-1-49.1-4-73.3-8.2
				C455,30.3,425.3,21.6,394.9,16c-58-10.7-116.8-8.8-174.5,2.8C161.3,30.7,104.2,51.2,47,70.2C31.2,75.5,15.4,80.6-0.4,85.6
				C-2.2,86.2-1.5,89.1,0.4,88.5L0.4,88.5z"/>
		</g>
	</g>
	<g>
		<g>
			<path class="st33" d="M0.4,83.9c111.2-35.1,221-95,341.2-82c33.1,3.6,64.1,13.4,96.1,22c25.9,6.9,52.1,12.7,78.7,16.3
				c37.7,5.2,75.9,6.1,113.6,0.3c56.9-8.7,110.3-33.7,168.7-33.2c40.6,0.4,80.4,10.7,118.4,24.4c30.6,11,60.3,23.5,91.7,32.4
				c30.4,8.6,61.4,15,92.8,18.8c123.8,15,246.1-13.3,362.9-52.2c16.1-5.4,32-10.9,48-16.6c1.8-0.6,1-3.5-0.8-2.9
				c-118.9,42.2-242.7,78.9-370.2,72.2c-65.9-3.5-130.6-18.5-192.1-42.4C907.4,24.7,865.1,9.6,820.1,5.5c-29.7-2.7-59.2,0.2-88.1,7
				c-27,6.4-53.4,15.3-80.6,21.1c-35,7.5-70.7,9.6-106.3,6.8c-25.1-2-50-6.1-74.5-11.5c-30.8-6.8-60.6-17.3-91.3-23.9
				C323.9-6.9,267.7-4.6,213,8.8C156.1,22.8,101.9,45.8,46.8,65.2C31.2,70.8,15.4,76.1-0.4,81.1C-2.2,81.6-1.4,84.5,0.4,83.9
				L0.4,83.9z"/>
		</g>
	</g>
	<g>
		<g>
			<path class="st34" d="M0.4,79.4c57.6-18.2,112.1-44,168.7-65c51-18.9,104-30.6,158.6-23.9c32.7,4,63,15,94.3,24.9
				c26.6,8.4,53.6,15.5,81.1,20.4c37.5,6.7,75.9,9.1,113.7,3.8c55.7-7.8,106.8-35.4,163.1-39.9c37.3-3,74.4,3.7,110,14.5
				c28.8,8.8,56.6,20.7,85.4,29.7c33,10.3,66.7,18.2,100.9,23.6c131.4,20.7,264.3,0.6,388.7-44c16-5.7,31.9-11.9,47.6-18.3
				c1.8-0.7,1-3.6-0.8-2.9c-124.8,50.9-258.9,80.5-394.1,67.4c-34.6-3.3-68.9-9.3-102.6-17.8c-33.7-8.5-66-20.3-98.6-32.1
				C879,6.3,839.8-3.8,800-4.1c-28.2-0.2-55.7,5.3-82.5,13.4c-26.3,8-52.2,17.5-79.1,23.3c-35.5,7.6-71.8,8.4-107.8,4.2
				c-25.3-3-50.3-8.3-74.9-14.8C425,13.8,395.5,1.9,364.8-5.7c-53.5-13.2-107.7-10.6-160.4,5C149.9,15.4,98.6,40.8,45.4,60.7
				C30.2,66.4,15,71.6-0.4,76.5C-2.2,77.1-1.4,80,0.4,79.4L0.4,79.4z"/>
		</g>
	</g>
	<g>
		<g>
			<path class="st35" d="M0.4,74.9C57.5,56.8,110.1,29,165,5.4c50-21.6,102.1-34.5,156.7-25.2c32.8,5.6,62.9,18.9,94.2,29.8
				c26.6,9.3,53.8,17.3,81.4,22.8c37.4,7.5,76,10.4,113.9,4.7c56.3-8.6,106.3-39.6,163-46.2c37.5-4.3,75.3,1.8,111.3,12.6
				c29.5,8.8,58,20.4,87.6,29c33.2,9.6,67,17.1,101.2,22.5c132.3,20.7,269.6,8.2,394.6-40.5c14.9-5.8,29.5-12.1,44-18.8
				c1.7-0.8,0.2-3.4-1.5-2.6C1387.1,51.2,1248,72.1,1112,57.3c-69.4-7.6-136.2-25.1-201.9-48.5c-37.5-13.4-77.2-23-117.3-21.9
				c-57.2,1.7-106.4,30.7-161,43.5c-35.6,8.3-72.3,8.8-108.4,3.8c-25.4-3.5-50.4-9.5-74.9-16.8c-31.1-9.3-60.7-22.6-91.7-31.9
				C304.4-30.4,251.5-29,199.8-11.4C146.9,6.6,98,34.8,46.1,55.4C30.8,61.5,15.3,67-0.4,72C-2.2,72.5-1.4,75.4,0.4,74.9L0.4,74.9z"
				/>
		</g>
	</g>
	<g>
		<g>
			<path class="st36" d="M0.4,70.3C57.7,52.2,108.7,22.1,162.2-4.4c23.2-11.4,47.2-21.6,72.7-26.7c27.1-5.4,54.9-4.4,81.8,1.8
				c33.4,7.7,64.1,23.6,96.1,35.6c26.7,10,54.1,18.7,82,24.7c37.8,8.1,76.9,10.9,115.1,3.7C667,24,716.2-11.2,774.2-18.3
				c39.4-4.8,79.1,2.6,116.6,14.7c31,10,61.5,20.5,93.1,28.5c32.7,8.3,65.8,15,99.2,19.9c129.4,19,267.1,12.9,388.8-38.5
				c13.9-5.9,27.5-12.4,40.8-19.4c1.7-0.9,0.2-3.5-1.5-2.6c-118.7,62.8-258.1,76.3-390,62.3c-67.6-7.1-134.4-21.7-199-42.8
				c-42-13.8-83.6-27.7-128.4-26.5c-29.6,0.8-57.8,8.5-85.2,19.4C682.5,7.2,657.1,19.4,629.8,27c-35.4,9.8-72.2,10.9-108.5,5.7
				c-25.5-3.6-50.6-10.1-75.1-17.9C414,4.5,383.6-9.9,352-21.7c-26.8-10-55.3-16.5-84-15.9c-24.6,0.4-48.7,6.1-71.6,14.8
				C145.1-3.2,98.8,27.8,48.3,49.4c-15.9,6.8-32.2,12.8-48.7,18C-2.2,68-1.4,70.9,0.4,70.3L0.4,70.3z"/>
		</g>
	</g>
	<g>
		<g>
			<path class="st37" d="M0.4,65.8C31.2,56,60.6,42.7,88.8,27c24.3-13.4,47.5-28.5,71.7-42.1c21.3-12,43.6-22.6,67.7-27.7
				c27.6-5.8,55.9-3.3,82.9,4.7C345.4-28,376.9-9.7,410.2,3.5c26.7,10.6,54,19.8,82.1,26.1c37.8,8.4,77.1,11,115.2,2.4
				c57.9-13,106.2-52.6,165.7-60.2c42.2-5.4,83.4,4.3,123.3,17.3c63,20.5,127.9,35.8,193.5,45.3c126.4,18.3,264.7,18.1,383.2-35.6
				c13.6-6.2,26.8-13.1,39.6-20.8c1.7-1,0.1-3.6-1.5-2.6c-113.3,67.7-254.5,74.6-382.6,60.8c-67.4-7.3-134.1-20.9-199-40
				c-44.9-13.2-88.4-30-135.9-28.9c-30.3,0.7-59,9-86.5,21.2c-26.4,11.7-51.8,25.8-79.3,34.9c-35.1,11.5-72,13.5-108.5,8.3
				c-61.5-8.8-117.1-34.9-173.3-59.8c-26.3-11.7-54.5-20.2-83.5-20.7c-23.9-0.4-47.2,5.1-69.1,14.3c-23.5,9.9-45.3,23.3-67.1,36.5
				c-25.3,15.3-50.8,30.2-77.8,42.4C32.6,51.4,16.3,57.6-0.4,62.9C-2.2,63.5-1.4,66.4,0.4,65.8L0.4,65.8z"/>
		</g>
	</g>
	<g>
		<g>
			<path class="st38" d="M0.4,61.2c30.8-9.8,60-23.7,87.5-40.5c23.3-14.2,45.2-30.5,68.1-45.3c20.2-13,41.6-24.9,65.3-30
				c27.4-5.9,55.3-1.7,81.5,7.6c18.7,6.7,36.1,16.2,53.8,25c16,8,32.3,15.6,48.8,22.6c26.6,11.2,53.9,21,82,27.6
				c38,8.8,77.7,11.3,115.8,1.3C662,14.1,709-29.8,770.1-38.5c45.3-6.4,87.8,6.5,130.8,19.2c63.7,18.8,128.7,33.5,194.4,43.1
				c66.9,9.8,135,14.6,202.6,9.9c61-4.2,122.7-16.2,177.9-43.3c12.8-6.3,25.1-13.4,37-21.4c1.6-1.1,0.1-3.7-1.5-2.6
				c-51.7,34.8-112.9,52.4-174.2,60.4c-67.1,8.8-135.4,6.7-202.4-0.9c-67.7-7.7-134.8-21.2-200.6-39
				c-46.6-12.6-92.3-31.1-141.3-30.2c-31.5,0.6-61.3,9.7-89.4,23.6c-26.7,13.1-51.9,29.1-79.9,39.6c-95.3,35.7-197.6-9.4-282.1-53.1
				c-27-13.9-56-25.5-86.7-27.1c-23.1-1.2-45.7,4.3-66.5,14c-22.7,10.6-43.2,25.4-63.9,39.5C99.9,10,75.1,26.1,48.4,39
				C32.6,46.6,16.3,53-0.4,58.3C-2.2,58.9-1.4,61.8,0.4,61.2L0.4,61.2z"/>
		</g>
	</g>
	<g>
		<g>
			<path class="st12" d="M0.4,56.7c31.4-10,60.8-24.8,88-43.4C110.6-1.8,131-19.2,152.5-35c18.6-13.7,38.6-26.4,61.4-31.4
				c27.8-6.1,56.2,0.5,81.9,11.5c18.5,7.9,35.6,18.4,53.3,27.8c16.9,9,34,17.5,51.5,25.3c26.6,11.9,54,22.2,82.4,29
				c38,9.1,77.8,11.2,115.5-0.2c59.7-18,105.2-66.5,168.1-76.2c46.9-7.2,90.9,7.7,135.6,19.9C966.7-11.6,1032,3,1098.1,13.1
				c67.3,10.2,135.7,16.1,203.7,12.2c60.4-3.4,122.3-14.5,176.2-43.2c12.1-6.5,23.7-13.8,34.7-22.1c1.5-1.1,0-3.8-1.5-2.6
				c-49,37-109.8,54.2-170.1,61.5c-67.3,8.2-135.8,4.9-203-3.2c-68-8.2-135.2-21.9-201.5-38.8c-28.4-7.2-56.3-16.2-84.7-23.2
				c-20.3-5-41.1-8.1-62-7.7c-32.7,0.7-63.2,10.9-91.8,26.4c-26.5,14.4-51.2,32-78.9,43.9c-95.5,41.1-201-8.2-284.8-54.8
				c-27.7-15.4-56.7-30.3-88.9-32.9c-22.7-1.8-44.6,3.7-64.5,14.3c-21.2,11.3-39.8,26.8-58.7,41.5C98.9,2.8,74.8,20.2,48.2,33.9
				c-15.6,8-31.9,14.6-48.6,19.9C-2.2,54.4-1.4,57.3,0.4,56.7L0.4,56.7z"/>
		</g>
	</g>
	<g>
		<g>
			<path class="st39" d="M0.4,52.1c29.7-9.9,57.7-23.8,83.8-40.9c21.9-14.4,42.4-30.8,63.5-46.2c18.5-13.5,37.9-26.3,59.9-33.1
				c24.1-7.4,49.3-6.4,73.4,0c36.5,9.6,68.6,30,102.5,45.9c28.8,13.5,58.5,25.5,89.2,34c40.7,11.3,83.6,16.1,125.2,6.8
				C661.3,4.4,711.4-42.5,776-52.6c47-7.4,91.3,5.9,136.4,17.5c63.4,16.4,127.5,30.6,192.3,40.5c66.2,10.1,133.4,16.2,200.4,12.7
				c59.2-3.1,119.6-13.7,172.7-41.1c12.2-6.3,23.9-13.6,35-21.7c1.5-1.1,0-3.7-1.5-2.6c-48.9,35.9-108.9,52.5-168.4,59.3
				c-66,7.6-133,4-198.7-4.1c-66.6-8.2-132.5-21.6-197.7-37.5c-48.5-11.8-97.2-30-147.8-28.2c-33.1,1.2-64.1,11.5-93.5,26.1
				C677-17.7,650-1,620.1,9.2c-38.3,13.1-78.6,14-118.1,6.4c-27.8-5.3-54.8-14.2-81-24.8c-17.5-7-34.7-14.9-51.6-23.3
				c-17.7-8.8-34.9-18.7-53.1-26.5c-25.2-10.9-52.4-18.9-80.1-17.3c-21.2,1.2-41.3,8.3-59.6,18.7c-20.9,11.9-39.7,27.1-58.9,41.5
				C94.7,1.1,71.1,17.3,45.6,30.2C30.7,37.7,15.4,44-0.4,49.2C-2.2,49.8-1.4,52.7,0.4,52.1L0.4,52.1z"/>
		</g>
	</g>
	<g>
		<g>
			<path class="st40" d="M0.4,47.6C29,37.6,56.1,24.2,81.6,7.9c21.1-13.4,40.9-28.6,61.2-43.2c17.9-12.9,36.5-25.4,57.1-33.5
				c21.5-8.4,44.4-11,67.3-8.2c34.7,4.2,66.6,18.8,97.7,34.1c30.5,15,62,28.6,94.5,38.8c43.4,13.7,89.4,21.4,134.9,14.7
				c67.5-10,122.9-55.2,190.1-66.2c20.1-3.3,40.5-3.5,60.7-1.4c26.6,2.7,52.3,10.2,78.2,16.5c62.1,15.2,124.6,28.9,187.8,38.6
				c65.1,10,131.2,16.2,197.1,13c57.9-2.8,116.9-12.9,169.1-39.1c12.3-6.2,24.2-13.3,35.4-21.3c1.6-1.1,0.1-3.7-1.5-2.6
				c-48.8,34.7-108,50.8-166.9,57.2c-64.6,7-130.2,3.3-194.5-4.8c-65.2-8.2-129.8-21.3-193.8-36.3C907.6-47,859-63.4,808.6-61
				c-34.4,1.7-66.8,12.2-98,26.2c-30.2,13.5-59.7,29-91.9,37.4c-41.8,11-85.1,8.9-126.9-0.8c-31.7-7.4-62.4-18.7-92.2-31.8
				c-32.8-14.4-63.9-32.6-98.4-42.8c-23.5-6.9-48.2-10.4-72.6-6.7c-20.8,3.1-40.2,11.5-58.2,22.3c-19.8,11.9-38.1,26.1-56.8,39.6
				c-22,15.9-44.6,30.9-68.8,43.2C30.2,32.9,15.1,39.3-0.4,44.7C-2.2,45.3-1.4,48.2,0.4,47.6L0.4,47.6z"/>
		</g>
	</g>
	<g>
		<g>
			<path class="st41" d="M0.4,43C50.8,24.7,93.9-4.7,137.3-35.4c35.8-25.3,73.3-47.5,118.5-47.2c66.8,0.4,124.7,39.6,185.7,61.3
				C488.5-4.6,538.4,6.5,588.4,2.4c36.2-3,70.3-14.4,103.8-28c32.5-13.2,64.9-26.9,99.8-32.8c20.5-3.4,41.4-4.2,62.2-2.5
				c26.6,2.1,52.3,8.7,78.2,14.6c61,14,122.3,27.2,184.2,36.9c63.6,9.9,128.3,16.3,192.7,13.8c57.6-2.3,116.4-11.9,168.6-37.5
				c12.2-6,23.8-12.8,35-20.5c1.6-1.1,0.1-3.7-1.5-2.6c-48.7,33.6-107,49.1-165.3,55.1c-63.7,6.5-128.1,2.4-191.4-5.8
				c-64.2-8.3-127.7-21.1-190.9-35.3c-48.8-10.9-97.4-25.4-148-21.9c-35.6,2.5-69.3,13.4-102.2,26.7c-32.7,13.2-65.1,27.2-99.9,33.6
				c-46.2,8.5-93.2,3-138.1-9.7c-33.7-9.5-66.3-22.7-98-37.6c-29.3-13.8-59.6-26.2-91.8-31.7c-22.1-3.7-44.8-3.8-66.7,1.5
				c-19.3,4.7-37.3,13.5-54.2,23.9C123.2-31.9,86.1-0.2,42.2,21.9c-13.8,6.9-28,13-42.6,18.3C-2.2,40.8-1.4,43.7,0.4,43L0.4,43z"/>
		</g>
	</g>
	<g>
		<g>
			<path class="st42" d="M0.4,38.5C48.3,20.4,90.2-7,132-35.9c33.9-23.4,69.2-46,111.1-50.3c62-6.3,118.2,22.5,173.9,44.9
				c51.1,20.6,105.6,35.8,161,35.1c39-0.5,76.5-9.8,113.2-22.5c34.9-12,69.4-25.7,105.9-32.1c21.3-3.8,43-5.1,64.7-4
				c26.2,1.3,51.7,6.8,77.3,12.2c60.7,12.8,121.4,25.8,182.6,35.4c62.6,9.8,126.1,16.5,189.5,14.4c56.7-1.9,114.4-11,166.1-35.5
				c12.3-5.8,24.1-12.5,35.4-20.1c1.6-1.1,0.1-3.7-1.5-2.6c-48.5,32.5-106.1,47.5-163.7,52.9c-62.7,5.9-126.1,1.5-188.4-6.8
				c-63.2-8.3-125.7-21-188.1-34.2c-49.2-10.4-97.8-22.6-148.4-18.3c-76,6.5-142.8,48.6-218.5,56.4C552.7-5.4,501.3-15,452.6-31.3
				c-60.2-20.2-116.3-54.6-181.1-58.4c-41.7-2.5-79.1,11.2-113.9,33.1C118-31.7,81.5-2.7,39.5,18.2c-13,6.5-26.3,12.2-39.9,17.4
				C-2.2,36.3-1.4,39.2,0.4,38.5L0.4,38.5z"/>
		</g>
	</g>
	<g>
		<g>
			<path class="st43" d="M0.4,33.9C45.6,16.2,86.2-9.2,126.2-36.3c32.2-21.8,65.3-43.8,104.1-51.6c52.2-10.6,106.1,4.6,154.6,23.3
				c32.3,12.5,63.8,26.2,97.3,35.3c25.9,7,52.5,11.8,79.3,13.5c42.6,2.6,84.5-4.2,125.4-15.8c37.9-10.7,74.9-24.2,113.7-31.4
				c21.8-4,44-6,66.3-5.6c26.7,0.5,52.7,4.9,78.9,9.9c60.6,11.6,121,24.4,182,34c61,9.6,122.9,16.5,184.7,15
				c56-1.4,113-9.8,164.3-33.3c12.5-5.7,24.5-12.3,36-19.8c1.6-1,0.1-3.6-1.5-2.6C1409,0.8,1275.7-7,1160.3-22.9
				c-61.4-8.5-122.1-20.7-182.9-32.7c-50.2-9.9-99.4-19.7-150.8-14.2c-80.8,8.6-154.3,49.1-236.3,51.4
				c-57.1,1.6-113.2-12.7-166.1-33.4c-53.7-21.1-108.2-45-167.3-42.4c-38.7,1.7-73.2,17-105.5,37.5C114-32.9,78.5-6.3,38.6,13.7
				c-12.7,6.4-25.7,12.1-39,17.3C-2.2,31.8-1.4,34.7,0.4,33.9L0.4,33.9z"/>
		</g>
	</g>
	<g>
		<g>
			<path class="st44" d="M0.4,29.4c42.8-17.4,81.9-41,120.3-66.5c30.9-20.5,62.3-41.6,98.4-51.6c45.5-12.6,93.3-5.8,138.1,6.9
				c33.3,9.4,64.7,23.5,97.5,34.4c27.9,9.3,56.6,16.5,85.9,20.3c46.1,6,92.2,2.4,137.5-7.5c41.6-9.1,82.2-22.5,124.1-30.3
				c50.3-9.4,99.6-8.2,149.9,0.3c59.6,10.1,118.8,22.3,178.6,31.8c60.4,9.6,121.6,17,182.8,16.1c55.8-0.8,112.5-8.8,163.9-31.7
				c12.3-5.5,24.1-11.8,35.5-18.9c1.6-1,0.1-3.6-1.5-2.6c-102.3,64.1-233.2,55.3-347.7,39c-60.4-8.6-120.2-20.5-180.3-31.3
				c-26.9-4.8-53.9-10-81.2-11.9c-24.2-1.7-48.4-1-72.5,2c-42.2,5.2-82.8,17.3-123.9,27.8C662-33.1,617.6-25.3,572.3-27.3
				c-28.2-1.2-56.2-5.9-83.6-13c-33.5-8.7-65-22.4-97.6-33.8c-46.7-16.3-97.3-29.2-147.1-22.7c-36.1,4.7-68.3,20.8-98.7,40
				C109.1-33.8,74.4-9.1,35.9,10.1c-11.9,5.9-24,11.4-36.3,16.4C-2.2,27.2-1.4,30.1,0.4,29.4L0.4,29.4z"/>
		</g>
	</g>
	<g>
		<g>
			<path class="st45" d="M0.4,24.9c40.5-17,78.1-39.1,115-63c29.7-19.2,59.5-39.2,93.2-50.6c39.5-13.3,81.5-12.7,122.1-5.2
				C393.5-82.3,451-53.3,513.4-40.6c50.1,10.2,101,10.3,151.4,2.4c45.7-7.2,90.2-19.9,135.6-28.3c52.8-9.7,105.3-11.4,158.5-3.8
				c59.1,8.5,117.6,20.2,176.6,29.6c111.1,17.8,234.6,33.1,341.2-12.7c12.4-5.3,24.4-11.5,36-18.6c1.6-1,0.1-3.6-1.5-2.6
				c-102.5,62-231,52-344.6,35.5c-59.5-8.6-118.4-20.3-177.8-29.8c-27.1-4.3-54.4-8.5-81.9-9.5c-25.7-0.9-51.4,0.6-76.9,4
				c-45.6,6.1-90,18.4-135,27.5c-49,9.9-98.7,14.6-148.5,8.5C515.5-42,485-49.5,455.3-59.6c-31.3-10.6-62-22.6-94.2-30.7
				c-42-10.6-86.3-16.6-129.2-7.8c-33.7,6.9-63.9,23-92.8,41.1c-34.6,21.7-68.3,44.7-104.9,63C22.9,11.8,11.3,17-0.4,22
				C-2.2,22.7-1.4,25.6,0.4,24.9L0.4,24.9z"/>
		</g>
	</g>
	<g>
		<g>
			<path class="st46" d="M0.8,20.2c38.7-16.7,75-37.8,110.7-60.3c28.4-17.9,56.8-36.6,88.5-48.5c34.8-13.1,71.9-16.2,108.8-12.7
				c26.2,2.5,52.1,7.9,77.6,14.6c31.7,8.3,62.2,20.1,93.6,29.1C534.5-42,591-37.4,647.5-42.8c50.3-4.8,99.6-16.6,149.3-25.3
				c55.3-9.7,111-14.1,166.9-7.8c58.8,6.6,117,17.8,175.4,27.1c110.4,17.7,232.3,34.4,338.7-10.2c12-5,23.6-10.9,34.8-17.4
				c1.7-1,0.2-3.6-1.5-2.6c-103.1,60.1-229.7,48.6-342.9,31.8c-58.6-8.7-116.7-20-175.4-28c-28.1-3.8-56.3-6.8-84.7-6.8
				c-26.3,0-52.4,2.2-78.4,5.8c-50.8,7-100.6,19.3-151.3,26.7c-55.8,8.1-112.1,8.6-167.4-3.3c-32.3-6.9-63.1-18.7-94.6-28.4
				c-27.4-8.4-55.3-15.5-83.7-20c-37.8-6-76.8-6.8-114,3.3c-31.2,8.5-59.5,24.4-86.9,41.4C98.8-36,66.1-14.7,31,2.8
				C20.6,8,10,12.9-0.8,17.6C-2.5,18.3-1,20.9,0.8,20.2L0.8,20.2z"/>
		</g>
	</g>
	<g>
		<g>
			<path class="st47" d="M0.8,15.6C37.3-0.6,72-20.3,106.1-41.2c27.1-16.7,54.2-34.1,83.7-46.3C270-120.6,358.7-102,439-78.6
				c31.2,9.1,61.7,19.3,93.8,24.5c28.5,4.6,57.5,6.3,86.4,5.6c55.7-1.4,110.6-11.5,165.5-20.3c58.9-9.4,118.3-16.4,178-12.7
				c59.9,3.8,119.2,14.9,178.3,24.3c109.7,17.5,230,36.2,336.3-6.7c12.2-4.9,24.1-10.7,35.5-17.1c1.7-0.9,0.2-3.5-1.5-2.6
				c-103.8,58.4-228.8,45-341.7,27.8c-57.7-8.8-115.2-19.5-173.3-25.8c-59.1-6.4-117.6-3.9-176.4,4.3c-56.5,7.9-112.5,19.6-169.4,24
				c-61.1,4.7-121.8-0.6-180.4-19.1c-82.6-26-177-52.7-262.8-24.9c-29,9.4-55.5,24.5-81.4,40.2c-31.7,19.3-63.1,39-96.4,55.7
				c-10,5-20,9.7-30.2,14.2C-2.5,13.8-1,16.4,0.8,15.6L0.8,15.6z"/>
		</g>
	</g>
	<g>
		<g>
			<path class="st48" d="M0.8,11.1C36.2-5.1,70-24.1,103.4-44c25.9-15.4,51.7-31.4,79.6-43.2c73.7-31.3,154.4-21.2,230.4-4
				c31,7,61.4,16.7,92.4,23.9c28.1,6.5,56.9,9.9,85.7,10.9c58.6,2.1,117-5.6,174.9-13.4c62.1-8.4,124.3-16.9,187.1-16.5
				c61,0.4,121.5,10,181.6,19.4c111.5,17.5,232.7,39.9,341.5-2c12.4-4.8,24.4-10.4,36.1-16.7c1.7-0.9,0.2-3.5-1.5-2.6
				c-106.6,57.7-232.3,40.6-347,22.8c-58.1-9-116.3-19.2-175-22.8c-62.6-3.8-125,2.3-187,10.5c-59.1,7.8-118.2,17.2-177.9,18.4
				c-30,0.6-60.1-0.8-89.8-5.6c-31.5-5-61.8-14.9-92.7-22.7c-77.6-19.6-163.4-36.3-241.4-9.7c-27.9,9.5-53.7,23.8-78.9,38.8
				C90.7-40.1,60.1-21.4,28-5.3C18.5-0.5,8.9,4.1-0.8,8.5C-2.5,9.3-1,11.9,0.8,11.1L0.8,11.1z"/>
		</g>
	</g>
	<g>
		<g>
			<path class="st18" d="M0.8,6.5C34.5-9.3,67.1-27.2,99.4-45.8c25.5-14.7,51-29.7,78.1-41.1c67.9-28.4,141.4-24.3,212.6-12.5
				c28.7,4.7,57.2,10.8,85.5,17.4c28.4,6.7,56.3,13.4,85.4,16.1c60.4,5.7,121.4,0.6,181.6-5.6c65-6.7,129.8-15.2,195.2-17.8
				c63.3-2.5,125.6,3.2,188.1,12.5c114,16.9,236.7,44.1,348.9,3.5c13-4.7,25.7-10.4,38-16.8c1.7-0.9,0.2-3.5-1.5-2.6
				c-110.5,57.5-238,35.4-355.5,17.3c-60.5-9.3-121.1-17.9-182.4-17.7c-65.2,0.2-130.1,7.6-194.8,14.7
				c-61.3,6.7-123,13.6-184.7,11.5c-29.3-1-58.6-4.1-87.2-10.8c-30.1-7-60.1-14.4-90.5-20.2c-72.9-13.9-150.9-23.4-222.6,1.5
				C167-87,142.2-73.7,117.8-59.9C87.7-42.8,58-25.2,27.1-9.6C17.9-4.9,8.6-0.4-0.8,3.9C-2.5,4.8-1,7.3,0.8,6.5L0.8,6.5z"/>
		</g>
	</g>
</g>
</svg>
