<?xml version="1.0" encoding="UTF-8"?>
<svg id="Layer_2" data-name="Layer 2" xmlns="http://www.w3.org/2000/svg" viewBox="0 0 1515.51 191.08">
  <defs>
    <style>
      .cls-1 {
        fill: #e8b2db;
      }

      .cls-2 {
        fill: #f2b3d6;
      }

      .cls-3 {
        fill: #9ea8dc;
      }

      .cls-4 {
        fill: #c1afed;
      }

      .cls-5 {
        fill: #b7aef2;
      }

      .cls-6 {
        fill: #deb1df;
      }

      .cls-7 {
        fill: #cbb0e9;
      }

      .cls-8 {
        fill: #d4b1e4;
      }

      .cls-9 {
        fill: #238c6e;
      }

      .cls-10 {
        fill: #3c9284;
      }

      .cls-11 {
        fill: #6d9db0;
      }

      .cls-12 {
        fill: #86a3c6;
      }

      .cls-13 {
        fill: #54979a;
      }

      .cls-14 {
        opacity: .17;
      }

      .cls-15 {
        opacity: .33;
      }

      .cls-16 {
        opacity: .67;
      }

      .cls-17 {
        opacity: .5;
      }

      .cls-18 {
        opacity: .83;
      }

      .cls-19 {
        opacity: 0;
      }
    </style>
  </defs>
  <g id="Layer_1-2" data-name="Layer 1">
    <g>
      <g class="cls-19">
        <path class="cls-9" d="m1513.92,139.62c-48.1,1.2-95.35,8.41-142.01,19.91-37.95,9.35-75.52,20.95-114.4,25.9-45.47,5.79-91.03,1.26-135.34-10.02-31.09-7.92-60.8-19.23-90.7-30.69-15.55-5.96-32.59-7.69-49.12-8.41-47.63-2.07-95.71,4.51-142.74,11.35-53.1,7.73-105.86,17.48-158.82,26.07-46.73,7.58-93.26,12.25-140.61,13.27-54.85,1.18-109.75-.78-164.49-4.04-113.31-6.75-226.25-19.29-338.82-33.72-11.83-1.52-23.65-3.06-35.47-4.62-1.91-.25-1.89,2.75,0,3,110.12,14.53,220.53,27.43,331.33,35.49,56.24,4.09,112.62,6.97,169.01,7.2,47.67.2,95.59-1.27,142.84-8,102.18-14.54,203.91-39.71,307.39-43.07,19.82-.64,40.04-.52,59.6,3.13,8.44,1.57,16.33,4.13,24.28,7.33,15.87,6.39,31.92,12.35,48.18,17.68,46.55,15.26,95.24,25.39,144.44,23.47,38.36-1.5,75.54-10.64,112.51-20.3,43.6-11.39,87.27-21.61,132.26-25.66,13.52-1.22,27.08-1.93,40.65-2.27,1.93-.05,1.93-3.05,0-3h0Z"/>
      </g>
      <g class="cls-14">
        <path class="cls-9" d="m1513.92,137.78c-44.38.05-88.39,4.67-132.05,12.43-37.13,6.6-73.92,15.15-111.31,20.22-41.3,5.6-82.97,6.05-124.3.41-26.16-3.57-51.99-9.31-77.4-16.45-21.89-6.15-43.23-15.53-65.68-19.43-40.4-7.03-82.87-3.29-123.4.53-55.04,5.19-109.78,13.32-164.49,21.19-56.23,8.08-112.54,17.29-169.28,20.83-53.94,3.37-108.1,2.71-162.07.2-114.49-5.31-228.41-19.02-342.14-32.68-13.43-1.61-26.86-3.23-40.29-4.83-1.91-.23-1.9,2.77,0,3,113.18,13.49,226.36,27.87,340.16,35.16,55.17,3.53,110.51,5.45,165.78,3.87,53.41-1.52,106.03-8.14,158.89-15.57,58.23-8.19,116.36-17.17,174.76-24.05,45.54-5.36,92.06-10.5,137.96-7.44,17.98,1.2,34.47,4.76,51.49,10.49,27.1,9.12,54.67,16.92,82.7,22.59,42.14,8.52,85.11,11.71,128,8.34,36.92-2.9,73.21-10.37,109.49-17.47,41.75-8.17,83.66-15.08,126.2-17.36,12.32-.66,24.65-.96,36.99-.98,1.93,0,1.93-3,0-3h0Z"/>
      </g>
      <g class="cls-15">
        <path class="cls-9" d="m1513.92,135.95c-46.11-1.14-92.01,2.24-137.73,8.1-40.71,5.22-81.23,11.98-122.13,15.54-44.63,3.89-89.46,3.5-133.92-2.27-28.39-3.68-56.5-9.38-84.21-16.52-16.35-4.21-32.2-9.21-48.99-11.35-33.9-4.32-68.54-2.77-102.54-.55-46.87,3.06-93.59,8.42-140.22,13.95-58.22,6.91-116.38,14.35-174.61,21.2-56.47,6.64-113.17,9.22-170.02,8.13-117.43-2.24-234.09-17.98-350.64-31.19-15.77-1.79-31.54-3.54-47.32-5.23-1.92-.21-1.9,2.8,0,3,118.62,12.75,237.04,29.71,356.33,35.08,56.34,2.54,112.86,2.29,169.08-2.4,59.3-4.95,118.38-13.57,177.43-20.79,49.88-6.1,99.79-12.19,149.86-16.47,36.99-3.16,74.38-5.73,111.51-3.63,40.55,2.29,78.63,16.65,118.37,24.07,45.9,8.57,92.55,12.06,139.2,9.99,84.77-3.76,167.84-23.75,252.81-25.74,12.58-.29,25.16-.26,37.74.05,1.93.05,1.93-2.95,0-3h0Z"/>
      </g>
      <g class="cls-17">
        <path class="cls-9" d="m1513.92,134.12c-100.09-5.3-198.7,11.95-298.47,15.26-56.68,1.88-113.33-1.66-169.22-11.43-32.02-5.6-62.63-13.42-95.18-14.92-76.43-3.52-153.72,5.53-229.63,13.17-58.64,5.9-117.22,12.4-175.8,18.82-57.06,6.25-114.02,10.76-171.47,10.21-108.35-1.03-215.79-17.36-323.34-28.86-16.37-1.75-32.75-3.42-49.14-5-1.92-.19-1.91,2.82,0,3,111.07,10.74,221.8,28.38,333.39,32.89,116.3,4.69,231.18-11.84,346.56-23.95,82.25-8.63,165.36-18.58,248.2-17.83,25.55.23,50.99,1.91,75.97,7.47,56.16,12.51,113.42,19.41,170.97,19.92,99.14.89,197.22-17.55,296.35-16.97,13.61.08,27.22.5,40.81,1.22,1.93.1,1.92-2.9,0-3h0Z"/>
      </g>
      <g class="cls-16">
        <path class="cls-9" d="m1513.92,132.28c-115.59-9.7-231,5.99-346.64,5.67-31.76-.09-63.52-1.33-95.17-4.05-28.51-2.45-56.67-6.73-84.97-10.82-21.75-3.14-43.72-4.42-65.68-4.86-74.15-1.48-148.52,4.83-222.33,11.12-58.86,5.02-117.67,10.77-176.44,16.74-59.06,6-118.02,12.05-177.46,12.1-98.11.08-195.24-16.67-292.61-26.48-16.95-1.71-33.9-3.29-50.87-4.76-1.92-.17-1.91,2.83,0,3,58.33,5.05,116.45,11.91,174.58,18.86,44.72,5.35,89.52,10.27,134.56,11.8,53.37,1.81,106.76-1.04,159.87-6.23,63.32-6.19,126.57-12.93,189.93-18.67,80.06-7.24,160.57-14.54,241.03-14.67,23.77-.04,47.59.66,71.23,3.24,16.71,1.82,33.24,4.94,49.89,7.18,32.87,4.42,65.95,7.22,99.09,8.54,116.08,4.61,231.75-11.62,347.79-7.39,14.75.54,29.48,1.43,44.19,2.66,1.92.16,1.91-2.84,0-3h0Z"/>
      </g>
      <g class="cls-18">
        <path class="cls-9" d="m1513.92,130.45c-133.35-15.72-268.07-2.01-401.88-4.36-50.34-.88-100.2-5.3-150.33-9.26-21.23-1.68-42.51-2.58-63.8-2.9-72.72-1.09-145.53,3.35-218.02,8.5-60.22,4.28-120.38,9.46-180.5,15.03-60.93,5.64-121.85,12.81-183.09,13.72-87.88,1.31-174.71-15.89-261.94-24.17-17.49-1.66-35-3.14-52.52-4.5-1.93-.15-1.92,2.85,0,3,56.25,4.35,112.25,10.59,168.19,17.86,38.02,4.94,76.05,9.66,114.43,10.65,53.51,1.38,106.94-3.21,160.14-8.38,65.13-6.34,130.32-12.21,195.56-17.26,79.24-6.14,158.77-11.63,238.3-11.6,60.07.02,119.2,7.6,179.13,10.52,136.15,6.64,272.59-7.55,408.62,1.71,15.95,1.09,31.86,2.55,47.73,4.42,1.91.23,1.9-2.78,0-3h0Z"/>
      </g>
      <path class="cls-9" d="m1514.32,128.67c-68.59-10.66-138.21-13.2-207.52-13.93-76.84-.81-153.68.93-230.53.69-63.7-.2-127.02-3.95-190.63-5.73-71.4-2-142.87.66-214.15,4.72-61.73,3.52-123.39,8.23-184.99,13.52-65.36,5.61-130.71,13.41-196.31,15.71-34.15,1.2-67.82-.51-101.65-5.21-44.12-6.13-88.13-12.2-132.53-16.13-18.01-1.59-36.04-2.97-54.08-4.2-1.93-.13-1.92,2.87,0,3,55,3.77,109.76,9.27,164.32,17.15,31.16,4.5,62.17,8.61,93.71,8.86,57.11.45,114.18-6.05,170.96-11.24,66.7-6.1,133.47-11.63,200.31-15.99,78.31-5.1,156.87-8.92,235.38-7.61,50.07.84,100.01,4.53,150.08,5.52,148.72,2.93,298.49-7.58,446.78,7.4,16.74,1.69,33.44,3.79,50.07,6.37,1.89.29,2.7-2.6.8-2.89h0Z"/>
      <path class="cls-10" d="m1514.32,126.71c-144.97-22.59-292.6-21.88-438.94-21.02-39.75.23-79.48.95-119.21-.48-25.28-.91-50.54-2.31-75.82-3.27-74.36-2.84-148.7-1.02-222.95,3.63-62.87,3.94-125.63,9.6-188.28,16.08-59.56,6.16-119.16,13.19-179.05,15.22-80.9,2.74-160.17-12.29-240.21-21.71-15.97-1.88-31.94-3.64-47.93-5.31-1.92-.2-1.9,2.8,0,3,51.62,5.38,103,12.34,154.43,19.19,34.41,4.58,68.84,8.15,103.59,8.3,51.43.23,102.86-4.72,153.97-9.9,67.41-6.84,134.75-14.03,202.33-19.05,80.71-5.99,161.65-9.49,242.58-7.18,52.37,1.49,104.63,5.19,157.05,4.86,148.09-.92,297.1-3.89,444.47,13.29,17.77,2.07,35.5,4.48,53.17,7.24,1.89.29,2.7-2.6.8-2.89h0Z"/>
      <path class="cls-13" d="m1514.32,124.76c-141.38-22.1-284.36-29.9-427.36-27.19-41.43.78-82.73,2.33-124.17,1.07-29.51-.9-58.97-2.74-88.45-4.24-79.14-4.01-158.06-2.52-237.08,3.51-118.37,9.03-236.02,29.97-354.8,33.11-80.56,2.13-159.36-11.28-238.73-23.23-13.8-2.08-27.6-4.12-41.41-6.12-1.89-.27-2.7,2.62-.8,2.89,82.8,11.98,165.84,28.81,249.77,29.72,113.28,1.23,225.87-18.9,338.36-29.34,86.4-8.01,173.03-12.23,259.78-8.69,62.37,2.54,124.51,7.18,186.98,5.63,141.3-3.52,282.06-.56,422.38,17.88,18.28,2.4,36.52,5.05,54.73,7.9,1.89.3,2.7-2.6.8-2.89h0Z"/>
      <path class="cls-11" d="m1514.32,122.8c-134.02-21.01-268.58-37.44-404.5-32.91-47.59,1.58-94.94,4.11-142.57,2.74-33.69-.97-67.29-3.44-100.92-5.67-84.59-5.6-168.54-3.62-252.92,4.8-113.93,11.37-227.16,32.1-341.9,33.96-78.99,1.28-156.2-10.99-233.59-25.57-11.87-2.24-23.73-4.5-35.6-6.76-1.89-.36-2.69,2.53-.8,2.89,78.76,15.04,157.73,30.78,238.16,32.39,107.7,2.16,214.75-15.29,321.33-28.13,92.59-11.15,185.46-17.39,278.67-12.23,32.81,1.81,65.57,4.55,98.39,6.16,40.78,2,81.61,2.16,122.41.56,65.28-2.56,130.13-4.05,195.41-.1,68.68,4.16,136.99,12.66,205.03,22.71,17.55,2.59,35.08,5.29,52.6,8.04,1.89.3,2.7-2.59.8-2.89h0Z"/>
      <path class="cls-12" d="m1514.32,120.84c-122.29-19.23-244.29-43.83-368.72-38.84-56.46,2.26-112.51,6.85-169.08,5.5-37.94-.9-75.71-4.1-113.49-7.44-36.09-3.2-72.19-5.64-108.43-5.44-53.02.3-105.94,5.32-158.48,12.19-110.18,14.41-220.31,32.89-331.72,33.99-78.17.77-154.6-10.56-230.6-28.15-10.51-2.43-20.99-4.95-31.47-7.5-1.88-.46-2.68,2.43-.8,2.89,75.66,18.47,151.88,33.49,229.96,35.51,102.3,2.65,204.78-11.32,305.83-25.5,60.16-8.44,120.28-16.85,181.03-19.52,39.14-1.72,78.24-.79,117.29,2.23,35.71,2.76,71.32,6.58,107.09,8.45,49.82,2.61,99.72,1.84,149.51-1.04,32.23-1.86,64.32-4.11,96.63-3.9,29.16.19,58.3,1.79,87.33,4.51,62.27,5.84,123.95,16.56,185.63,26.65,17.22,2.82,34.45,5.6,51.69,8.31,1.89.3,2.7-2.59.8-2.89h0Z"/>
      <path class="cls-3" d="m1514.32,118.89c-63.51-10.01-126.24-24.12-189.64-34.64-55.21-9.16-110.74-13.13-166.62-8.65-59.67,4.79-119.29,8.99-179.2,7.49-37.5-.93-74.75-4.41-111.97-8.87-32.01-3.83-64-7.51-96.27-8.16-44.7-.89-89.35,3.22-133.6,9.31-120.1,16.53-239.6,38.21-361.15,40.67-82.91,1.68-164.37-8.25-244.25-30.56-9.8-2.74-19.56-5.62-29.3-8.6-1.85-.57-2.64,2.33-.8,2.89,77.58,23.75,156.66,38.08,237.91,39.36,113.48,1.79,227.06-14.69,338.94-31.85,53.68-8.23,107.3-16.6,161.68-18.1,33.98-.94,67.79,1.2,101.55,5.04,34.15,3.88,68.19,8.32,102.52,10.39,52.11,3.14,104.39,1.87,156.45-1.51,32.83-2.13,65.57-5.99,98.5-6.48,27.92-.41,55.83,1.24,83.56,4.55,59.78,7.13,118.6,20.91,177.79,31.61,17.67,3.2,35.38,6.2,53.12,9,1.89.3,2.7-2.59.8-2.89h0Z"/>
      <path class="cls-5" d="m1514.32,116.93c-63.18-9.99-124.48-27.02-186.94-40.27-24.18-5.13-48.64-8.98-73.34-10.24-31.06-1.59-61.55,1.83-92.41,4.91-95.9,9.58-192.15,13.52-287.61-1.81-27.09-4.35-54.1-9.37-81.51-11.32-35.84-2.55-71.78-.04-107.33,4.73-32.19,4.32-64.14,10.43-96.2,15.62-37.58,6.08-75.24,11.75-112.99,16.71-59.8,7.85-119.91,14.07-180.22,16.15-89.67,3.09-179.45-4.39-265.01-32.67-9.56-3.16-19.03-6.55-28.45-10.12-1.81-.69-2.59,2.21-.8,2.89,80.87,30.68,165.89,43.36,252.17,43.59,129.5.34,258.95-20.23,386.25-42.02,42.65-7.3,85.63-13.49,129.01-12.88,28.19.4,55.96,4.22,83.73,8.83,31.37,5.2,62.73,9.95,94.48,12.14,51.56,3.56,103.38,1.93,154.88-1.72,63.37-4.48,125.93-15.62,189.38-6.31,55.91,8.21,110.27,25.3,165.6,36.52,18.76,3.8,37.6,7.17,56.5,10.16,1.89.3,2.7-2.59.8-2.89h0Z"/>
      <path class="cls-4" d="m1514.32,114.22c-61.79-10.67-122.23-26.96-183.56-39.76-55.83-11.65-112-16.42-168.95-11.86-34.94,2.79-69.69,7.3-104.68,9.68-28.02,1.9-56.1,3.07-84.19,3.11-39.97.06-79.81-2.5-119.45-7.55-30.47-3.88-60.79-9.02-91.41-11.73-35.97-3.18-72.06-2.52-107.98,1.08-61.57,6.17-122.59,18.32-183.83,27.11-56.16,8.06-112.55,15.3-169.21,18.76-45.3,2.76-90.81,2.89-135.99-1.75-44.04-4.52-87.43-13.7-129.84-26.34-11.04-3.29-22.01-6.81-32.93-10.5-1.83-.62-2.62,2.28-.8,2.89,42.54,14.36,86.03,25.91,130.44,32.71,43.14,6.61,86.81,8.73,130.42,7.66,118.53-2.9,235.58-25.34,352.54-42.65,40.22-5.95,80.9-9.35,121.58-7.65,30.97,1.29,61.6,5.75,92.26,10.07,35.44,4.98,70.95,8.89,106.73,10.23,56.1,2.1,112.31-.96,168.16-6.26,34.12-3.24,68.02-7.64,102.36-7.79,28.65-.13,57.24,2.15,85.54,6.58,57.25,8.98,113.15,25.14,169.84,36.94,17.32,3.6,34.69,6.9,52.12,9.91,1.89.33,2.7-2.56.8-2.89h0Z"/>
      <path class="cls-7" d="m1514.32,111.51c-106.19-19.79-210.07-54.1-318.91-55.97-64.68-1.11-128.46,9.53-192.88,13.34-48.24,2.86-96.6,2.85-144.79-.91-73.01-5.7-144.91-19.45-218.44-16.54-54.42,2.15-108.22,11.59-161.98,19.74-54.05,8.19-108.12,16.84-162.53,22.36-43.9,4.45-88.07,6.4-132.13,3.29-47.64-3.37-94.6-12.59-140.65-25.03-13.3-3.59-26.52-7.45-39.68-11.48-1.85-.57-2.64,2.33-.8,2.89,47.84,14.66,96.55,26.84,146.24,33.16,43.37,5.52,87.1,6.15,130.69,3.25,49.02-3.26,97.73-10.28,146.29-17.5,59.4-8.83,118.81-19.92,178.65-25.32,39.4-3.56,78.92-3.68,118.33-.41,34.96,2.9,69.69,8.04,104.57,11.71,43.37,4.56,86.91,6.57,130.52,5.66,29.74-.62,59.45-2.44,89.08-5.11,33.85-3.05,67.52-7.63,101.49-9.29,55.41-2.7,110.52,1.34,165.03,11.49,52.26,9.73,103.68,23.47,155.66,34.52,15.11,3.21,30.25,6.23,45.43,9.06,1.89.35,2.7-2.54.8-2.89h0Z"/>
      <path class="cls-8" d="m1514.32,108.8c-93.23-18.57-184.89-46.6-279.84-55.46-55.65-5.19-111.65-4-167.25,1.23-32.55,3.06-64.94,7.25-97.58,9.35-27.06,1.74-54.18,2.54-81.29,2.28-85.45-.83-169.78-16.12-255.11-18.13-102.66-2.41-203.32,19.34-304.31,34.52-42.03,6.32-84.32,10.7-126.87,9.38-51.72-1.6-102.83-10.99-152.95-23.39-15.67-3.88-31.26-8.07-46.79-12.45-1.86-.53-2.66,2.37-.8,2.89,53.83,15.19,108.6,28.26,164.38,33.64,42.35,4.08,84.76,2.84,126.98-2.16,101.23-11.98,200.96-36.98,303.24-39.43,84.4-2.02,167.67,12.97,251.77,16.96,54.94,2.61,109.96.77,164.68-4.63,60.5-5.97,120.37-12.27,181.29-9.79,96.04,3.92,188.01,29.69,281.38,50.08,12.74,2.78,25.5,5.45,38.29,7.99,1.89.38,2.69-2.52.8-2.89h0Z"/>
      <path class="cls-6" d="m1514.32,106.09c-89.55-18.92-177.79-44.88-268.91-55.61-52.48-6.18-105.39-7.42-158.16-4.93-65.78,3.11-130.85,13.84-196.72,15.59-108.04,2.87-214.88-15.59-322.76-16.24-53.34-.32-106.51,4.26-159.17,12.64-36.14,5.75-71.82,13.84-107.82,20.35-33.74,6.11-67.71,9.53-102.04,8.42-49.65-1.6-98.85-10.85-147.12-22.07-16.5-3.84-32.93-7.97-49.32-12.28-1.87-.49-2.67,2.4-.8,2.89,88.11,23.18,179.44,42.95,270.84,30.61,33.73-4.55,66.94-12.3,100.37-18.62,48.91-9.24,98.37-15.85,148.13-18.06,107.26-4.77,213.42,13.57,320.48,15.54,30.39.56,60.81-.11,91.14-2.13,34.14-2.27,68.01-7,102.07-10.02,56.79-5.04,113.95-6.59,170.85-2.49,92.42,6.66,181.47,30.83,271.46,51.26,12.2,2.77,24.42,5.45,36.66,8.04,1.88.4,2.69-2.49.8-2.89h0Z"/>
      <path class="cls-1" d="m1514.32,103.38c-87.21-19.42-173.29-44.39-262.02-56.27-50.54-6.77-101.53-9.44-152.5-8.66-30.94.47-61.86,2.15-92.69,4.74-35.21,2.95-70.2,8.06-105.43,10.73-136.74,10.36-272.78-13.22-409.47-11.81-45.7.47-91.75,2.88-136.55,12.45-24.57,5.25-48.53,12.87-73,18.52-76.45,17.66-155.69,3-230.99-13.66-16.5-3.65-32.95-7.56-49.36-11.63-1.87-.46-2.67,2.43-.8,2.89,54.35,13.45,109.44,25.84,165.26,31.28,31.67,3.08,63.63,3.46,95.1-1.7,24.14-3.95,47.52-11.19,71.17-17.27,33.43-8.6,67.24-13.55,101.68-15.78,137.21-8.87,273.53,14.76,410.66,12.29,69.01-1.25,137.14-12.69,206.01-16.37,54.31-2.9,108.83-2.49,163,2.64,90.25,8.54,177.49,32.07,265.45,52.78,11.21,2.64,22.43,5.22,33.67,7.72,1.88.42,2.68-2.47.8-2.89h0Z"/>
      <path class="cls-2" d="m1514.32,100.67c-89.71-20.95-178.43-46.43-269.94-58.6-53.82-7.16-108.11-10.05-162.39-9.45-33.43.37-66.85,2.01-100.18,4.59-36.13,2.8-71.99,7.59-108.04,11.14-67.26,6.62-135.25,3.93-202.63.66-73.76-3.58-147.48-8.71-221.35-9.47-29.52-.3-59.51-.85-88.94,2-11.11,1.08-22.14,2.97-32.9,5.98-17.23,4.82-33.21,12.91-50.07,18.77-23.15,8.05-47.45,10.43-71.86,10.04-50.16-.8-100.22-10.33-149.17-20.55-18.23-3.81-36.41-7.9-54.54-12.16-1.88-.44-2.68,2.45-.8,2.89,57.34,13.45,115.49,26.18,174.28,31.21,28.69,2.45,58.25,3.09,86.45-3.69,17.61-4.23,33.79-12.07,50.67-18.4,25.14-9.43,50.77-11.82,77.47-12.6,144.14-4.25,287.83,16.45,431.92,11.59,34.26-1.16,68-5.4,102.04-9.07,35.15-3.79,70.41-6.7,105.72-8.39,57.94-2.77,116.07-2.17,173.84,3.29,93.57,8.84,184.03,32.61,275.04,54.84,11.51,2.81,23.03,5.57,34.56,8.27,1.88.44,2.68-2.45.8-2.89h0Z"/>
      <g class="cls-18">
        <path class="cls-2" d="m1514.32,97.5c-78.4-29.46-158.26-52.36-241.76-61.3-116.87-12.5-235.58-4.56-352.35,4.84-62.01,4.99-124.34,3.61-186.44,1.36-68.47-2.48-136.88-6.44-205.38-8.08-52.36-1.25-106.21-3.2-158.24,4.08-24.29,3.4-47.79,10.1-71.59,15.81-79.5,19.08-161.44,9.14-241.07-4.48-18.44-3.15-36.82-6.62-55.17-10.27-1.89-.38-2.69,2.52-.8,2.89,58.85,11.71,118.48,22.11,178.52,25.03,32.97,1.6,66.04.44,98.52-5.76,23.61-4.5,46.61-11.63,70.14-16.47,41.52-8.54,84.43-8.54,126.65-8.52,132.73.06,265.35,14.43,398.1,10.08,33.19-1.09,66.25-4.33,99.36-6.63,34.11-2.37,68.26-4.32,102.43-5.56,53.82-1.95,107.8-2.22,161.55,1.54,84.63,5.92,166.25,24.7,246.07,53.1,10.26,3.65,20.48,7.41,30.67,11.24,1.81.68,2.59-2.22.8-2.89h0Z"/>
      </g>
      <g class="cls-16">
        <path class="cls-2" d="m1514.68,94.49c-32.86-18.17-67.15-33.81-103.14-44.7-35.37-10.69-71.93-16.64-108.71-19.66-45.68-3.75-91.63-3.47-137.41-2.43-62.98,1.42-125.92,4.42-188.85,6.99-125.01,5.09-249.68-2.55-374.63-5.86-57.9-1.53-116.06-2.57-173.88,1.39-32.9,2.26-65.36,7.52-97.9,12.65-35.55,5.61-71.2,9.76-107.22,10.68-54.23,1.38-108.51-3.15-162.27-9.94-19.49-2.46-38.93-5.27-58.33-8.3-1.89-.29-2.7,2.6-.8,2.89,99.53,15.51,200.46,25.44,300.76,11.82,31.92-4.33,63.58-10.42,95.6-14.06,50.07-5.7,100.75-5.79,151.08-5.18,124.14,1.5,248.26,11.37,372.44,8.88,115.14-2.31,230.38-13.23,345.61-8.65,39.11,1.55,78.24,5.41,116.4,14.36,35.98,8.44,70.61,21.53,103.67,37.98,8.8,4.38,17.48,8.98,26.08,13.74,1.69.94,3.21-1.65,1.51-2.59h0Z"/>
      </g>
      <g class="cls-17">
        <path class="cls-2" d="m1514.98,91.56c-26.76-20.87-55.76-38.85-87.78-50.43-30.52-11.04-62.76-15.86-95.05-17.67-41.49-2.33-83.16-.49-124.64,1.16-58.93,2.35-117.85,4.83-176.84,5.64-120.62,1.66-241.11-4.71-361.67-7.61-56.73-1.37-113.56-2.34-170.28-.26-42.01,1.54-83.69,6.46-125.49,10.7-44.52,4.52-89.11,7.97-133.86,9.04-60.11,1.44-120.25-1.01-180.16-5.8-19.12-1.53-38.22-3.31-57.31-5.26-1.92-.2-1.9,2.8,0,3,112.85,11.56,225.85,15.25,338.93,5.13,40.02-3.58,79.91-8.85,119.98-11.79,52.45-3.86,105.23-3.52,157.78-2.75,117.22,1.71,234.36,8.62,351.6,8.95,63.94.18,127.84-1.56,191.72-4.13,45.52-1.83,91.09-4.36,136.66-4.02,34.33.25,68.94,2.33,102.34,10.77s61.62,22.22,88.85,40.6c7.9,5.33,15.58,10.98,23.09,16.84,1.5,1.17,3.64-.93,2.12-2.12h0Z"/>
      </g>
      <g class="cls-15">
        <path class="cls-2" d="m1514.98,88.39c-21.32-23.06-45.62-43.97-74.68-56.55-25.79-11.16-53.75-14.98-81.65-15.69-37.87-.96-75.81,2.52-113.57,5.01-54.08,3.56-108.2,6.02-162.41,5.93-58.47-.09-116.88-3.34-175.29-5.61-58.24-2.26-116.49-4.25-174.76-5.53-56.42-1.23-112.88-1.95-169.3-.67-22.68.51-45.37,1.34-67.99,3.02-20.65,1.54-41.2,4.24-61.83,6.01-124.21,10.65-249.59,8.05-374.05,4.44-19.17-.55-38.34-1.18-57.51-1.85C0,26.84,0,29.84,1.92,29.91c130.41,4.55,261.48,8.21,391.84.29,44.05-2.68,87.79-8.68,131.88-10.68,52.54-2.38,105.2-2.17,157.78-1.45,113.28,1.54,226.36,7.5,339.58,11.03,60.31,1.88,120.63.9,180.87-2.42,41.6-2.29,83.16-6.1,124.81-7.37,30.11-.91,60.87-.36,90.04,7.98s53.73,24.31,75.48,44.44c6.48,6,12.66,12.3,18.66,18.78,1.31,1.42,3.43-.7,2.12-2.12h0Z"/>
      </g>
      <g class="cls-14">
        <path class="cls-2" d="m1515.22,85.53c-16.53-24.81-36.21-49.41-63.14-63.44-23.01-12-49.04-14.33-74.59-13.58-36.61,1.07-73.07,6.54-109.51,9.95-55.74,5.2-111.67,7.3-167.63,5.57-57.96-1.79-115.76-7.64-173.69-10.44-59.32-2.86-118.7-4.63-178.08-5.44-55.35-.76-110.76-.8-166.09,1.14-21.2.75-42.41,1.76-63.54,3.63-20.18,1.78-40.19,4.95-60.41,6.45-62.18,4.63-124.81,3.14-187.09,2.17-72.33-1.13-144.69-2.7-217.03-.84-17.51.45-35.01,1.12-52.49,2.06C0,22.84,0,25.85,1.92,25.74c137.9-7.39,275.87,3.1,413.79-1.22,43.63-1.37,86.58-7.99,130.08-10.56,50.74-2.99,101.65-3.41,152.46-3.26,112.98.34,225.95,4.37,338.61,12.9,61.96,4.69,124.16,5.37,186.18,1.41,41.35-2.64,82.41-7.89,123.66-11.55,27.76-2.46,56.91-4.54,84.04,3.3,27.11,7.84,48.42,26.36,65.78,48.04,5.72,7.15,11.02,14.62,16.1,22.24,1.07,1.6,3.67.1,2.59-1.51h0Z"/>
      </g>
      <g class="cls-19">
        <path class="cls-2" d="m1515.22,82.36c-12.63-26.83-28.33-57.19-55.22-72.31-22.25-12.51-48.7-10.93-73.16-7.96-39.88,4.85-79.29,12.56-119.33,16.36-64.44,6.11-129.32,4.9-193.66-1.87-57.85-6.09-115.53-10.83-173.68-13.14C836.24.9,772.23,0,708.25.58c-51.37.46-102.92,1.44-154.13,5.82-16.96,1.45-33.63,4.34-50.52,6.32-25.39,2.98-51.07,3.5-76.62,3.52-128.92.11-258.81-15.88-387.5-2.79-12.71,1.29-25.38,2.97-37.97,5.18-1.9.33-1.09,3.22.8,2.89,60.39-10.57,122.61-10.3,183.7-9.2,66.28,1.2,132.47,4.91,198.74,6.41,28.01.63,56.07.91,84.06-.34,20.12-.9,39.74-3.62,59.66-6.28,44.58-5.95,90.02-6.85,134.92-7.84,120.55-2.67,242.17-1.22,362.29,10.09,32.47,3.06,64.76,7.36,97.34,9.31,32.3,1.94,64.69,2.37,97.02,1.03,45.75-1.9,90.91-8.1,136.09-15.16,27.25-4.26,57.29-10.65,84.66-3.85,27.23,6.77,45.03,29.03,58.47,52.32,4.85,8.41,9.22,17.09,13.36,25.87.82,1.75,3.41.22,2.59-1.51h0Z"/>
      </g>
    </g>
  </g>
</svg>