<?xml version="1.0" encoding="utf-8"?>
<!-- Generator: Adobe Illustrator 27.5.0, SVG Export Plug-In . SVG Version: 6.00 Build 0)  -->
<svg version="1.1" id="Layer_1" xmlns="http://www.w3.org/2000/svg" xmlns:xlink="http://www.w3.org/1999/xlink" x="0px" y="0px"
	 viewBox="0 0 1512 200" style="enable-background:new 0 0 1512 200;" xml:space="preserve">
<style type="text/css">
	.st0{opacity:0;}
	.st1{fill:#238C6E;}
	.st2{opacity:9.090909e-02;}
	.st3{opacity:0.1818;}
	.st4{opacity:0.2727;}
	.st5{opacity:0.3636;}
	.st6{opacity:0.4545;}
	.st7{opacity:0.5455;}
	.st8{opacity:0.6364;}
	.st9{opacity:0.7273;}
	.st10{opacity:0.8182;}
	.st11{opacity:0.9091;}
	.st12{fill:#308F7A;}
	.st13{fill:#3E9286;}
	.st14{fill:#4B9592;}
	.st15{fill:#59989E;}
	.st16{fill:#669BAA;}
	.st17{fill:#749FB6;}
	.st18{fill:#81A2C2;}
	.st19{fill:#8FA5CE;}
	.st20{fill:#9CA8DA;}
	.st21{fill:#AAABE6;}
	.st22{fill:#B7AEF2;}
	.st23{fill:#BCAEEF;}
	.st24{fill:#C2AFED;}
	.st25{fill:#C7AFEA;}
	.st26{fill:#CCB0E8;}
	.st27{fill:#D2B0E5;}
	.st28{fill:#D7B1E3;}
	.st29{fill:#DDB1E0;}
	.st30{fill:#E2B2DE;}
	.st31{fill:#E7B2DB;}
	.st32{fill:#EDB3D9;}
	.st33{fill:#F2B3D6;}
	.st34{opacity:0.125;}
	.st35{opacity:0.25;}
	.st36{opacity:0.375;}
	.st37{opacity:0.5;}
	.st38{opacity:0.625;}
	.st39{opacity:0.75;}
	.st40{opacity:0.875;}
	.st41{fill:#36907F;}
	.st42{fill:#48958F;}
	.st43{fill:#5A99A0;}
	.st44{fill:#6D9DB0;}
	.st45{fill:#80A1C1;}
	.st46{fill:#92A5D1;}
	.st47{fill:#A5AAE2;}
	.st48{fill:#BEAFEE;}
	.st49{fill:#C6AFEB;}
	.st50{fill:#CDB0E8;}
	.st51{fill:#D4B1E4;}
	.st52{fill:#DCB1E1;}
	.st53{fill:#E3B2DD;}
	.st54{fill:#EBB2DA;}
</style>
<g>
	<g class="st0">
		<g>
			<path class="st1" d="M1511.6,167.4c-50.5,13.7-102.1,22.4-154.4,24.9c-53.1,2.6-106.4-0.8-159.1-7.7
				c-63.3-8.3-125.9-21.2-188-35.2c-49.2-11.1-99.7-23.2-150.5-17.1c-28.9,3.4-54.8,14.2-80.7,26.8c-28.4,13.7-57,24.4-88.7,27.3
				c-22.4,2-44.6,0.3-66.9-0.9c-24.8-1.3-49.7-1.8-74.6-1.9c-56.1-0.3-112.1,1.2-168.2,2.4c-114.1,2.4-229.9,6-343.2-10.4
				c-12.3-1.8-24.6-3.9-36.9-6.3c-1.9-0.4-2.7,2.5-0.8,2.9c109.5,21.5,223.2,19.6,334.3,17.7c57.8-1,115.7-2.7,173.5-3.3
				c26.2-0.2,52.4-0.2,78.6,0.4c24.2,0.6,48.4,2.8,72.6,3.3c34.3,0.7,67.7-4.8,99.3-18.3c25.8-11,50-25.3,77.3-32.2
				c43.3-11,89.3-5.6,132.5,3.2c64,13,127.2,28.8,191.7,39.1c104.5,16.6,210.3,20.5,314.2-2.2c13-2.8,25.9-6,38.7-9.5
				C1514.3,169.8,1513.5,166.9,1511.6,167.4L1511.6,167.4z"/>
		</g>
	</g>
	<g class="st34">
		<g>
			<path class="st1" d="M1511.6,162.7c-102.2,21.6-206,22.4-309.5,10.4c-61.1-7.1-121.7-17.8-182-29.4
				c-50.3-9.7-101-20.3-152.5-17.1c-30,1.8-58.3,9.5-86.3,20c-28.4,10.7-56.4,21.2-86.4,26.2c-46.4,7.8-93.7,4.1-140.5,4.4
				c-55.1,0.3-110.2,1.7-165.4,2.6c-116.3,1.8-233.7,2.7-349.1-13.5c-13.2-1.9-26.3-4-39.4-6.4c-1.9-0.3-2.7,2.5-0.8,2.9
				c112.9,20.5,228.8,21.6,343.2,20.5c56.9-0.5,113.8-2,170.7-2.8c26.2-0.4,52.5-0.6,78.7-0.4c23.8,0.2,47.5,1.1,71.2-0.7
				c33.6-2.5,65.8-10.2,97.2-22c26.9-10,53.3-20.7,81.8-25.3c45.3-7.3,92-1.8,136.7,6.5c62.3,11.5,124.2,24.1,186.9,32.8
				c102.5,14.1,206,18.4,308.4,1.3c12.7-2.1,25.3-4.5,37.9-7.2C1514.3,165.2,1513.5,162.3,1511.6,162.7L1511.6,162.7z"/>
		</g>
	</g>
	<g class="st35">
		<g>
			<path class="st1" d="M1511.6,158c-100.8,15.1-202.7,14.1-303.9,3.8c-58-5.9-115.8-14.3-173.4-23.6c-51.1-8.2-102.2-17.4-154.1-17
				c-31.5,0.3-62.5,4.8-92.9,13.1c-28.6,7.8-56.7,17.3-85.8,23.3c-44.4,9.2-89.2,10.4-134.4,11.7c-55.7,1.5-111.5,3.2-167.2,4
				c-119,1.7-238.7-0.3-356.9-16.4c-14.2-1.9-28.4-4.1-42.6-6.5c-1.9-0.3-2.7,2.6-0.8,2.9c116.9,19.7,236,23.9,354.4,23.4
				c57-0.2,114-1.7,171-3.2c49-1.4,98.4-0.8,147.1-7.7c32-4.5,63-12.9,94-22.1c28.6-8.5,57.3-15.8,87.2-18.2
				c47.5-3.8,95.5,1.8,142.4,9.5c58.4,9.6,116.9,18.9,175.8,25.9c101.7,12.1,204.2,16.7,306.1,4.8c11.7-1.4,23.3-2.9,34.9-4.7
				C1514.3,160.6,1513.5,157.7,1511.6,158L1511.6,158z"/>
		</g>
	</g>
	<g class="st36">
		<g>
			<path class="st1" d="M1512,153.3c-100.8,8.9-202,6.1-302.7-2.9c-56.2-5-112.2-11.7-168.2-18.9c-51.8-6.7-103.6-14.1-156-14.7
				c-32.2-0.4-64.1,2.3-95.8,8.2c-28.9,5.5-57.4,13-86.3,18.7c-43.1,8.6-86.8,13.5-130.7,16.4c-55.7,3.6-111.5,6-167.3,6.9
				c-119,1.9-238.2-3.3-356.2-18.9c-16.2-2.1-32.4-4.5-48.5-7c-1.9-0.3-2.7,2.6-0.8,2.9c118.6,18.5,238.6,26.4,358.5,26.4
				c57.1,0,114.1-1.7,171.1-4.8c47.7-2.5,95.3-5.6,142.5-13.2c61.9-10,122-29.7,185-32.3c45.9-1.9,92,2.3,137.5,8.1
				c58.3,7.5,116.5,15.3,175,21.2c101.5,10.4,203.7,15.9,305.7,9.6c12.4-0.8,24.7-1.7,37.1-2.8
				C1513.9,156.1,1513.9,153.1,1512,153.3L1512,153.3z"/>
		</g>
	</g>
	<g class="st37">
		<g>
			<path class="st1" d="M1512,148.6c-104.7,2.6-209.4-2.3-313.9-10.5c-58.4-4.6-116.6-10.2-174.9-16c-49.9-5-99.9-9.7-150.1-10
				c-32.5-0.2-64.9,1.8-97,6.3c-31.7,4.4-63,10.5-94.5,15.8c-99.1,16.5-199.4,25.7-299.8,26.7c-111.4,1.1-222.7-8-333.1-22.4
				c-16.1-2.1-32.2-4.3-48.2-6.7c-1.9-0.3-2.7,2.6-0.8,2.9c112.3,16.2,225.4,27.7,338.9,29.1c103.3,1.3,206.6-6,308.7-21.2
				c65.8-9.8,131-25.1,197.7-27.2c44-1.4,88.1,1.4,132,5.2c59.5,5.2,118.8,11.8,178.3,16.9c105.9,9.2,212.1,15.7,318.4,14.8
				c12.8-0.1,25.6-0.3,38.5-0.7C1513.9,151.6,1513.9,148.6,1512,148.6L1512,148.6z"/>
		</g>
	</g>
	<g class="st38">
		<g>
			<path class="st1" d="M1512,143.9c-110.6-4.3-221-10.9-331.4-18.1c-107.4-7-215.1-17.3-322.8-18.6c-67.3-0.8-133.4,7.1-199.9,16.9
				c-50.6,7.5-101.1,15.8-151.9,21.7c-49.1,5.7-98.4,8.5-147.8,8.5c-104.8-0.1-209.1-12.6-312.9-26.1c-15.1-2-30.2-4-45.3-6
				c-1.9-0.3-1.9,2.7,0,3c107.4,14.3,215.1,28.8,323.5,31.6c48.5,1.2,97-0.1,145.3-4.3c51.6-4.5,102.8-12.6,153.9-20.2
				c69.3-10.3,138.4-21.4,208.6-22.2c102.5-1.2,205.2,9,307.4,15.8c111,7.4,222.1,14.4,333.3,19.2c13.3,0.6,26.6,1.1,39.9,1.6
				C1513.9,147,1513.9,144,1512,143.9L1512,143.9z"/>
		</g>
	</g>
	<g class="st39">
		<g>
			<path class="st1" d="M1512,139.2c-115.3-11.9-231-19.4-346.8-24.7c-106.8-4.9-213.8-9.1-320.7-12.4c-33.8-1-67.5-1.3-101.3,0.5
				c-36.6,1.9-73,6.2-109.3,11.4c-52.5,7.5-104.5,18-157,25.1c-45.6,6.2-91.7,9.1-137.7,8.5c-98.2-1.2-195.8-16.6-293.1-29
				c-15.4-2-30.8-3.9-46.2-5.8c-1.9-0.2-1.9,2.8,0,3c101.7,12.4,203.4,29.3,305.9,33.8c44.8,2,89.6,1,134.3-3.3
				c51.9-5.1,103.1-15.4,154.6-23.5c74-11.7,147.8-19.7,222.8-18.4c41.4,0.7,82.8,2.8,124.2,4.5c59.1,2.4,118.3,4.1,177.4,6.6
				c116.8,4.8,233.6,11.5,350.1,22.5c14.2,1.3,28.5,2.7,42.7,4.2C1513.9,142.4,1513.9,139.4,1512,139.2L1512,139.2z"/>
		</g>
	</g>
	<g class="st40">
		<g>
			<path class="st1" d="M1512.4,134.6c-121.1-20.3-243.8-28.1-366.5-30.6c-61.7-1.3-123.3-0.3-185-1.6c-43.4-0.9-86.7-3.3-130-5.8
				c-34-2-68-3.8-102.1-3.2c-38.9,0.6-77.7,4.3-116.2,9.8c-53.4,7.7-105.9,20.2-159.2,28.7c-43.1,6.8-86.7,10-130.3,9
				c-93.1-2.3-185.3-20.4-277.5-31.9c-15.2-1.9-30.4-3.7-45.6-5.4c-1.9-0.2-1.9,2.8,0,3c55.6,6.2,111.1,14.1,166.5,21.8
				c42.1,5.9,84.4,11.6,126.8,14.2c41.2,2.5,82.5,1.8,123.6-2.7c51.6-5.7,102-18,153-26.8c43.4-7.5,87.2-13.5,131.3-15.7
				c34-1.7,68-1,102,0.8c39.1,2,78.3,4.6,117.4,6.1c57.9,2.2,115.9,1.5,173.8,2.1c124.6,1.2,249.4,6.6,372.9,24.3
				c14.8,2.1,29.5,4.4,44.2,6.9C1513.5,137.8,1514.3,134.9,1512.4,134.6L1512.4,134.6z"/>
		</g>
	</g>
	<g>
		<g>
			<path class="st1" d="M1512.4,129.9c-124.6-29.2-253.2-36.4-380.8-35.2c-60.8,0.6-121.6,4.4-182.4,3.5
				c-42.6-0.6-85.2-3.5-127.6-7.3c-34.9-3.2-69.9-6.6-105-7.3c-40.7-0.8-81.4,2.3-121.6,8.2c-54.5,7.9-107.5,22.4-161.6,32.3
				c-40.7,7.5-81.9,11.3-123.3,9.9c-39-1.3-77.8-7-116.3-13c-49-7.7-98-15.5-147.3-21.5C31,97.5,15.5,95.8,0,94.2
				c-1.9-0.2-1.9,2.8,0,3c55.2,5.7,110.1,13.5,165,22.2c38.9,6.2,77.8,12.7,117,15.9c38.7,3.2,77.5,2.4,116-2.6
				c52-6.7,102.6-21.2,154.1-30.8c45.1-8.4,90.8-14.3,136.7-15.3c35.1-0.8,70.1,1.6,105,4.7c38.9,3.5,77.7,7.1,116.7,8.8
				c56.4,2.4,112.6-0.1,169-1.5c129-3.3,259.2,0.1,386.2,24.4c15.4,2.9,30.7,6.2,46,9.8C1513.5,133.2,1514.3,130.3,1512.4,129.9
				L1512.4,129.9z"/>
		</g>
	</g>
	<g>
		<g>
			<path class="st41" d="M1512.4,125.2c-111.3-25.2-223.3-42.1-337.6-42.1c-63.5,0-126.6,5.9-190,8.4c-48.3,1.8-96.6,0.7-144.8-3.4
				c-36.6-3.1-73-7.9-109.7-10c-41.4-2.3-82.7-0.5-123.8,4.7c-55.4,7.1-109.1,21.4-163.8,32c-40.3,7.8-81,12.8-122.1,12.9
				c-39.4,0.1-78.7-4.3-117.6-10c-51.7-7.6-103-16.8-154.6-25.2c-16-2.6-32-5.1-48-7.6c-1.9-0.3-2.7,2.6-0.8,2.9
				c56.8,8.8,113.4,18.7,170.1,27.8c40,6.4,80.2,12.3,120.7,14.4c38.1,1.9,76.1-0.2,113.8-5.6c52.6-7.6,103.7-22,155.9-31.4
				c46.2-8.3,93-13.5,140-13c36.1,0.4,72,4.3,107.9,8c43.5,4.4,87,7.4,130.7,7.4c62.6,0,124.9-6.6,187.4-8.5
				c56.8-1.7,113.7-0.5,170.3,4.8c57.2,5.4,114,14.9,170.2,26.6c15,3.1,30,6.4,44.9,9.8C1513.5,128.5,1514.3,125.6,1512.4,125.2
				L1512.4,125.2z"/>
		</g>
	</g>
	<g>
		<g>
			<path class="st42" d="M1512.4,120.5c-100.9-22.2-201.6-47-305.4-48.9c-62.1-1.1-123.7,4.8-185.5,10.3
				c-54.2,4.8-108.6,6.4-162.9,2.7C820.7,82,783.2,76.5,745.4,73c-40.3-3.8-80.6-3.9-120.9,0.3c-97.7,10.1-191.4,44-290,48.3
				c-95,4.2-189.8-17-282.4-35.5c-17.3-3.4-34.5-6.9-51.8-10.4c-1.9-0.4-2.7,2.5-0.8,2.9c59.8,12,119.5,24.4,179.8,34.2
				c41.3,6.7,83,11.9,124.9,12.3c39.1,0.4,77.9-3.6,116.4-10.3c53.5-9.3,105.9-23.9,159.5-32.5c45-7.3,90.5-10.8,136.1-8.4
				c36.4,1.9,72.5,7.3,108.8,11c48,4.9,96.2,6.1,144.4,3.8c65.1-3.1,129.6-12.1,194.8-13.7c50-1.2,99.9,1.3,149.4,8.5
				c51.1,7.4,101.5,18.8,151.9,29.9c15.3,3.4,30.7,6.8,46.1,10.2C1513.5,123.8,1514.3,120.9,1512.4,120.5L1512.4,120.5z"/>
		</g>
	</g>
	<g>
		<g>
			<path class="st43" d="M1512.4,115.8c-53.1-11.4-105.7-25.2-158.6-37.4c-40.3-9.3-80.9-16.4-122.3-18.2
				c-57.7-2.5-115.6,3-172.9,9.8c-61,7.2-121.9,13.1-183.4,10.3c-39.5-1.8-78.5-7.6-117.6-12.5c-39.5-4.9-79-6.8-118.7-3.6
				c-98.7,7.9-192.8,42.8-291.5,51c-98.4,8.2-196.4-13.5-291.7-35.6c-18.5-4.3-37-8.7-55.4-13.2c-1.9-0.5-2.7,2.4-0.8,2.9
				c62.5,15.2,125.2,30.1,188.8,40.4c42.5,6.9,85.6,11.3,128.7,10.2c95.1-2.5,185.4-34.1,278.9-47.8c44.2-6.5,88.8-8.4,133.3-4.4
				c37,3.3,73.6,9.8,110.6,13.2c52.9,4.8,106.1,3.7,158.9-1.2c65.2-6,129.8-16.2,195.5-17c43.6-0.6,86.8,3.5,129.5,12.2
				c47,9.6,93.4,22.3,140.2,33.2c15.9,3.7,31.8,7.2,47.7,10.7C1513.5,119.1,1514.3,116.3,1512.4,115.8L1512.4,115.8z"/>
		</g>
	</g>
	<g>
		<g>
			<path class="st44" d="M1512.4,111.2c-52.3-11-103.7-25.1-155-40.2c-34.7-10.2-69.5-19.3-105.6-22.1
				c-52.5-4.1-105.6,1.6-157.7,8.2c-67.5,8.6-134.4,19.3-202.7,18.2C811.3,74,733.3,51,653,55.4c-99.7,5.4-194.1,41.4-292.8,53.4
				C258,121.2,156.5,98.7,58.1,72.9C38.8,67.8,19.6,62.5,0.4,57.1c-1.9-0.5-2.7,2.4-0.8,2.9c65.1,18.4,130.9,35.8,197.7,46.6
				c43.8,7.1,88.1,10.8,132.4,8c96.4-6.1,188-40.7,283.5-52.6c42.7-5.3,85.3-5.5,128-0.1c37.6,4.8,74.8,11.9,112.7,14.7
				c58.7,4.3,117.7,0.1,176-7.7c62.9-8.4,126-18.7,189.7-18.4c37.7,0.2,74.4,5.9,110.8,15.8c44.3,12.1,88.1,26,132.8,36.8
				c16.1,3.9,32.2,7.5,48.4,10.9C1513.5,114.4,1514.3,111.6,1512.4,111.2L1512.4,111.2z"/>
		</g>
	</g>
	<g>
		<g>
			<path class="st45" d="M1512.4,106.5c-51.9-10.7-102.8-24.7-152.6-42.7c-29.7-10.7-59.1-22-90.5-26.1c-47.8-6.2-96.9,0-144.3,6.3
				c-72,9.6-143.1,24.3-215.9,25.5c-43.9,0.8-86.9-4.1-130.1-11.7c-37.5-6.6-74.8-12.1-113-11C566,49.6,472,86.2,374.2,102.1
				c-106.4,17.3-212-6.4-314.1-36c-20-5.8-39.9-11.9-59.8-18.2c-1.8-0.6-2.6,2.3-0.8,2.9c67.6,21.4,136.1,41.4,206.2,52.8
				c44.9,7.3,90.4,10.2,135.8,5.8C438.3,100,530,63,626.7,52.5c42.2-4.6,83.9-3.1,125.7,3.7c38.5,6.3,76.5,13.7,115.6,15.6
				c65.5,3.3,130.6-5.2,195.2-15.7c58.4-9.4,118.3-19.5,177.6-17.7c33,1,63.8,8.5,94.7,19.6c41.9,15,83.6,29.5,126.9,40.2
				c16.3,4,32.8,7.7,49.2,11.1C1513.5,109.8,1514.3,106.9,1512.4,106.5L1512.4,106.5z"/>
		</g>
	</g>
	<g>
		<g>
			<path class="st46" d="M1512.4,101.8c-52-10.5-103.4-24.2-152-45.6c-25.2-11.1-49.7-24.5-77-29.8c-41.4-8.1-85.3-2-126.6,3.7
				C1079.5,40.7,1003.4,59,925.3,63c-46.2,2.3-91.5-1.3-136.8-10.1c-36.5-7.1-72.6-14.4-110-14.5c-100.8-0.1-195,38-292.6,57.3
				c-43.3,8.6-87.2,11-131.2,6.9C189.2,96.5,124.9,79,62.3,59.2C41.5,52.6,20.9,45.7,0.4,38.5c-1.8-0.6-2.6,2.3-0.8,2.9
				c69.9,24.4,141.3,47.1,214.6,58.9c46.1,7.5,92.8,9.7,139.1,3.7c41.4-5.4,81.7-16.7,121.9-27.4C529.7,62.2,584.7,48,641,43
				c41-3.6,81.1-0.2,121.4,7.7c39.5,7.7,78.6,15,119,15.9c72.1,1.7,142.6-11.8,213.4-23.8c33.6-5.7,67.4-11.1,101.4-14.4
				c21.2-2.1,42.7-3.4,64-2c28.8,2,54,11.8,79.8,23.8c39.3,18.1,79.5,32.5,121.5,43.1c16.6,4.2,33.4,7.9,50.2,11.3
				C1513.5,105.1,1514.3,102.2,1512.4,101.8L1512.4,101.8z"/>
		</g>
	</g>
	<g>
		<g>
			<path class="st47" d="M1512.4,97.1c-51.9-10.4-104.6-23.5-151.8-48.2c-21.4-11.2-41.3-26.7-64.7-33.5
				c-35.8-10.5-76.3-4-112.4,1.1c-80.5,11.3-159.6,32.3-240.8,39.1c-48.7,4.1-97.1,2.4-145-7.6c-35.7-7.5-70.7-16.7-107.3-17.9
				c-55.1-1.8-110.1,9.6-163.2,23.3C484.2,64.5,441.9,78.8,398.6,89c-44,10.3-88.6,14.2-133.7,10.5C196.7,93.9,130,74.6,65.5,52.7
				C43.6,45.3,22,37.4,0.4,29.2c-1.8-0.7-2.6,2.2-0.8,2.9C72,59.5,146.3,84.9,223,97.3c46.8,7.6,94.3,9.1,141.2,1.6
				c42.2-6.7,83-19.9,124.1-31.7c54.1-15.5,109.4-29.6,165.7-33.4c40-2.7,78.3,2.5,117.2,11.4c40.9,9.3,81.4,16,123.6,15.7
				c78-0.5,153.9-18.2,230.3-31.9c31.6-5.6,63.4-11,95.4-13.9c18.4-1.7,37.2-2.8,55.6-0.6c25,2.9,44.8,15.1,66,27.5
				c36.7,21.5,76.5,35.7,117.5,46.3c17.3,4.5,34.7,8.3,52.1,11.8C1513.5,100.4,1514.3,97.5,1512.4,97.1L1512.4,97.1z"/>
		</g>
	</g>
	<g>
		<g>
			<path class="st22" d="M1512.4,92.4c-51.8-10.2-106.3-22.7-151.9-50.6c-18.5-11.4-34.1-28.8-54.1-37.5c-11-4.8-23.1-6.3-35-6.6
				c-21.2-0.6-42.5,2.1-63.5,5.1c-82.6,11.9-163.3,34.7-246.2,44.5c-51.8,6.1-104.1,7-155.3-4.1C771.7,35.6,738,24.5,702.3,22
				c-54.2-3.8-109.2,7.3-161.4,21.1c-43.8,11.6-86.4,27.5-130.1,39.3c-44.5,12-89.9,17.3-136,13.9c-70.7-5.1-139.7-26.1-206-50
				C45.8,38,23.1,29.1,0.4,20c-1.8-0.7-2.6,2.2-0.8,2.9c74.7,30.3,151.9,58.4,231.7,71.3c48.2,7.8,97.1,8.6,145.2-0.7
				c42.9-8.3,84-23.3,125.6-36.1C555.6,41,611,27.1,667.1,24.7c39-1.7,75.5,5.6,113,15.3c42.4,10.9,84.8,16.3,128.7,14.7
				c83.1-3.1,163.7-24.6,245-39.7c29.2-5.4,58.6-10.6,88.2-13.1c16.1-1.4,32.9-2.3,48.8,0.9c21.3,4.2,35.8,18.8,52.6,31.2
				c33.6,24.8,74,38.6,114.1,49.2c17.9,4.7,36,8.7,54.1,12.3C1513.5,95.7,1514.3,92.8,1512.4,92.4L1512.4,92.4z"/>
		</g>
	</g>
	<g>
		<g>
			<path class="st48" d="M1512.4,87.7c-49-11.2-98.8-25.2-142.5-50.6c-20-11.6-38-27.9-59.7-36.5c-30-11.8-65.1-7.5-96.1-3.6
				c-76.9,9.6-151.7,30.1-228.3,41.1c-56.3,8-113.3,10.3-169.5,0.1c-37.7-6.9-74.5-18.4-112.8-21.8c-54.5-4.9-109,4.9-161.6,18
				c-46.7,11.6-92.3,27.2-139,39.1C357.3,85,311,90.6,264.1,87.4C195.8,82.8,129.1,63,65,40C43.3,32.2,21.8,23.9,0.4,15.3
				c-1.8-0.7-2.6,2.2-0.8,2.9C71.1,47.1,145,73.7,221.5,85.6c48.4,7.6,97.3,7.7,145.5-1.2c44.9-8.3,88.3-23,132.1-35.5
				C554.1,33.2,610.7,19,668.1,18.1c40.6-0.7,79.2,8,118.5,17c46.7,10.6,93.5,15,141.3,12.1c80.5-4.9,158.6-26.3,237.8-39.8
				c26.6-4.5,53.5-8.7,80.5-10.4c15.7-1,31.8-1.2,47.3,2c22.5,4.6,39.9,18.4,58.6,30.8c33.9,22.4,71.8,37.2,110.6,48.5
				c16.1,4.7,32.5,8.8,48.9,12.5C1513.5,91,1514.3,88.1,1512.4,87.7L1512.4,87.7z"/>
		</g>
	</g>
	<g>
		<g>
			<path class="st49" d="M1512.4,83c-46-12.1-91.4-27.3-133.1-50.5c-21.2-11.8-41.2-27-64.2-35.4c-29.8-10.9-62.9-8.8-93.8-5.7
				c-70.6,7.2-139.3,24.7-209.1,36.6c-60.5,10.3-122.1,14.2-183,5.2C788.2,27,748.2,15.4,707,10.9C600-0.9,498.3,40,396,64.4
				c-46.5,11.1-93.7,17.2-141.6,14.2c-66.2-4.1-131-22.6-193.2-44.8C40.8,26.5,20.5,18.7,0.4,10.6c-1.8-0.7-2.6,2.2-0.8,2.9
				c68.7,27.7,139.7,52.8,213.3,63.7c48.5,7.2,97.4,6.7,145.7-1.8c104.8-18.5,204.8-65,312.8-63.6c42.9,0.5,84.1,10.6,126,18.9
				c51,10.1,102.3,13,154.1,8.4c77-6.9,152-27.6,228.3-39.2c38.1-5.8,79.7-12.5,118.1-4.5c23.5,4.9,43.1,17.9,63.4,30.1
				c33.6,20.3,69.4,35.8,106.8,47.9c14.4,4.6,29,8.8,43.6,12.6C1513.5,86.4,1514.3,83.5,1512.4,83L1512.4,83z"/>
		</g>
	</g>
	<g>
		<g>
			<path class="st50" d="M1512.4,78.3c-42.6-13-84-29.1-123.2-50.3c-22.2-12-43.6-26.1-67.6-34.3c-29.1-10-60.5-10-90.9-7.7
				c-64,4.8-127.5,18.1-190.3,30.8c-63.2,12.8-127.7,18.8-192,11.7c-45.1-5-89.2-16.6-134.2-22.4c-53.8-6.9-107.5-2.9-160.4,8.8
				C499.2,27,445.5,43,390.9,55.3C343.3,66,295,72.4,246.1,69.8c-64.2-3.4-127-20.5-187.4-41.8c-19.6-6.9-39-14.4-58.3-22.1
				c-1.8-0.7-2.6,2.2-0.8,2.9c66,26.6,134.2,50.1,204.9,60c48.9,6.8,98.1,5.7,146.7-2.6C460.5,47.7,566.1,0.4,678.6,5.8
				c45.1,2.2,88.8,13,133.1,20.5c55.5,9.3,111.2,10.5,167.1,3.6C1018,25.1,1056.4,16.3,1095,9c32.3-6.1,64.7-11.9,97.4-16.1
				c36.4-4.7,75.1-9,111.4-1.1c24.2,5.2,45.5,17.3,66.8,29.3c32.7,18.4,66.3,34.4,101.7,47.1c13,4.7,26,8.9,39.2,13
				C1513.5,81.8,1514.2,78.9,1512.4,78.3L1512.4,78.3z"/>
		</g>
	</g>
	<g>
		<g>
			<path class="st51" d="M1512.4,73.7c-38.9-13.9-76.5-30.6-113-50.1c-22.7-12.1-45.3-25.2-69.9-33.3c-28.8-9.4-59.4-10.8-89.4-9.4
				c-56.1,2.6-111.8,13-166.8,23.5c-37.5,7.1-74.8,15.1-112.9,18.4c-29.5,2.6-59.1,2.8-88.6,0.6c-49.8-3.7-98.5-15.1-147.9-22
				c-53-7.4-105.9-7-158.5,2.9c-59.4,11.2-117.5,28.7-176.6,41.4C338.7,56.4,288,63.4,236.8,61C175,58.1,114.5,42.5,56.2,22.2
				C37.4,15.7,18.9,8.6,0.4,1.2c-1.8-0.7-2.6,2.2-0.8,2.9c62.9,25.2,128,47.1,195.5,56.1c50.2,6.7,100.6,4.9,150.5-3.2
				c55.2-9,109.4-23.9,163.7-36.9c32.4-7.8,64.7-15.4,97.9-18.8c26.6-2.7,53.4-2.9,80.1-0.9c48.4,3.7,95.6,15.1,143.6,21.7
				c58.9,8.1,118.1,7.3,176.8-2.2c66-10.7,130.9-26.3,197.5-33.2c34.9-3.6,71.1-5.8,105.6,1.7c25.2,5.5,48.1,17,70.6,29.1
				c31.1,16.7,62.4,32.6,95.1,45.9c11.5,4.7,23.2,9.1,34.9,13.2C1513.4,77.2,1514.2,74.3,1512.4,73.7L1512.4,73.7z"/>
		</g>
	</g>
	<g>
		<g>
			<path class="st52" d="M1512.4,69c-34.9-14.6-68.5-31.6-101.9-49.3c-23.2-12.3-46.6-24.8-71.8-32.7c-28.2-8.9-57.9-11.4-87.4-10.8
				C1202.3-23,1153.3-15.3,1105-7c-35.8,6.2-71.4,14.3-107.3,19.5c-31.6,4.6-63.5,6.5-95.3,5.5C847.7,16.4,794.1,5.8,740.1-2.2
				c-53.8-8-107.8-11.1-161.9-3.3C544.8-0.8,511.9,8,479,15.8c-29.7,7-59.5,14-89.4,20.2C337.2,46.7,284,54.3,230.3,52.3
				C169.4,50.1,109.9,35.8,52.5,16C35,10,17.6,3.4,0.4-3.5c-1.8-0.7-2.6,2.2-0.8,2.9c60.2,24.1,122.6,44.3,187.1,52.4
				c52.2,6.5,104.5,4,156.3-4.2C403.2,38,462.3,22.7,521.5,8.8c32.1-7.5,64.2-13.6,97.1-15.4c27.4-1.5,54.8-0.5,82.1,2.3
				c51.9,5.3,103,16.8,154.9,22.2c29.2,3,58.6,4.2,87.9,2.8c34.4-1.6,68-7.2,101.8-13.7c57.7-11.1,115.8-21.8,174.4-26.3
				c33.3-2.5,67.4-3,100.2,4.3c25.5,5.7,49.2,16.4,72.4,28.4c30,15.6,59.7,31.8,90.5,45.8c9.6,4.4,19.2,8.6,28.9,12.6
				C1513.4,72.6,1514.2,69.7,1512.4,69L1512.4,69z"/>
		</g>
	</g>
	<g>
		<g>
			<path class="st53" d="M1512.8,64.4c-31.1-15.5-61.3-32.7-91.9-49.1c-23.6-12.7-47.8-24.6-73.5-32.2
				c-73.8-21.9-155.1-9.4-229.5,2.4c-66.4,10.5-131.7,27-199.4,26.2C859.1,10.9,800.8,0,742.2-8.2c-58.6-8.2-117.5-12-176.3-3.2
				C531.7-6.3,498.1,3,464.3,10.7c-30.2,6.9-60.4,13.5-90.8,19.1c-52.7,9.7-106.2,16-159.9,13.5c-56.8-2.7-112.3-15.5-166-33.8
				C31.7,3.9,16-2,0.4-8.2C-1.4-8.9-2.2-6-0.4-5.3c55.1,21.9,112.1,39.9,171.1,47.6c51.1,6.7,102.6,5.1,153.6-1.7
				c60.8-8.1,120.7-22.3,180.5-36.2c33.3-7.8,66.4-14.8,100.6-17c30-2,60.1-1,90,1.8C752.6-5.4,809,6.4,866.2,11.8
				c30.5,2.9,61.2,3.8,91.8,1.9c33.8-2.1,66.7-8.8,100-14.9c54.6-10,109.8-19.3,165.3-22.9c34.1-2.2,68.8-2.1,102.4,4.8
				c57.7,11.9,107.7,45.7,159.1,72.7c8.8,4.6,17.7,9.2,26.6,13.6C1513,67.9,1514.5,65.3,1512.8,64.4L1512.8,64.4z"/>
		</g>
	</g>
	<g>
		<g>
			<path class="st54" d="M1512.8,59.7C1461.1,28.6,1410-7,1350.8-22.4c-78.2-20.3-162.9-8.3-241.3,3.9c-32.8,5.1-65.3,11.3-98,17.1
				c-32,5.7-64.6,7.3-97.1,6.3c-62.5-2-124.1-13.7-186-21.2C665.1-24,600.9-26.7,538-14.4C504-7.8,470.4,1.1,436.5,8.3
				c-29.6,6.3-59.3,12.1-89.2,16.7c-51.1,7.9-102.8,12.2-154.5,8.8c-52.2-3.5-103.4-15.1-152.9-32C26.6-2.8,13.5-7.7,0.4-12.9
				c-1.8-0.7-2.6,2.2-0.8,2.9C49.4,9.7,100.9,25.4,154.1,32.8c49.1,6.8,98.7,6.4,147.9,1.1c58.3-6.2,116-18.1,173.1-31
				c34.4-7.8,68.4-16.7,103.6-20.3c32-3.3,64.3-3.2,96.4-1C737.8-14.2,799.6-2.2,862,4.2c30.8,3.1,61.7,4.9,92.6,3.5
				c32.8-1.4,64.5-7.7,96.7-13.5c55-9.9,110.5-18.8,166.3-22.5c36.3-2.4,73.2-2.6,109.1,3.7c59.8,10.5,110.7,42,161.7,73.1
				c7.5,4.6,15.1,9.2,22.7,13.7C1512.9,63.3,1514.4,60.7,1512.8,59.7L1512.8,59.7z"/>
		</g>
	</g>
	<g>
		<g>
			<path class="st33" d="M1512.8,55.1c-49.4-36.6-100.6-70.4-161.6-83.7c-35.1-7.7-71.2-9.3-107-8.3c-51.3,1.4-102.4,8-153.1,16
				c-32.9,5.2-65.5,12.5-98.5,16.7c-29.3,3.7-58.9,3.6-88.3,1.9c-63.6-3.8-126.5-15.2-189.9-21.7c-63.9-6.6-129.2-8.8-192.4,4.9
				c-64,13.8-127.4,29.1-192.4,37.8c-50.8,6.8-102.3,9.9-153.5,6C127.9,20.8,80.6,10.6,34.9-4.9C23.3-8.8,11.8-13.1,0.4-17.5
				c-1.8-0.7-2.6,2.2-0.8,2.9C44.5,3,90.9,16.5,138.7,23.4c47.9,6.9,96.5,7.2,144.7,3.1c59.5-5,118.3-15.9,176.5-28.6
				c34.2-7.4,68-16.9,102.9-20.9c32.4-3.8,65-4.1,97.5-2.4C724.7-22.2,788.3-11.2,852.2-4c30,3.4,60.2,5.9,90.5,5.8
				c29.5-0.1,57.8-4.1,86.8-9.3c58.1-10.5,116.6-19.9,175.4-24.4c40.2-3.1,81-3.9,121,1.7c30.4,4.3,60,12.8,87.8,25.8
				c27.5,12.9,52.9,29.7,77.6,47.4c6.7,4.8,13.3,9.7,19.9,14.6C1512.8,58.8,1514.3,56.2,1512.8,55.1L1512.8,55.1z"/>
		</g>
	</g>
	<g class="st40">
		<g>
			<path class="st33" d="M1512.8,45.9c-53.1-35.2-108.2-69-171.7-80.9c-33.3-6.2-67.3-7.1-101-5.8c-48.1,1.9-96,8-143.6,14.7
				c-32.3,4.6-64.5,10.6-96.8,14.5c-32.5,4-65.3,4.5-97.9,2.9c-64.5-3-128.2-13.8-192.4-20.4c-64.5-6.5-129.8-8.4-193.6,4.9
				C454.5-11.2,393.3,1.8,331.3,10c-48.9,6.5-98.3,10-147.5,7C134.3,14.2,85.6,4.6,38.2-9.8c-12.7-3.9-25.3-8-37.8-12.5
				c-1.8-0.6-2.6,2.3-0.8,2.9c47,16.6,95.2,29.4,144.7,35.7c47.9,6.1,96.4,5.8,144.4,1.4c55.9-5.1,111.3-15.1,166.4-26.2
				c33.6-6.7,67.1-15.2,101.1-19.2c32.7-3.8,65.8-4.2,98.7-2.6c64.6,3.2,128.4,14,192.6,20.5c32,3.2,64.1,5.4,96.3,4.9
				c32.1-0.5,63.4-4.7,95.1-9.6c54.4-8.5,109-16.6,163.9-21.1c37.2-3,74.8-4.4,112-0.4c29.9,3.3,59.1,10.6,86.9,22.1
				c30.2,12.5,58.5,29.3,86.1,46.9c7.9,5,15.7,10.1,23.5,15.3C1512.9,49.6,1514.4,47,1512.8,45.9L1512.8,45.9z"/>
		</g>
	</g>
	<g class="st39">
		<g>
			<path class="st33" d="M1512.8,36.8c-59-35.6-120.3-70.5-189.6-79.9c-34.1-4.6-68.7-3.8-102.9-1.4c-49.5,3.6-98.8,10.3-148,17
				c-32.6,4.4-65.2,9.6-98.1,11.7c-31.7,2-63.5,1.8-95.2-0.1c-58.6-3.4-116.6-12.2-175-17.9c-57.1-5.6-114.7-7.6-171.6,0.9
				c-60.7,9.1-120.7,23-181.5,32C300.5,6.6,249.6,11.6,198.7,10C145.9,8.4,93.7-0.5,42.8-14.3c-14.2-3.9-28.3-8.1-42.4-12.6
				c-1.8-0.6-2.6,2.3-0.8,2.9C51-7.6,103.6,5.1,157.4,10.4c49.1,4.8,98.4,3.2,147.4-2.2C361.3,1.9,417.3-8.6,473.2-19
				c31.8-6,63.5-12.5,95.8-15c28.8-2.3,57.8-2.1,86.7-0.5c57.8,3.2,115.2,12,172.8,17.7c62.3,6.1,125.1,8.1,187.4,0.1
				c55.8-7.2,111.4-15.7,167.4-21.4c37.5-3.8,75.4-6.7,113.1-4.5c31,1.8,61.4,7.8,90.6,18.3c33.8,12.1,65.5,29.3,96.5,47.2
				c9.4,5.4,18.6,11,27.9,16.6C1512.9,40.4,1514.4,37.8,1512.8,36.8L1512.8,36.8z"/>
		</g>
	</g>
	<g class="st38">
		<g>
			<path class="st33" d="M1512.8,27.6C1447.9-8.7,1380-45,1304.5-51.3c-35.3-2.9-70.8-0.3-105.9,3.3
				c-51.8,5.3-103.4,12.5-155.1,18.7c-61.9,7.4-123.5,9.9-185.8,6.1c-52.9-3.3-105.4-10.4-158.2-15.4c-51.4-4.9-103.1-7.1-154.6-1.5
				c-59.2,6.4-117.7,19.3-176.5,28.6C317.4-3.5,265.8,2.9,213.9,2.7C157.8,2.6,102.1-5.5,47.6-18.9C31.8-22.7,16-27,0.4-31.6
				c-1.9-0.5-2.6,2.4-0.8,2.9C55.5-12.3,112.8,0.1,171,4.2c50.5,3.6,101,0.5,151.1-6C379.3-9.2,436-19.9,492.9-29.4
				c29.2-4.9,58.2-9.1,87.8-10.4c25.1-1.1,50.3-0.7,75.4,0.8c51.3,3,102.2,10.1,153.3,15c58.8,5.6,117.8,7.8,176.7,3.6
				c58.4-4.2,116.4-13.4,174.5-20.3c38.6-4.6,77.5-9.1,116.4-8.8c31.9,0.3,63.4,4.7,93.9,14.1c37.6,11.6,73.2,29.2,107.8,47.7
				c11,5.8,21.8,11.8,32.7,17.9C1512.9,31.2,1514.4,28.6,1512.8,27.6L1512.8,27.6z"/>
		</g>
	</g>
	<g class="st37">
		<g>
			<path class="st33" d="M1512.8,18.5c-72.2-37.8-148.1-76.3-231.3-77.7c-37.7-0.6-75.3,4.4-112.6,9.1
				c-57.7,7.3-115.5,15.2-173.5,19.2c-58.2,4-116.6,3.5-174.8-0.8c-47.8-3.5-95.4-9.5-143.1-13.3c-47.3-3.7-94.7-4.6-141.9,0.3
				c-55.9,5.8-111.2,16.5-166.7,25.2c-49.3,7.8-99,14.4-149,14.9C162.8-4,106.1-11.5,50.5-23.9C33.7-27.6,17-31.8,0.4-36.3
				c-1.9-0.5-2.7,2.4-0.8,2.9C58-17.7,117.6-5.8,178.1-2.5c48.9,2.7,97.6-0.8,146.1-7.3C377.8-17,431-27,484.5-34.9
				c51.4-7.6,102.3-11.8,154.3-9.5c46.7,2,93.1,7.7,139.6,12.1c53.6,5.1,107.3,8.1,161.1,6.9c62.9-1.4,125.4-8.6,187.7-16.4
				c41.6-5.2,83.3-11.6,125.3-13.9c33.3-1.8,66.4,0.5,98.8,8.6c42.2,10.6,82.3,29,121.2,48.3c13,6.5,26,13.1,38.8,19.9
				C1513,22,1514.5,19.4,1512.8,18.5L1512.8,18.5z"/>
		</g>
	</g>
	<g class="st36">
		<g>
			<path class="st33" d="M1512.8,9.3c-80.3-39.8-164.9-80.6-256.7-75.5c-40.6,2.2-80.9,9.6-121.2,15c-63,8.3-126.4,13.9-189.9,15.5
				c-53.8,1.4-107.5-0.4-161.1-4.6c-43.7-3.4-87.2-8.3-131-10.9c-44.4-2.6-88.9-2.2-133.2,2.4c-52.4,5.4-104.3,14.2-156.3,22.6
				c-46.6,7.5-93.5,13.9-140.8,14.7c-57.4,1-114.5-6-170.7-17.5C34.7-32.7,17.5-36.7,0.4-41c-1.9-0.5-2.7,2.4-0.8,2.9
				C59.3-23.2,120.2-11.9,181.8-9.2c47.2,2.1,94.2-1.4,141-7.9C420.9-30.8,517.9-52,617.5-49.7c42.4,1,84.5,5.2,126.7,9
				c49.7,4.5,99.4,7.9,149.3,8.4c65.1,0.6,130.2-3.2,194.9-10.2c45.7-5,91.1-12.7,136.8-17.9c34.7-3.9,69.4-4.8,103.9,1.8
				c47.6,9,92.9,28.4,136.6,48.7c15.3,7.1,30.4,14.4,45.5,21.9C1513,12.8,1514.5,10.2,1512.8,9.3L1512.8,9.3z"/>
		</g>
	</g>
	<g class="st35">
		<g>
			<path class="st33" d="M1512.8,0.2c-83.9-39.6-174.2-82.5-269.4-73.3c-38,3.7-75.5,11.8-113.4,16.9c-64.3,8.8-129.4,12-194.2,13.1
				c-53.8,1-107.5-0.4-161.1-4c-41.7-2.7-83.3-6.8-125-9c-43-2.3-86.1-2.2-129,1c-50.4,3.8-100.3,11.7-150.1,20
				c-45.7,7.6-91.5,14.7-137.9,16.3C173.3-16.7,114.2-23,56-33.9c-18.6-3.5-37.2-7.5-55.6-11.7c-1.9-0.4-2.7,2.5-0.8,2.9
				C62.7-28.2,127-17.2,191.8-15.5c46.8,1.2,93.2-3.1,139.4-10.1c48-7.3,95.7-16.4,144-22c46.9-5.4,94.1-8,141.3-6.7
				c40.2,1,80.4,4.6,120.5,7.7c49.3,3.8,98.7,6.5,148.2,6.9c66.2,0.5,132.9-1.6,198.8-8c43.6-4.2,86.5-12,129.7-18.5
				c34.2-5.2,68.2-7.4,102.5-1.9c50.1,8,98,27.6,144.2,47.8c17,7.5,33.9,15.3,50.8,23.2C1513,3.6,1514.5,1,1512.8,0.2L1512.8,0.2z"
				/>
		</g>
	</g>
</g>
</svg>
