<?xml version="1.0" encoding="UTF-8"?>
<svg id="Layer_2" data-name="Layer 2" xmlns="http://www.w3.org/2000/svg" viewBox="0 0 1514.97 189.52">
  <defs>
    <style>
      .cls-1 {
        fill: #e8b2db;
      }

      .cls-2 {
        fill: #f2b3d6;
      }

      .cls-3 {
        fill: #9ea8dc;
      }

      .cls-4 {
        fill: #c1afed;
      }

      .cls-5 {
        fill: #b7aef2;
      }

      .cls-6 {
        fill: #deb1df;
      }

      .cls-7 {
        fill: #cbb0e9;
      }

      .cls-8 {
        fill: #d4b1e4;
      }

      .cls-9 {
        fill: #238c6e;
      }

      .cls-10 {
        fill: #3c9284;
      }

      .cls-11 {
        fill: #6d9db0;
      }

      .cls-12 {
        fill: #86a3c6;
      }

      .cls-13 {
        fill: #54979a;
      }

      .cls-14 {
        opacity: .17;
      }

      .cls-15 {
        opacity: .33;
      }

      .cls-16 {
        opacity: .67;
      }

      .cls-17 {
        opacity: .5;
      }

      .cls-18 {
        opacity: .83;
      }

      .cls-19 {
        opacity: 0;
      }
    </style>
  </defs>
  <g id="Layer_1-2" data-name="Layer 1">
    <g>
      <g class="cls-19">
        <path class="cls-9" d="m1.48,172.06c109.89,2.51,219.34-.95,328.9-9.51,55.59-4.35,111.15-9.85,166.8-13.26,45.77-2.8,92.09-2.12,137.03,7.83,29.18,6.46,57.19,17.09,86.28,23.85,38.87,9.03,78.8,9.97,118.47,7.09,24.86-1.8,49.55-5.26,74.42-6.97,24.63-1.7,49.32-2.54,74-2.95,54.83-.9,109.68.29,164.5,1.58,108.81,2.55,218.46,7.3,327.04-2.6,11.54-1.05,23.06-2.32,34.55-3.82,1.89-.25,1.91-3.25,0-3-105.78,13.83-213.62,9.92-319.97,7.41s-210.04-7.92-314.03,3.35c-45.87,4.97-92.1,8.66-137.91,1.06-29.63-4.91-57.78-15.09-86.66-22.96-93.79-25.58-192.07-10.38-287.31-2.6-105.61,8.62-211.09,14.4-317.11,13.32-16.34-.17-32.67-.46-49.01-.83-1.93-.04-1.93,2.96,0,3h0Z"/>
      </g>
      <g class="cls-14">
        <path class="cls-9" d="m1.48,167.9c105.83-.09,211.42-4.43,317.01-11.25,52.24-3.38,104.47-6.97,156.73-10.08,47.66-2.84,95.6-4.24,143.17.79,30.14,3.19,59.57,9.73,89.12,16.2,31.78,6.96,63.76,12.07,96.25,14.18,51.64,3.37,103.33.03,155-.6,56.93-.7,113.86-.11,170.79.34,114.52.92,229.46,2.04,343.63-8.31,13.45-1.22,26.88-2.62,40.29-4.21,1.89-.22,1.92-3.23,0-3-113.31,13.39-227.82,13.51-341.75,12.82-57.65-.35-115.29-1.11-172.94-.94-53.91.15-107.89,3.37-161.78,2.28-37.12-.75-73.99-4.32-110.41-11.61-28.2-5.64-56.06-12.8-84.52-17.11-41.1-6.23-82.76-7.2-124.26-5.9-54.64,1.72-109.25,6.2-163.79,9.81-101.98,6.74-203.94,12.3-306.16,13.33-15.47.16-30.93.23-46.4.24-1.93,0-1.93,3,0,3h0Z"/>
      </g>
      <g class="cls-15">
        <path class="cls-9" d="m1.48,163.73c105.47-2.8,210.82-8.17,316.17-13.77,51.97-2.76,103.94-5.42,155.93-7.63,47.89-2.03,95.89-3.32,143.79-.81,61.18,3.21,121.08,15.95,181.87,22.67,49.48,5.47,99.19,7.66,148.92,9.28,58.82,1.91,117.67,3.07,176.52,3.07,115.34,0,230.66-4.69,345.51-15.53,14.44-1.36,28.87-2.82,43.29-4.36,1.9-.2,1.92-3.21,0-3-115.07,12.29-230.67,18.56-346.38,19.69-58.25.57-116.51-.09-174.74-1.58-54.71-1.4-109.5-2.9-164.04-7.69-62.33-5.47-123.64-18.68-185.96-23.86-95.65-7.96-192.42-.15-288.03,4.82-102.93,5.35-205.82,11.15-308.85,14.43-14.66.47-29.33.89-43.99,1.28-1.93.05-1.93,3.05,0,3h0Z"/>
      </g>
      <g class="cls-17">
        <path class="cls-9" d="m1.48,159.56c112.71-6.15,225.41-12.67,338.21-17.18,101.4-4.05,203.32-8.53,304.82-5.41,65.57,2.02,130.44,10.97,195.52,18.53,108.69,12.62,217.43,22.48,326.96,20.26,101.82-2.06,203.1-13.23,304.35-23.33,14.05-1.4,28.09-2.78,42.15-4.14,1.9-.18,1.92-3.19,0-3-103.43,9.97-206.77,22.32-310.66,26.39-110.05,4.31-219.26-3.23-328.61-15.31-68.38-7.55-136.65-17.97-205.41-21.43-96.39-4.85-193.42-.51-289.78,2.94-110.69,3.96-221.28,10.1-331.87,16.17-15.22.84-30.44,1.67-45.66,2.5-1.92.1-1.93,3.11,0,3h0Z"/>
      </g>
      <g class="cls-16">
        <path class="cls-9" d="m1.48,155.4c121.36-10.33,242.96-17.16,364.72-20.02,60.63-1.43,121.27-1.64,181.9-2.51,41.31-.59,82.62-1.63,123.94-1.72,72.63-.16,144.15,7.42,215.97,17.83,56.85,8.24,113.46,18.1,170.74,23.02,47.81,4.1,95.83,5.15,143.75,2.6,90.5-4.82,179.94-21.37,270-30.72,13.65-1.42,27.3-2.71,40.97-3.9,1.91-.17,1.93-3.17,0-3-93.42,8.11-185.86,24.8-279.29,32.46-45.53,3.74-91.22,4.56-136.85,2.22-58.42-3-116.04-11.68-173.82-20.42-75.46-11.42-151.08-22.02-227.52-22.98-37.12-.47-74.25.43-111.37,1.04-57.83.96-115.67,1.19-173.49,2.17-120.9,2.05-241.68,7.61-362.23,17.05-15.81,1.24-31.62,2.54-47.43,3.88-1.91.16-1.93,3.16,0,3h0Z"/>
      </g>
      <g class="cls-18">
        <path class="cls-9" d="m1.48,151.23c130.4-15.49,261.62-21.36,392.89-22.01,61.24-.31,122.47,1.01,183.7-.49,40.12-.99,80.17-3.26,120.26-4.83,33.37-1.3,66.74-1.43,100.06,1.06,46.03,3.44,91.69,10.93,137.02,19.48,57.43,10.83,114.37,23.39,172.69,28.68,41.87,3.79,83.95,4.04,125.79-.24,35.98-3.68,71.51-10.49,107.03-17.14,44-8.24,88.1-15.68,132.63-20.42,13.29-1.42,26.61-2.62,39.93-3.66,1.91-.15,1.93-3.15,0-3-47.42,3.69-94.51,9.98-141.33,18.31-37.03,6.59-73.88,14.34-111.14,19.6-39.28,5.55-78.87,7.65-118.51,5.9-56.22-2.48-111.7-11.95-166.76-23.14-83.6-17-167.68-31.03-253.24-29.16-36.73.8-73.42,3.18-110.13,4.53-56.94,2.1-113.84,1.67-170.81,1.51-130.63-.39-261.34,3.43-391.36,16.67-16.25,1.65-32.49,3.46-48.72,5.38-1.89.23-1.92,3.23,0,3h0Z"/>
      </g>
      <path class="cls-9" d="m1.88,147.01c135.84-21.19,273.81-24.88,411.06-23.11,61.96.79,123.82,3.19,185.77.53,39.81-1.71,79.44-5.52,119.16-8.54,35.73-2.72,71.47-3.71,107.23-.95,51.39,3.96,102.16,14.16,152.24,26,91.47,21.63,184.62,45.49,279.12,30.41,31.59-5.04,62.38-13.86,93.36-21.69,40.65-10.27,81.73-18.23,123.43-22.8,13.38-1.47,26.8-2.62,40.23-3.55,1.92-.13,1.93-3.13,0-3-45.92,3.18-91.48,9.49-136.37,19.69-32.5,7.39-64.49,16.93-97.09,23.89-87.33,18.63-174.98,4.88-260.76-15.79-54.93-13.24-109.78-26.62-165.97-33.37-37.01-4.44-74.16-5.49-111.37-3.44-37.34,2.05-74.54,6.13-111.87,8.48-56.74,3.57-113.37,3.16-170.18,1.94-137.36-2.95-275.4-1.62-411.88,15.76-15.67,1.99-31.31,4.22-46.91,6.65-1.9.3-1.09,3.19.8,2.89h0Z"/>
      <path class="cls-10" d="m1.88,142.84c129.45-20.27,259.9-33.91,391.09-29.59,61.27,2.02,122.22,8.2,183.59,7.59,39.4-.39,78.62-3.28,117.83-7.01,32.56-3.1,65.13-6.1,97.88-5.78,43.61.43,86.95,6.25,129.73,14.42,58.59,11.2,116.06,27.01,175.32,34.76,44.19,5.78,88.82,7.77,133.26,4,36.94-3.13,73.36-10.12,109.64-17.51,43.73-8.91,87.46-17.66,131.7-23.7,13.82-1.89,27.68-3.53,41.55-4.98,1.9-.2,1.92-3.2,0-3-47.68,5-94.92,12.82-141.91,22.25-38.18,7.66-76.26,16.17-114.91,21.15-41.12,5.29-82.57,6.03-123.88,2.61-59.28-4.92-116.7-18.49-174.64-31.2-46.38-10.17-93.42-18.44-140.9-21-33.76-1.82-67.41-.13-101.05,2.93-36.33,3.3-72.59,6.99-109.06,8.35-56,2.09-111.63-1.18-167.5-4.65-130.59-8.11-260.88,1.57-390.19,20.18-16.14,2.32-32.25,4.77-48.36,7.29-1.9.3-1.09,3.19.8,2.89h0Z"/>
      <path class="cls-13" d="m1.88,138.68c123.45-19.41,246.45-42.94,372.04-35.68,59.98,3.47,119.3,12.92,179.46,14.3,38.78.89,77.47-.9,116.03-5.04,30.46-3.27,60.8-7.74,91.4-9.61,36.7-2.25,73.42-.41,109.85,4.37,57.63,7.57,113.83,22.86,171.23,31.79,51.01,7.94,102.59,12.26,154.23,11.2,93.67-1.93,185.43-22.39,277.59-37.15,13.37-2.14,26.76-4.19,40.17-6.13,1.9-.28,1.09-3.17-.8-2.89-95.65,13.88-190.57,36.41-287.26,42-49.66,2.87-99.44.85-148.81-5.15-60.02-7.3-118.34-22.55-177.88-32.43-38.93-6.46-78.33-10.41-117.83-9.49-30.72.72-61.16,4.56-91.64,8.18-35.53,4.22-71.12,7.23-106.92,7.56-55.68.51-110.67-5.33-165.97-11.05-62.53-6.47-125.42-6.33-188.01-.63-60.3,5.49-120.07,15.55-179.8,25.27-15.96,2.6-31.91,5.17-47.88,7.69-1.9.3-1.09,3.19.8,2.89h0Z"/>
      <path class="cls-11" d="m1.88,134.51c58.8-9.28,116.87-22.43,175.56-32.32,56.16-9.46,112.79-14.01,169.68-9.69,33.39,2.54,66.25,8.65,99.4,13.11,26.45,3.56,53.01,6.38,79.65,8,38.95,2.38,78,1.99,116.82-2.14,28.93-3.08,57.55-8.31,86.37-12.14,31.35-4.16,62.86-5.8,94.47-4.15,50.58,2.66,99.58,13.76,149.27,22.7,59.49,10.71,119.68,17.69,180.12,19.53,107.69,3.27,214.11-11.71,319.73-31.23,13.65-2.52,27.29-5.1,40.93-7.71,1.89-.36,1.09-3.25-.8-2.89-107.09,20.44-214.81,39.04-324.17,39.32-59.83.15-119.58-4.81-178.7-13.86-53.94-8.26-106.99-21.71-161.38-26.98-33.7-3.26-67.54-3.41-101.22.09-28.43,2.96-56.54,8.19-84.86,11.94-35.51,4.71-71.23,6.69-107.05,5.8-57.26-1.43-113.22-10.7-169.84-18.31-57.27-7.7-114.88-7.39-172.14.11-55.71,7.3-110.56,19.88-165.79,29.94-15.58,2.84-31.19,5.51-46.83,7.97-1.9.3-1.09,3.19.8,2.89h0Z"/>
      <path class="cls-12" d="m1.88,130.34c55.69-8.82,109.88-23.6,164.81-35.95,50.87-11.44,102.09-17.18,154.19-12.33,32.71,3.05,64.61,10.45,96.9,16.17,26.92,4.77,53.98,8.76,81.19,11.47,39.21,3.91,78.77,5.05,118.04,1.29,56.29-5.39,110.77-22.3,167.47-24.29,40.04-1.41,80.06,3.04,119.43,10.05,65.98,11.75,131.97,21.59,198.88,26.21,123.08,8.49,247.37,1.9,368.29-23.1,14.32-2.96,28.59-6.19,42.8-9.65,1.87-.46,1.08-3.35-.8-2.89-120.42,29.3-244.77,40.04-368.51,34.94-68.18-2.81-136.13-10.31-203.38-21.82-45.06-7.71-89.65-16.32-135.53-16.95-29.46-.41-58.68,2.52-87.67,7.66-26.89,4.77-53.55,10.8-80.63,14.48-35.71,4.86-71.77,5.68-107.72,3.53-25.85-1.54-51.61-4.48-77.22-8.3-31.75-4.73-63.04-11.78-94.69-17.01-52.03-8.59-104.3-8.64-156.24.44-51.72,9.05-102.17,24.24-153.61,34.7-15.54,3.16-31.14,5.97-46.8,8.45-1.9.3-1.09,3.19.8,2.89h0Z"/>
      <path class="cls-3" d="m1.88,126.18c30.84-4.9,61.25-11.82,91.27-20.41,24.06-6.88,47.81-14.81,71.9-21.6s46.63-11.68,70.62-13.59c28.61-2.28,57.35-.09,85.57,4.91,33.37,5.91,66.08,15.17,99.37,21.58,26.53,5.1,53.25,9.31,80.14,11.98,37.93,3.77,76.22,4.29,114.05-.8,57.45-7.74,111.94-28.43,170.32-30.41,45.88-1.55,90.56,6.3,135.72,13.24,63.17,9.71,126.76,16.81,190.53,20.99,120.76,7.92,245.79,7.98,364.24-19.82,12.86-3.02,25.62-6.44,38.26-10.29,1.84-.56,1.06-3.46-.8-2.89-54.79,16.7-111.84,25.21-168.82,29.82-63.66,5.15-127.69,5.32-191.47,2.47-65.37-2.92-130.61-9.07-195.44-17.98-49.52-6.8-98.7-17.47-148.82-18.65-31.32-.74-62.37,2.41-93,8.91-26.68,5.66-52.92,13.23-79.75,18.22-91.87,17.08-186.19.49-275.85-21.05-54.29-13.04-108.5-18.96-163.62-7.5-49.51,10.3-96.84,29.18-146.14,40.5-16.25,3.73-32.63,6.86-49.09,9.47-1.9.3-1.09,3.19.8,2.89h0Z"/>
      <path class="cls-5" d="m1.88,122.01c32.05-5.11,63.46-13.03,94.06-23.84,22.39-7.91,44.2-17.38,66.64-25.15s45.37-12.98,69.1-13.65c31.54-.89,62.87,5.25,93.15,13.61,94.36,26.07,195.78,51.08,293.79,30.85,27.88-5.76,54.73-15.18,82.15-22.65,31.89-8.69,64.36-13.33,97.45-13.07,50.12.39,99.82,10.49,149.43,16.68,61.63,7.69,123.47,13.86,185.46,17.79,62.92,3.98,126.1,5.8,189.11,3.08,53.73-2.32,108.19-7.47,160.2-21.76,10.64-2.92,21.14-6.29,31.46-10.19,1.79-.68,1.01-3.58-.8-2.89-48.53,18.32-100.96,25.54-152.42,29.54-61.77,4.8-123.92,4.3-185.77,1.5-63.13-2.87-126.13-8.36-188.91-15.49-29.18-3.32-58.32-7.01-87.4-11.04-24.32-3.37-48.56-7.37-73.08-9.11-35.31-2.51-70.68-.65-105.27,7.04-27.58,6.13-54.22,15.66-81.54,22.79-89.48,23.35-181.68,8.03-269.84-14.3-33.78-8.56-66.97-19.49-101.7-23.62-24.92-2.97-50.08-2.31-74.61,3.13-21.78,4.82-42.57,13.06-63.28,21.17-25.76,10.09-51.69,19.59-78.52,26.5-16.38,4.22-32.95,7.55-49.65,10.22-1.9.3-1.09,3.19.8,2.89h0Z"/>
      <path class="cls-4" d="m1.88,117.84c28.44-4.94,56.46-11.83,83.9-20.8,21.18-6.92,41.91-15.09,62.88-22.6,18.95-6.79,38.2-12.77,58.08-16.15,23.85-4.05,48.16-4.23,72.2-1.9,34.98,3.38,68.65,12.45,102.75,20.46,31.53,7.41,63.35,13.71,95.46,18.06,43.6,5.9,87.8,8.01,131.6,3.08,32.33-3.64,63.82-11.4,95.46-18.7,33.53-7.73,67.29-13.48,101.77-14.39,49.75-1.32,98.98,6.94,148.24,12.73,59.92,7.05,119.96,13.18,180.15,17.33,62.17,4.29,124.6,6.63,186.91,4.53,53.6-1.8,107.84-6.47,159.91-19.94,11.04-2.86,21.96-6.17,32.7-10.01,1.8-.65,1.03-3.55-.8-2.89-49.35,17.65-102.23,24.5-154.29,27.98-60.47,4.04-121.24,3.05-181.73-.08-62.11-3.22-124.08-8.87-185.89-15.7-52.08-5.75-104.35-15.01-156.77-16.82-36.67-1.27-73.04,2.16-108.96,9.53-30.88,6.33-61.29,14.82-92.4,20.02-40.85,6.84-82.27,7.62-123.49,3.98-29.72-2.62-59.22-7.32-88.46-13.18-34.58-6.93-68.5-16.84-103.15-23.35-47.79-8.97-95.68-10.15-142.66,3.49-43.79,12.72-85.26,31.84-129.61,43.02-14.74,3.71-29.62,6.8-44.6,9.4-1.9.33-1.09,3.22.8,2.89h0Z"/>
      <path class="cls-7" d="m1.88,113.68c45.77-8.57,89.46-22.78,133.25-38.26,36.81-13.01,73.73-23.4,113.02-24.65,61.51-1.95,120.41,14.47,180.25,25.95,52.63,10.09,106.23,16.43,159.88,14.81,75.6-2.28,148.46-24.78,223.82-29.01,49.6-2.78,98.49,2.92,147.71,8.25,59.13,6.4,118.3,12.52,177.61,16.86s121.64,7.19,182.51,5.74c53.54-1.27,107.65-5.49,159.82-18.15,11.51-2.79,22.89-6.06,34.11-9.85,1.82-.61,1.04-3.51-.8-2.89-49.58,16.75-102.25,23.27-154.29,26.31-60.35,3.52-120.94,1.99-181.25-1.52-60.43-3.52-120.71-9.23-180.9-15.56-52.32-5.51-104.79-13.41-157.5-13.04-38.53.27-76.6,5.17-114.47,11.92-36.56,6.51-72.98,13.65-110.06,16.52-49.8,3.86-99.8.57-149.11-7-62.53-9.6-123.47-28.54-186.9-31.95-40.38-2.17-79.58,3.2-118.05,15.46-39.78,12.68-78.41,28.24-119.01,38.39-13.39,3.35-26.89,6.24-40.45,8.78-1.9.35-1.09,3.25.8,2.89h0Z"/>
      <path class="cls-8" d="m1.88,109.51c41.65-8.33,82.01-20.6,122.17-34.28,32.46-11.06,65.04-21.65,99.2-25.92,47.05-5.89,94.87-1.37,141.46,6.13,33.45,5.38,66.46,13.11,99.93,18.34,27.8,4.34,55.8,7.45,83.9,8.89,46.16,2.35,92.17-.44,137.97-6.24,41.68-5.28,83.14-12.25,125.05-15.58,51.11-4.05,101.64-1.45,152.6,3.26,58.16,5.37,116.27,11.33,174.5,15.83s119.6,7.89,179.5,7.12c53.89-.69,108.3-4.37,160.96-16.39,11.71-2.67,23.3-5.81,34.75-9.45,1.83-.58,1.05-3.48-.8-2.89-50.63,16.11-104.02,22.21-156.91,24.64-59.57,2.74-119.29.59-178.76-3.26-59.27-3.85-118.38-9.59-177.5-15.23-52.73-5.03-105.32-10.5-158.36-8.42-87.01,3.42-172.16,24.76-259.45,24.52-61.14-.17-120.75-9.92-180.58-21.6-50.57-9.86-102.51-17.56-154.17-14.8-73.37,3.92-139.91,36.93-210.35,54.43-11.91,2.96-23.88,5.61-35.91,8.01-1.89.38-1.09,3.27.8,2.89h0Z"/>
      <path class="cls-6" d="m1.88,105.34c37.96-8.04,75.11-18.83,111.99-30.82,28.66-9.32,57.32-18.85,86.97-24.54,36.7-7.04,74.16-7.96,111.39-5.69,58.98,3.6,116.38,16.4,174.79,24.26,55.3,7.44,111.05,9,166.72,5.52,48.92-3.06,97.52-9.57,146.32-13.94,54.38-4.87,108.71-6.12,163.21-2.46,58.08,3.9,116.03,9.59,174.06,14.25,59.49,4.78,119.14,8.69,178.84,8.65,54.22-.04,108.91-3.13,162.06-14.44,12.01-2.55,23.9-5.58,35.66-9.1,1.85-.55,1.06-3.45-.8-2.89-52.09,15.56-106.68,21.15-160.84,22.87-58.71,1.86-117.49-.97-176.05-5.13-114.29-8.12-228.78-24.85-343.52-17.3-49.12,3.23-97.92,9.77-146.94,14.07-52.95,4.64-106.07,5.9-159.07,1.3-61.52-5.33-121.71-19.81-183.13-26.08-40.31-4.11-81.15-5.61-121.43-.34-64.98,8.51-125.79,35.84-189.1,51.59-10.59,2.63-21.23,5.06-31.9,7.32-1.89.4-1.09,3.29.8,2.89h0Z"/>
      <path class="cls-1" d="m1.88,101.18c34.73-7.75,68.94-17.35,102.94-27.82,26.48-8.15,52.91-16.61,79.99-22.57,75.88-16.7,154.46-10.26,230.81-.37,31.28,4.05,62.37,9.66,93.72,13.15,30.24,3.37,60.66,4.98,91.08,5.2,57.66.41,115.15-4.31,172.59-8.81,60.1-4.71,120.3-8.78,180.62-7.66,59.7,1.11,119.28,6.5,178.76,11.27,113.57,9.12,230.94,20.23,343.74-1.76,12.7-2.48,25.29-5.45,37.75-8.93,1.86-.52,1.07-3.41-.8-2.89-110.33,30.81-228.84,22.23-341.64,13.65-59.25-4.51-118.45-10.02-177.81-12.93-60.99-2.98-121.84-.99-182.71,3.37-57.88,4.15-115.68,9.8-173.71,11.31-29.27.77-58.58.47-87.8-1.36-32.58-2.04-64.68-6.73-96.94-11.5-81.43-12.05-166.24-22.62-248.14-8.62-59.28,10.13-115.75,32.85-173.96,47.45-9.73,2.44-19.49,4.74-29.27,6.92-1.88.42-1.09,3.31.8,2.89h0Z"/>
      <path class="cls-2" d="m1.88,97.01c58.51-13.68,115.5-33.58,174.23-46.18,66.91-14.35,135.54-12.92,203.42-7.79,56.68,4.29,112.95,13.47,169.65,16.99,59.76,3.71,119.75,1.62,179.49-1.3,63.64-3.12,127.24-7.42,190.94-9.22s127.8.09,191.69,4.59c119.53,8.43,241.9,24.28,361.03,3.6,13.97-2.42,27.82-5.43,41.54-8.99,1.87-.49,1.08-3.38-.8-2.89-117.87,30.63-242.43,17.39-362.22,8.22-62.81-4.81-125.6-8.84-188.63-8.32-64.66.53-129.22,4.42-193.77,7.94-60.95,3.32-122.03,6.48-183.09,4.93s-115.74-10.45-173.69-15.82c-72.24-6.7-146.11-11.13-217.97,1.57-55.95,9.89-109.91,29.14-164.91,43.05-9.22,2.33-18.46,4.57-27.71,6.74-1.88.44-1.08,3.33.8,2.89h0Z"/>
      <g class="cls-18">
        <path class="cls-2" d="m1.88,88.88c63.47-15.71,126.84-34.73,191.68-44.08,67.4-9.72,136.02-6.22,203.72-2.03,58.28,3.61,116.44,9.45,174.84,10.9,59.76,1.49,119.52-.44,179.21-3.1,59.83-2.67,119.63-5.97,179.52-7.06,60.81-1.11,121.37.9,182.01,5.53,118.41,9.05,237.51,22.92,355.76,4.22,15.18-2.4,30.27-5.33,45.26-8.72,1.88-.43,1.09-3.32-.8-2.89-119.55,27.03-241.19,17.46-362.12,7.45-60.11-4.97-120.19-9.03-180.54-8.98s-120.72,2.85-181.03,5.69c-59.89,2.82-119.81,5.58-179.78,5.38-60.16-.2-119.87-5.12-179.84-9.28-72.43-5.02-146.08-10.46-218.5-2.38-60.79,6.79-120.01,23.8-179.16,38.7-10.34,2.61-20.69,5.19-31.04,7.75-1.87.46-1.08,3.36.8,2.89h0Z"/>
      </g>
      <g class="cls-16">
        <path class="cls-2" d="m1.88,80.76c74.18-19.21,149.32-39.6,226.16-44.06,33.03-1.91,66.15-1.15,99.2.06,49.83,1.83,99.63,4.51,149.46,6.57,112.68,4.66,225.04,1.51,337.68-2.52,52.8-1.89,105.63-3.41,158.47-3.22s109.12,3.55,163.6,8.34,106.05,9.92,159.28,11.62c57.44,1.84,114.94-.68,171.82-9.08,15.51-2.29,30.95-5.02,46.33-8.1,1.89-.38,1.09-3.27-.8-2.89-60.02,12.01-120.98,17.75-182.18,17.67-53.68-.07-107.19-4.43-160.62-9.21-53.8-4.81-107.62-9.77-161.65-10.96s-107.65-.04-161.42,1.69c-109.79,3.53-219.42,8.43-329.29,5.16-54.89-1.63-109.74-4.66-164.6-7.03-35.31-1.52-70.7-2.96-106.04-1.94-70.91,2.05-139.88,18.06-208.4,35.32-12.61,3.18-25.21,6.41-37.8,9.67-1.87.48-1.08,3.38.8,2.89h0Z"/>
      </g>
      <g class="cls-17">
        <path class="cls-2" d="m1.88,72.63c51.57-13.83,103.87-26.26,157.02-32.1,34.86-3.83,69.78-4,104.79-2.43,38.57,1.73,77.07,4.02,115.7,3.88,59.55-.21,118.81-5.89,178.22-9.21,99.98-5.6,199.92-5.91,299.99-3.52,47.57,1.14,95.13,2.32,142.71,3.08,50.11.8,100.03,5.15,149.89,9.98,48.79,4.72,97.59,9.48,146.61,10.81,56.28,1.52,112.56-1.55,168.35-9.18,16.29-2.23,32.53-4.84,48.72-7.74,1.9-.34,1.09-3.23-.8-2.89-60.15,10.77-121.02,16.92-182.15,17.2-49.98.23-99.8-3.48-149.53-8.19-48.9-4.63-97.76-9.8-146.85-11.96-49.33-2.17-98.81-2.17-148.17-3.4-97.09-2.42-194.07-3.51-291.14.9-61.15,2.78-122.15,8.82-183.33,10.59-42.09,1.22-84.07-.1-126.1-2.26-34-1.74-67.99-3.14-102-.87-46.06,3.08-91.56,11.86-136.39,22.59-15.51,3.71-30.95,7.69-46.35,11.82-1.86.5-1.07,3.39.8,2.89h0Z"/>
      </g>
      <g class="cls-15">
        <path class="cls-2" d="m1.88,64.5c55.91-15.47,112.85-29.19,170.74-34.58,35.89-3.34,71.68-2.43,107.56.5,36.79,3.01,73.45,6.24,110.4,6,60-.39,119.63-8.68,179.43-12.79,97.83-6.73,195.26-5.92,293.15-1.43,45.17,2.07,90.33,3.94,135.55,4.62,48.88.73,97.52,5.09,146.12,10.18,47.22,4.94,94.43,9.91,141.91,11.39,58.67,1.84,117.34-1.5,175.55-8.87,17.24-2.18,34.43-4.71,51.59-7.48,1.9-.31,1.09-3.2-.8-2.89-63.59,10.29-127.81,16.7-192.26,16.76-48.89.05-97.58-3.8-146.18-8.8s-94.42-10.17-141.87-12.28-95.12-2.3-142.66-4.41c-93.87-4.18-187.33-7.21-281.26-2.18-32.51,1.74-64.99,4.14-97.42,7.01-30.09,2.66-60.11,6.04-90.3,7.38-39.92,1.77-79.64,0-119.42-3.38-34.23-2.92-68.39-5.65-102.78-4.14-49.4,2.17-98.28,11.45-146.25,23.05-17.28,4.18-34.47,8.71-51.6,13.45-1.86.51-1.07,3.41.8,2.89h0Z"/>
      </g>
      <g class="cls-14">
        <path class="cls-2" d="m1.88,56.38C61.98,39.3,123.2,23.74,185.49,17.25c36.41-3.79,72.73-3.33,109.11.45,34.31,3.57,68.42,8.27,102.95,9.36,60.64,1.91,121.45-4.78,181.99-7.56,95.63-4.39,191.06-4.76,286.72-1.65,43.09,1.4,86.17,2.8,129.28,3.42,47.88.69,95.45,4.9,143,10.28,45.74,5.17,91.46,10.4,137.5,12.07,61.31,2.22,122.65-1.37,183.55-8.52,18.14-2.13,36.24-4.57,54.3-7.24,1.9-.28,1.09-3.17-.8-2.89-67.19,9.9-134.98,16.53-202.94,16.32-47.89-.15-95.53-4.17-143.09-9.5-45.78-5.13-91.5-10.56-137.55-12.57s-91.59-2.04-137.36-3.52c-90.5-2.94-180.78-4.25-271.31-.91-33.4,1.23-66.78,2.86-100.14,4.74-31.72,1.79-63.44,4.5-95.22,4.83-37,.38-73.6-3.07-110.3-7.35-34-3.97-67.92-6.71-102.18-4.92-53.35,2.78-106.1,13.78-157.77,26.81-18.12,4.57-36.16,9.48-54.14,14.59-1.85.53-1.07,3.42.8,2.89h0Z"/>
      </g>
      <g class="cls-19">
        <path class="cls-2" d="m1.88,48.25C66.15,29.59,131.94,12.73,198.82,7.06c37.25-3.16,74.18-1.49,111.09,4.14,31.32,4.78,62.38,10.41,94.15,11.09,23.38.5,46.49-1.65,69.73-4.03,38.77-3.97,77.59-7.47,116.47-10.17,54.47-3.77,109.09-5.94,163.7-4.83,38.89.79,77.68,3.5,116.46,6.35,41.07,3.02,82.15,5.51,123.34,6.15,46.64.73,92.88,4.75,139.15,10.42,44.03,5.39,88.02,10.85,132.38,12.68,63.12,2.61,126.32-1.09,189.08-7.86,19.87-2.14,39.71-4.61,59.52-7.29,1.9-.26,1.09-3.15-.8-2.89-70.54,9.54-141.68,16.34-212.93,15.87-46.71-.31-93.12-4.44-139.46-10.09-44.06-5.38-88.06-10.91-132.44-12.89-44.33-1.97-88.62-2.27-132.93-5.32-37.76-2.59-75.49-5.78-113.32-7.29-49.5-1.97-99.06-1.18-148.53,1.37-34.84,1.79-69.63,4.4-104.37,7.48s-66.1,7.61-99.26,9.04c-34.11,1.47-67.54-2.37-101.14-7.82S262.11,1.61,228.23,2.43c-56.71,1.37-112.96,12.86-167.77,26.72-19.89,5.03-39.67,10.48-59.37,16.21-1.85.54-1.06,3.43.8,2.89h0Z"/>
      </g>
    </g>
  </g>
</svg>