<?xml version="1.0" encoding="utf-8"?>
<!-- Generator: Adobe Illustrator 27.5.0, SVG Export Plug-In . SVG Version: 6.00 Build 0)  -->
<svg version="1.1" id="Layer_1" xmlns="http://www.w3.org/2000/svg" xmlns:xlink="http://www.w3.org/1999/xlink" x="0px" y="0px"
	 viewBox="0 0 1512 200" style="enable-background:new 0 0 1512 200;" xml:space="preserve">
<style type="text/css">
	.st0{opacity:0;}
	.st1{fill:#238C6E;}
	.st2{opacity:9.090909e-02;}
	.st3{opacity:0.1818;}
	.st4{opacity:0.2727;}
	.st5{opacity:0.3636;}
	.st6{opacity:0.4545;}
	.st7{opacity:0.5455;}
	.st8{opacity:0.6364;}
	.st9{opacity:0.7273;}
	.st10{opacity:0.8182;}
	.st11{opacity:0.9091;}
	.st12{fill:#308F7A;}
	.st13{fill:#3E9286;}
	.st14{fill:#4B9592;}
	.st15{fill:#59989E;}
	.st16{fill:#669BAA;}
	.st17{fill:#749FB6;}
	.st18{fill:#81A2C2;}
	.st19{fill:#8FA5CE;}
	.st20{fill:#9CA8DA;}
	.st21{fill:#AAABE6;}
	.st22{fill:#B7AEF2;}
	.st23{fill:#BCAEEF;}
	.st24{fill:#C2AFED;}
	.st25{fill:#C7AFEA;}
	.st26{fill:#CCB0E8;}
	.st27{fill:#D2B0E5;}
	.st28{fill:#D7B1E3;}
	.st29{fill:#DDB1E0;}
	.st30{fill:#E2B2DE;}
	.st31{fill:#E7B2DB;}
	.st32{fill:#EDB3D9;}
	.st33{fill:#F2B3D6;}
</style>
<g>
	<g>
		<g>
			<path class="st15" d="M1512.9,259.2c-136.4-42.7-278-62.4-420.9-56.6c-43.2,1.8-85.8,5.4-129,2.9c-30.7-1.8-61.1-5.6-91.6-8.9
				c-33.5-3.5-67.2-5.8-100.9-5.5c-46.4,0.4-92.7,5.3-138.5,12.6c-66.6,10.6-131.7,27.4-197.4,42.2C383.2,257.4,331,268,278.3,270.5
				c-37.4,1.8-74.4-1.8-110.9-10.2c-42.7-9.8-84.2-24-125.9-37.1c-13.5-4.2-27-8.5-40.6-12.6c-1.9-0.6-2.6,2.3-0.8,2.9
				c46.6,14.2,92.8,30.1,139.8,42.9c35.1,9.6,70.8,16.5,107.2,17.4c44.9,1.2,89.8-5.4,133.8-13.8c67-12.8,132.7-31.1,199.6-44.2
				c87.8-17.2,176.6-26.5,266-18.7c30.3,2.6,60.4,6.7,90.7,9.4c34.6,3.1,69.2,3.9,103.9,2c69.2-4,137.9-5.6,207.1,0.4
				c71.4,6.1,142.2,19.1,211.4,37.8c17.6,4.8,35.2,9.9,52.6,15.4C1513.9,262.6,1514.7,259.7,1512.9,259.2L1512.9,259.2z"/>
		</g>
	</g>
	<g>
		<g>
			<path class="st16" d="M1512.9,257c-133.7-41.9-271-71-411.9-62.7c-26.4,1.6-52.7,4.6-79.2,5.3c-19.3,0.6-38.6,0.3-57.9-0.8
				c-32.8-1.9-65.3-6.4-97.9-10.4c-34.5-4.2-69-7.1-103.8-6.7c-48.1,0.5-96,6.5-143.3,15.2c-115.6,21.2-228.6,63.6-347,67.9
				c-37.6,1.4-74.9-2.5-111.5-11.1c-41.5-9.8-81.7-24.3-121.8-38.5c-12.6-4.5-25.2-9-37.8-13.5c-1.8-0.6-2.6,2.2-0.8,2.9
				c78.1,27.7,157.2,60.3,241.1,63.3c109.9,3.9,217.1-32.7,322.9-56.6c90.9-20.6,182.8-32.2,275.8-22.8c32.3,3.3,64.4,8.3,96.8,11.3
				c38.7,3.6,77.6,4.1,116.4,1.3c32.2-2.3,64.2-5.1,96.5-5.3c34.3-0.2,68.6,1.7,102.7,5.4c69.9,7.6,138.6,23.2,206.1,42.5
				c18,5.1,35.9,10.6,53.7,16.2C1513.9,260.5,1514.7,257.6,1512.9,257L1512.9,257z"/>
		</g>
	</g>
	<g>
		<g>
			<path class="st17" d="M1512.9,254.9c-128.1-40.2-258.2-78.4-393.9-69.1c-28.2,1.9-56.1,5.8-84.4,7.1c-21.8,1-43.7,1-65.5-0.1
				c-35.5-1.8-70.6-7.2-105.8-12.2c-35.2-5-70.4-8.7-106-8.4c-49.6,0.5-98.9,7.7-147.3,17.9c-113.6,24-224.7,65.5-341.9,69
				c-38.5,1.1-76.7-2.9-114-12.1c-40.4-9.9-79.4-24.8-118-40.2c-11.8-4.7-23.5-9.5-35.2-14.3c-1.8-0.7-2.6,2.2-0.8,2.9
				c76.1,31.2,153.6,63.2,236.9,66.5c43.3,1.7,86.7-3.3,129.3-10.9C429.1,240,490.5,223,552.2,207c56.2-14.6,113.5-26.4,171.6-30.3
				c38-2.6,75.9-1.1,113.6,3.6c33.7,4.1,67.2,10.1,101.1,13.4c43.7,4.2,87.6,4,131.3,0c32.3-2.9,64.3-6.4,96.7-6.3
				c33.1,0.1,66.1,2.7,98.8,7.4c65.8,9.5,130.1,27.3,193.7,46.6c17.8,5.4,35.5,10.9,53.2,16.5
				C1513.9,258.4,1514.7,255.5,1512.9,254.9L1512.9,254.9z"/>
		</g>
	</g>
	<g>
		<g>
			<path class="st18" d="M1512.9,252.8c-121.4-38.1-243.8-85.2-373.4-75.6c-30.8,2.3-61.3,7.4-92.2,9.4c-24.4,1.6-48.8,1.9-73.2,0.8
				c-37.6-1.7-74.5-7.7-111.6-13.9c-35.5-6-71.1-10.7-107.2-10.4c-50.7,0.3-101,8.9-150.1,20.7c-65.5,15.8-129.7,36.2-195.6,50.5
				c-47.1,10.2-94.9,18.3-143.1,19.6c-39.1,1.1-78.1-3-116.1-12.5c-40.1-10.1-78.6-25.6-116.2-42.4c-11-4.9-22-10-32.9-15.1
				c-1.7-0.8-3.3,1.8-1.5,2.6c73.7,34.5,149.5,66,231.8,70.1c43.4,2.1,86.9-2.4,129.7-9.8c60.5-10.4,120.1-26,179.2-42.5
				c58.8-16.4,118-31.9,179-36.7c38.9-3.1,77.7-1.1,116.2,4.6c34.8,5.2,69.3,12.1,104.3,15.7c48.7,5,97.7,3.7,146.3-1.7
				c32-3.5,63.5-7.6,95.7-7.3c31.1,0.3,62.1,3.6,92.7,9.1c63,11.4,124,31.5,184.9,51c17.6,5.6,35.1,11.3,52.7,16.8
				C1513.9,256.2,1514.7,253.3,1512.9,252.8L1512.9,252.8z"/>
		</g>
	</g>
	<g>
		<g>
			<path class="st19" d="M1512.9,250.6c-117.9-37.1-236-94-362.7-81.3c-32.1,3.2-63.7,9-95.9,11.4c-25.9,1.9-52,2.6-78,1.4
				c-39-1.8-77.1-8.5-115.3-16.1c-34.3-6.8-68.7-12.5-103.7-12.6c-50.6-0.2-100.9,9.6-149.6,22.7c-112.3,30.1-224.3,69.4-341.7,72.5
				c-39.9,1.1-79.7-2.9-118.4-12.9C107.4,225.3,69,209,31.9,190.6c-10.3-5.1-20.5-10.4-30.6-15.8c-1.7-0.9-3.2,1.7-1.5,2.6
				c72.1,38.3,147.5,69.6,230,73.8c44.8,2.3,89.7-2.4,133.8-10c60.8-10.5,120.7-26.3,180-43.4C602,181,660.2,163.1,721.2,158
				c38.2-3.2,76.1-0.6,113.8,6.2c35.1,6.3,69.8,14.3,105.3,18.2c51.7,5.7,103.8,3.6,155.4-2.7c32.1-3.9,63.6-9.4,96-9.3
				c29.6,0.1,59,3.7,87.9,9.9c61.7,13.1,120.8,36,180.4,56.2c17.3,5.9,34.7,11.6,52.2,17.1C1513.9,254.1,1514.7,251.2,1512.9,250.6
				L1512.9,250.6z"/>
		</g>
	</g>
	<g>
		<g>
			<path class="st20" d="M1512.9,248.5c-63.9-20.2-125.4-47.3-189.1-68c-53.8-17.5-108.9-26.2-165.3-18.3
				c-34.4,4.8-68.3,11-103,13.7c-25.6,2-51.4,2.7-77.1,1.6c-38.1-1.7-75.3-8.5-112.4-17.1c-31.5-7.3-62.9-14.5-95.3-16.1
				c-44.5-2.1-88.8,5.6-131.7,16.9c-34.8,9.2-68.9,20.8-103.5,30.8c-32.3,9.4-64.8,18.2-97.5,26c-52.8,12.6-106.6,22.7-160.9,25.2
				c-43,2-86.2-1.3-128-11.9c-41.4-10.5-80.7-27.8-118.1-48.3c-10.1-5.5-20.1-11.3-30-17.3c-1.7-1-3.2,1.6-1.5,2.6
				C37.1,190.8,76,211,117.4,225c39.2,13.3,80.2,20.4,121.5,21.6c49,1.4,98-4.7,146-14c65.9-12.7,130.7-31,194.9-50.7
				c52.1-16,104.5-31.8,159.3-34.6c34.5-1.7,68.4,2.8,102,10.3c33.8,7.5,67.3,16,101.8,20c52.2,6.1,105,3.4,157-3.4
				c32.3-4.2,64.3-11.5,97-12.2c29-0.7,57.8,3,86,9.8c60.4,14.6,117.6,40.7,176,61.6c17.7,6.3,35.4,12.3,53.3,18
				C1513.9,252,1514.7,249.1,1512.9,248.5L1512.9,248.5z"/>
		</g>
	</g>
	<g>
		<g>
			<path class="st21" d="M1512.9,246.3c-36-11.4-71.2-25-105.9-39.8c-27.1-11.5-53.9-23.6-81.5-33.9c-24.7-9.2-50.1-16.8-76.3-20.1
				c-28.8-3.7-57.4-1.7-85.8,3.8c-60.1,11.6-121.6,19.9-183,17.1c-37.3-1.7-73.6-8.6-109.6-18.3c-28.8-7.8-57.4-16.5-87.3-19.4
				c-39.1-3.9-78.4,1.8-116.3,11.5c-33.3,8.5-65.8,20.2-98.6,30.4c-35.1,10.9-70.4,21.1-106,30.2C405.5,222.3,347.1,234.3,288,238
				c-45.9,2.9-92.2,0.2-137-10.9c-42.7-10.7-82.9-28.9-120.5-51.5c-9.9-6-19.7-12.3-29.3-18.8c-1.6-1.1-3.1,1.5-1.5,2.6
				c37,25,76.4,46.8,118.8,61.3c41.3,14.1,84.7,20.8,128.3,21.4c53.5,0.7,106.8-7,159-17.9c71.3-14.9,141.3-36,210.6-58.6
				c45.1-14.7,91.5-27.8,139.3-28.1c31.6-0.2,62,6.2,92.3,14.5c32.4,8.9,64.7,17.6,98.1,21.7c51.3,6.2,103.2,3.2,154.2-3.7
				c34.8-4.7,69.3-14.1,104.3-16c28-1.5,55.8,2,82.7,9.4c58.9,16.1,113.5,45.4,170.4,67c17.9,6.8,36,13.1,54.3,18.9
				C1513.9,249.8,1514.7,246.9,1512.9,246.3L1512.9,246.3z"/>
		</g>
	</g>
	<g>
		<g>
			<path class="st22" d="M1512.9,244.2c-36.3-11.5-71.5-25.9-105.9-42.2c-26.7-12.6-52.8-26.4-80-37.9
				c-22.5-9.6-45.8-17.4-70.1-20.4c-30-3.7-58.3,1.4-87.6,7.5c-60.5,12.6-122.7,21.7-184.6,19c-36.9-1.6-72.9-8.5-108.1-19.6
				c-26.8-8.5-53.2-18.7-81.1-23.2c-34.2-5.5-68.7-1.8-102.1,6.3c-31.1,7.6-61,19-91.3,29c-37.1,12.2-74.5,23.7-112.1,34
				c-61.8,16.9-124.9,30.9-188.9,36c-49.4,3.9-99.5,2.1-147.7-9.7c-44.1-10.8-85.5-30-123.3-54.9c-9.8-6.5-19.3-13.3-28.6-20.4
				c-1.5-1.2-3,1.4-1.5,2.6c36.4,27.6,76.2,50.8,119.5,65.8c43.9,15.2,90.2,21.5,136.5,21.5c58.3-0.1,116.3-9.5,173-22.4
				c75.4-17.1,148.9-41,222.1-65.8c38.9-13.2,80-23.5,121.4-21.4c28.6,1.5,55.6,9.8,82.6,18.7c31.3,10.4,62.7,19.5,95.5,23.6
				c51.6,6.5,104.1,2.7,155.3-4.8c18.4-2.7,36.8-6,55.1-9.6c17.6-3.5,35-8,52.9-9.8c26.9-2.6,53.6,0.6,79.4,8.5
				c26,8,50.5,19.9,74.9,31.8c29.3,14.3,58.6,28.6,88.9,40.8c18.1,7.3,36.5,13.9,55.2,19.8C1513.9,247.7,1514.7,244.8,1512.9,244.2
				L1512.9,244.2z"/>
		</g>
	</g>
	<g>
		<g>
			<path class="st23" d="M1512.9,241.3c-35.3-11.7-69.7-26.1-103.4-41.8c-26.6-12.4-52.8-25.7-79.9-37.1
				c-24.8-10.5-50.4-19.2-77.2-23.1c-28.2-4.1-56.8-2.8-84.7,2.6c-35.7,6.9-70.9,14.8-107,19.2c-27.2,3.3-54.7,5.2-82.1,4.8
				c-39-0.5-77.4-6.4-114.9-17c-28.7-8.1-56.9-18.4-86.3-23.6c-34.3-6.1-69-4.2-103.1,2.9c-28.4,6-55.7,15.6-83.3,24.5
				C555,164.4,518.6,175.7,482,186c-58.8,16.6-118.6,31.2-179.5,37.7c-47.6,5-95.9,4.5-142.7-5.9c-45.5-10.1-88.1-29.3-127.5-53.8
				c-10.6-6.6-20.9-13.5-31-20.7c-1.6-1.1-3.1,1.5-1.5,2.6c38.7,27.5,80.3,51,125.6,65.7c43.5,14.1,89.3,19.4,134.9,18.1
				c128.4-3.8,251.6-49.8,372.9-87.5c38.6-12,79-20.1,119.5-17c30.1,2.3,58.8,11.1,87.4,19.9c33.2,10.1,66.6,18.5,101.2,21.8
				c54.2,5.2,108.9,0.1,162.3-9.1c35.1-6,69.8-16.4,105.5-17.8c28-1.1,55.7,3.1,82.4,11.5c58.1,18.1,111.1,50.2,167.3,73.2
				c17.5,7.2,35.2,13.7,53.2,19.7C1513.9,244.8,1514.7,241.9,1512.9,241.3L1512.9,241.3z"/>
		</g>
	</g>
	<g>
		<g>
			<path class="st24" d="M1512.9,238.3c-62.6-21.8-120.6-53.1-181.6-78.6c-53.7-22.5-109-33.7-167.1-26
				c-34.1,4.6-67.4,13.9-101.5,19.1c-28.8,4.4-57.8,7.3-86.9,7.9c-41.6,0.8-82.8-4-123.2-13.9c-30.8-7.6-60.9-17.9-92.1-23.8
				c-34.6-6.5-69.6-6.4-104.3-0.4c-26.4,4.6-51.8,12.5-77.4,20.5c-34.8,11-69.7,21.9-104.8,32.1c-55.1,16-110.8,31-167.7,38.9
				c-46.4,6.4-93.7,7.4-139.8-1.7c-46.8-9.2-90.9-28.5-131.8-52.7c-11.3-6.7-22.5-13.8-33.4-21.1c-1.6-1.1-3.1,1.5-1.5,2.6
				c40.9,27.3,84.5,51.3,131.8,65.6c42.6,12.9,87.1,17.2,131.5,14.6c52.8-3,104.8-14.4,155.8-27.8c31.7-8.3,63.2-17.5,94.5-27
				c34.2-10.4,68-22.1,102.4-31.7c38.7-10.8,78.9-16.7,119.1-12.7c31.6,3.2,62,12.5,92.5,20.9c35.8,9.9,72,17.4,109.1,19.7
				c56.7,3.5,113.6-3.5,169.1-14.6c33.9-6.8,67-14.7,101.8-14.3c29.1,0.3,57.8,5.6,85.5,14.5c58.3,18.8,112,49.9,168.5,73.3
				c16.7,7,33.7,13.4,50.8,19.4C1513.9,241.8,1514.7,238.9,1512.9,238.3L1512.9,238.3z"/>
		</g>
	</g>
	<g>
		<g>
			<path class="st25" d="M1512.9,235.3c-60.2-21.8-116.7-51.6-175.5-76.6c-51-21.6-103.9-35.6-159.6-33.3
				c-34.1,1.4-66.8,9.3-100.1,16c-31.1,6.2-62.6,10.9-94.3,13c-45.1,3.1-90.2,0.4-134.5-8.6c-33.7-6.8-66.6-17.1-100.3-24
				c-35.6-7.3-71.7-9.3-107.9-4.6c-23.3,3-46.3,8.4-68.8,15.2c-33.9,10.1-67.6,20.6-101.4,30.8c-53,15.9-106.4,31.8-161,41.3
				c-44.7,7.8-90.4,10.4-135.3,2.9c-47.9-8.1-93-27.1-135.2-50.7c-12.8-7.1-25.3-14.7-37.7-22.5c-1.6-1-3.1,1.6-1.5,2.6
				c43.3,27.4,89.3,51.9,138.9,65.7c42.2,11.8,86.1,14.8,129.6,10.6c50.4-4.8,99.8-17.4,148.4-31.1c31.1-8.8,62.1-18.2,93.1-27.6
				c30.7-9.3,61.4-19.8,92.7-27.1c39.6-9.3,80.1-12.4,120.4-6.8c33.5,4.6,65.9,14.4,98.6,22.4c39.2,9.5,79,15.5,119.4,15.9
				c27.2,0.3,54.3-1.6,81.2-5.1c33.5-4.3,66-12.1,99.1-18.4c60.4-11.6,120.4-7.8,178.5,12.2c56.1,19.4,108.5,48.4,163,71.5
				c16.3,6.9,32.7,13.3,49.3,19.4C1513.9,238.9,1514.7,236,1512.9,235.3L1512.9,235.3z"/>
		</g>
	</g>
	<g>
		<g>
			<path class="st26" d="M1512.9,232.4c-56.1-21.2-109.4-48.5-164.3-72.5c-47.6-20.7-97-36.8-149.2-40c-30.1-1.8-60.3,0.4-90,5.3
				c-33.8,5.7-66.9,14.6-100.9,19.4c-50.9,7.2-102.5,8.2-153.5,0.9c-74.5-10.7-145.6-38.5-221.9-33.7
				c-54.8,3.5-107.4,21.3-159.6,37.1c-52.2,15.8-104.3,33-157.7,44.7c-43,9.5-87,14.4-130.9,8.7c-50.7-6.5-98.6-26-143.4-49.9
				c-13.7-7.3-27.1-15-40.3-23c-1.7-1-3.2,1.6-1.5,2.6c46.3,27.9,95.3,53.2,148,66.3c41.4,10.3,83.9,11.6,126.1,5.9
				c49.6-6.8,97.8-21.4,145.6-35.8c30.1-9.1,60.1-18.4,90.3-27.3c27.9-8.3,55.9-16.8,84.6-21.8c40.6-7,81.6-6.6,122.1,0.4
				c36.3,6.2,71.7,16.5,107.9,23.5c44.7,8.7,90.1,12,135.6,9.2c29.8-1.8,59.5-6,88.8-11.7c34.4-6.7,68.1-15.2,103.2-17.7
				c55.6-3.8,109.8,6,161.8,25.7c53.3,20.2,103.7,47.2,156.1,69.4c14,5.9,28,11.6,42.2,17C1513.9,236,1514.7,233.1,1512.9,232.4
				L1512.9,232.4z"/>
		</g>
	</g>
	<g>
		<g>
			<path class="st27" d="M1512.9,229.4c-52.4-20.5-102.6-45.9-153.9-68.7c-45.4-20.2-92.3-37.3-141.8-44
				c-60.3-8.1-118.9,0.5-177.9,13.4c-55.8,12.2-112.9,18.1-169.9,14c-81.9-5.9-160.5-36.4-243-36.3c-53.2,0-103.8,13.5-154.5,28.5
				c-50.8,15-100.8,32.8-151.9,46.5c-41,11-83.1,18-125.7,14.2c-52-4.6-101.5-24.1-147.8-47.5c-15.3-7.7-30.3-16-45.2-24.6
				c-1.7-1-3.2,1.6-1.5,2.6C48.9,156,101,182.2,156.8,194.3c41,8.9,82.6,8.5,123.7,0.7c47.2-8.9,92.8-24.9,138.5-39.4
				c55-17.4,111-36.7,168.6-42.8c42.1-4.5,83.9-0.9,125.4,7c39.9,7.6,79.3,17.7,119.5,23.3c49.6,6.9,99.7,6.7,149.3,0.1
				c33.4-4.4,65.9-13,99-19c30.8-5.6,62.2-8.7,93.5-7.9c52.1,1.2,102.3,13.9,150.5,33.1c50,20,97.9,45,147.3,66.4
				c13.2,5.7,26.5,11.2,39.9,16.5C1513.9,233,1514.7,230.1,1512.9,229.4L1512.9,229.4z"/>
		</g>
	</g>
	<g>
		<g>
			<path class="st28" d="M1512.9,226.5c-94.2-38.1-183.4-94.3-284.6-112.5c-54.9-9.9-111-7.9-165.9,1.7
				c-33.2,5.8-65.6,14.7-99.1,19.4c-29,4-58.2,5.9-87.5,5.3c-48-1-95-9.4-142-18.6c-43-8.4-86.1-16.5-130-17.1
				c-101.9-1.3-195.6,41-291.2,70.3C274.8,186.4,236,194,196.3,191c-51.8-3.9-101.3-23.3-147.6-45.8c-16-7.8-31.8-16.1-47.4-24.8
				c-1.7-0.9-3.2,1.7-1.5,2.6c50.5,28,104,54.3,161,65.9c38.8,7.9,78,7.1,116.6-1.6c42.1-9.4,82.4-25.3,123.2-38.9
				c52.6-17.5,106.8-34.5,162.2-39.4c46.4-4.1,92.4,0.8,138,9.2c44.3,8.1,88.3,18.1,133.2,22.4c55.9,5.4,112,1.9,167-9.2
				c34.1-6.8,67.5-15.1,102.2-18.7c28.4-2.9,57-3.5,85.4-1.2c103.2,8.6,192.9,60.7,285.7,101.7c12.5,5.5,25.1,10.8,37.7,16
				C1513.9,230.1,1514.7,227.2,1512.9,226.5L1512.9,226.5z"/>
		</g>
	</g>
	<g>
		<g>
			<path class="st29" d="M1512.9,223.5c-92.5-38.7-180.3-92.6-279.4-113.1c-53.5-11.1-108.5-11.7-162.6-4.7
				c-34.4,4.5-67.7,13.2-101.7,19.6c-31.2,5.9-62.8,9.2-94.5,9.7c-53.8,0.7-106.8-7.6-159.7-17c-48.8-8.7-97.7-17.1-147.4-16.8
				c-53.8,0.3-106.5,11.3-157.6,27.6c-37.7,12.1-73.9,27.9-111.4,40.6c-33.5,11.4-68,18-103.5,15.4C144,181.1,94.8,161.7,48.9,140
				c-16.1-7.6-31.9-15.7-47.6-24c-1.7-0.9-3.2,1.7-1.5,2.6c81.9,43.6,174.5,86,268.9,63c35.6-8.7,69.3-23.7,103.6-36.4
				c47.8-17.7,97.5-32.5,148.3-38.2c52.6-5.9,105.1-0.9,157.1,7.7c49.8,8.3,99.4,18.6,149.8,22.1c28.9,2,57.9,1.9,86.7-0.7
				c33.2-2.9,65.3-9.9,97.8-17c59.6-13,121-19,181.8-12c101.5,11.7,190.5,62.5,282.1,103.7c11.9,5.4,23.9,10.6,36,15.6
				C1513.9,227.2,1514.7,224.3,1512.9,223.5L1512.9,223.5z"/>
		</g>
	</g>
	<g>
		<g>
			<path class="st30" d="M1513.3,220.7c-90.1-38.8-176-90.5-272.3-113.1c-52.3-12.2-106.1-15.2-159.5-10.7
				c-33.1,2.8-66,8.3-98.4,15.5c-34.7,7.7-69.1,14.6-104.7,16.7C760.1,135.9,645.9,95.5,528,98.3c-50.8,1.2-101.3,10.4-149.1,27.8
				c-30.9,11.2-60.1,26.2-90.8,38c-30,11.5-61.1,17.4-93.2,15c-50.8-3.7-99.9-23.2-145.8-44.2c-16.1-7.4-32.1-15.3-47.9-23.4
				c-1.7-0.9-3.2,1.7-1.5,2.6c51.2,26.3,104.9,51.7,161.7,63.3c33.3,6.8,67.2,7.3,100.1-1.4c29.7-7.9,57.3-21.8,85.4-33.9
				c39.7-17.1,80.9-29.8,123.7-36c60.5-8.8,121.3-4.1,181.5,4.8c56.8,8.4,113.4,19.3,170.9,21.7c31.2,1.3,62.5,0.1,93.5-4
				c35.5-4.7,69.9-14.6,105.2-20.7c58.9-10.3,119.3-13.5,178.6-4.8c98.8,14.5,186,63.2,275.5,104.4c11.9,5.5,23.9,10.8,35.9,16
				C1513.5,224.1,1515,221.5,1513.3,220.7L1513.3,220.7z"/>
		</g>
	</g>
	<g>
		<g>
			<path class="st31" d="M1513.3,217.8c-88.6-39.3-173.5-89.7-268.1-113.6c-51-12.9-103.6-17.5-156.1-15c-31.9,1.5-63.6,5.6-95,11.3
				c-36.2,6.6-71.7,16.9-108.3,21.1C750.8,137,619.1,90,484.4,95.6c-44.6,1.8-88.9,8.6-130.2,26.2c-25.3,10.8-48.7,25.4-73.8,36.5
				c-27.3,12.1-56.1,17.3-85.9,15c-50-3.8-98.6-23-144-43.1c-16.6-7.4-33-15.2-49.3-23.3c-1.7-0.9-3.2,1.7-1.5,2.6
				c51.7,25.7,105.8,50.7,162.7,62.3c31.4,6.4,63.8,7.6,94.8-1.6c25.3-7.5,48.1-21,71.4-32.9c29.5-15.1,60.3-26.6,93-32.2
				c68.3-11.7,137.5-6.7,205.8,2.4c65.9,8.7,131.7,20.4,198.3,20.5c33.7,0,67.4-3,100.4-9.7c35.7-7.3,70.8-16.1,107-20.9
				c57.2-7.6,115.5-8.3,172.5,1.5c96.9,16.7,182.9,64.1,270.9,105.4c11.7,5.5,23.4,10.9,35.2,16.1
				C1513.5,221.1,1515,218.5,1513.3,217.8L1513.3,217.8z"/>
		</g>
	</g>
	<g>
		<g>
			<path class="st32" d="M1513.3,214.8c-88.4-40.3-173.3-90.3-267.9-115.1c-51.5-13.5-104.8-19-158-17.4c-31.4,1-62.7,4.3-93.8,9.2
				c-36.9,5.9-72.8,16.4-109.7,22.3c-71.4,11.6-144.1,4.2-215.3-4.5c-72.8-8.9-145.8-19.5-219.4-16.9C409.9,94,371,97.8,335.6,116
				c-20.8,10.6-39.2,25.1-59.8,36c-24.4,12.9-50.9,17.8-78.5,16C147,164.7,97.8,145.4,52,125.6c-17.1-7.4-34-15.2-50.7-23.3
				c-1.7-0.8-3.3,1.8-1.5,2.6c52.7,25.4,107.7,50.4,165.5,61.8c29.8,5.9,61.1,7.4,90.2-2.5c21.9-7.5,40.8-21,60.2-33.2
				c23.3-14.6,47.9-25.6,75.2-30.1c70.9-11.8,144.8-4.4,215.7,4c71.1,8.5,142.4,19.8,214.1,17.9c35.1-0.9,69.2-6,103.3-14.1
				c35.8-8.5,72-15.2,108.6-19.2c57.2-6.3,115.3-5.9,172,4.5c97.3,17.8,184,65.1,272.3,107.4c11.5,5.5,23.1,11,34.7,16.2
				C1513.5,218.2,1515,215.6,1513.3,214.8L1513.3,214.8z"/>
		</g>
	</g>
	<g>
		<g>
			<path class="st33" d="M1513.3,211.8c-90.7-42.4-178.1-93.9-275.8-118.8c-53.8-13.7-109.3-19.1-164.8-17.2
				c-33.3,1.1-66.5,4.7-99.5,10.1c-19.2,3.1-38.4,6.9-57.4,11.1c-17.3,3.9-34.5,8.6-52,11.6c-68.6,11.8-139.4,5.4-208.1-1.6
				c-74.3-7.6-148.6-17.6-223.4-17.7c-36.6-0.1-76.6-1.5-109.1,18c-17.6,10.5-31.9,25.6-48.8,37c-21.5,14.5-46,19.8-71.8,18.7
				c-50.4-2.2-100.1-21.5-146-40.6c-18.6-7.8-37-16.1-55.3-24.6c-1.7-0.8-3.3,1.8-1.5,2.6c54.7,25.7,112.1,51.3,172,62.1
				c28.4,5.1,58.8,6.4,85.8-5.4c19-8.3,33.9-22.4,49.9-35.1c18.8-14.8,39.5-24.7,63.5-27.2c72.8-7.5,147,0.6,219.4,8.3
				c71.2,7.6,142.8,17.1,214.5,14.4c33.4-1.3,65.3-6.7,97.7-14.4c37.3-8.8,75.2-15.8,113.3-20.1c60.3-6.8,121.5-6.4,181.3,4.3
				c100.1,18,189.1,66.1,279.4,110.3c11.6,5.7,23.3,11.3,35.1,16.8C1513.5,215.2,1515,212.7,1513.3,211.8L1513.3,211.8z"/>
		</g>
	</g>
	<g class="st11">
		<g>
			<path class="st33" d="M1513.3,208.4c-80.9-49.7-163.3-98.8-256.7-120.6c-50.9-11.9-103.4-15.9-155.6-14.6
				c-69.1,1.8-136.6,13.4-204.4,25.9c-65.3,12-133,7.4-198.7,1.8C626,94.7,554.4,85.6,482.2,83.5c-33-1-66.5-0.9-99.4,3.1
				c-13.2,1.6-26,4.9-38.3,10c-21.2,8.8-39.5,22.7-59.4,33.9c-71.2,40.2-156.7,12.3-227.7-14.4c-18.9-7.1-37.6-14.8-56.2-22.8
				C-0.5,92.5-2,95-0.3,95.8c55.6,24,113.8,47.3,174.2,55.6c30.9,4.2,62.6,3.5,91.9-8.2c21.3-8.6,39.7-22.5,59.5-33.8
				c10.6-6.1,21.8-11.3,33.5-14.8c20.3-6.1,41.9-7,62.9-7.9c140.4-5.9,279.3,29.4,419.6,21.7c33.4-1.8,65.6-8.6,98.5-14.5
				c35.7-6.4,71.6-11.5,107.7-14.6c56.8-4.9,114.3-5,170.7,4c94.9,15.2,179.3,58.5,260.7,107.7c11,6.6,21.9,13.3,32.8,20
				C1513.4,212,1514.9,209.4,1513.3,208.4L1513.3,208.4z"/>
		</g>
	</g>
	<g class="st10">
		<g>
			<path class="st33" d="M1513.6,205.2c-70.9-55.4-147.2-103.4-236.2-122.7c-111.3-24.1-228.8-9.8-340.1,6.7
				c-31.8,4.7-63.3,8.2-95.5,8.6c-32.9,0.4-65.9-1.2-98.8-3.4c-69.8-4.8-139.3-12.8-209.1-16.2c-33.2-1.6-66.5-2.3-99.7-0.4
				c-20.9,1.2-42,2.8-62.3,8.2c-25.7,6.9-48.8,19.7-72.8,30.8c-28,13-57.2,20.9-88.2,21.7c-52.8,1.3-105.5-13.2-155.1-29.8
				c-18.5-6.2-36.8-13-55-20.1c-1.8-0.7-2.6,2.2-0.8,2.9c56.9,22.3,116.5,42.9,177.7,48.7c33.7,3.2,67.6,0.6,99.6-11
				c24.8-9,47.4-22.6,71.9-32.4c40.3-16.1,84.5-17.1,127.3-17.1c68.5,0,136.7,7,204.9,12.9c65.6,5.6,131.8,11.4,197.7,6.8
				C913,97,946.4,90.6,980,86.2c33.1-4.3,66.3-8,99.5-10.3c53.4-3.7,107.3-4.3,160.4,3c43.6,6,86.2,17.9,126.3,36.1
				c40.5,18.3,78.2,42.4,114,68.7c10.5,7.7,20.9,15.6,31.2,23.7C1512.9,208.5,1515.1,206.4,1513.6,205.2L1513.6,205.2z"/>
		</g>
	</g>
	<g class="st9">
		<g>
			<path class="st33" d="M1513.6,201.7c-32.3-31.3-66.9-60.7-105.9-83.5c-34.1-19.9-71.2-33.9-110-41.7
				c-44.4-8.9-90.1-10.4-135.3-9.2c-61.5,1.5-122.8,7.6-183.9,14c-31.9,3.3-63.7,7.2-95.8,8c-31.5,0.7-63.1-0.3-94.6-2.1
				c-67.9-3.7-135.5-10.6-203.3-14.5c-59.2-3.4-120.2-6.1-179,3.5c-30.8,5-59.5,16.5-88.5,27.3c-32,11.9-64.5,20.6-98.7,22.3
				c-54.7,2.7-109.4-8.9-161.7-24C38,96.4,19.4,90.4,0.9,84c-1.8-0.6-2.6,2.3-0.8,2.9c92.8,32,194.8,58.9,291.6,28.7
				c28.8-9,56.2-21.7,85.3-29.8c48.7-13.6,101.1-13.6,151.2-12.3c66.8,1.6,133.4,8,200.1,12.9c62.9,4.7,126.5,9.2,189.5,4.3
				c113.6-8.8,228.3-29.8,342.5-16.9c40.8,4.6,80.9,14.8,118.1,32.4c39,18.5,74,44.2,106.2,72.7c9.1,8.1,18.1,16.5,26.9,25
				C1512.8,205.2,1515,203.1,1513.6,201.7L1513.6,201.7z"/>
		</g>
	</g>
	<g class="st8">
		<g>
			<path class="st33" d="M1513.6,198.3c-28.2-33.3-59.3-64.9-96.1-88.8c-30.6-19.8-64.8-32.9-100.6-39.5
				c-41.1-7.6-83.2-7.7-124.8-6.1c-56.9,2.1-113.7,7.2-170.4,11.4c-32.6,2.4-65.3,5.3-98,6.2c-29.9,0.8-59.8,0-89.7-1.4
				c-66.3-3.1-132.5-9-198.7-12.9c-61.1-3.7-122.9-6.7-184-0.6c-38,3.8-74.1,13.6-110.6,24.3c-36.8,10.8-73.8,19.8-112.2,22.2
				c-57.3,3.7-114.8-5-170.4-18.3C38.9,90.2,19.8,85,0.9,79.4c-1.9-0.5-2.6,2.3-0.8,2.9c61.7,18.1,125.5,32.7,190.1,34.4
				c40.8,1.1,81-4.1,120.5-14.4c33.7-8.8,66.6-20.3,100.8-27c54.9-10.8,111.9-10,167.5-7.9C705.6,72.1,832.5,91,959.3,82.7
				c62.6-4.1,125.1-9.6,187.7-13.5c45-2.8,90.5-4.9,135.5-0.8c37.5,3.4,74.5,12.1,108.2,29.2c36.8,18.6,68.4,45.7,96.5,75.5
				c8.4,8.9,16.4,18,24.3,27.3C1512.7,201.9,1514.8,199.7,1513.6,198.3L1513.6,198.3z"/>
		</g>
	</g>
	<g class="st7">
		<g>
			<path class="st33" d="M1513.8,195.1c-24.6-35-52.2-69.1-87.1-94.3c-27.3-19.8-58.6-32.3-91.9-37.9c-37.9-6.4-76.7-5.1-114.9-3
				c-53,3-106,7.9-159,11c-61.6,3.5-123.1,4.9-184.8,2.1c-64.4-2.9-128.6-8.1-193-11.8c-61.2-3.6-122.8-6.6-184.1-3.2
				c-44.4,2.5-87.1,11.5-130.3,21.5C326.4,89,284,97.5,240.6,100.4c-60.7,4-121.6-2-181.3-13.1c-19.6-3.6-39-7.8-58.4-12.4
				c-1.9-0.4-2.7,2.4-0.8,2.9c65,15.4,131.5,26.5,198.5,26.8c45.8,0.2,91.1-5.3,135.9-14.7c39.4-8.3,78.5-19.3,118.4-24.9
				c56.8-7.9,115-6.3,172.2-4c125.1,5.1,249.9,19.7,375.2,15.5c58.2-2,116.2-6.4,174.2-10.7c42.2-3.1,84.9-6.5,127.2-3.8
				c34.5,2.2,68.6,9.5,99.2,26.1c34.5,18.6,62.6,46.9,86.9,77.2c8.1,10.1,15.8,20.6,23.3,31.2
				C1512.3,198.2,1514.9,196.7,1513.8,195.1L1513.8,195.1z"/>
		</g>
	</g>
	<g class="st6">
		<g>
			<path class="st33" d="M1513.8,191.7c-21.4-36.5-45.9-73.2-79.1-100.1c-24.3-19.6-52.7-31.8-83.5-36.5
				c-35.2-5.3-71.3-2.7-106.6,0.3c-49.6,4.2-99.1,9.4-148.9,11.9c-123,6.1-245.5-6-368.2-12.9c-61.6-3.5-123.4-6.3-185-4.4
				c-24.9,0.8-49.9,2.4-74.6,6.1c-21.7,3.2-43.1,8.3-64.6,12.4c-48.8,9.4-98,16.8-147.6,19.6C191.3,91.6,126.8,88,63,79.7
				c-20.8-2.7-41.4-5.9-62.1-9.4C-1,70-1.8,72.9,0.1,73.2C69.1,85,138.9,92.7,209,92.4c51.5-0.2,102.7-5,153.4-13.5
				c44.8-7.5,89-19.2,134.2-23.2c57.6-5.2,115.8-3.6,173.4-1.2c123,5.2,245.9,19.3,369.1,17.6c54.6-0.8,109.1-4.9,163.4-9.9
				c39.1-3.6,78.5-8.2,117.7-6.8c31.7,1.1,63.1,7.3,90.7,23.4c33.4,19.5,58.8,50.3,80,82.1c7.1,10.6,13.7,21.4,20.2,32.3
				C1512.2,194.8,1514.8,193.3,1513.8,191.7L1513.8,191.7z"/>
		</g>
	</g>
	<g class="st5">
		<g>
			<path class="st33" d="M1513.8,188.2c-18.6-37.9-39.9-77-71.4-105.8c-21.4-19.6-47.2-31.7-75.9-35.6c-32.8-4.4-66.3-0.3-98.9,3.5
				c-46.2,5.5-92.2,11.3-138.7,13.7c-59,3.1-117.6,0.2-176.4-4.1c-61-4.5-122-9.1-183.1-12.6c-62.2-3.5-124.5-6.1-186.8-4.9
				c-26.2,0.5-52.4,1.7-78.4,4.6c-21.5,2.4-42.3,7.2-63.5,11.3C316.2,82.5,187.4,80.6,61.4,71c-20.3-1.5-40.6-3.3-60.9-5.3
				c-1.9-0.2-1.9,2.8,0,3c131.8,12.8,266.3,18.8,397.8-0.2c24.2-3.5,48.1-8.4,72.1-13.3c22.5-4.6,45.5-6.7,68.4-8.1
				c59-3.6,118.4-2,177.4,0.5c62.2,2.7,124.3,7,186.3,11.5c58.6,4.3,117.2,9.7,176,9.3c50.8-0.4,101.4-4.7,151.8-10.7
				c36-4.3,72.2-10.1,108.5-9.9c29.3,0.2,58.1,5.8,82.9,22.1c31.4,20.6,53.3,53.3,71.4,85.4c6.3,11.2,12.2,22.7,17.9,34.2
				C1512.1,191.4,1514.6,189.9,1513.8,188.2L1513.8,188.2z"/>
		</g>
	</g>
	<g class="st4">
		<g>
			<path class="st33" d="M1513.9,185.1c-24.7-60.2-58.9-137.4-131.9-146.8c-30-3.9-60.8,1.5-90.4,6.1
				c-43.6,6.9-87.2,13.8-131.3,16.6c-58.1,3.7-115.4-0.3-173.2-6.3C928.6,48.5,870,43.8,811.3,40.3c-62.8-3.7-125.7-6.2-188.6-5.4
				c-47.1,0.6-95.7,1.7-141.8,12.3c-60.4,14-121.8,17.7-183.6,18.5c-78.3,1-156.5-1.9-234.7-3.5c-20.7-0.4-41.4-0.8-62-1
				c-1.9,0-1.9,3,0,3c80.8,0.9,161.5,4,242.3,4.6c64.7,0.5,130.1,0.1,194.2-9.7c23-3.5,45.4-9.9,68.5-13.4
				c23.7-3.6,47.7-5.3,71.6-6.4c59.5-2.8,119.2-1.4,178.6,1.2c60.9,2.7,121.8,6.9,182.6,12.5c57.4,5.3,114.5,13,172.2,12.8
				c47.7-0.2,95.1-4.9,142.3-12.1c33.7-5.1,67.6-12.3,101.7-13.4c27.1-0.9,53.6,3.9,76,20c29.8,21.5,48.7,56.1,64.2,88.5
				c5.9,12.2,11.3,24.7,16.4,37.2C1511.8,187.7,1514.7,186.9,1513.9,185.1L1513.9,185.1z"/>
		</g>
	</g>
	<g class="st3">
		<g>
			<path class="st33" d="M1513.9,181.6c-14-40.7-29.5-84.7-57.6-118.2c-16.7-20-38.6-32.5-64.7-34.5c-29.6-2.3-59.7,5.3-88.5,11.2
				c-42.5,8.7-85.1,16.2-128.5,18.8c-28.2,1.7-56.5,1.5-84.6-0.4c-30.9-2.1-61.3-7-91.9-11.1c-59.9-8-120.3-13-180.7-16.3
				C754,27.6,690.3,26,626.8,27.8c-45.3,1.3-92.3,3-136.4,14.8c-62.6,16.7-129.9,14.7-194.2,13.3C217,54.2,137.8,50.1,58.6,53
				c-19.4,0.7-38.8,1.9-58.1,3.6c-1.9,0.2-1.9,3.2,0,3c78.8-7,158-4.6,236.9-2.3c69.1,2,139.3,5.8,208.1-3
				c22.7-2.9,44.3-9.4,66.7-13.5c23.1-4.3,46.7-6.4,70.2-7.9c59.6-3.9,119.6-3.3,179.3-1.2c62.7,2.2,125.4,6.3,187.8,13
				c58.2,6.2,115.7,17.4,174.4,18.4c47.9,0.8,95.5-3.9,142.5-12.5c33.2-6.1,66.3-15.1,100-18.1c25.1-2.3,50.1,0.7,70.7,16.4
				c29.6,22.7,46.2,60.8,59.7,94.4c5.2,12.9,9.9,26.1,14.5,39.3C1511.7,184.3,1514.6,183.5,1513.9,181.6L1513.9,181.6z"/>
		</g>
	</g>
	<g class="st2">
		<g>
			<path class="st33" d="M1513.9,178.2c-7.6-26.7-15.9-53.2-26.7-78.8c-7.2-17.1-15.5-34.1-26.9-48.7c-15.6-20-36.6-31.2-62.1-31
				c-30.5,0.3-60.8,10.8-90.2,18.1c-44.7,11.1-89.9,18.7-136,19.8c-31,0.7-62.1-1.2-92.8-5.5c-30.1-4.1-59.8-10.8-89.9-15.1
				C925.5,28,861,23.3,796.6,20.9c-63.6-2.4-127.5-2.7-191.1,1.5c-24.1,1.6-48.3,3.8-72.2,7.9c-21.1,3.7-41.3,10.8-62.4,14
				c-65.4,10-133.2,3.8-198.8,0.4c-74.6-3.9-150.1-8.3-224.6,0c-15.9,1.8-31.7,4.2-47.4,7.4c-1.9,0.4-1.1,3.3,0.8,2.9
				c140.9-29.2,285.2,3.1,427.2-3.7c26.1-1.2,52-4.3,77.1-11.6c19.3-5.6,39.4-8.5,59.3-10.8c58.5-6.6,117.7-7.3,176.5-6.5
				c66.9,0.9,133.8,4.5,200.3,11.6c29.1,3.1,58.1,6.9,86.9,12.2c30.8,5.6,61.4,11,92.7,13.1c50.2,3.4,100.4-0.2,149.7-10.1
				c34.1-6.8,67.4-17.7,101.6-23.8c24.7-4.5,50.4-4.7,70.9,11.8c11.9,9.5,20.7,22.4,28,35.6c11.2,20.1,19.4,41.9,26.8,63.7
				c4.7,14.1,9,28.3,13.1,42.5C1511.6,180.8,1514.5,180.1,1513.9,178.2L1513.9,178.2z"/>
		</g>
	</g>
	<g class="st0">
		<g>
			<path class="st33" d="M1513.9,174.7c-6.8-29-14.2-57.9-24.3-86c-6.3-17.5-13.6-35.2-24.5-50.4c-14.6-20.4-34.8-30.1-59.8-27.5
				c-30.9,3.3-60.8,16.1-90.5,24.6c-46.7,13.3-94.7,20.7-143.4,19.7c-32.9-0.6-65.7-4.8-97.9-11.5c-29.8-6.2-59.3-13-89.6-17.3
				c-68.2-9.7-137.2-13.7-206-14.9c-63.3-1.1-127-0.1-190,6.8c-21,2.3-42.2,5.1-62.6,10.6c-9.9,2.7-19.4,6.1-29.5,8.2
				c-13.5,2.7-27.2,4.1-40.9,4.9c-67.4,3.9-135.3-4.5-202.4-9.2c-69.1-4.9-140.2-9.4-208.8,3.3C29,38.9,14.4,42.6,0.1,47.6
				c-1.8,0.6-1,3.5,0.8,2.9c63.2-22.1,133.3-20.9,199.3-17.8c70.1,3.3,139.9,11.7,210,13c27.6,0.5,55.7,0,82.9-5
				c19.3-3.6,37.7-10.7,57.1-14.1c56.1-10,114-11.7,170.9-12.3c69.4-0.7,139,1.8,208.1,8.7c32,3.2,63.9,7.3,95.5,13.2
				c31,5.9,61.3,14,92.7,18c52.8,6.8,106.3,5.1,158.5-5.9c35.5-7.5,69.3-20.1,104.3-29.4c22.9-6.1,48.5-10.1,68.4,6
				c11.6,9.4,19.6,22.7,26.1,36c10.6,21.7,17.9,44.9,24.4,68.1c4.3,15.4,8.2,31,11.9,46.6C1511.5,177.4,1514.4,176.6,1513.9,174.7
				L1513.9,174.7z"/>
		</g>
	</g>
</g>
</svg>
