<?xml version="1.0" encoding="UTF-8"?>
<svg id="Layer_2" data-name="Layer 2" xmlns="http://www.w3.org/2000/svg" viewBox="0 0 1514.97 97.41">
  <defs>
    <style>
      .cls-1 {
        fill: #e8b2db;
      }

      .cls-2 {
        fill: #f2b3d6;
      }

      .cls-3 {
        fill: #9ea8dc;
      }

      .cls-4 {
        fill: #c1afed;
      }

      .cls-5 {
        fill: #b7aef2;
      }

      .cls-6 {
        fill: #deb1df;
      }

      .cls-7 {
        fill: #cbb0e9;
      }

      .cls-8 {
        fill: #d4b1e4;
      }

      .cls-9 {
        fill: #238c6e;
      }

      .cls-10 {
        fill: #3c9284;
      }

      .cls-11 {
        fill: #6d9db0;
      }

      .cls-12 {
        fill: #86a3c6;
      }

      .cls-13 {
        fill: #54979a;
      }

      .cls-14 {
        opacity: .17;
      }

      .cls-15 {
        opacity: .33;
      }

      .cls-16 {
        opacity: .67;
      }

      .cls-17 {
        opacity: .5;
      }

      .cls-18 {
        opacity: .83;
      }

      .cls-19 {
        opacity: 0;
      }
    </style>
  </defs>
  <g id="Layer_1-2" data-name="Layer 1">
    <g>
      <g class="cls-19">
        <path class="cls-9" d="m1512.99,92.39c-108.62,1.22-217.27,2.96-325.9,1.52-101.89-1.35-203.91-8.62-305.81-5.42-29.3.92-58.55,2.98-87.86,3.87-41.92,1.28-83.87.06-125.74-2-103.06-5.07-206.08-7.79-309.25-9.65-107.39-1.93-214.86-3.34-322.13-8.92-11.61-.6-23.21-1.27-34.81-2.01-1.93-.12-1.92,2.88,0,3,105.25,6.7,210.81,8.28,316.23,10.2,103.69,1.89,207.5,2.91,311.08,8.29,46.83,2.43,93.64,5.02,140.55,4.57,29.7-.29,59.33-2.12,89-3.47,97.5-4.42,195.01,2.04,292.5,3.94,104.35,2.03,208.72.82,313.08-.37,16.36-.19,32.71-.37,49.07-.56,1.93-.02,1.93-3.02,0-3h0Z"/>
      </g>
      <g class="cls-14">
        <path class="cls-9" d="m1513.07,88.77c-102.9-1.26-205.74.43-308.63,1.11-98.87.66-197.61-3.54-296.45-4-63.11-.3-126.19,2.28-189.3,2.21-109.5-.12-219.06-3-328.53-5.61-116.52-2.78-233.05-6.29-349.46-12.33-13.07-.68-26.14-1.39-39.21-2.15-1.93-.11-1.92,2.89,0,3,114.65,6.6,229.45,10.39,344.24,13.37,113.07,2.93,226.21,5.6,339.32,6.55,65.68.55,131.28-1.77,196.94-2.05,96.2-.42,192.32,4.28,288.52,4.15,98.76-.13,197.49-2.33,296.25-1.69,15.44.1,30.87.25,46.31.44,1.93.02,1.93-2.98,0-3h0Z"/>
      </g>
      <g class="cls-15">
        <path class="cls-9" d="m1513.15,85.16c-98.43-3.36-196.73-2.36-295.16.07-93.97,2.32-187.71,1.19-281.68-.65-61.42-1.2-122.8-2.21-184.23-1.45-109.51,1.35-218.91,4.05-328.44,1.66-125.27-2.73-250.4-9.48-375.51-16.09-15.55-.82-31.1-1.64-46.66-2.45-1.93-.1-1.92,2.9,0,3,124.91,6.5,249.8,13.67,374.84,17.33,116.46,3.41,232.72,1.69,349.18-.08,60.15-.91,120.23-.65,180.37.5,93.74,1.78,187.39,4.04,281.15,1.97,93.36-2.06,186.61-4.39,280-2.15,15.38.37,30.76.82,46.13,1.35,1.93.07,1.93-2.93,0-3h0Z"/>
      </g>
      <g class="cls-17">
        <path class="cls-9" d="m1513.24,81.54c-101.04-5.51-201.76-4.85-302.81-.66-95.35,3.96-190.42,4.47-285.83,1.89-63.75-1.73-127.39-5.31-191.19-4.11-52.06.98-104.03,3.92-156.05,5.98-61.57,2.44-123.21,2.7-184.8,1.08-115.39-3.03-230.45-12.65-345.68-18.94-15.12-.82-30.25-1.59-45.38-2.3-1.93-.09-1.93,2.91,0,3,116.2,5.46,232.17,15.34,348.42,19.85,60.33,2.34,120.71,3.11,181.07,1.76,57.76-1.29,115.43-4.98,173.17-6.7,63.66-1.9,126.97.39,190.58,2.49,95.1,3.14,190.19,4.04,285.28.26,95.31-3.79,190.31-6.68,285.69-2.86,15.85.64,31.7,1.4,47.54,2.27,1.93.11,1.92-2.9,0-3h0Z"/>
      </g>
      <g class="cls-16">
        <path class="cls-9" d="m1513.32,77.93c-59.12-4.36-118.39-6.9-177.68-6.42-44.12.36-88.16,2.54-132.19,5.15-96.76,5.74-193.18,7.8-290.1,4.19-66.53-2.47-132.67-8.45-199.31-6.39-57.27,1.77-114.29,7.11-171.47,10.29-58.93,3.28-117.98,4.02-176.97,2.02-106.43-3.6-212.32-15.87-318.61-21.83-15.16-.85-30.33-1.59-45.5-2.23-1.93-.08-1.93,2.92,0,3,108.51,4.58,216.46,16.77,324.9,22.38,56.1,2.9,112.29,3.61,168.44,1.78,62.46-2.04,124.67-8.09,187.07-11.11,36.27-1.76,72.59-2.56,108.89-1.21,31.08,1.16,62.11,3.53,93.18,5.05,96.27,4.71,192.67,4.49,288.88-1.11,42.78-2.49,85.54-5.24,128.39-6.37,54-1.43,108.02-.39,161.95,2.57,16.72.92,33.43,2.02,50.13,3.25,1.93.14,1.92-2.86,0-3h0Z"/>
      </g>
      <g class="cls-18">
        <path class="cls-9" d="m1513.4,74.31c-60.71-5.57-121.64-8.99-182.62-8.44-44.45.4-88.79,3.15-133.1,6.62-42.76,3.34-85.51,6.82-128.39,8.1-55.23,1.65-110.69.96-165.87-1.73-34.59-1.69-69.05-4.98-103.6-7.36-35.27-2.43-70.54-2.56-105.85-.9-62.19,2.91-123.96,10.78-186.05,14.96-56.12,3.78-112.4,4.82-168.6,2.24-98.04-4.5-195.3-19.17-293.28-24.75-14.84-.84-29.7-1.53-44.55-2.1-1.93-.07-1.93,2.93,0,3,101.45,3.84,201.84,17.87,303.02,24.84,52.51,3.62,105.14,4.37,157.73,2.24,65.35-2.64,130.22-10.73,195.42-15.28,39.96-2.79,80.04-4.35,120.08-2.52,31.99,1.46,63.87,4.8,95.81,6.92,98.03,6.49,196.38,5.32,294.29-2.3,42.53-3.31,85.04-6.82,127.68-8.22,55.53-1.83,111.11-.32,166.53,3.53,17.13,1.19,34.24,2.6,51.34,4.17,1.92.18,1.91-2.82,0-3h0Z"/>
      </g>
      <path class="cls-9" d="m1513.49,70.7c-62.91-6.84-126.16-11.19-189.46-10.44-44.6.52-89.02,3.94-133.39,8.3-42.32,4.16-84.62,8.48-127.13,10.15-56.49,2.22-113.35,1.54-169.78-1.95-35.07-2.17-69.91-6.44-104.92-9.32-38.09-3.12-76.2-2.84-114.33-.39-65.57,4.21-130.54,14.32-196.03,19.48-53.2,4.19-106.62,5.63-159.92,2.47-41.82-2.48-83.34-7.88-124.87-13.21-48.89-6.28-97.85-11.68-147.07-14.54-15.03-.87-30.07-1.54-45.11-2.05-1.93-.07-1.93,2.94,0,3,53.63,1.81,107.06,6.15,160.33,12.59,41.9,5.07,83.68,11.19,125.73,14.91,48.54,4.29,97.26,5.01,145.93,2.7,67.64-3.21,134.53-13.15,201.9-19.28,43.23-3.93,86.71-6.44,130.11-4.24,33.04,1.68,65.88,5.98,98.83,8.74,98.94,8.29,198.47,6.52,297.21-3.16,42.15-4.13,84.26-8.46,126.59-10.22,57.18-2.38,114.44-.42,171.46,4.29,17.99,1.49,35.96,3.25,53.9,5.2,1.92.21,1.9-2.79,0-3h0Z"/>
      <path class="cls-10" d="m1513.49,68.68c-62.01-6.52-124.28-11.01-186.66-11.1-44.37-.06-88.63,2.44-132.85,5.88-100.53,7.82-201.1,13.05-301.95,7.91-34.43-1.76-68.71-5.25-103.09-7.68-35.95-2.54-71.9-2.69-107.88-.71-61.48,3.4-122.43,12.41-183.77,17.34-55,4.43-110.21,6.39-165.36,4.24-95.29-3.72-189.67-19.47-284.7-26.72-15.24-1.16-30.49-2.17-45.74-3.06-1.93-.11-1.92,2.89,0,3,54.55,3.17,108.91,8.37,163.2,14.54,44.36,5.05,88.7,10.46,133.26,13.43,50.91,3.4,101.95,3.41,152.89.7,64.96-3.46,129.3-12.55,194.08-17.94,40.18-3.34,80.5-5.04,120.8-3.19,32.46,1.48,64.77,5,97.18,7.27,100.07,7.03,200.7,4.15,300.63-3.73,42.46-3.35,84.92-6.78,127.51-7.86,56.25-1.43,112.52.94,168.58,5.58,17.97,1.49,35.93,3.21,53.86,5.1,1.92.2,1.9-2.8,0-3h0Z"/>
      <path class="cls-13" d="m1513.49,66.66c-61.8-6.24-123.8-11-185.93-11.99-44.17-.71-88.29.8-132.38,3.41-101.89,6.03-203.76,12.88-305.88,8.56-67.94-2.87-135.25-10.79-203.37-7.62-56.65,2.63-112.86,10.47-169.36,15.08-57.25,4.67-114.69,7.17-172.13,5.93-99.35-2.14-197.9-16.29-296.71-25.56-15.41-1.45-30.82-2.8-46.24-4.08-1.92-.16-1.91,2.84,0,3,102.66,8.5,204.9,23.65,307.84,28.44,53.14,2.47,106.36,1.74,159.46-1.37,62.02-3.63,123.55-11.93,185.47-16.52,37.11-2.75,74.3-3.72,111.48-2.06,32.07,1.43,64.04,4.46,96.07,6.36,101.01,6,202.12,1.16,302.99-5.28,42.65-2.72,85.32-5.15,128.06-5.45,55.68-.39,111.32,2.51,166.79,7.15,17.96,1.5,35.9,3.19,53.83,5,1.92.19,1.91-2.81,0-3h0Z"/>
      <path class="cls-11" d="m1513.49,64.64c-105.75-10.19-211.58-17.22-317.82-12.39-103.05,4.68-205.66,14.04-308.94,10.46-64.96-2.25-129.6-9.69-194.68-7.54-53.1,1.76-105.79,8.67-158.7,13.05-58.6,4.85-117.38,7.86-176.19,7.51-103.5-.61-206.2-13.18-308.92-24.62-15.58-1.74-31.16-3.45-46.75-5.13-1.92-.21-1.9,2.8,0,3,106.29,11.45,212.54,26.04,319.51,29.12,55.35,1.59,110.73.1,165.98-3.46,59.01-3.8,117.69-11.53,176.69-15.13,65.8-4.02,130.68,1.68,196.32,5.04,101.99,5.23,203.43-1.91,305.21-7.73,98.44-5.63,196.25-2.47,294.47,5.91,17.95,1.53,35.88,3.18,53.81,4.91,1.92.19,1.91-2.82,0-3h0Z"/>
      <path class="cls-12" d="m1513.49,62.62c-105.37-9.58-211.39-20.98-317.34-16.6-57.39,2.37-114.54,8.75-171.93,11.54-46.61,2.27-93.3,3.16-139.95,1.72-61.98-1.91-123.75-9.29-185.82-8.16-48.7.88-97.05,6.83-145.55,10.84-60.83,5.03-121.82,8.59-182.87,9.12-107.68.94-214.58-9.64-321.27-23.32-15.77-2.02-31.52-4.09-47.28-6.19-1.91-.25-1.89,2.75,0,3,109.67,14.57,219.61,28.05,330.38,29.43,57.87.72,115.74-1.51,173.48-5.45s111.73-10.96,167.76-13.61c61.94-2.93,123.29,3.33,185.08,6.3,42.19,2.03,84.43,2.17,126.64.88,60.09-1.84,119.84-7.45,179.79-11.41,98.59-6.52,196.85,1.37,295.06,10.06,17.94,1.59,35.88,3.21,53.82,4.84,1.92.17,1.91-2.83,0-3h0Z"/>
      <path class="cls-3" d="m1513.49,60.6c-60.83-5.14-121.5-11.88-182.31-17.12-44.54-3.83-89.22-6.24-133.91-3.81-29.25,1.59-58.36,5.31-87.53,7.94-30.86,2.79-61.77,5.12-92.72,6.79-44.5,2.39-89.09,3.36-133.64,2.02-59.29-1.78-118.33-9.45-177.67-9.46-44.45,0-88.63,5.06-132.89,8.6-62.12,4.97-124.35,9.01-186.66,10.48-112.83,2.67-224.97-5.46-336.63-21.57-15.9-2.29-31.78-4.72-47.65-7.23-1.89-.3-2.7,2.59-.8,2.89,112.8,17.85,226.21,29.76,340.53,29.5,59.65-.14,119.25-3.02,178.74-7.14,53.63-3.71,107.22-10.33,160.95-12.13,58.58-1.95,116.73,5.09,175.15,7.98,102.37,5.07,204.69-2.52,306.5-12.97,99.13-10.17,198.33,4.22,296.95,13.45,17.85,1.67,35.71,3.26,53.57,4.77,1.92.16,1.91-2.84,0-3h0Z"/>
      <path class="cls-5" d="m1513.49,58.58c-60.88-4.68-121.27-13-181.88-20.21-45-5.35-90.31-9-135.54-4.24-61.95,6.51-123.55,14.52-185.79,18.12-43,2.49-86.11,3.46-129.17,2.04-56.53-1.86-112.68-9.97-169.21-11.3-39.82-.94-79.35,3.21-119.01,6.32-64.47,5.05-129.01,9.65-193.64,11.96-117.46,4.19-234.45-1.63-350.56-20.33-15.63-2.52-31.23-5.23-46.79-8.1-1.89-.35-2.7,2.54-.8,2.89,116.16,21.36,233.37,31.63,351.48,29.75,61.91-.99,123.75-4.61,185.5-9.05,51.01-3.66,102.17-10.06,153.35-10.59,54.89-.56,109.39,7.38,164.12,10.33,97.15,5.24,194.54-1.95,291.04-13.08,27.73-3.2,55.33-7.46,83.29-8.14,22.6-.55,45.2.68,67.7,2.76,54.34,5.01,108.3,13.58,162.59,19.11,17.76,1.81,35.53,3.39,53.33,4.76,1.93.15,1.92-2.85,0-3h0Z"/>
      <path class="cls-4" d="m1513.49,58.56c-59.78-5.02-119.13-13.28-178.66-20.52-47.42-5.77-95.08-9.9-142.87-7.03-30.51,1.83-60.81,6.45-91.2,9.59-29.64,3.06-59.33,5.63-89.07,7.53-45.34,2.9-90.79,4.19-136.22,3.16-63.4-1.43-126.45-9.12-189.83-10.51-46.08-1.01-92.12,2.55-138.11,5.03-60.04,3.24-120.09,6.58-180.19,8.38-107.77,3.23-215.27-.46-321.98-16.68-14.52-2.21-29-4.61-43.46-7.17-1.89-.33-2.7,2.56-.8,2.89,106.94,18.93,214.79,26.55,323.32,24.94,57.58-.85,115.12-3.64,172.62-6.66,54.82-2.87,109.8-7.53,164.71-7.91,61.97-.42,123.61,7.16,185.46,9.77,101.8,4.3,203.61-3.31,304.64-15.52,49.22-5.95,98.06-5.67,147.36-.79,54.58,5.4,108.82,13.85,163.36,19.66,16.95,1.8,33.93,3.41,50.91,4.84,1.92.16,1.91-2.84,0-3h0Z"/>
      <path class="cls-7" d="m1513.49,58.53c-58.29-5.28-116.21-13.4-174.27-20.65-48.66-6.07-97.54-10.71-146.64-9.46-58.96,1.51-117.52,11.28-176.33,15.51-48.1,3.46-96.32,5.17-144.55,4.59-71.25-.86-142.16-8.16-213.36-9.98-50.97-1.3-102.01.92-152.95,2.66-55.57,1.9-111.12,4.34-166.7,5.87-99.51,2.75-198.88.97-297.58-13.11-13.1-1.87-26.18-3.93-39.23-6.14-1.89-.32-2.7,2.57-.8,2.89,98.69,16.7,198.17,21.91,298.15,20.25,110.19-1.84,220.33-10.01,330.54-9.82,70.59.12,140.88,7.56,211.4,9.72,44.67,1.37,89.38.85,134.02-1.41,28.6-1.45,57.17-3.56,85.69-6.2,30.47-2.82,60.82-6.99,91.31-9.59,105.09-8.96,208.83,11.47,312.87,22.99,16.12,1.79,32.26,3.41,48.42,4.87,1.92.17,1.91-2.83,0-3h0Z"/>
      <path class="cls-8" d="m1513.49,58.51c-105.22-10.19-210.04-31.75-316.02-32.08-57.55-.18-114.29,8.17-171.52,12.91-51.49,4.26-103.14,6.57-154.81,6.53-81.48-.07-162.63-7.12-244.02-9.76-105.46-3.43-211.02,1.07-316.44,3.98-90.82,2.51-181.61,2.47-271.86-9.34-12.34-1.62-24.64-3.43-36.93-5.4-1.89-.3-2.7,2.59-.8,2.89,90.29,14.49,181.21,17.6,272.5,15.76,107.27-2.16,214.47-7.33,321.8-5.65,80.55,1.26,160.85,8.61,241.39,10.18,48.47.94,96.96-.07,145.36-3.02,58.99-3.6,117.59-12.6,176.6-15.26,103.48-4.66,205.42,14.51,307.79,26.3,15.64,1.8,31.29,3.46,46.96,4.98,1.92.19,1.91-2.82,0-3h0Z"/>
      <path class="cls-6" d="m1513.49,58.49c-102.97-10.58-205.36-30.7-309.02-33.47-56.42-1.51-111.86,4.11-167.92,9.45-54.51,5.19-109.22,8.14-163.98,8.71-94.08.97-187.89-5.8-281.82-9.98-102.54-4.56-204.89-3.07-307.43.02-82.6,2.49-165.25,3.95-247.48-5.79-11.34-1.34-22.66-2.89-33.96-4.59-1.89-.28-2.7,2.61-.8,2.89,82.1,12.37,164.69,13.61,247.53,11.47,100.85-2.61,201.51-5.95,302.4-2.57,94.58,3.17,188.97,10.81,283.62,11.58,52.37.43,104.75-1.18,156.99-4.97,58-4.21,115.59-12.55,173.82-13.45,102.1-1.57,202.65,16.77,303.67,28.78,14.77,1.76,29.56,3.39,44.36,4.91,1.92.2,1.9-2.8,0-3h0Z"/>
      <path class="cls-1" d="m1513.49,58.47c-96.96-10.5-193.28-28.46-290.76-33.81-51.77-2.84-103.65-1.78-155.3,2.71-58.82,5.11-117.29,10.92-176.36,12.62-112.65,3.24-225.22-3.03-337.6-10.27-98.41-6.34-196.46-6.74-294.97-3.27-75.3,2.65-150.7,5.55-225.81-2.33-10.29-1.08-20.56-2.35-30.81-3.77-1.89-.26-2.7,2.63-.8,2.89,74.82,10.42,149.98,9.92,225.3,7.34,93.22-3.19,186.23-5.54,279.45-.74,113.83,5.87,227.3,14.96,341.39,13.96,58.27-.51,116.52-3.3,174.52-8.9,54.8-5.29,109.26-9.79,164.37-8.64,96.15,2.01,190.98,18.84,286.23,30.47,13.7,1.67,27.41,3.25,41.14,4.74,1.92.21,1.9-2.79,0-3h0Z"/>
      <path class="cls-2" d="m1513.49,58.45c-95.7-10.86-190.8-28.08-286.99-34.35-51.06-3.33-102.26-3.31-153.33-.23-54.47,3.29-108.61,9.87-163.15,12.36-116.62,5.34-233.73,2.15-350.08-6.99-56.95-4.47-113.66-9.93-170.8-11.42-45.49-1.18-90.98-.49-136.44,1.26-74.28,2.86-148.68,8.38-222.92,1.75-9.45-.84-18.87-1.87-28.28-3.06-1.91-.24-1.89,2.76,0,3,73.76,9.31,147.7,5.82,221.73,2.54,97.81-4.34,195.2-3.81,292.77,5.15,117.3,10.78,235.32,15.54,353.09,12.26,107.66-3,214.42-19.33,322.29-15.42,94.77,3.44,188.32,19.57,282.25,31.37,13.28,1.67,26.57,3.26,39.86,4.77,1.92.22,1.9-2.78,0-3h0Z"/>
      <g class="cls-18">
        <path class="cls-2" d="m1513.49,52.51c-94.35-11.34-188.58-25.91-283.54-31.23-46.61-2.61-93.31-2.78-139.95-.96-55.99,2.18-111.76,7.79-167.73,10.43-115.31,5.44-230.91,3.23-346.09-4.08-57.16-3.63-114.14-8.67-171.43-9.86-44.64-.92-89.29-.06-133.9,1.7-78.96,3.11-157.76,7.7-236.7,1.39-10.9-.87-21.79-1.92-32.66-3.12-1.92-.21-1.9,2.79,0,3,79.89,8.77,159.62,6.48,239.73,2.97,42.49-1.86,84.99-3.39,127.52-3.34,54.34.07,108.45,3.09,162.62,7.15,116.23,8.7,232.93,12.49,349.45,8.82,105.69-3.33,210.72-16.02,316.61-12.55,91.99,3.02,183.2,16.2,274.42,27.58,13.88,1.73,27.76,3.43,41.64,5.1,1.91.23,1.9-2.77,0-3h0Z"/>
      </g>
      <g class="cls-16">
        <path class="cls-2" d="m1513.49,46.57c-93.13-11.7-186.41-24.39-280.26-28.59-97.25-4.35-193.97,2.68-291.06,7.14-110.68,5.08-221.48,4.44-332.15-.64-57.95-2.66-115.81-7.32-173.82-8.63-46.25-1.05-92.51-.2-138.73,1.62-86,3.39-171.64,7.72-257.65,1.56-12.79-.92-25.57-2.02-38.33-3.25-1.92-.19-1.91,2.82,0,3,88.48,8.58,176.54,6.89,265.19,2.99,44.01-1.94,88.03-3.52,132.09-3.4,56.16.16,112.07,3.87,168.13,6.94,111.12,6.07,222.42,8.25,333.66,4.47,100.92-3.43,201.52-12.43,302.58-9.86,89.53,2.28,178.49,13.19,267.28,24.25,14.36,1.79,28.72,3.59,43.07,5.4,1.91.24,1.89-2.76,0-3h0Z"/>
      </g>
      <g class="cls-17">
        <path class="cls-2" d="m1513.49,40.63c-91.78-11.96-183.89-23.42-276.48-26.43-88.99-2.89-177.99,1.95-266.89,5.46-110.65,4.37-221.32,5-332,1.5-57.65-1.82-115.26-5.44-172.92-6.7-47.54-1.04-95.08-.11-142.59,1.86-92.4,3.83-184.26,7.84-276.7,1.85-14.82-.96-29.63-2.11-44.42-3.39-1.92-.17-1.91,2.83,0,3,53.16,4.61,106.47,7.17,159.84,7.01,43.24-.14,86.43-2.09,129.62-4.07,45.56-2.09,91.12-3.82,136.74-3.71,56.32.13,112.54,3.54,168.8,5.7,109.66,4.2,219.33,5.01,329.03,1.55,94.49-2.98,188.98-9.19,283.56-7.72,87.14,1.35,173.81,10.63,260.22,21.44,14.74,1.84,29.47,3.74,44.2,5.66,1.91.25,1.89-2.75,0-3h0Z"/>
      </g>
      <g class="cls-15">
        <path class="cls-2" d="m1513.49,34.69c-95.06-12.77-190.56-23.92-286.57-24.99-89.24-1-178.53,4.32-267.73,6.43-109.77,2.6-219.51,2.79-329.29.2-56.09-1.33-112.18-3.91-168.29-4.08-43.93-.13-87.82,1.43-131.7,3.55-93.4,4.51-186.29,7-279.74,1.38-16.24-.98-32.47-2.13-48.69-3.4-1.93-.15-1.92,2.85,0,3,99.68,7.81,198.93,8.34,298.73,3.47,42.15-2.06,84.29-4.18,126.5-4.8,54.18-.79,108.31,1.37,162.46,2.84,107.84,2.93,215.66,3.84,323.53,1.83,95.68-1.78,191.36-7.05,287.06-7.5,88.92-.42,177.32,7.74,265.48,18.79,16.09,2.02,32.17,4.12,48.24,6.28,1.91.26,1.89-2.75,0-3h0Z"/>
      </g>
      <g class="cls-14">
        <path class="cls-2" d="m1513.88,28.81c-98.21-13.53-196.96-24.73-296.23-23.8-89.31.83-178.47,6.82-267.81,7.47-109.58.8-219.13.36-328.7-1.02-53.61-.68-107.25-2.1-160.86-1.25-40.8.64-81.54,2.74-122.27,4.97-95.16,5.22-189.91,6.29-285.12.91-17.14-.97-34.28-2.09-51.4-3.31-1.93-.14-1.92,2.86,0,3,102.63,7.33,205.06,9.24,307.81,3.94,39.27-2.02,78.52-4.47,117.83-5.72,51.02-1.62,102.01-.73,153.04-.07,105.86,1.38,211.71,2.36,317.58,1.86,57.46-.27,114.9-.8,172.33-2.82,39.38-1.39,78.74-3.4,118.13-4.43,91.03-2.38,181.4,4.81,271.68,16.13,17.75,2.22,35.48,4.58,53.2,7.02,1.89.26,2.7-2.63.8-2.89h0Z"/>
      </g>
      <g class="cls-19">
        <path class="cls-2" d="m1513.88,22.87c-101.48-14.29-203.6-25.57-306.23-22.3-37.15,1.19-74.23,3.76-111.35,5.54-51.92,2.48-103.83,3.05-155.8,2.77-108.64-.58-217.27-2.14-325.92-2.16-51.62,0-103.3-.28-154.89,1.57-37.4,1.34-74.73,3.85-112.08,6.14-97.39,5.97-194.54,5.77-291.99.59-18.05-.96-36.1-2.05-54.14-3.23-1.93-.13-1.92,2.87,0,3,106.05,6.95,212.16,10.03,318.33,4.27,36.72-2,73.4-4.69,110.13-6.49,47.82-2.35,95.64-2.63,143.51-2.77,104.48-.32,208.95,1.04,313.42,1.77,58.47.4,116.94,1.04,175.38-1.02,39.25-1.38,78.44-3.98,117.67-5.84,92.99-4.41,185.15,2.01,277.46,13.62,18.59,2.34,37.16,4.84,55.71,7.46,1.89.27,2.7-2.62.8-2.89h0Z"/>
      </g>
    </g>
  </g>
</svg>