<?xml version="1.0" encoding="utf-8"?>
<!-- Generator: Adobe Illustrator 27.5.0, SVG Export Plug-In . SVG Version: 6.00 Build 0)  -->
<svg version="1.1" id="Layer_1" xmlns="http://www.w3.org/2000/svg" xmlns:xlink="http://www.w3.org/1999/xlink" x="0px" y="0px"
	 viewBox="0 0 1512 200" style="enable-background:new 0 0 1512 200;" xml:space="preserve">
<style type="text/css">
	.st0{opacity:0;}
	.st1{fill:#238C6E;}
	.st2{opacity:9.090909e-02;}
	.st3{opacity:0.1818;}
	.st4{opacity:0.2727;}
	.st5{opacity:0.3636;}
	.st6{opacity:0.4545;}
	.st7{opacity:0.5455;}
	.st8{opacity:0.6364;}
	.st9{opacity:0.7273;}
	.st10{opacity:0.8182;}
	.st11{opacity:0.9091;}
	.st12{fill:#308F7A;}
	.st13{fill:#3E9286;}
	.st14{fill:#4B9592;}
	.st15{fill:#59989E;}
	.st16{fill:#669BAA;}
	.st17{fill:#749FB6;}
	.st18{fill:#81A2C2;}
	.st19{fill:#8FA5CE;}
	.st20{fill:#9CA8DA;}
	.st21{fill:#AAABE6;}
	.st22{fill:#B7AEF2;}
	.st23{fill:#BCAEEF;}
	.st24{fill:#C2AFED;}
	.st25{fill:#C7AFEA;}
	.st26{fill:#CCB0E8;}
	.st27{fill:#D2B0E5;}
	.st28{fill:#D7B1E3;}
	.st29{fill:#DDB1E0;}
	.st30{fill:#E2B2DE;}
	.st31{fill:#E7B2DB;}
	.st32{fill:#EDB3D9;}
	.st33{fill:#F2B3D6;}
</style>
<g>
	<g class="st0">
		<g>
			<path class="st1" d="M1512.5,89.6c-46,2.3-89.6,15-131.2,34.5c-35.3,16.6-68.7,37.6-105.5,50.9c-38.2,13.8-77.7,14.9-116.5,2.3
				c-26.8-8.7-51.9-22.4-75.4-37.8c-15.6-10.2-30.7-21.4-45.3-33c-7.9-6.3-15.2-12.2-24.6-16.1c-39.3-16.4-87.7-6.7-127.6,2.4
				c-55.8,12.7-109.9,32-163.9,50.4c-48.5,16.5-96.6,33.1-147.9,38.5c-56.9,5.9-114.5,3.3-171.3-2.3
				c-123.1-12.2-244.6-39.1-364.3-69.7c-12.9-3.3-25.8-6.7-38.7-10.1c-1.9-0.5-2.7,2.4-0.8,2.9c116.9,30.9,235.1,58.5,355.1,74.3
				c59.3,7.8,119.3,12.9,179.2,10.7c25.7-0.9,51.3-3.2,76.6-7.9c23.7-4.4,46.7-11.6,69.7-19c53.7-17.4,106.7-37.1,161-52.8
				c26.2-7.6,52.6-14.3,79.6-18.6c22.9-3.6,46.7-5.8,69.7-2.2c9.2,1.5,18.4,3.9,26.8,8.1c11.5,5.7,20.9,14.8,30.9,22.6
				c25.2,19.3,51.8,37.1,80.5,50.6c37.7,17.7,78.7,26.2,119.9,17.6c36.6-7.6,69.5-26.3,102.3-43.4c38.8-20.2,78.7-38,122.1-45.7
				c13-2.3,26.2-3.7,39.4-4.3C1514.4,92.5,1514.4,89.5,1512.5,89.6L1512.5,89.6z"/>
		</g>
	</g>
	<g class="st2">
		<g>
			<path class="st1" d="M1512.5,87.6c-44.3,1.1-87.1,11.5-128.1,28c-34.9,14-68.2,31.9-103.8,44c-36.9,12.6-75.3,16.6-113.7,8
				c-24.9-5.6-48.7-15.5-71.1-27.5c-13.6-7.2-26.7-15.2-39.5-23.7c-12.3-8.2-23.8-18.2-36.6-25.6c-34.1-20-79.8-14.2-116.9-7.9
				c-56,9.4-110.6,26.7-164.8,43.4c-53.5,16.5-107.5,36-163,44.4c-55.9,8.4-113,7.3-169.2,2.6C282.4,162.9,161,134.6,41.1,105
				C27.5,101.6,14,98.3,0.4,94.9c-1.9-0.5-2.7,2.4-0.8,2.9c118,29.5,236.6,58.6,357.4,73.4c58.2,7.1,117.3,11.1,175.9,7
				c25.2-1.8,50.3-5,75-10.7c27.5-6.3,54.5-14.8,81.5-23.1c56.6-17.3,112.8-36,170.4-49.6c25.4-6,51.2-11.2,77.3-13.3
				c20.4-1.7,41.6-1.8,61.4,3.8c8.6,2.4,16.8,5.9,24.1,10.9c13.8,9.4,27,19.6,41.1,28.6c22.9,14.6,47,27.6,72.5,36.9
				c37.7,13.8,77.5,17.7,116.7,9c35.8-7.9,69-24.4,102.3-39.3c38.7-17.3,78.4-32.2,120.7-37.9c12.2-1.6,24.4-2.5,36.7-2.8
				C1514.4,90.6,1514.4,87.6,1512.5,87.6L1512.5,87.6z"/>
		</g>
	</g>
	<g class="st3">
		<g>
			<path class="st1" d="M1512.5,85.6c-42.2-0.1-83.3,7.8-123.2,21.1c-35,11.6-68.6,26.9-103.8,38c-36.4,11.5-74.3,17-112.4,11.5
				c-52.1-7.5-100.2-32.4-143.6-61.2c-15.9-10.5-30.7-17.8-49.8-20.6c-20.4-3-41.2-2.2-61.6,0c-54.3,5.8-107.6,20.4-160.1,34.9
				c-30.5,8.4-60.8,17.2-91.3,25.6c-29.9,8.3-59.8,17.1-90.3,23.2c-55.8,11.2-113.4,12.2-170.1,8.4c-123-8.2-243.7-37.9-363.2-66.5
				C29,96.8,14.7,93.4,0.5,90.1c-1.9-0.4-2.7,2.4-0.8,2.9C118.8,121.1,238,152.1,360,165.5c57.3,6.3,115.4,8.8,172.8,2.5
				c58.7-6.5,115.6-24.6,172.3-40.6c57.2-16.1,114.4-33.1,172.9-43.9c23.8-4.4,48-7.8,72.2-7.9c19.3-0.1,39.5,1.7,57.4,9.7
				c10.4,4.6,19.4,11.8,29,17.9c13,8.3,26.2,16.1,39.9,23.2c21.7,11.2,44.4,20.8,68,27.1c36.9,9.8,74.9,10.5,112.2,2.3
				c35.6-7.8,69.3-22.3,103.3-35.2c38.4-14.5,77.7-26.5,118.8-30.4c11.3-1.1,22.6-1.5,34-1.5C1514.4,88.6,1514.4,85.6,1512.5,85.6
				L1512.5,85.6z"/>
		</g>
	</g>
	<g class="st4">
		<g>
			<path class="st1" d="M1512.5,83.6c-42-1.3-83.3,5.1-123.7,16.3c-36.2,10-71.3,23.4-107.7,33c-37.3,9.8-75.6,14.5-114,9.7
				c-52.9-6.6-102.4-29.2-147.6-56.7c-29.3-17.8-63.2-19.8-96.7-17.5c-47.5,3.2-94.5,13.9-140.7,24.9c-59.2,14.2-118,30.3-177.1,45
				c-30.7,7.6-61.4,14.8-92.9,18.4c-29.5,3.4-59.2,4.4-88.8,3.7C296,157.5,171.4,124.6,48.1,96.1c-15.8-3.7-31.7-7.3-47.6-10.8
				c-1.9-0.4-2.7,2.5-0.8,2.9c123.9,27.7,247.4,62.2,374.3,72.7c59.4,4.9,119.5,4,178.1-7.2c30.8-5.9,61.3-14.3,91.7-22
				c29.6-7.6,59.2-15.3,88.8-22.9C784,95.6,835.8,82.4,888.4,75c36.1-5.1,77.1-9.3,111.9,4.3c9.4,3.7,17.7,9.3,26.5,14.4
				c12.8,7.5,25.9,14.5,39.3,20.9c22.4,10.6,45.6,19.4,69.7,25.3c38.2,9.2,77.5,9.8,116.1,2.7c36.5-6.7,71.6-19.4,106.9-30.6
				c39-12.4,78.7-22.5,119.7-24.9c11.3-0.7,22.6-0.8,33.9-0.5C1514.4,86.7,1514.4,83.7,1512.5,83.6L1512.5,83.6z"/>
		</g>
	</g>
	<g class="st5">
		<g>
			<path class="st1" d="M1512.5,81.6c-44.3-2.6-88.1,2.9-131.2,13c-39.2,9.2-77.7,21.4-117.3,29.1c-43.2,8.3-87.2,9.9-130.4,1.3
				c-26.8-5.3-53-14-78-24.9c-14.5-6.3-28.6-13.3-42.5-20.9c-6-3.3-12-6.2-18.5-8.4c-30.6-10.5-64.6-9.2-96.3-6.2
				c-45.8,4.3-91,13.8-135.8,23.8c-58.4,13-116.5,27.4-174.7,41.1c-31.3,7.4-62.5,14.7-94.5,18.6c-28.9,3.6-58.1,4.9-87.2,4.4
				C284.8,150.6,166.7,117.4,49.3,91c-16.2-3.6-32.5-7.2-48.7-10.6c-1.9-0.4-2.7,2.5-0.8,2.9c119.5,25.2,238.2,60.5,360.4,70.1
				c57.6,4.5,115.7,2.5,172.5-8.4c61.7-11.8,122.6-28.7,183.8-43c49.4-11.6,99.1-23,149.3-30.4c35.8-5.2,73.7-9.4,109.6-2.7
				c16.6,3.1,30.3,9.9,45.2,17.7c25.2,13.2,51.5,24.6,78.8,32.9c43.2,13.1,88.2,17.2,133.1,12c39.5-4.6,77.8-15.6,116.2-25.7
				c42-11.1,84.4-20.5,128-21.8c12-0.4,23.9-0.2,35.9,0.6C1514.4,84.8,1514.4,81.8,1512.5,81.6L1512.5,81.6z"/>
		</g>
	</g>
	<g class="st6">
		<g>
			<path class="st1" d="M1512.5,79.6c-47.2-4.3-94.2,0.5-140.6,9.3c-43.7,8.3-86.9,19.6-131.2,25c-49.4,6.1-99.1,3.8-147.3-8.7
				c-30.6-7.9-59.6-19.7-88.1-33.1c-10.9-5.1-22.4-8.6-34.3-10.8c-31.2-5.6-63.5-3.8-94.8-0.5c-44.3,4.7-88.3,13-131.9,22
				C685.9,94.7,628,108,569.9,121c-31.7,7.1-63.3,14.5-95.6,18.7c-28.3,3.7-56.8,5.4-85.4,5.1C273.3,143.8,161,110,48.9,85.7
				c-16.1-3.5-32.1-6.8-48.3-10.1c-1.9-0.4-2.7,2.5-0.8,2.9c61.9,12.3,123.1,27.4,184.7,41.1c53.1,11.8,106.7,22.3,161,26.4
				c56.1,4.2,112.5,1.2,167.8-9.6c62.3-12.1,123.9-27.7,185.9-41.1c48-10.4,96.1-20.4,144.7-27.4c35.1-5.1,71.1-9,106.5-6.2
				c13.4,1.1,26.9,3.3,39.7,7.5c7.9,2.6,15.3,6.4,22.9,9.9c13.9,6.4,28,12.3,42.4,17.5c48.5,17.4,99.6,25.7,151,23.3
				c91-4.3,177.6-39.1,269.2-39c12.3,0,24.6,0.6,36.9,1.7C1514.4,82.8,1514.4,79.8,1512.5,79.6L1512.5,79.6z"/>
		</g>
	</g>
	<g class="st7">
		<g>
			<path class="st1" d="M1512.5,77.6c-50.1-6.1-100.1-2.6-149.9,4.7c-49,7.2-97.7,17.1-147.3,20.4c-56,3.7-111.8-2-165.5-18.3
				c-21.8-6.6-42.5-16.7-64.3-23.2c-11.3-3.3-22.9-5.4-34.5-6.6c-31-3.3-62.5-1.4-93.4,1.8c-43.5,4.5-86.8,11.9-129.8,20
				c-58.7,11-117.1,23.4-175.5,35.9c-59.9,12.8-119.1,24.8-180.7,24.7c-109.6-0.2-215.5-34.2-321.8-56.5
				c-16.4-3.4-32.7-6.7-49.2-9.8c-1.9-0.4-2.7,2.5-0.8,2.9C60.4,85,120.3,99.6,180.3,113.3c49.5,11.3,99.5,21.6,150.2,25.2
				c55.2,4,110.5-0.4,164.7-11c62.8-12.3,125.1-26.9,187.9-39.4c47.2-9.4,94.5-18.3,142.1-24.8c34.8-4.7,70-8.4,105.1-7.1
				c27,1,51.5,6.2,76.5,16.3c54.4,21.8,112.1,34.1,170.8,34.5c99.6,0.6,196-32.7,295.7-29.4c13,0.4,26,1.5,39,3.1
				C1514.4,80.9,1514.4,77.9,1512.5,77.6L1512.5,77.6z"/>
		</g>
	</g>
	<g class="st8">
		<g>
			<path class="st1" d="M1512.9,75.7c-108.4-16.9-215.1,12.2-323.3,14.9c-63.5,1.6-126.6-7-186.9-27.2
				c-23.1-7.7-45.8-12.8-70.2-14.4c-30.6-2-61.3-0.2-91.7,2.7c-42.6,4.1-85,10.6-127.1,17.8c-59,10.1-117.7,21.7-176.3,33.7
				c-60.4,12.4-120.4,25.5-182.3,26c-103.7,0.9-203.6-33.4-304.2-53.9C34.1,72.1,17.4,68.9,0.7,66c-1.9-0.3-2.7,2.6-0.8,2.9
				c59.6,10.5,118.3,24.6,177.1,38.5c45.5,10.7,91.4,20.6,138.1,23.8c54.4,3.7,108.7-1.9,162.1-12.4
				c63.3-12.5,126.4-26.1,189.8-37.8c79.9-14.7,161.9-30.4,243.4-29.7c24.1,0.2,48.5,2.2,71.8,8.7c23.8,6.6,46.7,15.3,70.9,20.8
				c29.4,6.7,59.3,10.8,89.4,12.3c109.5,5.7,217-25.8,326.4-19.2c14.4,0.9,28.8,2.5,43.1,4.7C1514,78.9,1514.8,76,1512.9,75.7
				L1512.9,75.7z"/>
		</g>
	</g>
	<g class="st9">
		<g>
			<path class="st1" d="M1512.9,73.7c-117.7-22.6-236.4,5.1-354.7,4.3c-33.4-0.2-66.8-2.6-99.8-7.8c-26.6-4.2-52.2-11.3-78.3-17.6
				c-21.1-5.2-42.7-7.6-64.3-8.6c-72.4-3.2-145.5,7.6-216.8,18.7c-59.1,9.3-118,20.2-176.7,31.7c-61,12-121.9,26-184.4,27.2
				c-44.3,0.9-87.8-5.5-130.9-15.3C155.2,94.4,103.9,80.6,51.7,70.4C34.8,67,17.8,64,0.8,61.1C-1.1,60.8-1.9,63.7,0,64
				c58.2,9.7,115.4,23,172.7,37c42.1,10.3,84.4,20,127.7,22.7c53.3,3.3,106.7-3.6,158.9-13.9C524,97.2,588.6,84.2,653.6,73.1
				c79.4-13.6,160.4-26.9,241.1-26.7c23.6,0.1,47.3,1.5,70.5,5.9c14.5,2.7,28.6,7.1,42.9,10.7c32,7.9,64.7,13.1,97.6,15.7
				c61.6,5,123.3,0.6,184.8-4.5c58.5-4.8,117.4-9.7,176-4.2c15.3,1.4,30.5,3.6,45.5,6.5C1514,76.9,1514.8,74.1,1512.9,73.7
				L1512.9,73.7z"/>
		</g>
	</g>
	<g class="st10">
		<g>
			<path class="st1" d="M1512.9,71.7c-127.5-29.2-259.2-3.4-388.2-6.7c-36.6-0.9-73.1-3.9-109.2-9.9c-17-2.8-33.9-6.8-50.9-9.7
				c-20.9-3.6-41.9-5.6-63.1-6.4c-71.8-2.7-143.9,6.1-214.8,16.2c-60.1,8.6-119.9,19-179.5,30.2c-62.1,11.7-124.2,26.4-187.7,28.4
				c-40.7,1.2-80.3-4.6-119.8-14.1c-49-11.8-97.5-25-147.1-34.4C35.4,62,18.1,59,0.8,56.3C-1.1,56-1.9,58.9,0,59.2
				c57.3,9,113.6,21.6,169.8,36c38,9.7,76,19,115.3,21.1c53.4,2.9,106.9-5.5,159.1-15.8c65.1-12.8,130.4-25,196-35.4
				c79.2-12.5,159.7-24,240.1-23.6c23.3,0.1,46.7,1.4,69.8,4.6c9.2,1.3,18.4,2.9,27.6,4.7c30.1,6.1,60.2,11.2,90.8,13.9
				c68.1,6.1,136.4,2.9,204.5-0.6c63.6-3.2,127.7-6.4,191.1,1.8c16.1,2.1,32.1,4.9,48,8.6C1514,75,1514.8,72.1,1512.9,71.7
				L1512.9,71.7z"/>
		</g>
	</g>
	<g class="st11">
		<g>
			<path class="st1" d="M1512.9,69.7c-66.3-17.8-135.3-20.7-203.7-20.1c-74.4,0.7-148.7,5.1-223.1,2.8
				c-45.5-1.4-90.3-7.1-135.4-12.8c-20.7-2.6-41.5-4.4-62.3-5.2c-72.5-2.7-145.3,4.7-217.1,14.1c-60,7.8-119.7,17.6-179.2,28.2
				c-62.8,11.2-125.6,26.5-189.5,29.4c-37.2,1.7-73.1-3.2-109-12.5c-46.5-12-92.7-24.7-140-33.4c-17.5-3.2-35.1-6-52.7-8.6
				c-1.9-0.3-2.7,2.6-0.8,2.9c56,8.2,111.1,20,165.8,34.9c34.3,9.3,68.6,18.4,104.3,19.9c53.1,2.3,106.2-7.8,158.1-17.7
				c66.1-12.6,132.3-24.2,198.9-34c79.6-11.6,160.4-21.5,241-20.7c22.6,0.2,45.3,1.5,67.8,3.9c29.8,3.2,59.4,8.4,89.3,11
				c74.9,6.7,150.1,4,225.2,2c71-1.9,142.8-3.4,213.2,8.3c16.4,2.7,32.6,6.2,48.6,10.5C1514,73.1,1514.8,70.2,1512.9,69.7
				L1512.9,69.7z"/>
		</g>
	</g>
	<g>
		<g>
			<path class="st1" d="M1512.9,67.7c-66.5-20.7-136.6-26.2-205.8-27.8c-76.2-1.7-152.4,1.7-228.6,1.4c-44.5-0.2-88.9-1.7-133.1-6.2
				c-20.2-2.1-40.3-4.1-60.6-5.2c-70.6-4-141.5,1.2-211.7,9.1c-60.7,6.8-121.2,16-181.5,26.3c-67,11.4-133.9,27.6-201.8,32.5
				c-34.9,2.5-68.2-0.9-101.9-10.2C143.6,75.2,99.7,63,54.4,55c-17.8-3.1-35.6-5.8-53.5-8.3c-1.9-0.3-2.7,2.6-0.8,2.9
				c55.3,7.6,109.7,18.6,163.4,34c31.1,9,61.7,17.4,94.3,18c56.8,1.1,113.4-11.7,168.9-21.9C494.4,67.3,562.3,56,630.5,47.1
				C708.1,37,786.7,29.4,865,32c50.9,1.7,101.3,9.2,152.2,11.1c76.8,2.9,153.6-0.1,230.4-0.5c72.6-0.4,146.2,1.1,217.5,15.9
				c15.9,3.3,31.6,7.3,47,12.1C1513.9,71.2,1514.7,68.3,1512.9,67.7L1512.9,67.7z"/>
		</g>
	</g>
	<g>
		<g>
			<path class="st12" d="M1512.9,65.6c-139-43.3-288.4-36.1-432.1-35.6c-42.6,0.2-85.3,0.8-127.7-2.6c-22.7-1.8-45.4-4.2-68.1-5.8
				c-71.4-5-142.9-1.2-214,6.9c-59.8,6.8-119.4,16.5-178.6,27.4C427,67.9,361.9,84.1,295.5,89.6c-36.8,3-72.5,0.5-108.3-8.3
				c-44.8-10.9-88.8-24.2-134-33.6c-17.4-3.6-34.8-6.9-52.3-10c-1.9-0.3-2.7,2.6-0.8,2.9C54.2,50.1,107.3,63,160.3,77.4
				c33.3,9.1,66.4,16.6,101,16.7c55.3,0.2,110.6-11.4,164.5-22.3c66.3-13.4,132.9-25.5,199.9-34.7C704.4,26.4,784,19.4,863.4,23.3
				c51.7,2.5,102.8,9,154.6,9.6c147.6,1.5,299-10.1,444.2,22.3c16.8,3.8,33.5,8.2,49.9,13.3C1513.9,69,1514.7,66.1,1512.9,65.6
				L1512.9,65.6z"/>
		</g>
	</g>
	<g>
		<g>
			<path class="st13" d="M1512.9,63.4c-139.7-43.6-288.2-45.2-433.2-43.2c-40.9,0.5-81.8,2.3-122.7-0.5c-25.7-1.8-51.3-4.6-77-6.6
				c-74.5-5.9-148.9-2.6-223,6.7c-62.6,7.8-124.7,19.1-186.4,32C410.8,64.3,351,78.6,290,82.9c-37,2.6-73.2-0.4-109.3-8.8
				C136,63.7,92.1,50,47.5,39.3C32,35.6,16.5,32,0.9,28.7c-1.9-0.4-2.7,2.5-0.8,2.9c51.7,11.2,102.6,25.3,153.7,38.9
				c34,9,68.2,16.2,103.4,16.5c50.1,0.6,100.2-8.8,149.1-18.6c68.3-13.7,136.2-28.8,205.1-39.3c81.4-12.4,163.7-19.5,246.1-14.6
				c53.4,3.2,106.4,10.6,160,9.7c148.3-2.6,299.7-6.6,444.9,28.4c16.7,4,33.2,8.6,49.6,13.7C1513.9,66.9,1514.7,64,1512.9,63.4
				L1512.9,63.4z"/>
		</g>
	</g>
	<g>
		<g>
			<path class="st14" d="M1512.9,61.3c-138.5-43.3-284-53.8-428.4-50.1c-41.5,1.1-82.7,3.8-124.2,1.3c-28.3-1.7-56.4-5.1-84.6-7.6
				c-77.6-7.1-154.6-4.1-231.8,6.7c-65.4,9.1-129.8,23.1-194.2,37.6C395,61.4,339.3,73.4,283.1,76.6c-36.7,2.1-72.9-1.3-108.8-9.4
				c-43.8-10-86.7-24-130-35.9c-14.4-4-28.9-7.9-43.4-11.6c-1.9-0.5-2.7,2.4-0.8,2.9c49.1,12.7,97.6,27.8,146.6,40.8
				c34.6,9.2,69.6,16.2,105.5,16.9c46.8,0.9,93.5-6.8,139.3-15.8c68.1-13.3,135.3-30.6,203.7-42.4C680.1,7.5,766-0.5,852.2,5.8
				c58.9,4.3,117.1,12.8,176.3,10.4c145-6,291-2.8,432.4,33.4c17.2,4.4,34.3,9.3,51.2,14.6C1513.9,64.8,1514.7,61.9,1512.9,61.3
				L1512.9,61.3z"/>
		</g>
	</g>
	<g>
		<g>
			<path class="st15" d="M1512.9,59.2c-136.4-42.7-278-62.4-420.9-56.6c-43.2,1.8-85.8,5.4-129,2.9c-30.7-1.8-61.1-5.6-91.6-8.9
				c-33.5-3.5-67.2-5.8-100.9-5.5C724.1-8.5,677.8-3.6,632,3.7c-66.6,10.6-131.7,27.4-197.4,42.2C383.2,57.4,331,68,278.3,70.5
				c-37.4,1.8-74.4-1.8-110.9-10.2c-42.7-9.8-84.2-24-125.9-37.1C28,19,14.4,14.8,0.9,10.7C-1,10.1-1.7,13,0.1,13.6
				c46.6,14.2,92.8,30.1,139.8,42.9C175,66.1,210.6,73,247.1,73.9c44.9,1.2,89.8-5.4,133.8-13.8c67-12.8,132.7-31.1,199.6-44.2
				C668.3-1.3,757-10.6,846.4-2.8c30.3,2.6,60.4,6.7,90.7,9.4c34.6,3.1,69.2,3.9,103.9,2c69.2-4,137.9-5.6,207.1,0.4
				c71.4,6.1,142.2,19.1,211.4,37.8c17.6,4.8,35.2,9.9,52.6,15.4C1513.9,62.6,1514.7,59.7,1512.9,59.2L1512.9,59.2z"/>
		</g>
	</g>
	<g>
		<g>
			<path class="st16" d="M1512.9,57c-133.7-41.9-271-71-411.9-62.7c-26.4,1.6-52.7,4.6-79.2,5.3c-19.3,0.6-38.6,0.3-57.9-0.8
				C931.1-3,898.6-7.6,866-11.6c-34.5-4.2-69-7.1-103.8-6.7c-48.1,0.5-96,6.5-143.3,15.2c-115.6,21.2-228.6,63.6-347,67.9
				c-37.6,1.4-74.9-2.5-111.5-11.1C119,43.9,78.8,29.4,38.7,15.1c-12.6-4.5-25.2-9-37.8-13.5C-0.9,1-1.7,3.9,0.1,4.5
				c78.1,27.7,157.2,60.3,241.1,63.3C351,71.7,458.3,35.2,564,11.2C654.9-9.3,746.8-21,839.9-11.5c32.3,3.3,64.4,8.3,96.8,11.3
				c38.7,3.6,77.6,4.1,116.4,1.3c32.2-2.3,64.2-5.1,96.5-5.3c34.3-0.2,68.6,1.7,102.7,5.4c69.9,7.6,138.6,23.2,206.1,42.5
				c18,5.1,35.9,10.6,53.7,16.2C1513.9,60.5,1514.7,57.6,1512.9,57L1512.9,57z"/>
		</g>
	</g>
	<g>
		<g>
			<path class="st17" d="M1512.9,54.9c-128.1-40.2-258.2-78.4-393.9-69.1c-28.2,1.9-56.1,5.8-84.4,7.1c-21.8,1-43.7,1-65.5-0.1
				c-35.5-1.8-70.6-7.2-105.8-12.2c-35.2-5-70.4-8.7-106-8.4c-49.6,0.5-98.9,7.7-147.3,17.9c-113.6,24-224.7,65.5-341.9,69
				c-38.5,1.1-76.7-2.9-114-12.1c-40.4-9.9-79.4-24.8-118-40.2C24.3,2.2,12.6-2.6,0.9-7.4c-1.8-0.7-2.6,2.2-0.8,2.9
				C76.2,26.7,153.7,58.7,237,62.1c43.3,1.7,86.7-3.3,129.3-10.9C429.1,40,490.5,23,552.2,7c56.2-14.6,113.5-26.4,171.6-30.3
				c38-2.6,75.9-1.1,113.6,3.6c33.7,4.1,67.2,10.1,101.1,13.4c43.7,4.2,87.6,4,131.3,0c32.3-2.9,64.3-6.4,96.7-6.3
				c33.1,0.1,66.1,2.7,98.8,7.4c65.8,9.5,130.1,27.3,193.7,46.6c17.8,5.4,35.5,10.9,53.2,16.5C1513.9,58.4,1514.7,55.5,1512.9,54.9
				L1512.9,54.9z"/>
		</g>
	</g>
	<g>
		<g>
			<path class="st18" d="M1512.9,52.8c-121.4-38.1-243.8-85.2-373.4-75.6c-30.8,2.3-61.3,7.4-92.2,9.4c-24.4,1.6-48.8,1.9-73.2,0.8
				c-37.6-1.7-74.5-7.7-111.6-13.9c-35.5-6-71.1-10.7-107.2-10.4c-50.7,0.3-101,8.9-150.1,20.7C539.7-0.6,475.5,19.9,409.6,34.2
				c-47.1,10.2-94.9,18.3-143.1,19.6c-39.1,1.1-78.1-3-116.1-12.5C110.3,31.2,71.8,15.7,34.1-1.1c-11-4.9-22-10-32.9-15.1
				C-0.5-17-2-14.4-0.3-13.6c73.7,34.5,149.5,66,231.8,70.1c43.4,2.1,86.9-2.4,129.7-9.8c60.5-10.4,120.1-26,179.2-42.5
				c58.8-16.4,118-31.9,179-36.7c38.9-3.1,77.7-1.1,116.2,4.6c34.8,5.2,69.3,12.1,104.3,15.7c48.7,5,97.7,3.7,146.3-1.7
				c32-3.5,63.5-7.6,95.7-7.3c31.1,0.3,62.1,3.6,92.7,9.1c63,11.4,124,31.5,184.9,51c17.6,5.6,35.1,11.3,52.7,16.8
				C1513.9,56.2,1514.7,53.3,1512.9,52.8L1512.9,52.8z"/>
		</g>
	</g>
	<g>
		<g>
			<path class="st19" d="M1512.9,50.6c-117.9-37.1-236-94-362.7-81.3c-32.1,3.2-63.7,9-95.9,11.4c-25.9,1.9-52,2.6-78,1.4
				c-39-1.8-77.1-8.5-115.3-16.1c-34.3-6.8-68.7-12.5-103.7-12.6c-50.6-0.2-100.9,9.6-149.6,22.7C495.5,6.3,383.4,45.5,266,48.6
				c-39.9,1.1-79.7-2.9-118.4-12.9C107.4,25.3,69,9,31.9-9.4C21.6-14.5,11.4-19.8,1.3-25.2c-1.7-0.9-3.2,1.7-1.5,2.6
				c72.1,38.3,147.5,69.6,230,73.8c44.8,2.3,89.7-2.4,133.8-10c60.8-10.5,120.7-26.3,180-43.4C602-19,660.2-36.9,721.2-42
				c38.2-3.2,76.1-0.6,113.8,6.2c35.1,6.3,69.8,14.3,105.3,18.2c51.7,5.7,103.8,3.6,155.4-2.7c32.1-3.9,63.6-9.4,96-9.3
				c29.6,0.1,59,3.7,87.9,9.9c61.7,13.1,120.8,36,180.4,56.2c17.3,5.9,34.7,11.6,52.2,17.1C1513.9,54.1,1514.7,51.2,1512.9,50.6
				L1512.9,50.6z"/>
		</g>
	</g>
	<g>
		<g>
			<path class="st20" d="M1512.9,48.5c-63.9-20.2-125.4-47.3-189.1-68c-53.8-17.5-108.9-26.2-165.3-18.3c-34.4,4.8-68.3,11-103,13.7
				c-25.6,2-51.4,2.7-77.1,1.6c-38.1-1.7-75.3-8.5-112.4-17.1c-31.5-7.3-62.9-14.5-95.3-16.1c-44.5-2.1-88.8,5.6-131.7,16.9
				C604.4-29.6,570.2-18,535.7-8c-32.3,9.4-64.8,18.2-97.5,26c-52.8,12.6-106.6,22.7-160.9,25.2c-43,2-86.2-1.3-128-11.9
				C107.9,20.8,68.6,3.6,31.2-17c-10.1-5.5-20.1-11.3-30-17.3c-1.7-1-3.2,1.6-1.5,2.6C37.1-9.2,76,11,117.4,25
				c39.2,13.3,80.2,20.4,121.5,21.6c49,1.4,98-4.7,146-14C450.9,20,515.7,1.6,579.8-18c52.1-16,104.5-31.8,159.3-34.6
				c34.5-1.7,68.4,2.8,102,10.3c33.8,7.5,67.3,16,101.8,20c52.2,6.1,105,3.4,157-3.4c32.3-4.2,64.3-11.5,97-12.2
				c29-0.7,57.8,3,86,9.8c60.4,14.6,117.6,40.7,176,61.6c17.7,6.3,35.4,12.3,53.3,18C1513.9,52,1514.7,49.1,1512.9,48.5L1512.9,48.5
				z"/>
		</g>
	</g>
	<g>
		<g>
			<path class="st21" d="M1512.9,46.3c-36-11.4-71.2-25-105.9-39.8c-27.1-11.5-53.9-23.6-81.5-33.9c-24.7-9.2-50.1-16.8-76.3-20.1
				c-28.8-3.7-57.4-1.7-85.8,3.8c-60.1,11.6-121.6,19.9-183,17.1c-37.3-1.7-73.6-8.6-109.6-18.3c-28.8-7.8-57.4-16.5-87.3-19.4
				c-39.1-3.9-78.4,1.8-116.3,11.5c-33.3,8.5-65.8,20.2-98.6,30.4c-35.1,10.9-70.4,21.1-106,30.2C405.5,22.3,347.1,34.3,288,38
				c-45.9,2.9-92.2,0.2-137-10.9C108.3,16.4,68.1-1.8,30.5-24.5c-9.9-6-19.7-12.3-29.3-18.8c-1.6-1.1-3.1,1.5-1.5,2.6
				c37,25,76.4,46.8,118.8,61.3c41.3,14.1,84.7,20.8,128.3,21.4c53.5,0.7,106.8-7,159-17.9c71.3-14.9,141.3-36,210.6-58.6
				c45.1-14.7,91.5-27.8,139.3-28.1c31.6-0.2,62,6.2,92.3,14.5c32.4,8.9,64.7,17.6,98.1,21.7c51.3,6.2,103.2,3.2,154.2-3.7
				c34.8-4.7,69.3-14.1,104.3-16c28-1.5,55.8,2,82.7,9.4c58.9,16.1,113.5,45.4,170.4,67c17.9,6.8,36,13.1,54.3,18.9
				C1513.9,49.8,1514.7,46.9,1512.9,46.3L1512.9,46.3z"/>
		</g>
	</g>
	<g>
		<g>
			<path class="st22" d="M1512.9,44.2c-36.3-11.5-71.5-25.9-105.9-42.2c-26.7-12.6-52.8-26.4-80-37.9c-22.5-9.6-45.8-17.4-70.1-20.4
				c-30-3.7-58.3,1.4-87.6,7.5c-60.5,12.6-122.7,21.7-184.6,19c-36.9-1.6-72.9-8.5-108.1-19.6c-26.8-8.5-53.2-18.7-81.1-23.2
				c-34.2-5.5-68.7-1.8-102.1,6.3c-31.1,7.6-61,19-91.3,29c-37.1,12.2-74.5,23.7-112.1,34c-61.8,16.9-124.9,30.9-188.9,36
				c-49.4,3.9-99.5,2.1-147.7-9.7c-44.1-10.8-85.5-30-123.3-54.9c-9.8-6.5-19.3-13.3-28.6-20.4c-1.5-1.2-3,1.4-1.5,2.6
				C36.2-22,75.9,1.2,119.3,16.2c43.9,15.2,90.2,21.5,136.5,21.5c58.3-0.1,116.3-9.5,173-22.4c75.4-17.1,148.9-41,222.1-65.8
				c38.9-13.2,80-23.5,121.4-21.4c28.6,1.5,55.6,9.8,82.6,18.7c31.3,10.4,62.7,19.5,95.5,23.6c51.6,6.5,104.1,2.7,155.3-4.8
				c18.4-2.7,36.8-6,55.1-9.6c17.6-3.5,35-8,52.9-9.8c26.9-2.6,53.6,0.6,79.4,8.5c26,8,50.5,19.9,74.9,31.8
				c29.3,14.3,58.6,28.6,88.9,40.8c18.1,7.3,36.5,13.9,55.2,19.8C1513.9,47.7,1514.7,44.8,1512.9,44.2L1512.9,44.2z"/>
		</g>
	</g>
	<g>
		<g>
			<path class="st23" d="M1512.9,41.3c-35.3-11.7-69.7-26.1-103.4-41.8c-26.6-12.4-52.8-25.7-79.9-37.1
				c-24.8-10.5-50.4-19.2-77.2-23.1c-28.2-4.1-56.8-2.8-84.7,2.6c-35.7,6.9-70.9,14.8-107,19.2c-27.2,3.3-54.7,5.2-82.1,4.8
				c-39-0.5-77.4-6.4-114.9-17c-28.7-8.1-56.9-18.4-86.3-23.6c-34.3-6.1-69-4.2-103.1,2.9c-28.4,6-55.7,15.6-83.3,24.5
				C555-35.6,518.6-24.3,482-14C423.2,2.6,363.4,17.3,302.5,23.7c-47.6,5-95.9,4.5-142.7-5.9C114.3,7.7,71.7-11.5,32.3-36.1
				c-10.6-6.6-20.9-13.5-31-20.7c-1.6-1.1-3.1,1.5-1.5,2.6c38.7,27.5,80.3,51,125.6,65.7c43.5,14.1,89.3,19.4,134.9,18.1
				c128.4-3.8,251.6-49.8,372.9-87.5c38.6-12,79-20.1,119.5-17c30.1,2.3,58.8,11.1,87.4,19.9c33.2,10.1,66.6,18.5,101.2,21.8
				c54.2,5.2,108.9,0.1,162.3-9.1c35.1-6,69.8-16.4,105.5-17.8c28-1.1,55.7,3.1,82.4,11.5c58.1,18.1,111.1,50.2,167.3,73.2
				c17.5,7.2,35.2,13.7,53.2,19.7C1513.9,44.8,1514.7,41.9,1512.9,41.3L1512.9,41.3z"/>
		</g>
	</g>
	<g>
		<g>
			<path class="st24" d="M1512.9,38.3c-62.6-21.8-120.6-53.1-181.6-78.6c-53.7-22.5-109-33.7-167.1-26
				c-34.1,4.6-67.4,13.9-101.5,19.1c-28.8,4.4-57.8,7.3-86.9,7.9c-41.6,0.8-82.8-4-123.2-13.9c-30.8-7.6-60.9-17.9-92.1-23.8
				c-34.6-6.5-69.6-6.4-104.3-0.4c-26.4,4.6-51.8,12.5-77.4,20.5C544-45.8,509.1-34.9,474-24.7c-55.1,16-110.8,31-167.7,38.9
				c-46.4,6.4-93.7,7.4-139.8-1.7C119.6,3.3,75.6-16,34.7-40.2C23.3-46.9,12.2-54,1.3-61.3c-1.6-1.1-3.1,1.5-1.5,2.6
				C40.6-31.4,84.3-7.5,131.5,6.9C174.1,19.8,218.6,24,263,21.5c52.8-3,104.8-14.4,155.8-27.8c31.7-8.3,63.2-17.5,94.5-27
				c34.2-10.4,68-22.1,102.4-31.7c38.7-10.8,78.9-16.7,119.1-12.7c31.6,3.2,62,12.5,92.5,20.9c35.8,9.9,72,17.4,109.1,19.7
				c56.7,3.5,113.6-3.5,169.1-14.6c33.9-6.8,67-14.7,101.8-14.3c29.1,0.3,57.8,5.6,85.5,14.5c58.3,18.8,112,49.9,168.5,73.3
				c16.7,7,33.7,13.4,50.8,19.4C1513.9,41.8,1514.7,38.9,1512.9,38.3L1512.9,38.3z"/>
		</g>
	</g>
	<g>
		<g>
			<path class="st25" d="M1512.9,35.3c-60.2-21.8-116.7-51.6-175.5-76.6c-51-21.6-103.9-35.6-159.6-33.3
				c-34.1,1.4-66.8,9.3-100.1,16c-31.1,6.2-62.6,10.9-94.3,13c-45.1,3.1-90.2,0.4-134.5-8.6c-33.7-6.8-66.6-17.1-100.3-24
				c-35.6-7.3-71.7-9.3-107.9-4.6c-23.3,3-46.3,8.4-68.8,15.2C538-57.4,504.3-47,470.4-36.8C417.4-20.9,364-5,309.4,4.5
				c-44.7,7.8-90.4,10.4-135.3,2.9c-47.9-8.1-93-27.1-135.2-50.7C26.1-50.5,13.6-58,1.3-65.9c-1.6-1-3.1,1.6-1.5,2.6
				C43.1-35.8,89-11.4,138.7,2.5c42.2,11.8,86.1,14.8,129.6,10.6C318.7,8.3,368.1-4.3,416.7-18c31.1-8.8,62.1-18.2,93.1-27.6
				c30.7-9.3,61.4-19.8,92.7-27.1c39.6-9.3,80.1-12.4,120.4-6.8c33.5,4.6,65.9,14.4,98.6,22.4c39.2,9.5,79,15.5,119.4,15.9
				c27.2,0.3,54.3-1.6,81.2-5.1c33.5-4.3,66-12.1,99.1-18.4c60.4-11.6,120.4-7.8,178.5,12.2c56.1,19.4,108.5,48.4,163,71.5
				c16.3,6.9,32.7,13.3,49.3,19.4C1513.9,38.9,1514.7,36,1512.9,35.3L1512.9,35.3z"/>
		</g>
	</g>
	<g>
		<g>
			<path class="st26" d="M1512.9,32.4c-56.1-21.2-109.4-48.5-164.3-72.5c-47.6-20.7-97-36.8-149.2-40c-30.1-1.8-60.3,0.4-90,5.3
				c-33.8,5.7-66.9,14.6-100.9,19.4C957.6-48.2,906-47.2,855-54.5c-74.5-10.7-145.6-38.5-221.9-33.7C578.3-84.7,525.8-66.8,473.5-51
				C421.3-35.2,369.2-18,315.9-6.3c-43,9.5-87,14.4-130.9,8.7C134.3-4,86.4-23.5,41.6-47.4c-13.7-7.3-27.1-15-40.3-23
				c-1.7-1-3.2,1.6-1.5,2.6C46-39.9,95-14.6,147.8-1.5c41.4,10.3,83.9,11.6,126.1,5.9c49.6-6.8,97.8-21.4,145.6-35.8
				c30.1-9.1,60.1-18.4,90.3-27.3c27.9-8.3,55.9-16.8,84.6-21.8c40.6-7,81.6-6.6,122.1,0.4c36.3,6.2,71.7,16.5,107.9,23.5
				c44.7,8.7,90.1,12,135.6,9.2c29.8-1.8,59.5-6,88.8-11.7c34.4-6.7,68.1-15.2,103.2-17.7c55.6-3.8,109.8,6,161.8,25.7
				C1367-31,1417.5-3.9,1469.9,18.3c14,5.9,28,11.6,42.2,17C1513.9,36,1514.7,33.1,1512.9,32.4L1512.9,32.4z"/>
		</g>
	</g>
	<g>
		<g>
			<path class="st27" d="M1512.9,29.4c-52.4-20.5-102.6-45.9-153.9-68.7c-45.4-20.2-92.3-37.3-141.8-44
				c-60.3-8.1-118.9,0.5-177.9,13.4c-55.8,12.2-112.9,18.1-169.9,14c-81.9-5.9-160.5-36.4-243-36.3c-53.2,0-103.8,13.5-154.5,28.5
				c-50.8,15-100.8,32.8-151.9,46.5c-41,11-83.1,18-125.7,14.2C142.2-7.5,92.7-27,46.4-50.4C31.1-58.1,16.1-66.4,1.3-75
				c-1.7-1-3.2,1.6-1.5,2.6C48.9-44,101-17.8,156.8-5.7c41,8.9,82.6,8.5,123.7,0.7c47.2-8.9,92.8-24.9,138.5-39.4
				c55-17.4,111-36.7,168.6-42.8c42.1-4.5,83.9-0.9,125.4,7c39.9,7.6,79.3,17.7,119.5,23.3c49.6,6.9,99.7,6.7,149.3,0.1
				c33.4-4.4,65.9-13,99-19c30.8-5.6,62.2-8.7,93.5-7.9c52.1,1.2,102.3,13.9,150.5,33.1c50,20,97.9,45,147.3,66.4
				c13.2,5.7,26.5,11.2,39.9,16.5C1513.9,33,1514.7,30.1,1512.9,29.4L1512.9,29.4z"/>
		</g>
	</g>
	<g>
		<g>
			<path class="st28" d="M1512.9,26.5c-94.2-38.1-183.4-94.3-284.6-112.5c-54.9-9.9-111-7.9-165.9,1.7
				c-33.2,5.8-65.6,14.7-99.1,19.4c-29,4-58.2,5.9-87.5,5.3c-48-1-95-9.4-142-18.6c-43-8.4-86.1-16.5-130-17.1
				c-101.9-1.3-195.6,41-291.2,70.3C274.8-13.6,236-6,196.3-9C144.5-12.8,94.9-32.2,48.7-54.7c-16-7.8-31.8-16.1-47.4-24.8
				c-1.7-0.9-3.2,1.7-1.5,2.6c50.5,28,104,54.3,161,65.9c38.8,7.9,78,7.1,116.6-1.6c42.1-9.4,82.4-25.3,123.2-38.9
				C453.1-69,507.3-86,562.7-90.9c46.4-4.1,92.4,0.8,138,9.2c44.3,8.1,88.3,18.1,133.2,22.4c55.9,5.4,112,1.9,167-9.2
				c34.1-6.8,67.5-15.1,102.2-18.7c28.4-2.9,57-3.5,85.4-1.2c103.2,8.6,192.9,60.7,285.7,101.7c12.5,5.5,25.1,10.8,37.7,16
				C1513.9,30.1,1514.7,27.2,1512.9,26.5L1512.9,26.5z"/>
		</g>
	</g>
	<g>
		<g>
			<path class="st29" d="M1512.9,23.5c-92.5-38.7-180.3-92.6-279.4-113.1c-53.5-11.1-108.5-11.7-162.6-4.7
				c-34.4,4.5-67.7,13.2-101.7,19.6c-31.2,5.9-62.8,9.2-94.5,9.7c-53.8,0.7-106.8-7.6-159.7-17c-48.8-8.7-97.7-17.1-147.4-16.8
				C513.8-98.4,461.1-87.4,410-71.1C372.3-59,336.1-43.1,298.6-30.5c-33.5,11.4-68,18-103.5,15.4C144-18.9,94.8-38.3,48.9-60
				C32.8-67.6,17-75.7,1.3-84.1C-0.4-85-2-82.4-0.3-81.5c81.9,43.6,174.5,86,268.9,63c35.6-8.7,69.3-23.7,103.6-36.4
				c47.8-17.7,97.5-32.5,148.3-38.2c52.6-5.9,105.1-0.9,157.1,7.7c49.8,8.3,99.4,18.6,149.8,22.1c28.9,2,57.9,1.9,86.7-0.7
				c33.2-2.9,65.3-9.9,97.8-17c59.6-13,121-19,181.8-12c101.5,11.7,190.5,62.5,282.1,103.7c11.9,5.4,23.9,10.6,36,15.6
				C1513.9,27.2,1514.7,24.3,1512.9,23.5L1512.9,23.5z"/>
		</g>
	</g>
	<g>
		<g>
			<path class="st30" d="M1513.3,20.7c-90.1-38.8-176-90.5-272.3-113.1c-52.3-12.2-106.1-15.2-159.5-10.7
				c-33.1,2.8-66,8.3-98.4,15.5c-34.7,7.7-69.1,14.6-104.7,16.7c-118.2,6.8-232.4-33.6-350.3-30.9c-50.8,1.2-101.3,10.4-149.1,27.8
				c-30.9,11.2-60.1,26.2-90.8,38c-30,11.5-61.1,17.4-93.2,15C144.1-24.7,95-44.2,49.1-65.2C33-72.6,17.1-80.5,1.3-88.6
				C-0.5-89.5-2-86.9-0.3-86c51.2,26.3,104.9,51.7,161.7,63.3c33.3,6.8,67.2,7.3,100.1-1.4C291.2-32,318.8-46,346.9-58
				c39.7-17.1,80.9-29.8,123.7-36c60.5-8.8,121.3-4.1,181.5,4.8C709-80.7,765.5-69.8,823-67.5c31.2,1.3,62.5,0.1,93.5-4
				c35.5-4.7,69.9-14.6,105.2-20.7c58.9-10.3,119.3-13.5,178.6-4.8c98.8,14.5,186,63.2,275.5,104.4c11.9,5.5,23.9,10.8,35.9,16
				C1513.5,24.1,1515,21.5,1513.3,20.7L1513.3,20.7z"/>
		</g>
	</g>
	<g>
		<g>
			<path class="st31" d="M1513.3,17.8c-88.6-39.3-173.5-89.7-268.1-113.6c-51-12.9-103.6-17.5-156.1-15c-31.9,1.5-63.6,5.6-95,11.3
				c-36.2,6.6-71.7,16.9-108.3,21.1C750.8-63,619.1-110,484.4-104.4c-44.6,1.8-88.9,8.6-130.2,26.2c-25.3,10.8-48.7,25.4-73.8,36.5
				c-27.3,12.1-56.1,17.3-85.9,15c-50-3.8-98.6-23-144-43.1C33.9-77.2,17.5-85,1.3-93.1C-0.5-94-2-91.4-0.3-90.6
				c51.7,25.7,105.8,50.7,162.7,62.3c31.4,6.4,63.8,7.6,94.8-1.6c25.3-7.5,48.1-21,71.4-32.9c29.5-15.1,60.3-26.6,93-32.2
				c68.3-11.7,137.5-6.7,205.8,2.4c65.9,8.7,131.7,20.4,198.3,20.5c33.7,0,67.4-3,100.4-9.7c35.7-7.3,70.8-16.1,107-20.9
				c57.2-7.6,115.5-8.3,172.5,1.5c96.9,16.7,182.9,64.1,270.9,105.4c11.7,5.5,23.4,10.9,35.2,16.1
				C1513.5,21.1,1515,18.5,1513.3,17.8L1513.3,17.8z"/>
		</g>
	</g>
	<g>
		<g>
			<path class="st32" d="M1513.3,14.8c-88.4-40.3-173.3-90.3-267.9-115.1c-51.5-13.5-104.8-19-158-17.4c-31.4,1-62.7,4.3-93.8,9.2
				c-36.9,5.9-72.8,16.4-109.7,22.3c-71.4,11.6-144.1,4.2-215.3-4.5c-72.8-8.9-145.8-19.5-219.4-16.9C409.9-106,371-102.2,335.6-84
				c-20.8,10.6-39.2,25.1-59.8,36c-24.4,12.9-50.9,17.8-78.5,16C147-35.3,97.8-54.6,52-74.4C34.9-81.8,18-89.6,1.3-97.7
				c-1.7-0.8-3.3,1.8-1.5,2.6c52.7,25.4,107.7,50.4,165.5,61.8c29.8,5.9,61.1,7.4,90.2-2.5c21.9-7.5,40.8-21,60.2-33.2
				c23.3-14.6,47.9-25.6,75.2-30.1c70.9-11.8,144.8-4.4,215.7,4c71.1,8.5,142.4,19.8,214.1,17.9c35.1-0.9,69.2-6,103.3-14.1
				c35.8-8.5,72-15.2,108.6-19.2c57.2-6.3,115.3-5.9,172,4.5c97.3,17.8,184,65.1,272.3,107.4c11.5,5.5,23.1,11,34.7,16.2
				C1513.5,18.2,1515,15.6,1513.3,14.8L1513.3,14.8z"/>
		</g>
	</g>
	<g>
		<g>
			<path class="st33" d="M1513.3,11.8c-90.7-42.4-178.1-93.9-275.8-118.8c-53.8-13.7-109.3-19.1-164.8-17.2
				c-33.3,1.1-66.5,4.7-99.5,10.1c-19.2,3.1-38.4,6.9-57.4,11.1c-17.3,3.9-34.5,8.6-52,11.6C795.3-79.5,724.4-86,655.7-93
				c-74.3-7.6-148.6-17.6-223.4-17.7c-36.6-0.1-76.6-1.5-109.1,18c-17.6,10.5-31.9,25.6-48.8,37c-21.5,14.5-46,19.8-71.8,18.7
				c-50.4-2.2-100.1-21.5-146-40.6c-18.6-7.8-37-16.1-55.3-24.6c-1.7-0.8-3.3,1.8-1.5,2.6c54.7,25.7,112.1,51.3,172,62.1
				c28.4,5.1,58.8,6.4,85.8-5.4c19-8.3,33.9-22.4,49.9-35.1c18.8-14.8,39.5-24.7,63.5-27.2c72.8-7.5,147,0.6,219.4,8.3
				c71.2,7.6,142.8,17.1,214.5,14.4c33.4-1.3,65.3-6.7,97.7-14.4c37.3-8.8,75.2-15.8,113.3-20.1c60.3-6.8,121.5-6.4,181.3,4.3
				c100.1,18,189.1,66.1,279.4,110.3c11.6,5.7,23.3,11.3,35.1,16.8C1513.5,15.2,1515,12.7,1513.3,11.8L1513.3,11.8z"/>
		</g>
	</g>
	<g class="st11">
		<g>
			<path class="st33" d="M1513.3,8.4c-80.9-49.7-163.3-98.8-256.7-120.6c-50.9-11.9-103.4-15.9-155.6-14.6
				c-69.1,1.8-136.6,13.4-204.4,25.9c-65.3,12-133,7.4-198.7,1.8c-71.8-6.1-143.5-15.2-215.6-17.4c-33-1-66.5-0.9-99.4,3.1
				c-13.2,1.6-26,4.9-38.3,10c-21.2,8.8-39.5,22.7-59.4,33.9C213.9-29.4,128.4-57.3,57.4-84c-18.9-7.1-37.6-14.8-56.2-22.8
				c-1.8-0.8-3.3,1.8-1.5,2.6c55.6,24,113.8,47.3,174.2,55.6c30.9,4.2,62.6,3.5,91.9-8.2c21.3-8.6,39.7-22.5,59.5-33.8
				c10.6-6.1,21.8-11.3,33.5-14.8c20.3-6.1,41.9-7,62.9-7.9c140.4-5.9,279.3,29.4,419.6,21.7c33.4-1.8,65.6-8.6,98.5-14.5
				c35.7-6.4,71.6-11.5,107.7-14.6c56.8-4.9,114.3-5,170.7,4C1313.2-101.5,1397.5-58.2,1479-9c11,6.6,21.9,13.3,32.8,20
				C1513.4,12,1514.9,9.4,1513.3,8.4L1513.3,8.4z"/>
		</g>
	</g>
	<g class="st10">
		<g>
			<path class="st33" d="M1513.6,5.2c-70.9-55.4-147.2-103.4-236.2-122.7c-111.3-24.1-228.8-9.8-340.1,6.7
				c-31.8,4.7-63.3,8.2-95.5,8.6c-32.9,0.4-65.9-1.2-98.8-3.4c-69.8-4.8-139.3-12.8-209.1-16.2c-33.2-1.6-66.5-2.3-99.7-0.4
				c-20.9,1.2-42,2.8-62.3,8.2c-25.7,6.9-48.8,19.7-72.8,30.8c-28,13-57.2,20.9-88.2,21.7c-52.8,1.3-105.5-13.2-155.1-29.8
				c-18.5-6.2-36.8-13-55-20.1c-1.8-0.7-2.6,2.2-0.8,2.9C57-86.3,116.6-65.7,177.8-59.9c33.7,3.2,67.6,0.6,99.6-11
				c24.8-9,47.4-22.6,71.9-32.4c40.3-16.1,84.5-17.1,127.3-17.1c68.5,0,136.7,7,204.9,12.9c65.6,5.6,131.8,11.4,197.7,6.8
				c33.8-2.3,67.3-8.7,100.9-13.1c33.1-4.3,66.3-8,99.5-10.3c53.4-3.7,107.3-4.3,160.4,3c43.6,6,86.2,17.9,126.3,36.1
				c40.5,18.3,78.2,42.4,114,68.7c10.5,7.7,20.9,15.6,31.2,23.7C1512.9,8.5,1515.1,6.4,1513.6,5.2L1513.6,5.2z"/>
		</g>
	</g>
	<g class="st9">
		<g>
			<path class="st33" d="M1513.6,1.7c-32.3-31.3-66.9-60.7-105.9-83.5c-34.1-19.9-71.2-33.9-110-41.7c-44.4-8.9-90.1-10.4-135.3-9.2
				c-61.5,1.5-122.8,7.6-183.9,14c-31.9,3.3-63.7,7.2-95.8,8c-31.5,0.7-63.1-0.3-94.6-2.1c-67.9-3.7-135.5-10.6-203.3-14.5
				c-59.2-3.4-120.2-6.1-179,3.5c-30.8,5-59.5,16.5-88.5,27.3c-32,11.9-64.5,20.6-98.7,22.3c-54.7,2.7-109.4-8.9-161.7-24
				c-18.8-5.4-37.5-11.4-56-17.8c-1.8-0.6-2.6,2.3-0.8,2.9c92.8,32,194.8,58.9,291.6,28.7c28.8-9,56.2-21.7,85.3-29.8
				c48.7-13.6,101.1-13.6,151.2-12.3c66.8,1.6,133.4,8,200.1,12.9c62.9,4.7,126.5,9.2,189.5,4.3c113.6-8.8,228.3-29.8,342.5-16.9
				c40.8,4.6,80.9,14.8,118.1,32.4c39,18.5,74,44.2,106.2,72.7c9.1,8.1,18.1,16.5,26.9,25C1512.8,5.2,1515,3.1,1513.6,1.7
				L1513.6,1.7z"/>
		</g>
	</g>
	<g class="st8">
		<g>
			<path class="st33" d="M1513.6-1.7c-28.2-33.3-59.3-64.9-96.1-88.8c-30.6-19.8-64.8-32.9-100.6-39.5c-41.1-7.6-83.2-7.7-124.8-6.1
				c-56.9,2.1-113.7,7.2-170.4,11.4c-32.6,2.4-65.3,5.3-98,6.2c-29.9,0.8-59.8,0-89.7-1.4c-66.3-3.1-132.5-9-198.7-12.9
				c-61.1-3.7-122.9-6.7-184-0.6c-38,3.8-74.1,13.6-110.6,24.3C303.8-98.4,266.8-89.4,228.5-87c-57.3,3.7-114.8-5-170.4-18.3
				c-19.2-4.6-38.2-9.8-57.2-15.3c-1.9-0.5-2.6,2.3-0.8,2.9C61.8-99.5,125.6-85,190.2-83.3c40.8,1.1,81-4.1,120.5-14.4
				c33.7-8.8,66.6-20.3,100.8-27c54.9-10.8,111.9-10,167.5-7.9c126.6,4.7,253.5,23.6,380.3,15.3c62.6-4.1,125.1-9.6,187.7-13.5
				c45-2.8,90.5-4.9,135.5-0.8c37.5,3.4,74.5,12.1,108.2,29.2c36.8,18.6,68.4,45.7,96.5,75.5c8.4,8.9,16.4,18,24.3,27.3
				C1512.7,1.9,1514.8-0.3,1513.6-1.7L1513.6-1.7z"/>
		</g>
	</g>
</g>
</svg>
