<?xml version="1.0" encoding="utf-8"?>
<!-- Generator: Adobe Illustrator 27.5.0, SVG Export Plug-In . SVG Version: 6.00 Build 0)  -->
<svg version="1.1" id="Layer_1" xmlns="http://www.w3.org/2000/svg" xmlns:xlink="http://www.w3.org/1999/xlink" x="0px" y="0px"
	 viewBox="0 0 1512 200" style="enable-background:new 0 0 1512 200;" xml:space="preserve">
<style type="text/css">
	.st0{opacity:0;}
	.st1{fill:#238C6E;}
	.st2{opacity:0.1667;}
	.st3{opacity:0.3333;}
	.st4{opacity:0.5;}
	.st5{opacity:0.6667;}
	.st6{opacity:0.8333;}
	.st7{fill:#3C9284;}
	.st8{fill:#54979A;}
	.st9{fill:#6D9DB0;}
	.st10{fill:#86A3C6;}
	.st11{fill:#9EA8DC;}
	.st12{fill:#B7AEF2;}
	.st13{fill:#C1AFED;}
	.st14{fill:#CBB0E9;}
	.st15{fill:#D4B1E4;}
	.st16{fill:#DEB1DF;}
	.st17{fill:#E8B2DB;}
	.st18{fill:#F2B3D6;}
	.st19{opacity:9.090909e-02;}
	.st20{opacity:0.1818;}
	.st21{opacity:0.2727;}
	.st22{opacity:0.3636;}
	.st23{opacity:0.4545;}
	.st24{opacity:0.5455;}
	.st25{opacity:0.6364;}
	.st26{opacity:0.7273;}
	.st27{opacity:0.8182;}
	.st28{opacity:0.9091;}
	.st29{fill:#308F7A;}
	.st30{fill:#3E9286;}
	.st31{fill:#4B9592;}
	.st32{fill:#59989E;}
	.st33{fill:#669BAA;}
	.st34{fill:#749FB6;}
	.st35{fill:#81A2C2;}
	.st36{fill:#8FA5CE;}
	.st37{fill:#9CA8DA;}
	.st38{fill:#AAABE6;}
	.st39{fill:#BCAEEF;}
	.st40{fill:#C2AFED;}
	.st41{fill:#C7AFEA;}
	.st42{fill:#CCB0E8;}
	.st43{fill:#D2B0E5;}
	.st44{fill:#D7B1E3;}
	.st45{fill:#DDB1E0;}
	.st46{fill:#E2B2DE;}
	.st47{fill:#E7B2DB;}
	.st48{fill:#EDB3D9;}
</style>
<g>
	<g>
		<g>
			<path class="st33" d="M0.4,283.9c111.2-35.1,221-95,341.2-82c33.1,3.6,64.1,13.4,96.1,22c25.9,6.9,52.1,12.7,78.7,16.3
				c37.7,5.2,75.9,6.1,113.6,0.3c56.9-8.7,110.3-33.7,168.7-33.2c40.6,0.4,80.4,10.7,118.4,24.4c30.6,11,60.3,23.5,91.7,32.4
				c30.4,8.6,61.4,15,92.8,18.8c123.8,15,246.1-13.3,362.9-52.2c16.1-5.4,32-10.9,48-16.6c1.8-0.6,1-3.5-0.8-2.9
				c-118.9,42.2-242.7,78.9-370.2,72.2c-65.9-3.5-130.6-18.5-192.1-42.4c-41.9-16.3-84.2-31.4-129.2-35.5c-29.7-2.7-59.2,0.2-88.1,7
				c-27,6.4-53.4,15.3-80.6,21.1c-35,7.5-70.7,9.6-106.3,6.8c-25.1-2-50-6.1-74.5-11.5c-30.8-6.8-60.6-17.3-91.3-23.9
				c-55.3-11.9-111.4-9.6-166.2,3.8c-56.9,13.9-111.1,36.9-166.2,56.4c-15.6,5.5-31.4,10.8-47.2,15.8
				C-2.2,281.6-1.4,284.5,0.4,283.9L0.4,283.9z"/>
		</g>
	</g>
	<g>
		<g>
			<path class="st34" d="M0.4,279.4c57.6-18.2,112.1-44,168.7-65c51-18.9,104-30.6,158.6-23.9c32.7,4,63,15,94.3,24.9
				c26.6,8.4,53.6,15.5,81.1,20.4c37.5,6.7,75.9,9.1,113.7,3.8c55.7-7.8,106.8-35.4,163.1-39.9c37.3-3,74.4,3.7,110,14.5
				c28.8,8.8,56.6,20.7,85.4,29.7c33,10.3,66.7,18.2,100.9,23.6c131.4,20.7,264.3,0.6,388.7-44c16-5.7,31.9-11.9,47.6-18.3
				c1.8-0.7,1-3.6-0.8-2.9c-124.8,50.9-258.9,80.5-394.1,67.4c-34.6-3.3-68.9-9.3-102.6-17.8c-33.7-8.5-66-20.3-98.6-32.1
				c-37.3-13.5-76.5-23.6-116.4-23.9c-28.2-0.2-55.7,5.3-82.5,13.4c-26.3,8-52.2,17.5-79.1,23.3c-35.5,7.6-71.8,8.4-107.8,4.2
				c-25.3-3-50.3-8.3-74.9-14.8c-30.6-8.2-60.1-20.1-90.8-27.7c-53.5-13.2-107.7-10.6-160.4,5c-54.6,16.1-105.9,41.5-159.1,61.4
				c-15.1,5.6-30.4,10.9-45.8,15.8C-2.2,277.1-1.4,280,0.4,279.4L0.4,279.4z"/>
		</g>
	</g>
	<g>
		<g>
			<path class="st35" d="M0.4,274.9C57.5,256.8,110.1,229,165,205.4c50-21.6,102.1-34.5,156.7-25.2c32.8,5.6,62.9,18.9,94.2,29.8
				c26.6,9.3,53.8,17.3,81.4,22.8c37.4,7.5,76,10.4,113.9,4.7c56.3-8.6,106.3-39.6,163-46.2c37.5-4.3,75.3,1.8,111.3,12.6
				c29.5,8.8,58,20.4,87.6,29c33.2,9.6,67,17.1,101.2,22.5c132.3,20.7,269.6,8.2,394.6-40.5c14.9-5.8,29.5-12.1,44-18.8
				c1.7-0.8,0.2-3.4-1.5-2.6c-124.2,57.9-263.2,78.8-399.2,63.9c-69.4-7.6-136.2-25.1-201.9-48.5c-37.5-13.4-77.2-23-117.3-21.9
				c-57.2,1.7-106.4,30.7-161,43.5c-35.6,8.3-72.3,8.8-108.4,3.8c-25.4-3.5-50.4-9.5-74.9-16.8c-31.1-9.3-60.7-22.6-91.7-31.9
				c-52.3-15.8-105.3-14.4-156.9,3.2c-52.9,18-101.8,46.2-153.7,66.8C30.8,261.5,15.3,267-0.4,272C-2.2,272.5-1.4,275.4,0.4,274.9
				L0.4,274.9z"/>
		</g>
	</g>
	<g>
		<g>
			<path class="st36" d="M0.4,270.3c57.3-18.2,108.3-48.2,161.8-74.7c23.2-11.4,47.2-21.6,72.7-26.7c27.1-5.4,54.9-4.4,81.8,1.8
				c33.4,7.7,64.1,23.6,96.1,35.6c26.7,10,54.1,18.7,82,24.7c37.8,8.1,76.9,10.9,115.1,3.7c57.1-10.7,106.3-45.9,164.3-52.9
				c39.4-4.8,79.1,2.6,116.6,14.7c31,10,61.5,20.5,93.1,28.5c32.7,8.3,65.8,15,99.2,19.9c129.4,19,267.1,12.9,388.8-38.5
				c13.9-5.9,27.5-12.4,40.8-19.4c1.7-0.9,0.2-3.5-1.5-2.6c-118.7,62.8-258.1,76.3-390,62.3c-67.6-7.1-134.4-21.7-199-42.8
				c-42-13.8-83.6-27.7-128.4-26.5c-29.6,0.8-57.8,8.5-85.2,19.4c-26.1,10.5-51.6,22.7-78.8,30.2c-35.4,9.8-72.2,10.9-108.5,5.7
				c-25.5-3.6-50.6-10.1-75.1-17.9c-32.2-10.3-62.7-24.6-94.3-36.5c-26.8-10-55.3-16.5-84-15.9c-24.6,0.4-48.7,6.1-71.6,14.8
				c-51.3,19.6-97.6,50.6-148.1,72.2c-15.9,6.8-32.2,12.8-48.7,18C-2.2,268-1.4,270.9,0.4,270.3L0.4,270.3z"/>
		</g>
	</g>
	<g>
		<g>
			<path class="st37" d="M0.4,265.8c30.8-9.8,60.2-23.1,88.4-38.7c24.3-13.4,47.5-28.5,71.7-42.1c21.3-12,43.6-22.6,67.7-27.7
				c27.6-5.8,55.9-3.3,82.9,4.7c34.4,10.2,65.9,28.4,99.1,41.7c26.7,10.6,54,19.8,82.1,26.1c37.8,8.4,77.1,11,115.2,2.4
				c57.9-13,106.2-52.6,165.7-60.2c42.2-5.4,83.4,4.3,123.3,17.3c63,20.5,127.9,35.8,193.5,45.3c126.4,18.3,264.7,18.1,383.2-35.6
				c13.6-6.2,26.8-13.1,39.6-20.8c1.7-1,0.1-3.6-1.5-2.6c-113.3,67.7-254.5,74.6-382.6,60.8c-67.4-7.3-134.1-20.9-199-40
				c-44.9-13.2-88.4-30-135.9-28.9c-30.3,0.7-59,9-86.5,21.2c-26.4,11.7-51.8,25.8-79.3,34.9c-35.1,11.5-72,13.5-108.5,8.3
				c-61.5-8.8-117.1-34.9-173.3-59.8c-26.3-11.7-54.5-20.2-83.5-20.7c-23.9-0.4-47.2,5.1-69.1,14.3c-23.5,9.9-45.3,23.3-67.1,36.5
				c-25.3,15.3-50.8,30.2-77.8,42.4c-15.9,7.2-32.2,13.5-48.9,18.7C-2.2,263.5-1.4,266.4,0.4,265.8L0.4,265.8z"/>
		</g>
	</g>
	<g>
		<g>
			<path class="st38" d="M0.4,261.2c30.8-9.8,60-23.7,87.5-40.5c23.3-14.2,45.2-30.5,68.1-45.3c20.2-13,41.6-24.9,65.3-30
				c27.4-5.9,55.3-1.7,81.5,7.6c18.7,6.7,36.1,16.2,53.8,25c16,8,32.3,15.6,48.8,22.6c26.6,11.2,53.9,21,82,27.6
				c38,8.8,77.7,11.3,115.8,1.3c58.8-15.4,105.8-59.3,166.9-68c45.3-6.4,87.8,6.5,130.8,19.2c63.7,18.8,128.7,33.5,194.4,43.1
				c66.9,9.8,135,14.6,202.6,9.9c61-4.2,122.7-16.2,177.9-43.3c12.8-6.3,25.1-13.4,37-21.4c1.6-1.1,0.1-3.7-1.5-2.6
				c-51.7,34.8-112.9,52.4-174.2,60.4c-67.1,8.8-135.4,6.7-202.4-0.9c-67.7-7.7-134.8-21.2-200.6-39
				c-46.6-12.6-92.3-31.1-141.3-30.2c-31.5,0.6-61.3,9.7-89.4,23.6c-26.7,13.1-51.9,29.1-79.9,39.6c-95.3,35.7-197.6-9.4-282.1-53.1
				c-27-13.9-56-25.5-86.7-27.1c-23.1-1.2-45.7,4.3-66.5,14c-22.7,10.6-43.2,25.4-63.9,39.5C99.9,210,75.1,226.1,48.4,239
				c-15.8,7.6-32.1,14-48.8,19.3C-2.2,258.9-1.4,261.8,0.4,261.2L0.4,261.2z"/>
		</g>
	</g>
	<g>
		<g>
			<path class="st12" d="M0.4,256.7c31.4-10,60.8-24.8,88-43.4c22.1-15.1,42.5-32.4,64.1-48.3c18.6-13.7,38.6-26.4,61.4-31.4
				c27.8-6.1,56.2,0.5,81.9,11.5c18.5,7.9,35.6,18.4,53.3,27.8c16.9,9,34,17.5,51.5,25.3c26.6,11.9,54,22.2,82.4,29
				c38,9.1,77.8,11.2,115.5-0.2c59.7-18,105.2-66.5,168.1-76.2c46.9-7.2,90.9,7.7,135.6,19.9c64.4,17.7,129.8,32.3,195.8,42.3
				c67.3,10.2,135.7,16.1,203.7,12.2c60.4-3.4,122.3-14.5,176.2-43.2c12.1-6.5,23.7-13.8,34.7-22.1c1.5-1.1,0-3.8-1.5-2.6
				c-49,37-109.8,54.2-170.1,61.5c-67.3,8.2-135.8,4.9-203-3.2c-68-8.2-135.2-21.9-201.5-38.8c-28.4-7.2-56.3-16.2-84.7-23.2
				c-20.3-5-41.1-8.1-62-7.7c-32.7,0.7-63.2,10.9-91.8,26.4c-26.5,14.4-51.2,32-78.9,43.9c-95.5,41.1-201-8.2-284.8-54.8
				c-27.7-15.4-56.7-30.3-88.9-32.9c-22.7-1.8-44.6,3.7-64.5,14.3c-21.2,11.3-39.8,26.8-58.7,41.5c-23.5,18.3-47.6,35.8-74.2,49.4
				c-15.6,8-31.9,14.6-48.6,19.9C-2.2,254.4-1.4,257.3,0.4,256.7L0.4,256.7z"/>
		</g>
	</g>
	<g>
		<g>
			<path class="st39" d="M0.4,252.1c29.7-9.9,57.7-23.8,83.8-40.9c21.9-14.4,42.4-30.8,63.5-46.2c18.5-13.5,37.9-26.3,59.9-33.1
				c24.1-7.4,49.3-6.4,73.4,0c36.5,9.6,68.6,30,102.5,45.9c28.8,13.5,58.5,25.5,89.2,34c40.7,11.3,83.6,16.1,125.2,6.8
				c63.2-14.2,113.4-61.1,177.9-71.2c47-7.4,91.3,5.9,136.4,17.5c63.4,16.4,127.5,30.6,192.3,40.5c66.2,10.1,133.4,16.2,200.4,12.7
				c59.2-3.1,119.6-13.7,172.7-41.1c12.2-6.3,23.9-13.6,35-21.7c1.5-1.1,0-3.7-1.5-2.6c-48.9,35.9-108.9,52.5-168.4,59.3
				c-66,7.6-133,4-198.7-4.1c-66.6-8.2-132.5-21.6-197.7-37.5c-48.5-11.8-97.2-30-147.8-28.2c-33.1,1.2-64.1,11.5-93.5,26.1
				c-28.2,14-55.2,30.6-85.1,40.9c-38.3,13.1-78.6,14-118.1,6.4c-27.8-5.3-54.8-14.2-81-24.8c-17.5-7-34.7-14.9-51.6-23.3
				c-17.7-8.8-34.9-18.7-53.1-26.5c-25.2-10.9-52.4-18.9-80.1-17.3c-21.2,1.2-41.3,8.3-59.6,18.7c-20.9,11.9-39.7,27.1-58.9,41.5
				c-22.8,17.1-46.4,33.3-71.9,46.2c-14.8,7.5-30.2,13.8-46,19.1C-2.2,249.8-1.4,252.7,0.4,252.1L0.4,252.1z"/>
		</g>
	</g>
	<g>
		<g>
			<path class="st40" d="M0.4,247.6c28.6-10,55.7-23.4,81.2-39.6c21.1-13.4,40.9-28.6,61.2-43.2c17.9-12.9,36.5-25.4,57.1-33.5
				c21.5-8.4,44.4-11,67.3-8.2c34.7,4.2,66.6,18.8,97.7,34.1c30.5,15,62,28.6,94.5,38.8c43.4,13.7,89.4,21.4,134.9,14.7
				c67.5-10,122.9-55.2,190.1-66.2c20.1-3.3,40.5-3.5,60.7-1.4c26.6,2.7,52.3,10.2,78.2,16.5c62.1,15.2,124.6,28.9,187.8,38.6
				c65.1,10,131.2,16.2,197.1,13c57.9-2.8,116.9-12.9,169.1-39.1c12.3-6.2,24.2-13.3,35.4-21.3c1.6-1.1,0.1-3.7-1.5-2.6
				c-48.8,34.7-108,50.8-166.9,57.2c-64.6,7-130.2,3.3-194.5-4.8c-65.2-8.2-129.8-21.3-193.8-36.3C907.6,153,859,136.6,808.6,139
				c-34.4,1.7-66.8,12.2-98,26.2c-30.2,13.5-59.7,29-91.9,37.4c-41.8,11-85.1,8.9-126.9-0.8c-31.7-7.4-62.4-18.7-92.2-31.8
				c-32.8-14.4-63.9-32.6-98.4-42.8c-23.5-6.9-48.2-10.4-72.6-6.7c-20.8,3.1-40.2,11.5-58.2,22.3c-19.8,11.9-38.1,26.1-56.8,39.6
				c-22,15.9-44.6,30.9-68.8,43.2c-14.6,7.4-29.8,13.8-45.2,19.2C-2.2,245.3-1.4,248.2,0.4,247.6L0.4,247.6z"/>
		</g>
	</g>
	<g>
		<g>
			<path class="st41" d="M0.4,243c50.4-18.4,93.5-47.7,136.9-78.4c35.8-25.3,73.3-47.5,118.5-47.2c66.8,0.4,124.7,39.6,185.7,61.3
				c46.9,16.7,96.8,27.8,146.7,23.7c36.2-3,70.3-14.4,103.8-28c32.5-13.2,64.9-26.9,99.8-32.8c20.5-3.4,41.4-4.2,62.2-2.5
				c26.6,2.1,52.3,8.7,78.2,14.6c61,14,122.3,27.2,184.2,36.9c63.6,9.9,128.3,16.3,192.7,13.8c57.6-2.3,116.4-11.9,168.6-37.5
				c12.2-6,23.8-12.8,35-20.5c1.6-1.1,0.1-3.7-1.5-2.6c-48.7,33.6-107,49.1-165.3,55.1c-63.7,6.5-128.1,2.4-191.4-5.8
				c-64.2-8.3-127.7-21.1-190.9-35.3c-48.8-10.9-97.4-25.4-148-21.9c-35.6,2.5-69.3,13.4-102.2,26.7c-32.7,13.2-65.1,27.2-99.9,33.6
				c-46.2,8.5-93.2,3-138.1-9.7c-33.7-9.5-66.3-22.7-98-37.6c-29.3-13.8-59.6-26.2-91.8-31.7c-22.1-3.7-44.8-3.8-66.7,1.5
				c-19.3,4.7-37.3,13.5-54.2,23.9c-41.6,25.6-78.8,57.3-122.7,79.3c-13.8,6.9-28,13-42.6,18.3C-2.2,240.8-1.4,243.7,0.4,243
				L0.4,243z"/>
		</g>
	</g>
	<g>
		<g>
			<path class="st42" d="M0.4,238.5C48.3,220.4,90.2,193,132,164.1c33.9-23.4,69.2-46,111.1-50.3c62-6.3,118.2,22.5,173.9,44.9
				c51.1,20.6,105.6,35.8,161,35.1c39-0.5,76.5-9.8,113.2-22.5c34.9-12,69.4-25.7,105.9-32.1c21.3-3.8,43-5.1,64.7-4
				c26.2,1.3,51.7,6.8,77.3,12.2c60.7,12.8,121.4,25.8,182.6,35.4c62.6,9.8,126.1,16.5,189.5,14.4c56.7-1.9,114.4-11,166.1-35.5
				c12.3-5.8,24.1-12.5,35.4-20.1c1.6-1.1,0.1-3.7-1.5-2.6c-48.5,32.5-106.1,47.5-163.7,52.9c-62.7,5.9-126.1,1.5-188.4-6.8
				c-63.2-8.3-125.7-21-188.1-34.2c-49.2-10.4-97.8-22.6-148.4-18.3c-76,6.5-142.8,48.6-218.5,56.4c-51.4,5.3-102.8-4.2-151.5-20.6
				c-60.2-20.2-116.3-54.6-181.1-58.4c-41.7-2.5-79.1,11.2-113.9,33.1c-39.6,24.9-76.1,53.9-118.1,74.8c-13,6.5-26.3,12.2-39.9,17.4
				C-2.2,236.3-1.4,239.2,0.4,238.5L0.4,238.5z"/>
		</g>
	</g>
	<g>
		<g>
			<path class="st43" d="M0.4,233.9c45.2-17.8,85.8-43.1,125.8-70.2c32.2-21.8,65.3-43.8,104.1-51.6c52.2-10.6,106.1,4.6,154.6,23.3
				c32.3,12.5,63.8,26.2,97.3,35.3c25.9,7,52.5,11.8,79.3,13.5c42.6,2.6,84.5-4.2,125.4-15.8c37.9-10.7,74.9-24.2,113.7-31.4
				c21.8-4,44-6,66.3-5.6c26.7,0.5,52.7,4.9,78.9,9.9c60.6,11.6,121,24.4,182,34c61,9.6,122.9,16.5,184.7,15
				c56-1.4,113-9.8,164.3-33.3c12.5-5.7,24.5-12.3,36-19.8c1.6-1,0.1-3.6-1.5-2.6c-102.2,66.2-235.5,58.4-350.9,42.5
				c-61.4-8.5-122.1-20.7-182.9-32.7c-50.2-9.9-99.4-19.7-150.8-14.2c-80.8,8.6-154.3,49.1-236.3,51.4
				c-57.1,1.6-113.2-12.7-166.1-33.4c-53.7-21.1-108.2-45-167.3-42.4c-38.7,1.7-73.2,17-105.5,37.5c-37.6,23.8-73.1,50.4-113,70.4
				c-12.7,6.4-25.7,12.1-39,17.3C-2.2,231.8-1.4,234.7,0.4,233.9L0.4,233.9z"/>
		</g>
	</g>
	<g>
		<g>
			<path class="st44" d="M0.4,229.4c42.8-17.4,81.9-41,120.3-66.5c30.9-20.5,62.3-41.6,98.4-51.6c45.5-12.6,93.3-5.8,138.1,6.9
				c33.3,9.4,64.7,23.5,97.5,34.4c27.9,9.3,56.6,16.5,85.9,20.3c46.1,6,92.2,2.4,137.5-7.5c41.6-9.1,82.2-22.5,124.1-30.3
				c50.3-9.4,99.6-8.2,149.9,0.3c59.6,10.1,118.8,22.3,178.6,31.8c60.4,9.6,121.6,17,182.8,16.1c55.8-0.8,112.5-8.8,163.9-31.7
				c12.3-5.5,24.1-11.8,35.5-18.9c1.6-1,0.1-3.6-1.5-2.6c-102.3,64.1-233.2,55.3-347.7,39c-60.4-8.6-120.2-20.5-180.3-31.3
				c-26.9-4.8-53.9-10-81.2-11.9c-24.2-1.7-48.4-1-72.5,2c-42.2,5.2-82.8,17.3-123.9,27.8c-43.8,11.2-88.1,19.1-133.5,17.1
				c-28.2-1.2-56.2-5.9-83.6-13c-33.5-8.7-65-22.4-97.6-33.8c-46.7-16.3-97.3-29.2-147.1-22.7c-36.1,4.7-68.3,20.8-98.7,40
				c-36.2,22.9-70.9,47.7-109.4,66.8c-11.9,5.9-24,11.4-36.3,16.4C-2.2,227.2-1.4,230.1,0.4,229.4L0.4,229.4z"/>
		</g>
	</g>
	<g>
		<g>
			<path class="st45" d="M0.4,224.9c40.5-17,78.1-39.1,115-63c29.7-19.2,59.5-39.2,93.2-50.6c39.5-13.3,81.5-12.7,122.1-5.2
				c62.8,11.5,120.3,40.5,182.7,53.2c50.1,10.2,101,10.3,151.4,2.4c45.7-7.2,90.2-19.9,135.6-28.3c52.8-9.7,105.3-11.4,158.5-3.8
				c59.1,8.5,117.6,20.2,176.6,29.6c111.1,17.8,234.6,33.1,341.2-12.7c12.4-5.3,24.4-11.5,36-18.6c1.6-1,0.1-3.6-1.5-2.6
				c-102.5,62-231,52-344.6,35.5c-59.5-8.6-118.4-20.3-177.8-29.8c-27.1-4.3-54.4-8.5-81.9-9.5c-25.7-0.9-51.4,0.6-76.9,4
				c-45.6,6.1-90,18.4-135,27.5c-49,9.9-98.7,14.6-148.5,8.5c-31.1-3.8-61.6-11.3-91.3-21.3c-31.3-10.6-62-22.6-94.2-30.7
				c-42-10.6-86.3-16.6-129.2-7.8c-33.7,6.9-63.9,23-92.8,41.1c-34.6,21.7-68.3,44.7-104.9,63c-11.4,5.7-22.9,11-34.7,15.9
				C-2.2,222.7-1.4,225.6,0.4,224.9L0.4,224.9z"/>
		</g>
	</g>
	<g>
		<g>
			<path class="st46" d="M0.8,220.2c38.7-16.7,75-37.8,110.7-60.3c28.4-17.9,56.8-36.6,88.5-48.5c34.8-13.1,71.9-16.2,108.8-12.7
				c26.2,2.5,52.1,7.9,77.6,14.6c31.7,8.3,62.2,20.1,93.6,29.1c54.6,15.7,111.2,20.2,167.7,14.8c50.3-4.8,99.6-16.6,149.3-25.3
				c55.3-9.7,111-14.1,166.9-7.8c58.8,6.6,117,17.8,175.4,27.1c110.4,17.7,232.3,34.4,338.7-10.2c12-5,23.6-10.9,34.8-17.4
				c1.7-1,0.2-3.6-1.5-2.6c-103.1,60.1-229.7,48.6-342.9,31.8c-58.6-8.7-116.7-20-175.4-28c-28.1-3.8-56.3-6.8-84.7-6.8
				c-26.3,0-52.4,2.2-78.4,5.8c-50.8,7-100.6,19.3-151.3,26.7c-55.8,8.1-112.1,8.6-167.4-3.3c-32.3-6.9-63.1-18.7-94.6-28.4
				c-27.4-8.4-55.3-15.5-83.7-20c-37.8-6-76.8-6.8-114,3.3c-31.2,8.5-59.5,24.4-86.9,41.4C98.8,164,66.1,185.3,31,202.8
				C20.6,208,10,212.9-0.8,217.6C-2.5,218.3-1,220.9,0.8,220.2L0.8,220.2z"/>
		</g>
	</g>
	<g>
		<g>
			<path class="st47" d="M0.8,215.6c36.6-16.2,71.3-35.9,105.3-56.9c27.1-16.7,54.2-34.1,83.7-46.3C270,79.4,358.7,98,439,121.4
				c31.2,9.1,61.7,19.3,93.8,24.5c28.5,4.6,57.5,6.3,86.4,5.6c55.7-1.4,110.6-11.5,165.5-20.3c58.9-9.4,118.3-16.4,178-12.7
				c59.9,3.8,119.2,14.9,178.3,24.3c109.7,17.5,230,36.2,336.3-6.7c12.2-4.9,24.1-10.7,35.5-17.1c1.7-0.9,0.2-3.5-1.5-2.6
				c-103.8,58.4-228.8,45-341.7,27.8c-57.7-8.8-115.2-19.5-173.3-25.8c-59.1-6.4-117.6-3.9-176.4,4.3c-56.5,7.9-112.5,19.6-169.4,24
				c-61.1,4.7-121.8-0.6-180.4-19.1c-82.6-26-177-52.7-262.8-24.9c-29,9.4-55.5,24.5-81.4,40.2c-31.7,19.3-63.1,39-96.4,55.7
				c-10,5-20,9.7-30.2,14.2C-2.5,213.8-1,216.4,0.8,215.6L0.8,215.6z"/>
		</g>
	</g>
	<g>
		<g>
			<path class="st48" d="M0.8,211.1c35.4-16.1,69.2-35.1,102.6-55c25.9-15.4,51.7-31.4,79.6-43.2c73.7-31.3,154.4-21.2,230.4-4
				c31,7,61.4,16.7,92.4,23.9c28.1,6.5,56.9,9.9,85.7,10.9c58.6,2.1,117-5.6,174.9-13.4c62.1-8.4,124.3-16.9,187.1-16.5
				c61,0.4,121.5,10,181.6,19.4c111.5,17.5,232.7,39.9,341.5-2c12.4-4.8,24.4-10.4,36.1-16.7c1.7-0.9,0.2-3.5-1.5-2.6
				c-106.6,57.7-232.3,40.6-347,22.8c-58.1-9-116.3-19.2-175-22.8c-62.6-3.8-125,2.3-187,10.5c-59.1,7.8-118.2,17.2-177.9,18.4
				c-30,0.6-60.1-0.8-89.8-5.6c-31.5-5-61.8-14.9-92.7-22.7c-77.6-19.6-163.4-36.3-241.4-9.7c-27.9,9.5-53.7,23.8-78.9,38.8
				c-30.9,18.3-61.6,36.9-93.7,53.1c-9.5,4.8-19.1,9.3-28.7,13.8C-2.5,209.3-1,211.9,0.8,211.1L0.8,211.1z"/>
		</g>
	</g>
	<g>
		<g>
			<path class="st18" d="M0.8,206.5c33.8-15.8,66.3-33.8,98.6-52.4c25.5-14.7,51-29.7,78.1-41.1c67.9-28.4,141.4-24.3,212.6-12.5
				c28.7,4.7,57.2,10.8,85.5,17.4c28.4,6.7,56.3,13.4,85.4,16.1c60.4,5.7,121.4,0.6,181.6-5.6c65-6.7,129.8-15.2,195.2-17.8
				c63.3-2.5,125.6,3.2,188.1,12.5c114,16.9,236.7,44.1,348.9,3.5c13-4.7,25.7-10.4,38-16.8c1.7-0.9,0.2-3.5-1.5-2.6
				c-110.5,57.5-238,35.4-355.5,17.3c-60.5-9.3-121.1-17.9-182.4-17.7c-65.2,0.2-130.1,7.6-194.8,14.7
				c-61.3,6.7-123,13.6-184.7,11.5c-29.3-1-58.6-4.1-87.2-10.8c-30.1-7-60.1-14.4-90.5-20.2c-72.9-13.9-150.9-23.4-222.6,1.5
				c-26.6,9.2-51.4,22.5-75.8,36.4c-30.1,17.1-59.8,34.6-90.7,50.3c-9.2,4.7-18.5,9.2-27.8,13.5C-2.5,204.8-1,207.3,0.8,206.5
				L0.8,206.5z"/>
		</g>
	</g>
	<g class="st28">
		<g>
			<path class="st18" d="M0.8,197.7c35-16.9,69.2-35.5,103.3-54.2c25.6-14,51.4-28,78.8-38.2c65.6-24.6,135.8-19.6,203.7-9
				c27.2,4.2,54.3,9.4,81.2,15.1c29.4,6.2,58.4,12.7,88.3,15.7c60.7,6.1,121.8,2.1,182.3-4c62.5-6.3,124.8-14.7,187.6-17.8
				c63.4-3.2,125.7,1.3,188.4,10.7c117.7,17.6,240.6,45.9,357.1,6.5c14.1-4.8,27.8-10.5,41.2-16.9c1.7-0.8,0.2-3.4-1.5-2.6
				c-57.5,27.7-120.4,37.9-183.9,36.5c-61.7-1.4-122.7-12.3-183.5-21.9c-61-9.7-121.9-17.4-183.7-16.3c-62.7,1-125.1,8.6-187.4,15.4
				c-60.3,6.6-121,12.6-181.8,10c-31.3-1.3-62.4-5-93-11.7c-28.9-6.3-57.8-12.4-86.9-17.5c-69.5-12.2-143.6-21.7-212.4-0.5
				c-26.4,8.1-51.3,20.3-75.6,33.2c-31.6,16.8-62.7,34.4-94.6,50.7c-9.7,4.9-19.4,9.7-29.1,14.5C-2.5,195.9-1,198.5,0.8,197.7
				L0.8,197.7z"/>
		</g>
	</g>
	<g class="st27">
		<g>
			<path class="st18" d="M0.8,188.8c37-18.4,73.4-38.1,110.1-57.1c26.4-13.6,53.1-27,81.5-36c67.2-21.4,139-12.6,207.3-1.7
				c58.7,9.4,116.6,24,176.1,27.8c61,4,122.1-0.6,182.8-6.9c60.7-6.4,121.4-14.2,182.4-16.4c61.2-2.2,121.4,3.4,181.9,13.1
				c56.9,9.1,113.7,20.2,171.2,24.2c59.3,4.2,119.2-0.1,176-18.5c14.5-4.7,28.7-10.3,42.6-16.5c1.8-0.8,0.2-3.4-1.5-2.6
				c-58.3,26.1-120.9,37.2-184.6,36c-59.1-1.1-117.5-11.4-175.7-21.1c-58.5-9.8-117-18.2-176.4-18.2c-61.1,0-121.9,6.7-182.5,13.4
				c-59.9,6.6-120,12.9-180.3,12c-32.7-0.5-65.3-3.1-97.6-8.4c-29.9-4.9-59.5-11.5-89.4-16.7C354.3,82.9,278.9,70.3,208.3,88
				c-27.1,6.8-52.7,18-77.7,30.3C96.9,134.9,64,153.2,30.6,170.4C20.2,175.7,9.7,181-0.8,186.2C-2.5,187.1-1,189.7,0.8,188.8
				L0.8,188.8z"/>
		</g>
	</g>
	<g class="st26">
		<g>
			<path class="st18" d="M0.8,179.9c39.8-20.3,79.1-41.6,119.3-61.3c27.7-13.6,56.1-26.3,86.1-33.7c29.7-7.4,60.3-8.9,90.9-7.4
				c44.8,2.2,89.3,9.4,133.5,16.8c30.2,5,60.2,11.1,90.6,15.2c31,4.2,62.2,6.5,93.5,7c57.3,0.9,114.3-4.4,171.2-10.6
				c56.5-6.1,113.1-12.7,170-13.9c58.4-1.2,115.8,5.3,173.3,15c54.4,9.2,108.7,20,163.8,23.8c58.4,4,117-0.7,173.2-17.7
				c15.7-4.7,31.2-10.4,46.3-16.7c1.8-0.7,1-3.6-0.8-2.9c-58.2,24.3-120.1,36.3-183.1,35.7c-57.2-0.5-113.6-10.3-169.8-20.1
				c-55.3-9.6-110.7-18.9-166.9-20.1c-57.2-1.2-114.3,3.9-171.1,10c-56.6,6.1-113.1,12.8-170.1,14.2c-30.2,0.7-60.5,0-90.6-2.5
				c-33.6-2.8-66.6-8.6-99.8-14.4c-47-8.2-94.2-16.3-141.8-20.4c-31.3-2.7-62.9-3.2-94,2.1c-28.7,4.9-56,15-82.4,26.9
				c-36.8,16.6-72.3,36-108.1,54.5c-11.5,6-23,11.9-34.6,17.8C-2.5,178.2-1,180.8,0.8,179.9L0.8,179.9z"/>
		</g>
	</g>
	<g class="st25">
		<g>
			<path class="st18" d="M0.8,171.1c42.9-22.4,85.5-45.6,129.5-65.8c29-13.3,59-25.1,90.6-30.6c31.6-5.5,63.9-4.3,95.7-1.3
				c49.2,4.8,98.1,13.3,147,21.1c61.7,9.8,123.2,16.1,185.7,15c54-1,107.8-6.7,161.4-12.5c52.7-5.7,105.5-11,158.6-11.2
				c56-0.2,110.9,7,165.9,16.8c52.1,9.3,104.2,19.7,157.1,23.2c58.1,3.8,116.3-1.5,172.3-17.7c16.2-4.7,32.1-10.2,47.8-16.3
				c1.8-0.7,1-3.6-0.8-2.9c-58.9,23.1-121.1,35.5-184.4,35.2c-55.1-0.3-109.4-9.5-163.4-19.4c-52.9-9.6-106-19.3-159.8-21.4
				c-54-2.1-107.9,1.8-161.6,7.3c-52.5,5.4-104.9,11.9-157.6,14.6c-62.1,3.2-124.2,0.7-185.8-8.2C445.9,89.4,393.1,79.5,339.8,73
				c-33.5-4.1-67.6-7.1-101.3-3.7c-72.2,7.3-138.2,46.4-201.3,79.3c-12.7,6.6-25.3,13.2-38,19.9C-2.5,169.4-1,172,0.8,171.1
				L0.8,171.1z"/>
		</g>
	</g>
	<g class="st24">
		<g>
			<path class="st18" d="M0.8,162.2c46-24.5,92-49.7,139.9-70.2c30.5-13.1,62.2-23.7,95.4-26.8c33.9-3.2,68,0.6,101.5,5.1
				c52.9,7.1,105.6,16.4,158.5,23.2c60.9,7.8,122.3,10.7,183.6,8.2c50.4-2,100.4-7.7,150.5-12.9c50.1-5.2,100.3-9.3,150.7-8.9
				c53.8,0.5,106.5,8.4,159.3,18.3c50.1,9.4,100.1,19.5,151,22.8c58,3.7,116-2.2,172-17.7c16.6-4.6,33-10,49.2-16
				c1.8-0.7,1-3.6-0.8-2.9c-59.7,22-122.3,34.8-186.1,34.7c-52.8-0.1-104.9-8.8-156.7-18.5C1117.8,91,1066.7,81,1014.7,78
				c-51.5-3-103.3,0-154.6,4.8c-49.3,4.6-98.4,10.8-147.8,14.1c-58,3.9-116.2,3.5-174.1-1.8c-59.7-5.5-118.8-16-178-24.7
				c-35.1-5.1-70.8-10.4-106.4-9.4c-76.7,2.1-146.7,41.8-212.9,76.5c-13.9,7.3-27.7,14.6-41.6,22C-2.5,160.5-0.9,163.1,0.8,162.2
				L0.8,162.2z"/>
		</g>
	</g>
	<g class="st23">
		<g>
			<path class="st18" d="M0.8,153.3c49.5-26.8,99.3-54.4,151.8-75c31.7-12.4,64.5-21.2,98.6-21.8c36.1-0.7,72,5.7,107.5,11.3
				c58.3,9.2,116.6,18.1,175.5,23.1C592,95.7,650,96.6,708,93.3c46.9-2.7,93.6-8.1,140.4-12.7c47.8-4.6,95.7-7.6,143.8-6.5
				c51.4,1.2,102,9.8,152.3,19.7c48,9.5,96,19.2,144.9,22.3c58.1,3.6,116.2-2.8,172.5-17.7c17-4.5,33.8-9.8,50.4-15.6
				c1.8-0.6,1-3.5-0.8-2.9c-60.4,21-123.3,34.1-187.4,34.2c-51.3,0.1-101.9-8.1-152.1-17.9c-48.3-9.5-96.6-19.6-145.8-23.4
				c-49.7-3.9-99.9-1.8-149.6,2.3c-46.4,3.9-92.6,9.6-139.1,13.2c-54.6,4.2-109.4,5.2-164.2,2.3c-63.7-3.4-126.9-12.1-189.9-21.9
				c-37.9-5.9-76-13.3-114.4-14.9c-81.1-3.5-154.7,36-224.5,72.7c-15.2,8-30.3,16.1-45.4,24.3C-2.5,151.7-0.9,154.3,0.8,153.3
				L0.8,153.3z"/>
		</g>
	</g>
	<g class="st22">
		<g>
			<path class="st18" d="M0.8,144.5c51.4-28.4,103.6-57.4,158.9-77.8c31.9-11.8,64.9-19.3,99.1-18.3c35.5,1,70.7,8.7,105.7,14.7
				c58,9.9,116.4,17.1,175.1,21.2c58.4,4.1,117.1,4.8,175.6,1.5c45.3-2.5,90.4-7.5,135.6-11.7c46.4-4.3,93-7,139.6-6
				c51.1,1.1,101.1,9.6,151.1,19.9c47.4,9.8,94.9,19.8,143.3,23c58.8,3.8,117.5-2.7,174.6-17.1c17.9-4.5,35.6-9.8,53.2-15.6
				c1.8-0.6,1-3.5-0.8-2.9c-62.3,20.5-127,33.8-192.8,33.7c-50.7-0.1-100.5-8.4-150-18.5c-47.8-9.8-95.5-20.1-144.2-23.9
				c-48.4-3.7-97.3-1.9-145.6,1.9c-44.9,3.5-89.6,8.8-134.5,12.2c-54.6,4.1-109.4,5.1-164.2,2.7C516.1,80.8,452,74.2,388.5,64
				c-37.2-5.9-74.2-14.2-111.7-17.5c-31.7-2.9-62.8,0.2-93.3,9.1c-47.6,14-92.6,37.3-136.3,60.4c-16,8.5-32,17.2-47.9,25.9
				C-2.4,142.8-0.9,145.4,0.8,144.5L0.8,144.5z"/>
		</g>
	</g>
	<g class="st21">
		<g>
			<path class="st18" d="M0.8,135.6c53.2-29.8,107.4-60.1,165.1-80.3c32.2-11.2,65.4-17.6,99.6-15.1c34.5,2.6,68.4,11.4,102.3,17.7
				C426.3,68.7,485.5,74,544.8,77.3c58.7,3.3,117.6,3.8,176.3,0.6c44.1-2.4,87.9-6.9,131.9-10.7c45.1-3.9,90.3-6.2,135.6-5.3
				c50.5,1,99.9,9.4,149.2,19.9c46.6,10,93.2,20.4,140.8,23.8c60.3,4.3,120.6-2.5,179.3-16.8c18.3-4.5,36.5-9.6,54.5-15.2
				c1.8-0.6,1.1-3.5-0.8-2.9c-64.3,20.1-130.9,33.6-198.5,33.2c-50.1-0.3-99.2-8.8-148-19.3c-47-10.1-93.9-20.5-141.9-24.2
				c-47.6-3.6-95.8-1.9-143.4,1.5c-43.2,3.1-86.2,7.9-129.4,11c-54.8,3.9-109.6,4.9-164.5,3C521,74,455.7,69.6,391.5,59
				c-36.3-5.9-72.1-15-108.6-19.9c-31.3-4.2-62.1-2.6-92.6,5.5c-49.5,13.1-96,37.1-141,61c-16.8,8.9-33.5,18.1-50.1,27.4
				C-2.4,134-0.9,136.5,0.8,135.6L0.8,135.6z"/>
		</g>
	</g>
	<g class="st20">
		<g>
			<path class="st18" d="M0.8,126.7C55.6,95.6,111.9,63.8,172.1,44c32.5-10.7,65.9-16.1,100-11.9c33.3,4.1,65.8,14.1,98.7,20.6
				C429.3,64.3,489,67.6,548.6,70.1c59.4,2.5,118.9,2.8,178.3-0.1c42.9-2.1,85.6-6.2,128.3-9.5c43.9-3.4,87.8-5.3,131.8-4.4
				c50,1,98.6,9.1,147.2,20c45.8,10.2,91.4,20.9,138.3,24.5c61.4,4.7,122.9-2.3,182.7-16.1c19.2-4.4,38.2-9.6,57-15.2
				c1.8-0.5,1.1-3.4-0.8-2.9C1445.3,86,1376.7,99.7,1307.3,99c-49.5-0.5-97.9-9.2-146-20c-46.5-10.4-92.9-21-140.5-24.6
				c-46.3-3.4-93.2-1.9-139.5,1.1c-41.8,2.7-83.5,7-125.2,9.7c-54.9,3.6-109.8,4.6-164.8,3.3c-65.7-1.6-132.3-3.7-197.2-14.6
				C358.6,48,323.9,38,288.5,31.6c-30.8-5.5-61.4-5.1-91.9,2.3c-51.4,12.4-99.8,37.3-146.2,62c-17.2,9.2-34.2,18.6-51.2,28.3
				C-2.4,125.1-0.9,127.7,0.8,126.7L0.8,126.7z"/>
		</g>
	</g>
	<g class="st19">
		<g>
			<path class="st18" d="M0.8,117.9c56.5-32.5,114.9-65.7,177.5-85.2C211.2,22.4,244.9,18,279,24c31.9,5.6,62.7,16.6,94.3,23.3
				c57.9,12.4,117.5,13.4,176.5,15.2c60.7,1.8,121.4,1.9,182.1-0.9c42-1.9,83.8-5.4,125.7-8.2c42.4-2.8,84.8-4.3,127.3-3.4
				c49.3,1,97.2,8.7,145.1,19.9c45,10.5,89.9,21.5,136.1,25.4c62.6,5.3,125.3-1.9,186.5-15.4c20.1-4.5,40-9.6,59.8-15.2
				c1.9-0.5,1.1-3.4-0.8-2.9c-68.4,19.4-139.1,33.3-210.5,32.2c-49-0.8-96.8-9.7-144.3-20.9c-45.6-10.7-91.1-21.4-138-24.7
				c-45.3-3.2-91.2-2-136.5,0.5c-40.5,2.2-80.9,5.8-121.4,8.2c-55.1,3.2-110.3,4.2-165.4,3.4c-38.7-0.6-77.5-1.9-116.2-3.8
				c-28.1-1.4-56-3.4-83.8-8.1c-34.2-5.9-67-16.6-100.7-24.4c-30.4-7-60.7-7.9-91.3-1.3C150.3,34.3,100.2,60.1,52.6,85.5
				c-18,9.6-35.7,19.6-53.4,29.7C-2.4,116.2-0.9,118.8,0.8,117.9L0.8,117.9z"/>
		</g>
	</g>
	<g class="st0">
		<g>
			<path class="st18" d="M0.8,109c58.3-33.9,118.9-68.7,184-87.8c33.2-9.8,67-13.1,101-5.3c30.7,7,60.1,19.2,90.9,26.2
				c58.5,13.3,119.5,11.7,179.1,12.6c60.9,0.9,121.8,0.6,182.7-1.9c40.6-1.7,81.2-4.5,121.8-6.6c41.4-2.2,82.8-3.1,124.2-2.2
				c48.5,1,95.4,8.5,142.4,19.9c44.1,10.7,88,22,133.4,26.1c63.6,5.7,127.5-1.6,189.7-14.8c20.9-4.4,41.7-9.6,62.4-15.2
				c1.9-0.5,1.1-3.4-0.8-2.9c-70.4,19-143,33.2-216.2,31.7c-48.4-0.9-95.4-10.1-142.2-21.6c-44.8-11-89.5-21.7-135.6-25
				c-44.3-3.1-89.1-2.2-133.4-0.3c-39.1,1.6-78.1,4.5-117.1,6.5c-54.8,2.8-109.7,3.9-164.6,3.6c-39.5-0.2-79-0.9-118.5-2.1
				c-28.7-0.8-57.3-1.8-85.6-6.7c-33.3-5.7-64.6-17.3-97-26.5c-30-8.6-60-10.9-90.7-5C155.7,22.1,103.8,48.9,55,75.1
				C36.2,85.2,17.7,95.7-0.8,106.4C-2.4,107.4-0.9,110,0.8,109L0.8,109z"/>
		</g>
	</g>
</g>
</svg>
